<?xml version="1.0" encoding="UTF-8"?>
<svg width="24px" height="21px" viewBox="0 0 24 21" version="1.1" xmlns="http://www.w3.org/2000/svg" xmlns:xlink="http://www.w3.org/1999/xlink">
    <title>Icon/Book</title>
    <g id="Design" stroke="none" stroke-width="1" fill="none" fill-rule="evenodd">
        <g id="Slim-Home-R4" transform="translate(-229.000000, -2340.000000)" fill="#FFFFFF">
            <g id="Analyze" transform="translate(206.924291, 1988.098899)">
                <g id="Group-2" transform="translate(0.075709, 336.851271)">
                    <path d="M43.4036364,32.0511269 L39.3911005,32.0511269 C37.5333971,32.0511269 35.8978947,32.4619007 34.709378,33.1465238 L34.709378,20.0120952 C34.709378,19.1957145 36.5334928,18.0073122 39.3911005,18.0073122 L43.4036364,18.0073122 L43.4036364,32.0511269 Z M32.7018182,33.1465238 C31.5133014,32.4619007 29.8803828,32.0511269 28.0200957,32.0511269 L24.0075598,32.0511269 L24.0075598,18.0073122 L28.0200957,18.0073122 C30.8777033,18.0073122 32.7018182,19.1957145 32.7018182,20.0120952 L32.7018182,33.1465238 Z M44.072823,15.9999458 L39.3911005,15.9999458 C36.9339713,15.9999458 34.8644019,16.7155706 33.7043062,17.8393858 C32.5442105,16.7155706 30.4772249,15.9999458 28.0200957,15.9999458 L23.3383732,15.9999458 C22.5994258,15.9999458 22,16.6018973 22,17.3381901 L22,32.7202491 C22,33.4565418 22.5994258,34.0584934 23.3383732,34.0584934 L28.0200957,34.0584934 C29.8028708,34.0584934 31.7406699,34.8232044 32.4356938,35.5491632 C32.7509091,35.8772655 33.1875598,36.0632763 33.6422967,36.0632763 L33.774067,36.0632763 C34.2262201,36.0632763 34.6602871,35.8772655 34.9703349,35.5517467 C35.6653589,34.8257879 37.6031579,34.0584934 39.3911005,34.0584934 L44.072823,34.0584934 C44.8091866,34.0584934 45.4086124,33.4565418 45.4086124,32.7202491 L45.4086124,17.3381901 C45.4086124,16.6018973 44.8091866,15.9999458 44.072823,15.9999458 L44.072823,15.9999458 Z" id="Icon/Book"></path>
                </g>
            </g>
        </g>
    </g>
</svg>