<svg width="55" height="58" viewBox="0 0 55 58" fill="none" xmlns="http://www.w3.org/2000/svg">
<path fill-rule="evenodd" clip-rule="evenodd" d="M21.0832 45.0267C21.0832 50.5956 16.5687 55.11 10.9998 55.11C5.43097 55.11 0.916504 50.5956 0.916504 45.0267C0.916504 39.4578 5.43097 34.9434 10.9998 34.9434C16.5687 34.9434 21.0832 39.4578 21.0832 45.0267ZM15.5832 45.0267C15.5832 42.4954 13.5311 40.4434 10.9998 40.4434C8.46853 40.4434 6.4165 42.4954 6.4165 45.0267C6.4165 47.558 8.46853 49.61 10.9998 49.61C13.5311 49.61 15.5832 47.558 15.5832 45.0267Z" fill="#4CAF50"/>
<path fill-rule="evenodd" clip-rule="evenodd" d="M43.9998 1.94336C49.5687 1.94336 54.0832 6.45782 54.0832 12.0267C54.0832 17.5956 49.5687 22.11 43.9998 22.11C38.431 22.11 33.9165 17.5956 33.9165 12.0267C33.9165 6.45782 38.431 1.94336 43.9998 1.94336ZM43.9998 7.44336C41.4685 7.44336 39.4165 9.49539 39.4165 12.0267C39.4165 14.558 41.4685 16.61 43.9998 16.61C46.5311 16.61 48.5832 14.558 48.5832 12.0267C48.5832 9.49539 46.5311 7.44336 43.9998 7.44336Z" fill="#4CAF50"/>
<path d="M27.3902 46.97L37.4735 57.0533L41.3602 53.1667L35.9702 47.7767H44.9169C47.5911 47.7767 50.1559 46.7143 52.0468 44.8233C53.9378 42.9323 55.0002 40.3676 55.0002 37.6933V27.61H49.5002V37.6933C49.5002 40.2246 47.4482 42.2767 44.9169 42.2767H35.9702L41.3602 36.8867L37.4735 33L27.3902 43.0833C26.3179 44.157 26.3179 45.8963 27.3902 46.97Z" fill="#4CAF50"/>
<path d="M0 19.36V29.4433H5.5V19.36C5.5 16.8287 7.55203 14.7767 10.0833 14.7767H19.03L13.64 20.1667L17.5267 24.0533L27.61 13.97C28.6823 12.8963 28.6823 11.157 27.61 10.0833L17.5267 0L13.64 3.88667L19.03 9.27667H10.0833C4.51446 9.27667 0 13.7911 0 19.36Z" fill="#4CAF50"/>
</svg>
