<svg xmlns="http://www.w3.org/2000/svg" width="536.857" height="671.869" viewBox="0 0 536.857 671.869">
  <g id="Group_3278" data-name="Group 3278" transform="translate(-92 -2948)">
    <path id="Path_4221" data-name="Path 4221" d="M412.331,576.162H113.089a1.772,1.772,0,0,1-1.772-1.771V84.7a1.772,1.772,0,0,1,1.772-1.771H412.331A1.771,1.771,0,0,1,414.1,84.7V574.391a1.771,1.771,0,0,1-1.772,1.771" transform="translate(92 2948)" fill="#fff"/>
    <path id="Path_4222" data-name="Path 4222" d="M412.331,578.162H113.089a3.775,3.775,0,0,1-3.772-3.772V84.7a3.775,3.775,0,0,1,3.772-3.771H412.331A3.776,3.776,0,0,1,416.1,84.7V574.39a3.776,3.776,0,0,1-3.772,3.772m-299.014-4H412.1V84.928H113.317Z" transform="translate(92 2948)" fill="#373a36"/>
    <path id="Path_4223" data-name="Path 4223" d="M137.255,106.019a3.729,3.729,0,1,1-3.729-3.729,3.729,3.729,0,0,1,3.729,3.729" transform="translate(92 2948)" fill="#ff8d7e"/>
    <path id="Path_4224" data-name="Path 4224" d="M149.063,106.019a3.73,3.73,0,1,1-3.73-3.729,3.73,3.73,0,0,1,3.73,3.729" transform="translate(92 2948)" fill="#ff8d7e"/>
    <path id="Path_4225" data-name="Path 4225" d="M160.87,106.019a3.729,3.729,0,1,1-3.729-3.729,3.729,3.729,0,0,1,3.729,3.729" transform="translate(92 2948)" fill="#ff8d7e"/>
    <path id="Path_4226" data-name="Path 4226" d="M388.007,547.836H222.7a2.432,2.432,0,0,1-2.432-2.432V255.545a2.432,2.432,0,0,1,2.432-2.432h165.31a2.432,2.432,0,0,1,2.432,2.432V545.4a2.432,2.432,0,0,1-2.432,2.432" transform="translate(92 2948)" fill="#8ac9ed"/>
    <path id="Path_4227" data-name="Path 4227" d="M381.067,239.286l-58.979-27.61A2.267,2.267,0,0,1,321,208.662l43.533-92.993a2.267,2.267,0,0,1,3.014-1.091l58.978,27.61a2.265,2.265,0,0,1,1.092,3.013L384.08,238.194a2.266,2.266,0,0,1-3.013,1.092" transform="translate(92 2948)" fill="#ff8d7e"/>
    <path id="Path_4228" data-name="Path 4228" d="M61.482,288.08a3.747,3.747,0,0,1-2.667-1.106L47.29,275.45a3.773,3.773,0,0,1,0-5.335l11.524-11.524a3.779,3.779,0,0,1,5.334,0l11.525,11.526a3.772,3.772,0,0,1,0,5.334L64.149,286.974a3.744,3.744,0,0,1-2.667,1.106m.162-3.934h0ZM50.28,272.783l11.2,11.2,11.2-11.2-11.2-11.2Z" transform="translate(92 2948)" fill="#8ac9ed"/>
    <path id="Path_4229" data-name="Path 4229" d="M324.044,639.011l1.524-24.118a2.579,2.579,0,0,1,3.986-2l20.226,13.226a2.579,2.579,0,0,1-.257,4.465l-21.75,10.892a2.579,2.579,0,0,1-3.729-2.469" transform="translate(92 2948)" fill="#fff"/>
    <path id="Path_4230" data-name="Path 4230" d="M326.612,643.76a4.595,4.595,0,0,1-4.564-4.875l1.524-24.118a4.579,4.579,0,0,1,7.077-3.544l20.225,13.226a4.579,4.579,0,0,1-.456,7.927l-21.749,10.892a4.587,4.587,0,0,1-2.057.492m-.572-4.623a.561.561,0,0,0,.258.52.548.548,0,0,0,.579.035l21.75-10.892a.551.551,0,0,0,.319-.484.56.56,0,0,0-.261-.519l-20.226-13.226a.579.579,0,0,0-.9.448Z" transform="translate(92 2948)" fill="#ff8d7e"/>
    <path id="Path_4249" data-name="Path 4249" d="M60.509,49.487a8.4,8.4,0,1,1,5.038-1.68,8.4,8.4,0,0,1-5.038,1.68m-.02-12.814a4.412,4.412,0,1,0,3.534,1.763h0a4.378,4.378,0,0,0-2.9-1.718,4.612,4.612,0,0,0-.63-.044" transform="translate(92 2948)" fill="#ffda7e"/>
    <path id="Path_4250" data-name="Path 4250" d="M76.014,16.816a8.555,8.555,0,0,1-1.2-.085,8.386,8.386,0,1,1,1.2.085M75.991,4A4.407,4.407,0,1,0,79.522,5.76,4.38,4.38,0,0,0,75.991,4" transform="translate(92 2948)" fill="#ffda7e"/>
    <path id="Path_4251" data-name="Path 4251" d="M96.217,43.724a8.566,8.566,0,0,1-1.2-.085,8.388,8.388,0,1,1,1.2.085m-.023-12.817a4.407,4.407,0,1,0,3.531,1.761,4.38,4.38,0,0,0-3.531-1.761" transform="translate(92 2948)" fill="#ffda7e"/>
    <rect id="Rectangle_533" data-name="Rectangle 533" width="11.955" height="4" transform="translate(155.113 2976.887) rotate(-64.371)" fill="#ffda7e"/>
    <rect id="Rectangle_534" data-name="Rectangle 534" width="11.955" height="3.999" transform="matrix(0.986, -0.164, 0.164, 0.986, 164.283, 2986.029)" fill="#ffda7e"/>
    <path id="Path_4255" data-name="Path 4255" d="M434.4,336.543H373.517a3,3,0,0,1,0-6H434.4a3,3,0,0,1,0,6" transform="translate(92 2948)" fill="#ffda7e"/>
    <path id="Path_4256" data-name="Path 4256" d="M428.263,642.921a3,3,0,0,1-2.95-2.474L353.022,234.983a3,3,0,0,1,5.907-1.053L431.22,639.4a3,3,0,0,1-2.957,3.526" transform="translate(92 2948)" fill="#ffda7e"/>
    <path id="Path_4257" data-name="Path 4257" d="M489.9,642.922a3,3,0,0,1-2.95-2.476L415.132,236.7a3,3,0,0,1,5.908-1.05L492.854,639.4a3,3,0,0,1-2.428,3.479,3.085,3.085,0,0,1-.529.047" transform="translate(92 2948)" fill="#ffda7e"/>
    <path id="Path_4258" data-name="Path 4258" d="M422.659,270.52H364.334a3,3,0,0,1,0-6h58.325a3,3,0,1,1,0,6" transform="translate(92 2948)" fill="#ffda7e"/>
    <path id="Path_4259" data-name="Path 4259" d="M428.53,303.532H367.647a3,3,0,0,1,0-6H428.53a3,3,0,0,1,0,6" transform="translate(92 2948)" fill="#ffda7e"/>
    <path id="Path_4260" data-name="Path 4260" d="M440.225,369.554H380.111a3,3,0,0,1,0-6h60.114a3,3,0,0,1,0,6" transform="translate(92 2948)" fill="#ffda7e"/>
    <path id="Path_4261" data-name="Path 4261" d="M443.928,402.564H386.813a3,3,0,0,1,0-6h57.115a3,3,0,0,1,0,6" transform="translate(92 2948)" fill="#ffda7e"/>
    <path id="Path_4262" data-name="Path 4262" d="M458.049,468.586H397.075a3,3,0,0,1,0-6h60.974a3,3,0,0,1,0,6" transform="translate(92 2948)" fill="#ffda7e"/>
    <path id="Path_4263" data-name="Path 4263" d="M470.484,534.607H408.847a3,3,0,0,1,0-6h61.637a3,3,0,0,1,0,6" transform="translate(92 2948)" fill="#ffda7e"/>
    <path id="Path_4264" data-name="Path 4264" d="M463.76,501.6H403.109a3,3,0,0,1,0-6H463.76a3,3,0,0,1,0,6" transform="translate(92 2948)" fill="#ffda7e"/>
    <path id="Path_4265" data-name="Path 4265" d="M471.26,533.592H410.609a3,3,0,0,1,0-6H471.26a3,3,0,0,1,0,6" transform="translate(92 2948)" fill="#ffda7e"/>
    <path id="Path_4266" data-name="Path 4266" d="M475.181,565.586H418.108a3,3,0,0,1,0-6h57.073a3,3,0,0,1,0,6" transform="translate(92 2948)" fill="#ffda7e"/>
    <path id="Path_4267" data-name="Path 4267" d="M481.835,597.581H419.616a3,3,0,0,1,0-6h62.219a3,3,0,0,1,0,6" transform="translate(92 2948)" fill="#ffda7e"/>
    <path id="Path_4268" data-name="Path 4268" d="M452.017,435.575H391.19a3,3,0,0,1,0-6h60.827a3,3,0,0,1,0,6" transform="translate(92 2948)" fill="#ffda7e"/>
    <path id="Path_4269" data-name="Path 4269" d="M420.577,307.162a27.694,27.694,0,0,0-6.341-.935,9.021,9.021,0,0,0-5.543,1.579c-2.323,1.752-3.591,5.107-3.771,9.973-.711,19.256.338,57.931.555,65.487l.024.843.834.119c2.935.419,7.23,1.093,9.529,1.456l1.087.173.067-1.1c.5-8.063,3.032-48.613,3.8-55.122a1,1,0,0,1,1.53-.728c.181.114,18.286,11.49,33.3,12.225q.683.033,1.332.033c4.511,0,7.945-1.189,10.495-3.634,4.742-4.546,5.924-13.508,6.106-22.31-9.477-1.57-21.84-1.73-28.8-.628a.957.957,0,0,1-.107-.019c-.128-.047-13.176-4.721-24.106-7.414" transform="translate(92 2948)" fill="#8ac9ed"/>
    <path id="Path_4270" data-name="Path 4270" d="M440.593,276.1l0-.67c.008-2.746.1-5.259.285-7.468l.054-.662-.589-.306c-2.36-1.23-4.946-2.646-7.683-4.208l-.539-.308L411.885,276.1a.994.994,0,0,1-.516.17l-25.462,1.061v9.412l28.151.184Z" transform="translate(92 2948)" fill="#ff8d7e"/>
    <path id="Path_4271" data-name="Path 4271" d="M456.6,343.163c-.429,0-.865-.011-1.3-.031a45.573,45.573,0,0,1-8.385-1.289l-1.119-.272-7.526,77.253,10.71,1.424.2-.888c2.319-10.109,14.056-61.328,17.339-76.864l.424-2.01-1.843.906a19.193,19.193,0,0,1-8.5,1.771" transform="translate(92 2948)" fill="#8ac9ed"/>
    <path id="Path_4272" data-name="Path 4272" d="M473.1,327.575c.053-2.569.361-17.115.343-19.631-.013-2.05-.028-4.073,0-6.028a119.845,119.845,0,0,1,1.25-13.5c1.54-11.958,3.133-24.322-3.52-32.069l-.05-.058-.059-.05c-2.8-2.4-7.272-3.64-14.487-4.021-10.559-.559-19.8-3.161-23.53-6.627-2.989-2.777-22.491-18.767-28.4-23.6l-.791-.648-4.728,6.053.49.617c6.6,8.312,19.705,24.415,22.045,25.882.315.184.9.544,1.74,1.056,17.976,11.017,30.21,16.839,35.379,16.839a5.353,5.353,0,0,0,.981-.083.975.975,0,0,1,.185-.018,1,1,0,0,1,.984.817,1,1,0,0,1-.8,1.166,6.8,6.8,0,0,1-1.245.105c-3.075,0-8.011-1.632-14.671-4.851l-1.344-.65-.089,1.489c-.126,2.095-.182,4.456-.164,7.06a264.724,264.724,0,0,0,3.389,36.643,1,1,0,0,1-.985,1.167,1.025,1.025,0,0,1-.232-.04c6.319,2.474,10.747,19.872,28.309,12.98" transform="translate(92 2948)" fill="#ff8d7e"/>
    <path id="Path_4273" data-name="Path 4273" d="M393.963,221.474a12.632,12.632,0,0,1,3.279,3.111l.793.957,4.377-5.6-.323-.58a3.679,3.679,0,0,1-.379-2.495,19.667,19.667,0,0,1,.481-1.961c.832-3.05,1.67-6.45,1.066-8.2a2.33,2.33,0,0,0-2.07-1.816,1.657,1.657,0,0,0-.535.088c-.74.252-1.417,1.106-.889,2.684a1.582,1.582,0,0,1-.781,2.066,1.691,1.691,0,0,1-.692.143,2.64,2.64,0,0,1-2.2-1.417c-.617-1.1-5.185-7.221-6.442-8.842l-.093-.119-.123-.087a1.355,1.355,0,0,0-.8-.225,3.622,3.622,0,0,0-2.063.763,5.371,5.371,0,0,0-1.932,6.052c.054.184.133.476.236.85.931,3.407,2.3,8.135,3.446,9.851a16.5,16.5,0,0,0,5.644,4.778" transform="translate(92 2948)" fill="#fff"/>
    <path id="Path_4274" data-name="Path 4274" d="M369.034,285.057l1.038.951q.51-.02.974-.019c3.474,0,4.213.846,4.467,1.585.114.33.461,1.332-1.52,2.748l-.561.4.177.668a2.926,2.926,0,0,0,.94,1.47l.5.369.552-.293a6.675,6.675,0,0,0,2.574-3c.754-1.348,1.534-2.741,3.256-3,.6-.09,1.123-.149,1.577-.185l.919-.074v-9.336l-.9-.087c-1.466-.141-3.065-.4-4.869-.7a53.193,53.193,0,0,0-7.379-.856,3.545,3.545,0,0,0-2.61.672l-1.442,1.456,1.259.149" transform="translate(92 2948)" fill="#fff"/>
    <path id="Path_4275" data-name="Path 4275" d="M417.357,387.946l-.444-.07c-1.745-.279-7.709-1.224-11.158-1.71l-.521-.074-.356.389c-.867.947-2.533,1.074-4.048,1.074-.515,0-1.034-.016-1.562-.032-.684-.022-1.383-.044-2.1-.044-.528,0-1.064.012-1.613.044a7.343,7.343,0,0,0-5.594,3.414l-.839,1.286,1.516.248c7.975,1.3,22.194,3.608,27.817,4.436l1.061.156.082-1.069a14.647,14.647,0,0,0-2-7.669Z" transform="translate(92 2948)" fill="#fff"/>
    <path id="Path_4276" data-name="Path 4276" d="M449.486,422.3l-.475-.061c-1.994-.253-6.977-.9-10.344-1.367l-.535-.075-.356.406c-.723.824-2.011,1.192-4.177,1.192-.728,0-1.47-.039-2.231-.078-.919-.046-1.962-.1-3.028-.1q-.58,0-1.169.023a8.425,8.425,0,0,0-6.745,4.112l-.81,1.309,1.525.208c18.616,2.537,26.077,3.574,29.059,3.995l.932.132.188-.923a12.974,12.974,0,0,0-1.583-8.366Z" transform="translate(92 2948)" fill="#fff"/>
    <path id="Path_4277" data-name="Path 4277" d="M441.352,233.563l.4.267c1.417.948,5,1.957,8.853,1.957a18.211,18.211,0,0,0,7.6-1.539.967.967,0,0,1,.409-.09,1,1,0,0,1,.911.586,1,1,0,0,1-.495,1.324,20.218,20.218,0,0,1-8.451,1.739c-.463,0-.918-.015-1.368-.042l-1.155-.067.1,1.153a24.035,24.035,0,0,1-.994,9.092l-.334,1.081,1.113.2a70.973,70.973,0,0,0,8.738,1,52.767,52.767,0,0,1,6.4.687l1.914.336-.839-1.753a8.182,8.182,0,0,1-.806-3.084,48.012,48.012,0,0,1,3.13-18.784l.022-.056.014-.058a15.894,15.894,0,0,1,.578-1.834c.31-.78.713-1.564,1.1-2.323.889-1.728,1.809-3.517,1.614-5.335a4.592,4.592,0,0,0-4.483-3.726c-1.242,0-4.138.6-4.851,6.058-.085.006-.187.01-.306.01a6.642,6.642,0,0,1-.692-.038c0-.216,0-.472.006-.686.033-2.034.089-5.439-2.433-5.961a44.263,44.263,0,0,1-10.105-3.263l-.908-.445-.434.913a47.986,47.986,0,0,0-4.29,22.206Z" transform="translate(92 2948)" fill="#fff"/>
    <path id="Path_4278" data-name="Path 4278" d="M419.826,400.142a2.2,2.2,0,0,1-.255-.015c-4.571-.584-30.972-4.912-32.094-5.1a2,2,0,0,1-1.66-2.227,10.324,10.324,0,0,1,9.326-8.276c1.441-.088,2.794-.043,3.987-.005a13.927,13.927,0,0,0,3.246-.1,2,2,0,0,1,2.17-1.414c3.5.447,13.014,1.973,13.417,2.038a2,2,0,0,1,1.215.688c2.323,2.765,4.364,9.581,2.423,13.33a2,2,0,0,1-1.775,1.08m-29.26-8.658c6.082.992,21.834,3.555,27.8,4.434a13.606,13.606,0,0,0-1.847-7.054c-2.1-.335-7.8-1.236-11.14-1.708-1.4,1.526-4.01,1.439-6.38,1.366-1.161-.037-2.361-.076-3.618,0a6.276,6.276,0,0,0-4.817,2.963" transform="translate(92 2948)" fill="#373a36"/>
    <path id="Path_4279" data-name="Path 4279" d="M373.115,296.752A4.487,4.487,0,0,1,368.554,292a5.52,5.52,0,0,1,1.353-3.5,15.108,15.108,0,0,0-3.886.738,2,2,0,0,1-1.236-3.8c3.76-1.221,9.606-1.647,10.827,1.23.232.548.774,2.448-2,3.92a1.773,1.773,0,0,0-1.059,1.5.691.691,0,0,0,.23.606c.2.12.839.146,1.937-.5a7.025,7.025,0,0,0,2.324-2.734c.837-1.411,1.878-3.167,4.114-3.5a14.578,14.578,0,0,1,3.942-.194,2,2,0,1,1-.554,3.961,2.447,2.447,0,0,0-.438-.014,16.178,16.178,0,0,0-2.357.2c-.333.051-.7.634-1.267,1.588a10.752,10.752,0,0,1-3.728,4.137,7.162,7.162,0,0,1-3.641,1.127m-1.02-9.935Z" transform="translate(92 2948)" fill="#373a36"/>
    <path id="Path_4280" data-name="Path 4280" d="M363.913,281.59a2,2,0,0,1-1.6-3.191c3.978-5.363,9.17-4.787,14.191-4.226a32.261,32.261,0,0,0,7.934.211,2,2,0,0,1,.527,3.965,35.886,35.886,0,0,1-8.9-.2c-5.209-.578-8.044-.724-10.538,2.633a1.993,1.993,0,0,1-1.607.809" transform="translate(92 2948)" fill="#373a36"/>
    <path id="Path_4281" data-name="Path 4281" d="M397.844,229.306a2,2,0,0,1-1.629-.836,20.806,20.806,0,0,0-3.895-4.348,19.732,19.732,0,0,1-6.731-5.762c-1.364-2.045-2.71-6.573-3.847-10.731-.1-.351-.17-.627-.222-.8a8.325,8.325,0,0,1,4.061-9.929c2.37-1.208,4.862-.856,6.2.873.526.679,3.178,4.184,5.011,6.74a4.569,4.569,0,0,1,2.657-2.375c2.243-.763,5.247.237,6.406,3.589.883,2.555-.013,6.325-1.008,9.968-.173.634-.37,1.354-.4,1.593-.074.517-.074.517.416,1.17l.207.278a2,2,0,1,1-3.22,2.373l-.186-.25a4.867,4.867,0,0,1-1.176-4.136,20.1,20.1,0,0,1,.5-2.082c.533-1.949,1.64-6.007,1.087-7.607-.334-.967-.913-1.25-1.337-1.11-.616.21-.358,1.141-.263,1.421a2.571,2.571,0,0,1-1.326,3.3,3.387,3.387,0,0,1-4.17-1.7c-.573-1.025-5.057-7.037-6.359-8.717a2.1,2.1,0,0,0-1.707.534,4.394,4.394,0,0,0-1.553,4.958c.055.187.135.483.238.859.528,1.925,2.129,7.785,3.317,9.567a15.414,15.414,0,0,0,5.28,4.449c1.946,1.035,4.526,4.512,5.272,5.552a2,2,0,0,1-1.625,3.164" transform="translate(92 2948)" fill="#373a36"/>
    <path id="Path_4282" data-name="Path 4282" d="M451.428,435.086a2.03,2.03,0,0,1-.29-.021C446,434.312,418.276,430.54,418,430.5a2,2,0,0,1-1.709-2.271,11.459,11.459,0,0,1,10.526-8.986c1.628-.069,3.161.01,4.513.079,1.4.072,3.526.179,3.975-.143a1.944,1.944,0,0,1,2.192-1.472c3.915.573,12.446,1.655,12.532,1.666a2,2,0,0,1,1.3.727c2.659,3.287,4.019,9.946,1.857,13.936a2,2,0,0,1-1.758,1.048m-30.386-8.206c6.318.861,22.826,3.113,29.063,4a12.044,12.044,0,0,0-1.455-7.643c-2-.255-6.985-.9-10.357-1.37-1.529,1.745-4.493,1.593-7.17,1.455-1.266-.063-2.7-.137-4.145-.077a7.4,7.4,0,0,0-5.936,3.639" transform="translate(92 2948)" fill="#373a36"/>
    <path id="Path_4283" data-name="Path 4283" d="M450.34,238.808a22.425,22.425,0,0,1-9.864-2.13,3.914,3.914,0,0,1-2.3-2.549c-.337-2.026-.783-14.707,5.24-26.08a2,2,0,1,1,3.535,1.871A46.775,46.775,0,0,0,442.07,233c1.752,1.17,9.259,3.173,15.477.34a2,2,0,1,1,1.66,3.639,21.381,21.381,0,0,1-8.867,1.829m-8.214-5.336h0Z" transform="translate(92 2948)" fill="#373a36"/>
    <path id="Path_4284" data-name="Path 4284" d="M445.186,251.741a2,2,0,0,1-1.8-2.875,20.738,20.738,0,0,0,1.538-9.806,2,2,0,1,1,3.983-.361,24.443,24.443,0,0,1-1.924,11.917,2,2,0,0,1-1.8,1.125" transform="translate(92 2948)" fill="#373a36"/>
    <path id="Path_4285" data-name="Path 4285" d="M464.109,246.352c1.3-4.7,1.724-3.761,2.018-6.5,1.736-16.217,9.653-10.6,15.248-24.462,4.547-11.269-20.176-18.311-23-18.308s-.429-8.559-6.63-9.248c-7.054-.784-14.192,14.557-10.363,19.856,2.285,3.161,8.84,5.648,15.226,6.967,2.481.512,1.267,6.176,1.767,6.5.332.213,2.74.39,2.791-.136.83-8.551,7.1-5.746,7.409-2.89.239,2.234-1.627,4.6-2.652,7.183-2.517,6.352-2.4,23.166-1.816,21.044" transform="translate(92 2948)" fill="#373a36"/>
    <path id="Path_4286" data-name="Path 4286" d="M414.042,289.925h-.013l-29.345-.192a2,2,0,0,1-1.987-2V276.366a2,2,0,0,1,1.918-2l25.855-1.076,20.273-13.639a2,2,0,1,1,2.234,3.318l-20.743,13.955a2.009,2.009,0,0,1-1.033.339l-24.5,1.02v7.46l26.958.177,26.974-11a2,2,0,1,1,1.51,3.7L414.8,289.777a1.994,1.994,0,0,1-.754.148" transform="translate(92 2948)" fill="#373a36"/>
    <path id="Path_4287" data-name="Path 4287" d="M449.775,423.359a1.993,1.993,0,0,1-.266-.018l-12.57-1.671a2,2,0,0,1-1.727-2.177l7.723-79.273a2,2,0,0,1,3.981.389L439.38,417.96l8.851,1.176c2.623-11.433,17.014-74.237,18.125-80.787a2,2,0,0,1,3.944.668c-1.236,7.287-17.87,79.71-18.578,82.79a2,2,0,0,1-1.947,1.552" transform="translate(92 2948)" fill="#373a36"/>
    <path id="Path_4288" data-name="Path 4288" d="M458.65,274.777c-6.045,0-17.928-5.547-37.053-17.268-.8-.488-1.376-.843-1.691-1.027-3.136-1.829-19.053-21.77-23.857-27.839a2,2,0,0,1-.008-2.471l5.841-7.482a2,2,0,0,1,2.842-.318c1.083.884,26.555,21.708,30.123,25.021,3.151,2.926,12.053,5.323,21.647,5.83,12.3.65,18.069,3.863,20.585,11.459a2,2,0,1,1-3.8,1.258c-1.671-5.044-4.987-8.088-17-8.723-10.778-.568-20.261-3.274-24.158-6.892-2.975-2.764-22.594-18.849-28.35-23.561l-3.613,4.628c9.5,11.955,20,24.53,21.766,25.639.322.187.928.559,1.759,1.068,25.341,15.53,33.213,17.077,35.654,16.624a2,2,0,0,1,.738,3.932,7.8,7.8,0,0,1-1.429.122" transform="translate(92 2948)" fill="#373a36"/>
    <path id="Path_4289" data-name="Path 4289" d="M417.648,389.018c-.041,0-.083,0-.125,0a2,2,0,0,1-1.873-2.119c.125-2.045,3.089-50.162,3.941-57.377a2,2,0,0,1,3.059-1.454c.178.113,18.034,11.348,32.819,12.071,4.877.24,8.5-.847,11.085-3.324,5.814-5.575,5.729-17.928,5.654-28.826-.015-2.068-.029-4.109-.007-6.081a120.857,120.857,0,0,1,1.259-13.615c1.761-13.671,3.583-27.807-7-34.485a9.313,9.313,0,0,1-4.344-7.341,48.591,48.591,0,0,1,4.414-22.022,2,2,0,1,1,3.6,1.734,44.93,44.93,0,0,0-4.024,20.066,5.357,5.357,0,0,0,2.483,4.179c12.747,8.04,10.671,24.159,8.838,38.38a118.2,118.2,0,0,0-1.226,13.149c-.022,1.949-.008,3.965.006,6.007.085,12.279.173,24.975-6.885,31.743-3.371,3.232-8.1,4.713-14.049,4.432-12.4-.608-26.217-7.738-32.005-11.043-1.1,12.988-3.6,53.6-3.626,54.053a2,2,0,0,1-1.994,1.877" transform="translate(92 2948)" fill="#373a36"/>
    <path id="Path_4290" data-name="Path 4290" d="M404.291,386.99a2,2,0,0,1-2-1.938c-.014-.456-1.4-45.8-.6-67.384.214-5.812,1.884-9.936,4.962-12.257,4.177-3.15,9.894-2.276,14.408-1.162,7.786,1.919,16.625,4.827,21.23,6.4-1.505-10.126-3.871-30.744-2.492-44.121a2,2,0,0,1,3.979.41c-1.509,14.635,1.64,38.431,2.98,46.365a2,2,0,0,1-2.648,2.214c-.13-.046-13.139-4.7-24.006-7.384-3.655-.9-8.212-1.662-11.043.472-2.07,1.562-3.2,4.66-3.373,9.212-.792,21.445.59,66.658.6,67.112a2,2,0,0,1-1.937,2.061h-.063" transform="translate(92 2948)" fill="#373a36"/>
    <path id="Path_4291" data-name="Path 4291" d="M368.962,310.923a3,3,0,0,1-2.95-2.475l-8.1-45.441a3,3,0,1,1,5.907-1.053l8.1,45.442a3.007,3.007,0,0,1-2.957,3.527" transform="translate(92 2948)" fill="#ffda7e"/>
    <path id="Path_4292" data-name="Path 4292" d="M373.115,296.752A4.485,4.485,0,0,1,368.554,292a5.743,5.743,0,0,1,3.183-4.952,2,2,0,1,1,1.875,3.533,1.775,1.775,0,0,0-1.059,1.5.693.693,0,0,0,.23.607c.2.118.839.146,1.937-.5a7.035,7.035,0,0,0,2.324-2.735c.837-1.411,1.878-3.167,4.114-3.5a14.626,14.626,0,0,1,3.942-.194,2,2,0,1,1-.554,3.961,2.447,2.447,0,0,0-.438-.014,16.178,16.178,0,0,0-2.357.2c-.333.051-.7.634-1.267,1.588a10.745,10.745,0,0,1-3.728,4.137,7.152,7.152,0,0,1-3.641,1.127" transform="translate(92 2948)" fill="#373a36"/>
    <path id="Path_4293" data-name="Path 4293" d="M201.354,309.413a36.63,36.63,0,1,1-36.63-36.63,36.631,36.631,0,0,1,36.63,36.63" transform="translate(92 2948)" fill="#ffda7e"/>
    <path id="Path_4294" data-name="Path 4294" d="M201.354,404.469a36.63,36.63,0,1,1-36.63-36.63,36.631,36.631,0,0,1,36.63,36.63" transform="translate(92 2948)" fill="#ffda7e"/>
    <path id="Path_4296" data-name="Path 4296" d="M395.43,142.458a13.275,13.275,0,0,1,4.736,8.878,12.048,12.048,0,0,1-11.587,13.1,13.32,13.32,0,0,1-9.373-3.635,13.487,13.487,0,0,1-4.833-8.9,12.1,12.1,0,0,1,11.616-13.131,13.451,13.451,0,0,1,9.441,3.695m-5.974,40.817L358.779,172.3a3.246,3.246,0,0,1-.622-.28,3.392,3.392,0,0,1-.535-.382,2.317,2.317,0,0,1-.773-1.977,3.541,3.541,0,0,1,.933-2.21,2.264,2.264,0,0,1,1.312-.7,3.013,3.013,0,0,1,1.649.138L391.264,177.9a3.168,3.168,0,0,1,.639.3,3.632,3.632,0,0,1,.551.4,2.488,2.488,0,0,1,.883,1.923,3.124,3.124,0,0,1-.859,2.125,2.425,2.425,0,0,1-1.356.753,2.967,2.967,0,0,1-1.666-.12m1.531-35.794a6.27,6.27,0,0,0-4.319-1.776,5.184,5.184,0,0,0-3.9,1.9,5.065,5.065,0,0,0-1.364,4.052,6.326,6.326,0,0,0,2.306,4.053,6.172,6.172,0,0,0,4.252,1.749,5.1,5.1,0,0,0,3.84-1.862,5.188,5.188,0,0,0,1.361-4.085,6.054,6.054,0,0,0-2.175-4.029m-18.9,40.957a13.273,13.273,0,0,1,4.736,8.878,12.152,12.152,0,0,1-11.583,13.161,13.289,13.289,0,0,1-9.407-3.665,13.459,13.459,0,0,1-4.819-8.921,12.077,12.077,0,0,1,11.634-13.115,13.413,13.413,0,0,1,9.439,3.662m-4.533,5.124a6.38,6.38,0,0,0-4.288-1.81,4.993,4.993,0,0,0-3.842,1.831,5.046,5.046,0,0,0-1.377,4.07,6.373,6.373,0,0,0,2.319,4.034,6.167,6.167,0,0,0,4.253,1.748,5.087,5.087,0,0,0,3.839-1.86,5.013,5.013,0,0,0,1.333-4.019,6.2,6.2,0,0,0-2.237-3.994" transform="translate(92 2948)" fill="#fff"/>
    <g id="Group_2745" data-name="Group 2745" transform="translate(0 20)">
      <path id="Path_4231" data-name="Path 4231" d="M80.131,572.131a19.858,19.858,0,1,1-19.858-19.858,19.858,19.858,0,0,1,19.858,19.858" transform="translate(92 2948)" fill="#fff"/>
      <path id="Path_4232" data-name="Path 4232" d="M60.272,593.989A21.859,21.859,0,1,1,82.13,572.13a21.883,21.883,0,0,1-21.858,21.859m0-39.717A17.859,17.859,0,1,0,78.13,572.13a17.879,17.879,0,0,0-17.858-17.858" transform="translate(92 2948)" fill="#ff8d7e"/>
      <path id="Path_4233" data-name="Path 4233" d="M27.465,473.041a9.86,9.86,0,1,1-9.86-9.86,9.861,9.861,0,0,1,9.86,9.86" transform="translate(92 2948)" fill="#fff"/>
      <path id="Path_4234" data-name="Path 4234" d="M17.6,484.9a11.861,11.861,0,1,1,11.86-11.861A11.874,11.874,0,0,1,17.6,484.9m0-19.721a7.861,7.861,0,1,0,7.86,7.86,7.869,7.869,0,0,0-7.86-7.86" transform="translate(92 2948)" fill="#ff8d7e"/>
      <line id="Line_1294" data-name="Line 1294" x2="33.887" y2="103.945" transform="translate(100.489 3424.804)" fill="#fff"/>
      <path id="Path_4235" data-name="Path 4235" d="M42.376,582.75a2,2,0,0,1-1.9-1.381L6.587,477.424a2,2,0,0,1,3.8-1.24L44.278,580.129A2,2,0,0,1,43,582.65a1.966,1.966,0,0,1-.62.1" transform="translate(92 2948)" fill="#ff8d7e"/>
      <line id="Line_1295" data-name="Line 1295" x2="49.881" y2="91.334" transform="translate(118.89 3417.742)" fill="#fff"/>
      <path id="Path_4236" data-name="Path 4236" d="M76.773,563.076a2,2,0,0,1-1.757-1.041L25.135,470.7a2,2,0,0,1,3.511-1.918l49.881,91.334a2,2,0,0,1-1.754,2.959" transform="translate(92 2948)" fill="#ff8d7e"/>
      <path id="Path_4237" data-name="Path 4237" d="M17.6,482.9l111.387-8.508V459.744L17.6,463.18" transform="translate(92 2948)" fill="#fff"/>
      <path id="Path_4238" data-name="Path 4238" d="M17.6,484.9a2,2,0,0,1-.151-3.994l109.54-8.367V461.806L17.667,465.179a2,2,0,0,1-.125-4l111.388-3.436a1.944,1.944,0,0,1,1.453.563,2,2,0,0,1,.609,1.436v14.649a2,2,0,0,1-1.847,1.994L17.757,484.895c-.052,0-.1.006-.154.006" transform="translate(92 2948)" fill="#ff8d7e"/>
      <rect id="Rectangle_531" data-name="Rectangle 531" width="24.082" height="6.562" transform="translate(220.992 3411.18)" fill="#fff"/>
      <path id="Path_4239" data-name="Path 4239" d="M153.074,471.742H128.992a2,2,0,0,1-2-2v-6.561a2,2,0,0,1,2-2h24.082a2,2,0,0,1,2,2v6.561a2,2,0,0,1-2,2m-22.082-4h20.082V465.18H130.992Z" transform="translate(92 2948)" fill="#ff8d7e"/>
      <line id="Line_1296" data-name="Line 1296" y2="22.884" transform="translate(253.618 3423.276)" fill="#fff"/>
      <path id="Path_4240" data-name="Path 4240" d="M161.618,500.16a2,2,0,0,1-2-2V475.276a2,2,0,0,1,4,0V498.16a2,2,0,0,1-2,2" transform="translate(92 2948)" fill="#ff8d7e"/>
      <path id="Path_4241" data-name="Path 4241" d="M170.245,466.461a8.627,8.627,0,1,1-8.627-8.627,8.626,8.626,0,0,1,8.627,8.627" transform="translate(92 2948)" fill="#fff"/>
      <path id="Path_4242" data-name="Path 4242" d="M161.618,477.088a10.627,10.627,0,1,1,10.627-10.627,10.639,10.639,0,0,1-10.627,10.627m0-17.254a6.627,6.627,0,1,0,6.627,6.627,6.635,6.635,0,0,0-6.627-6.627" transform="translate(92 2948)" fill="#ff8d7e"/>
      <path id="Path_4243" data-name="Path 4243" d="M158.537,511.936l-6.52-6.521,6.32-6.32H164.9l6.319,6.32-6.52,6.521" transform="translate(92 2948)" fill="#fff"/>
      <path id="Path_4244" data-name="Path 4244" d="M164.7,513.936a2,2,0,0,1-1.414-3.414l5.1-5.107-4.32-4.32h-4.905l-4.32,4.32,5.106,5.107a2,2,0,0,1-2.828,2.828l-6.521-6.52a2,2,0,0,1,0-2.829l6.321-6.32a2,2,0,0,1,1.413-.586H164.9a2,2,0,0,1,1.415.586l6.32,6.32a2,2,0,0,1,0,2.829l-6.521,6.52a1.99,1.99,0,0,1-1.413.586" transform="translate(92 2948)" fill="#ff8d7e"/>
      <line id="Line_1297" data-name="Line 1297" y2="32.229" transform="translate(172.131 3520.131)" fill="#fff"/>
      <path id="Path_4245" data-name="Path 4245" d="M80.131,606.359a2,2,0,0,1-2-2V572.13a2,2,0,0,1,4,0v32.229a2,2,0,0,1-2,2" transform="translate(92 2948)" fill="#ff8d7e"/>
      <line id="Line_1298" data-name="Line 1298" x1="17.354" y2="32.229" transform="translate(115.061 3520.131)" fill="#fff"/>
      <path id="Path_4246" data-name="Path 4246" d="M23.059,606.359a2,2,0,0,1-1.759-2.948l17.354-32.229a2,2,0,0,1,3.522,1.9L24.822,605.307a2,2,0,0,1-1.763,1.052" transform="translate(92 2948)" fill="#ff8d7e"/>
      <rect id="Rectangle_532" data-name="Rectangle 532" width="92.129" height="45.51" transform="translate(94 3552.359)" fill="#fff"/>
      <path id="Path_4247" data-name="Path 4247" d="M94.129,651.869H2a2,2,0,0,1-2-2v-45.51a2,2,0,0,1,2-2H94.129a2,2,0,0,1,2,2v45.51a2,2,0,0,1-2,2M4,647.869H92.129v-41.51H4Z" transform="translate(92 2948)" fill="#ff8d7e"/>
      <line id="Line_1299" data-name="Line 1299" x2="62.179" transform="translate(94 3569.125)" fill="#fff"/>
      <path id="Path_4248" data-name="Path 4248" d="M64.179,623.125H2a2,2,0,0,1,0-4H64.179a2,2,0,0,1,0,4" transform="translate(92 2948)" fill="#ff8d7e"/>
      <path id="Path_4295" data-name="Path 4295" d="M198.248,546.251a36.63,36.63,0,1,1-36.63-36.63,36.631,36.631,0,0,1,36.63,36.63" transform="translate(92 2948)" fill="#ffda7e"/>
      <line id="Line_1300" data-name="Line 1300" x1="6.52" y1="6.521" transform="translate(244.018 3453.416)" fill="#fff"/>
      <path id="Path_4297" data-name="Path 4297" d="M158.537,513.936a1.99,1.99,0,0,1-1.414-.586l-6.521-6.52A2,2,0,1,1,153.431,504l6.52,6.521a2,2,0,0,1-1.414,3.414" transform="translate(92 2948)" fill="#ff8d7e"/>
      <path id="Path_4298" data-name="Path 4298" d="M163.345,544.3l6.695-2.927a2.322,2.322,0,0,1,.356-.132,1.139,1.139,0,0,1,.224-.026.512.512,0,0,1,.422.2,3.445,3.445,0,0,1,.4.883l.711,2.215a4.01,4.01,0,0,1,.158.54,2.033,2.033,0,0,1,.053.382.485.485,0,0,1-.2.4,1.412,1.412,0,0,1-.619.238l-7.118,1.529,4.851,5.482a1.667,1.667,0,0,1,.29.383.816.816,0,0,1,.105.382c0,.089-.079.207-.237.356a6.563,6.563,0,0,1-.633.514l-1.845,1.345a2.534,2.534,0,0,1-.553.355,1.113,1.113,0,0,1-.422.119.543.543,0,0,1-.343-.158,1.7,1.7,0,0,1-.343-.422l-3.69-6.274-3.664,6.274a1.564,1.564,0,0,1-.356.449.547.547,0,0,1-.33.131,1.025,1.025,0,0,1-.434-.145,4.458,4.458,0,0,1-.594-.382l-1.845-1.345a3.914,3.914,0,0,1-.62-.5.585.585,0,0,1-.2-.369.817.817,0,0,1,.1-.382,1.685,1.685,0,0,1,.29-.382l4.9-5.377-7.119-1.582a1.526,1.526,0,0,1-.645-.25.484.484,0,0,1-.224-.383,2.342,2.342,0,0,1,.053-.408,3.583,3.583,0,0,1,.158-.567l.764-2.162v-.053q.369-1.027.738-1.028a1.527,1.527,0,0,1,.659.158l6.59,3.032-.764-7.355v-.264a.712.712,0,0,1,.264-.645,2.241,2.241,0,0,1,1.08-.171h2.321a2.17,2.17,0,0,1,1.054.171.714.714,0,0,1,.263.645v.264Z" transform="translate(92 2948)" fill="#fff"/>
    </g>
    <path id="Path_4299" data-name="Path 4299" d="M129.8,239.847a1,1,0,0,1-1-1V130.891a1,1,0,1,1,2,0V238.847a1,1,0,0,1-1,1" transform="translate(92 2948)" fill="#8ac9ed"/>
    <path id="Path_4300" data-name="Path 4300" d="M148.091,239.847a1,1,0,0,1-1-1V130.891a1,1,0,0,1,2,0V238.847a1,1,0,0,1-1,1" transform="translate(92 2948)" fill="#8ac9ed"/>
    <path id="Path_4301" data-name="Path 4301" d="M166.385,239.847a1,1,0,0,1-1-1V130.891a1,1,0,0,1,2,0V238.847a1,1,0,0,1-1,1" transform="translate(92 2948)" fill="#8ac9ed"/>
    <path id="Path_4302" data-name="Path 4302" d="M184.68,239.847a1,1,0,0,1-1-1V130.891a1,1,0,0,1,2,0V238.847a1,1,0,0,1-1,1" transform="translate(92 2948)" fill="#8ac9ed"/>
    <path id="Path_4303" data-name="Path 4303" d="M202.449,239.847a1,1,0,0,1-1-1V130.891a1,1,0,0,1,2,0V238.847a1,1,0,0,1-1,1" transform="translate(92 2948)" fill="#8ac9ed"/>
    <path id="Path_4304" data-name="Path 4304" d="M220.218,239.847a1,1,0,0,1-1-1V130.891a1,1,0,0,1,2,0V238.847a1,1,0,0,1-1,1" transform="translate(92 2948)" fill="#8ac9ed"/>
    <path id="Path_4305" data-name="Path 4305" d="M237.988,239.847a1,1,0,0,1-1-1V130.891a1,1,0,0,1,2,0V238.847a1,1,0,0,1-1,1" transform="translate(92 2948)" fill="#8ac9ed"/>
    <path id="Path_4306" data-name="Path 4306" d="M255.757,239.847a1,1,0,0,1-1-1V130.891a1,1,0,1,1,2,0V238.847a1,1,0,0,1-1,1" transform="translate(92 2948)" fill="#8ac9ed"/>
    <path id="Path_4307" data-name="Path 4307" d="M273.526,239.847a1,1,0,0,1-1-1V130.891a1,1,0,1,1,2,0V238.847a1,1,0,0,1-1,1" transform="translate(92 2948)" fill="#8ac9ed"/>
    <path id="Path_4308" data-name="Path 4308" d="M291.3,239.847a1,1,0,0,1-1-1V130.891a1,1,0,1,1,2,0V238.847a1,1,0,0,1-1,1" transform="translate(92 2948)" fill="#8ac9ed"/>
    <path id="Path_4309" data-name="Path 4309" d="M291.294,131.891H129.8a1,1,0,0,1,0-2h161.5a1,1,0,0,1,0,2" transform="translate(92 2948)" fill="#8ac9ed"/>
    <path id="Path_4310" data-name="Path 4310" d="M291.294,150.184H129.8a1,1,0,0,1,0-2h161.5a1,1,0,0,1,0,2" transform="translate(92 2948)" fill="#8ac9ed"/>
    <path id="Path_4311" data-name="Path 4311" d="M291.294,168.117H129.8a1,1,0,1,1,0-2h161.5a1,1,0,0,1,0,2" transform="translate(92 2948)" fill="#8ac9ed"/>
    <path id="Path_4312" data-name="Path 4312" d="M291.294,186.05H129.8a1,1,0,0,1,0-2h161.5a1,1,0,0,1,0,2" transform="translate(92 2948)" fill="#8ac9ed"/>
    <path id="Path_4313" data-name="Path 4313" d="M291.294,203.982H129.8a1,1,0,1,1,0-2h161.5a1,1,0,0,1,0,2" transform="translate(92 2948)" fill="#8ac9ed"/>
    <path id="Path_4314" data-name="Path 4314" d="M291.294,221.914H129.8a1,1,0,1,1,0-2h161.5a1,1,0,0,1,0,2" transform="translate(92 2948)" fill="#8ac9ed"/>
    <path id="Path_4315" data-name="Path 4315" d="M291.294,239.847H129.8a1,1,0,0,1,0-2h161.5a1,1,0,1,1,0,2" transform="translate(92 2948)" fill="#8ac9ed"/>
    <path id="Path_4316" data-name="Path 4316" d="M291.294,221.914H129.8a1,1,0,1,1,0-2h161.5a1,1,0,0,1,0,2" transform="translate(92 2948)" fill="#8ac9ed"/>
    <g id="Group_2744" data-name="Group 2744" transform="translate(-1472.841 747.647) rotate(-31)">
      <path id="Path_5584" data-name="Path 5584" d="M522.765,106.192a2,2,0,0,1-1.93-1.481,23.875,23.875,0,0,0-30.329-16.58,2,2,0,1,1-1.212-3.812,27.878,27.878,0,0,1,35.4,19.352,2,2,0,0,1-1.412,2.452,2.039,2.039,0,0,1-.521.069" transform="translate(92 2948)" fill="#ffda7e"/>
      <path id="Path_5585" data-name="Path 5585" d="M513.169,109a2,2,0,0,1-1.937-1.508,13.891,13.891,0,0,0-17.887-9.777,2,2,0,0,1-1.265-3.795,17.894,17.894,0,0,1,23.029,12.588,2,2,0,0,1-1.94,2.492" transform="translate(92 2948)" fill="#ffda7e"/>
      <path id="Path_5586" data-name="Path 5586" d="M497.735,118.826a7.914,7.914,0,1,1,6.96-4.118,7.855,7.855,0,0,1-6.96,4.118m.02-11.83a3.918,3.918,0,1,0,1.872.48,3.918,3.918,0,0,0-1.872-.48m5.185,6.753h0Z" transform="translate(92 2948)" fill="#ffda7e"/>
    </g>
    <rect id="Rectangle_555" data-name="Rectangle 555" width="524.767" height="651.869" transform="translate(92 2948)" fill="none"/>
  </g>
</svg>
