<svg xmlns="http://www.w3.org/2000/svg" width="21" height="24" viewBox="0 0 21 24">
  <g id="Discord-Logo-Black" transform="translate(-35 -20)">
    <path id="Path_2881" data-name="Path 2881" d="M95.454,103.9a1.37,1.37,0,1,0,1.254,1.365A1.31,1.31,0,0,0,95.454,103.9Zm4.488,0a1.37,1.37,0,1,0,1.254,1.365A1.31,1.31,0,0,0,99.942,103.9Z" transform="translate(-52.18 -73.863)" fill="#373a36"/>
    <path id="Path_2882" data-name="Path 2882" d="M53.54,20H37.46A2.466,2.466,0,0,0,35,22.472V38.7a2.466,2.466,0,0,0,2.46,2.472H51.068l-.636-2.22,1.536,1.428L53.42,41.72,56,44V22.472A2.466,2.466,0,0,0,53.54,20ZM48.908,35.672s-.432-.516-.792-.972a3.787,3.787,0,0,0,2.172-1.428,6.867,6.867,0,0,1-1.38.708,7.9,7.9,0,0,1-1.74.516,8.406,8.406,0,0,1-3.108-.012,10.073,10.073,0,0,1-1.764-.516,7.031,7.031,0,0,1-.876-.408c-.036-.024-.072-.036-.108-.06a.166.166,0,0,1-.048-.036c-.216-.12-.336-.2-.336-.2a3.732,3.732,0,0,0,2.1,1.416c-.36.456-.8,1-.8,1a4.351,4.351,0,0,1-3.66-1.824,16.07,16.07,0,0,1,1.728-7,5.934,5.934,0,0,1,3.372-1.26l.12.144a8.1,8.1,0,0,0-3.156,1.572s.264-.144.708-.348A9.011,9.011,0,0,1,44.06,26.2a1.182,1.182,0,0,1,.2-.024,10.153,10.153,0,0,1,2.424-.024A9.782,9.782,0,0,1,50.3,27.308a7.986,7.986,0,0,0-2.988-1.524l.168-.192a5.934,5.934,0,0,1,3.372,1.26,16.07,16.07,0,0,1,1.728,7A4.386,4.386,0,0,1,48.908,35.672Z" transform="translate(0 0)" />
  </g>
</svg>





