<svg xmlns="http://www.w3.org/2000/svg" xmlns:xlink="http://www.w3.org/1999/xlink" width="302.154" height="230.134" viewBox="0 0 302.154 230.134">
  <defs>
    <clipPath id="clip-path">
      <rect id="Rectangle_383" data-name="Rectangle 383" width="259.154" height="191.134" transform="translate(-58 -43)" fill="#fff"/>
    </clipPath>
  </defs>
  <g id="Group_76" data-name="Group 76" transform="translate(0 82)">
    <g id="Group_483" data-name="Group 483" transform="translate(101 -39)" clip-path="url(#clip-path)">
      <path id="Path_1465" data-name="Path 1465" d="M72.446,148.135h-33.1A39.5,39.5,0,0,1,14.7,139.883,38.568,38.568,0,0,1,30.4,71.895a5.594,5.594,0,0,0,4.519-5.481q0-.372,0-.746a65.668,65.668,0,1,1,131.335,0c0,.262,0,.523-.005.783a5.542,5.542,0,0,0,4.482,5.435,38.568,38.568,0,0,1,15.732,68,39.5,39.5,0,0,1-24.641,8.252Z" transform="translate(0 -0.001)" fill="#fff"/>
      <path id="Path_1466" data-name="Path 1466" d="M93.476,191.135H50.762a50.966,50.966,0,0,1-31.794-10.647A49.764,49.764,0,0,1,39.219,92.764a7.218,7.218,0,0,0,5.83-7.072q-.005-.48-.006-.962a84.73,84.73,0,1,1,169.459,0c0,.338,0,.675-.007,1.011a7.15,7.15,0,0,0,5.783,7.013,49.764,49.764,0,0,1,20.3,87.735,50.967,50.967,0,0,1-31.794,10.647Z" transform="translate(-58.392 -43.001)" fill="#fff"/>
    </g>
    <g id="Group_2469" data-name="Group 2469">
      <path id="Path_21" data-name="Path 21" d="M72.446,148.135h-33.1A39.5,39.5,0,0,1,14.7,139.883,38.568,38.568,0,0,1,30.4,71.895a5.594,5.594,0,0,0,4.519-5.481q0-.372,0-.746a65.668,65.668,0,1,1,131.335,0c0,.262,0,.523-.005.783a5.542,5.542,0,0,0,4.482,5.435,38.568,38.568,0,0,1,15.732,68,39.5,39.5,0,0,1-24.641,8.252Z" transform="translate(0 -0.001)" fill="none"/>
      <path id="Path_1147" data-name="Path 1147" d="M72.446,148.135h-33.1A39.5,39.5,0,0,1,14.7,139.883,38.568,38.568,0,0,1,30.4,71.895a5.594,5.594,0,0,0,4.519-5.481q0-.372,0-.746a65.668,65.668,0,1,1,131.335,0c0,.262,0,.523-.005.783a5.542,5.542,0,0,0,4.482,5.435,38.568,38.568,0,0,1,15.732,68,39.5,39.5,0,0,1-24.641,8.252Z" transform="translate(0 -0.001)" fill="rgba(255,218,126,0.25)"/>
    </g>
  </g>
</svg>
