<svg xmlns="http://www.w3.org/2000/svg" xmlns:xlink="http://www.w3.org/1999/xlink" width="185.376" height="188.279" viewBox="0 0 185.376 188.279">
  <defs>
    <clipPath id="clip-path">
      <rect id="Rectangle_23" data-name="Rectangle 23" width="163.143" height="120.142" fill="#fff"/>
    </clipPath>
  </defs>
  <g id="Group_3279" data-name="Group 3279" transform="translate(-1388.379 -631.721)">
    <g id="Group_74" data-name="Group 74" transform="translate(1388.379 699.858)">
      <g id="Group_73" data-name="Group 73" clip-path="url(#clip-path)">
        <path id="Path_21" data-name="Path 21" d="M58.756,120.143H31.908a32.036,32.036,0,0,1-19.985-6.692A31.28,31.28,0,0,1,24.652,58.309a4.537,4.537,0,0,0,3.665-4.445q0-.3,0-.6a53.259,53.259,0,1,1,106.517,0c0,.213,0,.424,0,.635a4.494,4.494,0,0,0,3.635,4.408,31.28,31.28,0,0,1,12.76,55.148,32.037,32.037,0,0,1-19.985,6.692Z" transform="translate(0 -0.001)" fill="#fff"/>
        <path id="Path_1148" data-name="Path 1148" d="M58.756,120.143H31.908a32.036,32.036,0,0,1-19.985-6.692A31.28,31.28,0,0,1,24.652,58.309a4.537,4.537,0,0,0,3.665-4.445q0-.3,0-.6a53.259,53.259,0,1,1,106.517,0c0,.213,0,.424,0,.635a4.494,4.494,0,0,0,3.635,4.408,31.28,31.28,0,0,1,12.76,55.148,32.037,32.037,0,0,1-19.985,6.692Z" transform="translate(0 -0.001)" fill="#fff"/>
      </g>
    </g>
    <g id="Group_396" data-name="Group 396" transform="translate(1440.521 631.721)">
      <g id="Group_2470" data-name="Group 2470">
        <path id="Path_21-2" data-name="Path 21" d="M47.984,98.116H26.058A26.163,26.163,0,0,1,9.737,92.651a25.545,25.545,0,0,1,10.4-45.032,3.705,3.705,0,0,0,2.993-3.63q0-.246,0-.494a43.494,43.494,0,1,1,86.989,0c0,.174,0,.346,0,.519a3.67,3.67,0,0,0,2.968,3.6A25.545,25.545,0,0,1,123.5,92.651a26.163,26.163,0,0,1-16.321,5.465Z" transform="translate(0 -0.001)" fill="#fff"/>
        <path id="Path_2883" data-name="Path 2883" d="M47.984,98.116H26.058A26.163,26.163,0,0,1,9.737,92.651a25.545,25.545,0,0,1,10.4-45.032,3.705,3.705,0,0,0,2.993-3.63q0-.246,0-.494a43.494,43.494,0,1,1,86.989,0c0,.174,0,.346,0,.519a3.67,3.67,0,0,0,2.968,3.6A25.545,25.545,0,0,1,123.5,92.651a26.163,26.163,0,0,1-16.321,5.465Z" transform="translate(0 -0.001)" fill="rgba(138,201,237,0.25)"/>
      </g>
    </g>
  </g>
</svg>
