<svg xmlns="http://www.w3.org/2000/svg" xmlns:xlink="http://www.w3.org/1999/xlink" width="479.731" height="513.715" viewBox="0 0 479.731 513.715">
  <defs>
    <clipPath id="clip-path">
      <rect id="Rectangle_537" data-name="Rectangle 537" width="262.34" height="277.929" fill="none"/>
    </clipPath>
  </defs>
  <g id="Group_3278" data-name="Group 3278" transform="translate(-831.019 -2507.944)">
    <g id="Group_1897" data-name="Group 1897" transform="translate(1113 2507.944)">
      <g id="Group_1896" data-name="Group 1896">
        <path id="Path_2456" data-name="Path 2456" d="M3288.658,539.961a15.575,15.575,0,1,1,15.576-15.576A15.593,15.593,0,0,1,3288.658,539.961Zm0-25.2a9.62,9.62,0,1,0,9.622,9.62A9.63,9.63,0,0,0,3288.658,514.766Z" transform="translate(-3273.083 -508.811)" fill="#ffda7e"/>
      </g>
    </g>
    <g id="Group_2568" data-name="Group 2568" transform="translate(13003.285 3636.232)">
      <path id="Path_3297" data-name="Path 3297" d="M170.535,695.59a5.69,5.69,0,1,1,4.436,9.253" transform="translate(-11932.74 -1699.689)" fill="none" stroke="#8ac9ed" stroke-linecap="round" stroke-linejoin="round" stroke-width="4"/>
      <path id="Path_3298" data-name="Path 3298" d="M187.854,695.59a5.69,5.69,0,1,1,4.436,9.253" transform="translate(-11932.808 -1699.689)" fill="none" stroke="#8ac9ed" stroke-linecap="round" stroke-linejoin="round" stroke-width="4"/>
      <path id="Path_3299" data-name="Path 3299" d="M205.173,695.59a5.69,5.69,0,1,1,4.436,9.253" transform="translate(-11932.875 -1699.689)" fill="none" stroke="#8ac9ed" stroke-linecap="round" stroke-linejoin="round" stroke-width="4"/>
      <path id="Path_3300" data-name="Path 3300" d="M222.492,695.59a5.69,5.69,0,1,1,4.436,9.253" transform="translate(-11932.942 -1699.689)" fill="none" stroke="#8ac9ed" stroke-linecap="round" stroke-linejoin="round" stroke-width="4"/>
      <rect id="Rectangle_487" data-name="Rectangle 487" width="71.526" height="81.782" transform="translate(-11766.062 -999.539)" fill="none" stroke="#8ac9ed" stroke-linecap="round" stroke-linejoin="round" stroke-width="4"/>
      <line id="Line_1099" data-name="Line 1099" x2="54.059" transform="translate(-11757.327 -976.601)" fill="none" stroke="#8ac9ed" stroke-linecap="round" stroke-linejoin="round" stroke-width="4"/>
      <line id="Line_1100" data-name="Line 1100" x2="54.059" transform="translate(-11757.327 -968.024)" fill="none" stroke="#8ac9ed" stroke-linecap="round" stroke-linejoin="round" stroke-width="4"/>
      <line id="Line_1101" data-name="Line 1101" x2="54.059" transform="translate(-11757.327 -959.447)" fill="none" stroke="#8ac9ed" stroke-linecap="round" stroke-linejoin="round" stroke-width="4"/>
      <line id="Line_1102" data-name="Line 1102" x2="54.059" transform="translate(-11757.327 -950.87)" fill="none" stroke="#8ac9ed" stroke-linecap="round" stroke-linejoin="round" stroke-width="4"/>
      <line id="Line_1103" data-name="Line 1103" x2="54.059" transform="translate(-11757.327 -942.294)" fill="none" stroke="#8ac9ed" stroke-linecap="round" stroke-linejoin="round" stroke-width="4"/>
      <line id="Line_1104" data-name="Line 1104" x2="54.059" transform="translate(-11757.327 -933.717)" fill="none" stroke="#8ac9ed" stroke-linecap="round" stroke-linejoin="round" stroke-width="4"/>
    </g>
    <g id="Group_2311" data-name="Group 2311" transform="matrix(0.545, -0.839, 0.839, 0.545, 1098.331, 2958.969)">
      <g id="Group_2310" data-name="Group 2310">
        <path id="Path_2630" data-name="Path 2630" d="M750.071,678.83c-12.307,0-24.147-2.181-33.614-6.639A43.243,43.243,0,0,1,700,659.259a35.164,35.164,0,0,1-13.346,1.179c-29.536-2.784-63.776-37.105-93.946-94.164a1.739,1.739,0,0,1,3.076-1.624c29.611,56,62.851,89.653,91.2,92.326a32.167,32.167,0,0,0,10.962-.767,36.4,36.4,0,0,1-4.483-11.539c-1.551-7.538,1.207-13.746,7.378-16.606,6.156-2.853,13.767-1.532,17.326,3.008,2.081,2.652,4.431,8.531-3.224,18.108a29.734,29.734,0,0,1-11.49,8.828,40.3,40.3,0,0,0,14.486,11.037c20.786,9.788,53.61,8.079,76.351-3.977a1.738,1.738,0,0,1,1.628,3.073C782.611,675.2,765.953,678.83,750.071,678.83Zm-42.393-48.763a12.877,12.877,0,0,0-5.375,1.151c-2.747,1.273-7.107,4.624-5.434,12.751a32.826,32.826,0,0,0,4.493,11.129,26.263,26.263,0,0,0,10.864-8.089c4.563-5.71,5.7-10.607,3.2-13.791C713.833,631.182,710.832,630.067,707.678,630.067Z" transform="translate(-592.511 -563.725)" fill="#8ac9ed"/>
      </g>
    </g>
    <g id="Group_2550" data-name="Group 2550" transform="translate(12410 4367)">
      <rect id="Rectangle_460" data-name="Rectangle 460" width="29.861" height="29.861" transform="translate(-11576.981 -1759.854)" fill="none" stroke="#ff8d7e" stroke-linecap="round" stroke-linejoin="round" stroke-width="4"/>
      <rect id="Rectangle_461" data-name="Rectangle 461" width="29.861" height="29.861" transform="translate(-11530.5 -1759.854)" fill="none" stroke="#ff8d7e" stroke-linecap="round" stroke-linejoin="round" stroke-width="4"/>
      <rect id="Rectangle_462" data-name="Rectangle 462" width="29.86" height="29.861" transform="translate(-11484.019 -1759.854)" fill="none" stroke="#ff8d7e" stroke-linecap="round" stroke-linejoin="round" stroke-width="4"/>
      <line id="Line_1024" data-name="Line 1024" y1="13.678" x2="13.678" transform="translate(-11475.928 -1751.763)" fill="none" stroke="#ff8d7e" stroke-linecap="round" stroke-linejoin="round" stroke-width="4"/>
      <path id="Path_3218" data-name="Path 3218" d="M355.53,379.991a1.386,1.386,0,1,1-1.387-1.387,1.387,1.387,0,0,1,1.387,1.387" transform="translate(-11869.713 -2130.482)" fill="#ff8d7e" stroke="#ff8d7e" stroke-width="1"/>
      <path id="Path_3219" data-name="Path 3219" d="M355.53,395.713a1.386,1.386,0,1,1-1.387-1.386,1.387,1.387,0,0,1,1.387,1.386" transform="translate(-11869.713 -2135.069)" fill="#ff8d7e" stroke="#ff8d7e" stroke-width="1"/>
      <path id="Path_3220" data-name="Path 3220" d="M283.719,377.684l7.606,7.606-7.606,7.607" transform="translate(-11849.574 -2130.214)" fill="none" stroke="#ff8d7e" stroke-linecap="round" stroke-linejoin="round" stroke-width="4"/>
      <path id="Path_3221" data-name="Path 3221" d="M289.089,352.085V334.024h92.963v18.061" transform="translate(-11851.141 -2117.478)" fill="none" stroke="#ff8d7e" stroke-linecap="round" stroke-linejoin="round" stroke-width="4"/>
      <line id="Line_1025" data-name="Line 1025" y1="18.061" transform="translate(-11516.956 -1783.454)" fill="none" stroke="#ff8d7e" stroke-linecap="round" stroke-linejoin="round" stroke-width="4"/>
      <path id="Path_3222" data-name="Path 3222" d="M367.246,272.185a25.6,25.6,0,0,0,.467-4.866,25.129,25.129,0,0,0-.545-5.248h-5.341a19.454,19.454,0,0,0-2.189-5.157l3.768-3.768a25.7,25.7,0,0,0-7.189-7.1l-3.775,3.775a19.759,19.759,0,0,0-5.1-2.1v-5.319a25.676,25.676,0,0,0-10.114,0v5.319a19.821,19.821,0,0,0-5.107,2.1l-3.775-3.775a25.8,25.8,0,0,0-7.189,7.1l3.768,3.768a19.476,19.476,0,0,0-2.189,5.157H317.4a25.08,25.08,0,0,0-.546,5.248,25.6,25.6,0,0,0,.467,4.866h5.319a19.445,19.445,0,0,0,2.146,5.291l-3.775,3.775a25.456,25.456,0,0,0,7.111,7.188l3.761-3.76a19.737,19.737,0,0,0,5.348,2.245v5.319a25.674,25.674,0,0,0,10.114,0v-5.319a19.913,19.913,0,0,0,5.341-2.245l3.761,3.76a25.467,25.467,0,0,0,7.112-7.188l-3.775-3.775a19.467,19.467,0,0,0,2.145-5.291Zm-18.366,0a8.254,8.254,0,0,1-5.44,3.251,8.782,8.782,0,0,1-1.155.077,7.855,7.855,0,0,1-1.161-.084,8.019,8.019,0,0,1-3.9-1.657,8.168,8.168,0,0,1-3.1-5.639,7.91,7.91,0,0,1,.042-1.975,8.177,8.177,0,0,1,1.813-4.087,8.312,8.312,0,0,1,1.247-1.2,8.131,8.131,0,0,1,4.242-1.7,7.95,7.95,0,0,1,.815-.042,7.7,7.7,0,0,1,.807.042,8.091,8.091,0,0,1,4.25,1.707,8.129,8.129,0,0,1,3.053,5.285,7.95,7.95,0,0,1,.042,1.975A8.092,8.092,0,0,1,348.88,272.185Z" transform="translate(-11859.238 -2090.602)" fill="none" stroke="#ff8d7e" stroke-linecap="round" stroke-linejoin="round" stroke-width="4"/>
    </g>
    <g id="Group_2664" data-name="Group 2664" transform="translate(865.059 2909.129)">
      <g id="Group_2086" data-name="Group 2086">
        <path id="Path_2546" data-name="Path 2546" d="M1362.347,292.731a5.421,5.421,0,0,1-3.848-1.59l-11.952-11.952a5.448,5.448,0,0,1,0-7.7l11.952-11.952a5.571,5.571,0,0,1,7.7,0l11.951,11.952a5.439,5.439,0,0,1,0,7.7l-11.952,11.952A5.42,5.42,0,0,1,1362.347,292.731Zm.208-5.648h0Zm-11.743-11.743,11.535,11.535,11.535-11.535L1362.347,263.8Z" transform="translate(-1344.955 -257.998)" fill="#8ac9ed"/>
      </g>
    </g>
    <g id="Group_2674" data-name="Group 2674" transform="translate(929 2613.008)">
      <g id="Group_2674-2" data-name="Group 2674" clip-path="url(#clip-path)">
        <path id="Path_4318" data-name="Path 4318" d="M157.956,264.568a122.593,122.593,0,1,1,96.253-144.2,122.591,122.591,0,0,1-96.253,144.2" transform="translate(5.739 10.97)" fill="#ffda7e"/>
        <path id="Path_4319" data-name="Path 4319" d="M252.654,169.014H3.215A3.214,3.214,0,0,1,0,165.8V152.564a3.214,3.214,0,0,1,3.215-3.213h249.44a3.214,3.214,0,0,1,3.213,3.213V165.8a3.215,3.215,0,0,1-3.213,3.214" transform="translate(0 73.411)" fill="#373a36"/>
        <path id="Path_4320" data-name="Path 4320" d="M42.186,149.39l1.386-.327c19.532-4.589,117.39-27.539,125.6-28.682a20.992,20.992,0,0,1,2.891-.2c8.718,0,14.637,5.085,15.836,13.6.81,5.746-.268,10.459-3.2,14.011a16.263,16.263,0,0,1-6.619,4.641l-.147.059-8.4,1.4c-8.909.6-36.913,2.674-81.133,6.021-19.246,1.458-35.912,2.73-42.391,3.225l-1.357.1Z" transform="translate(21.301 60.681)" fill="#8ac9ed"/>
        <path id="Path_4321" data-name="Path 4321" d="M185.826,133.486c.748,5.311-.22,9.63-2.873,12.84a14.768,14.768,0,0,1-6.011,4.2L168.7,151.9c-11.076.734-49.434,3.616-81,6.006-.021,0-.042,0-.063,0-19.185,1.452-35.85,2.724-42.329,3.219l-1.22-6.873-.751-4.236C61.322,145.8,160.657,122.5,168.8,121.366c6.93-.965,15.552,1.627,17.028,12.121" transform="translate(21.881 61.186)" fill="#8ac9ed"/>
        <path id="Path_4322" data-name="Path 4322" d="M103.792,95.181c-4.674,0-8.039-1.183-10-3.519-2.56-3.05-1.977-7.231-1.835-8.038a1.509,1.509,0,0,0-.006-.539l-.134-.686.441-.545c2.134-2.641,3.124-6.89,4.081-10.995.295-1.273.579-2.482.877-3.561l.227-.831.834-.224A26.927,26.927,0,0,0,107.1,61.96a1.5,1.5,0,0,0,.337-2.1,1.515,1.515,0,0,0-1.222-.625,1.483,1.483,0,0,0-.876.286A21.72,21.72,0,0,1,92.93,63.975a14.593,14.593,0,0,1-2.951-.3,8.754,8.754,0,0,1-5.75-3.517l-.132-.206-.06-.238c-.989-3.934,2.37-23.313,2.756-25.508l.117-.661.57-.355a23.421,23.421,0,0,0,7.4-7.406l1.01-1.555L97.2,25.541c6.574,6.54,17.4,12.935,25.341,16.738l1.506.721-.873,1.424a33.043,33.043,0,0,0-4.6,12.849c-.573,5.883.179,15.269,2.7,21.076l.548,1.261-1.205.661a1.524,1.524,0,0,0-.745.953c-.151.57-3.789,13.958-16.077,13.958" transform="translate(42.34 12.236)" fill="#fff"/>
        <path id="Path_4323" data-name="Path 4323" d="M121.385,42.839a34.581,34.581,0,0,0-4.816,13.489c-.631,6.462.286,16,2.82,21.824a3.031,3.031,0,0,0-1.481,1.893c-.135.522-3.478,12.834-14.619,12.834-4.209,0-7.186-1-8.844-2.98-2.131-2.54-1.63-6.119-1.508-6.81A2.959,2.959,0,0,0,92.927,82c2.336-2.889,3.376-7.3,4.376-11.6.29-1.252.57-2.439.862-3.5a28.608,28.608,0,0,0,9.315-4.519,3.009,3.009,0,1,0-3.528-4.876c-4.676,3.383-9.842,4.8-14.172,3.9a7.368,7.368,0,0,1-4.79-2.856c-.611-2.432.871-14.03,2.78-24.879a24.894,24.894,0,0,0,7.862-7.862c6.644,6.611,17.489,13.07,25.752,17.028" transform="translate(42.844 13.033)" fill="#fff"/>
        <path id="Path_4324" data-name="Path 4324" d="M140.717,126.608l1.625-.412c19.5-4.969,20.184-6.912,20.444-7.644a1.8,1.8,0,0,0-.256-1.69c-5.987-7.94-16.2-25.93-16.306-26.109a1.512,1.512,0,0,0-1.312-.761,1.493,1.493,0,0,0-.74.2,1.508,1.508,0,0,0-.566,2.053c.349.614,8.634,15.2,14.736,23.963l1.1,1.573-1.788.691c-3.224,1.246-9.771,3.195-16.685,4.968l-1.309.334-8.521-22.8a1.513,1.513,0,0,0-1.41-.978H59.891l1.147-2.2c5.365-10.3,15.028-28.3,17.21-30.479,2.394-2.239,11.893-2.82,16.586-2.82,1.783,0,3.367.069,4.706.206l1.329.137.021,1.336a12.329,12.329,0,0,0,2.7,7.756c2.557,3.049,6.7,4.593,12.3,4.593,9.612,0,15.772-7.311,18.335-14.149l.355-.951s2.6-.074,3.428-.1c1.753-.062,3.616-.126,5.478-.126,5.052,0,11.249.43,14.366,3.8,5.09,5.493,32.341,52.067,32.637,58.5.009,7.559-16.464,12.574-26.285,14.9-4.786,1.13-10.145,2.154-15.928,3.038l-1.208.185Z" transform="translate(30.24 31.906)" fill="#ff8d7e"/>
        <path id="Path_4325" data-name="Path 4325" d="M78.479,67.872c2.014-1.881,13.865-2.82,20.074-2.181a13.751,13.751,0,0,0,3.052,8.7c2.856,3.4,7.383,5.13,13.456,5.13,11.237,0,17.418-8.918,19.743-15.128.783-.02,1.6-.048,2.427-.077,6.792-.238,15.243-.531,18.685,3.189,5.485,5.92,31.983,51.977,32.24,57.544,0,4.646-9.389,9.641-25.128,13.362-5.564,1.315-11.151,2.3-15.809,3.016l-5.336-14.279c20.255-5.162,21-7.218,21.49-8.6a3.3,3.3,0,0,0-.473-3.1c-5.925-7.856-16.1-25.764-16.2-25.943a3.01,3.01,0,1,0-5.237,2.969c.384.679,8.674,15.272,14.81,24.082-3.4,1.315-10.128,3.275-16.515,4.912l-8.048-21.532a3.008,3.008,0,0,0-2.819-1.956H61.54c7.392-14.187,15.246-28.422,16.939-30.109" transform="translate(31.073 32.411)" fill="#ff8d7e"/>
        <path id="Path_4326" data-name="Path 4326" d="M28.088,94.611a8.929,8.929,0,0,0-4.354-3.178,8.363,8.363,0,0,1-2.42-1.308,30.551,30.551,0,0,1-5.656-6.616c-4.09-5.953,1.825-15.406,3.4-16.983,2.224-2.226-.34-6.336-4.2-11.9-.692-.995-1.233-1.777-1.6-2.379a3.008,3.008,0,0,1,.591-3.987A2.012,2.012,0,0,1,15.01,47.9a4.352,4.352,0,0,1,2.959,1.822c.486.582,1.148,1.362,1.94,2.294,17.152,20.195,17.636,22.938,17.818,23.97l.015.077,0,.078a21.089,21.089,0,0,0,2.406,9.3l.593,1.112L29.018,95.812Z" transform="translate(6.442 24.183)" fill="#fff"/>
        <path id="Path_4327" data-name="Path 4327" d="M21.749,88.442A29.19,29.19,0,0,1,16.4,82.151c-3.327-4.841,1.576-13.416,3.227-15.066,3.287-3.287-.433-8.643-4.033-13.821-.625-.9-1.183-1.7-1.561-2.312a1.507,1.507,0,0,1,.191-1.973c.473-.333,1.389.358,2.093,1.2.5.6,1.2,1.425,2.036,2.411,11.147,13.123,17,20.929,17.394,23.15a22.544,22.544,0,0,0,2.579,9.908l-9.549,7.537a10.454,10.454,0,0,0-4.987-3.655,6.923,6.923,0,0,1-2.038-1.087" transform="translate(6.946 24.688)" fill="#fff"/>
        <path id="Path_4328" data-name="Path 4328" d="M66.5,129.807A17.12,17.12,0,0,1,54.17,124.12c-4.51-5.038-23.111-30.616-28.7-38.335l-.847-1.169,11.957-9.439,28.049,32.476,7.743,20.723-1.329.561a11.6,11.6,0,0,1-4.542.87" transform="translate(12.43 37.959)" fill="#ff8d7e"/>
        <path id="Path_4329" data-name="Path 4329" d="M25.991,84.206l9.692-7.651,26.932,31.182,7.144,19.119c-4.5,1.9-11.093.11-15.161-4.435-4.452-4.975-22.9-30.336-28.607-38.215" transform="translate(13.123 38.655)" fill="#ff8d7e"/>
        <path id="Path_4330" data-name="Path 4330" d="M55.563,146.547c-8.039-4.233-12.432-10.989-12.056-18.53.319-6.342,4.167-12.271,9.147-14.1l.643-.342.515.092a18,18,0,0,0,3.174.313,14.794,14.794,0,0,0,5.49-1l1.428-.566L75.1,142.359l-19.037,4.45Z" transform="translate(21.957 56.761)" fill="#8ac9ed"/>
        <path id="Path_4331" data-name="Path 4331" d="M44.506,127.431c.289-5.765,3.723-11.13,8.164-12.76a2.83,2.83,0,0,0,.372-.181,19.571,19.571,0,0,0,3.439.337,16.383,16.383,0,0,0,6.045-1.108l10.054,26.9c-6.2,1.448-11.914,2.783-16.821,3.932-7.508-3.955-11.6-10.145-11.254-17.125" transform="translate(22.462 57.42)" fill="#8ac9ed"/>
        <path id="Path_4332" data-name="Path 4332" d="M26.108,169.259c-3.7,0-4.42-3.011-6.564-11.949-2.486-10.355-1.55-14.488,3.853-17.007a11.148,11.148,0,0,1,4.768-.837,61.954,61.954,0,0,1,6.686.534,86.4,86.4,0,0,0,9.913.715,45.142,45.142,0,0,0,5.16-.283l1.407-.163,2.436,13.722-1.231.414c-7.111,2.382-13.221,6.959-17.681,10.3-3.95,2.962-5.917,4.3-7.136,4.437-.619.065-1.145.117-1.61.117" transform="translate(9.208 70.42)" fill="#fff"/>
        <path id="Path_4333" data-name="Path 4333" d="M33.439,163c-2.271,1.7-5.38,4.03-6.393,4.14-3.529.372-3.886.4-6.549-10.688-2.546-10.613-1.055-13.388,3.026-15.292a9.923,9.923,0,0,1,4.133-.7,60.944,60.944,0,0,1,6.513.524,66.1,66.1,0,0,0,15.416.432l1.962,11.052C44.2,154.934,38.061,159.538,33.439,163" transform="translate(9.716 70.925)" fill="#fff"/>
        <path id="Path_4334" data-name="Path 4334" d="M95.869,150.96l.035-3c21.006-1.576,35.5-2.643,43.092-3.174l1.809-.125-1.234,10.644Z" transform="translate(48.407 73.044)" fill="#8ac9ed"/>
        <path id="Path_4335" data-name="Path 4335" d="M139.05,145.745c-.262,2.247-.6,5.118-.855,7.371l-63.814-4.287s56.008-2.48,64.669-3.084" transform="translate(48.456 73.59)" fill="#8ac9ed"/>
        <path id="Path_4336" data-name="Path 4336" d="M154.739,168.315c-3.788,0-11.713-3.324-18.968-6.576-3.348-1.5-5.856-2.61-7.74-3.261l-1.141-.4,1.306-11.254,1.267-.069a22.187,22.187,0,0,0,6.39-1.3l.146-.053.152-.021a90.548,90.548,0,0,0,13.386-3.278c3.922-1.192,7.218-2.146,9.12-2.146a3.821,3.821,0,0,1,1.013.12l.6.169.307.543c2.117,3.756.891,21.835-3.382,26.676l-.075.086-.087.074a3.441,3.441,0,0,1-2.3.685" transform="translate(64.07 70.67)" fill="#fff"/>
        <path id="Path_4337" data-name="Path 4337" d="M155.521,165.971c-2.11,1.77-14.882-3.959-19.693-6.116-3.382-1.515-5.908-2.632-7.853-3.306.307-2.668.739-6.366,1.022-8.793a23.849,23.849,0,0,0,6.822-1.385,91.392,91.392,0,0,0,13.608-3.327c3.171-.963,7.884-2.406,9.294-2.015,1.822,3.231.557,20.685-3.2,24.943" transform="translate(64.618 71.175)" fill="#fff"/>
        <path id="Path_4338" data-name="Path 4338" d="M86.506,28.134s-5.15,27.319-3.19,30.637c3.141,5.32,13.4,7.234,23.4,0" transform="translate(41.843 14.206)" fill="none" stroke="#373a36" stroke-linecap="round" stroke-linejoin="round" stroke-width="4"/>
        <path id="Path_4339" data-name="Path 4339" d="M93.787,52.027c-1.49,4.894-2.342,12.553-5.532,15.531" transform="translate(44.562 26.27)" fill="none" stroke="#373a36" stroke-miterlimit="10" stroke-width="4"/>
        <path id="Path_4340" data-name="Path 4340" d="M137.82,146.893s55.022-5.136,55.007-20.837c-.006-6.68-27.721-53.842-33.039-59.586s-17.66-4.044-25.533-4.044c0,0-3.841,15.093-17.535,15.093s-13.954-9.7-13.314-13.32c-4.682-1.278-21.648-.944-25.319,2.483C74.894,69.66,58.253,102,58.253,102" transform="translate(29.413 31.401)" fill="none" stroke="#373a36" stroke-linecap="round" stroke-linejoin="round" stroke-width="4"/>
        <path id="Path_4341" data-name="Path 4341" d="M118.469,82s10.3,18.164,16.414,26.273c1.416,1.875-22.615,7.783-22.615,7.783" transform="translate(56.687 41.403)" fill="none" stroke="#373a36" stroke-linecap="round" stroke-linejoin="round" stroke-width="4"/>
        <path id="Path_4342" data-name="Path 4342" d="M66.63,107.569,37.465,73.8,23.246,85.025s25.069,34.731,30.5,40.794,15.106,8.3,20.956,3.83" transform="translate(11.737 37.263)" fill="none" stroke="#373a36" stroke-linecap="round" stroke-linejoin="round" stroke-width="4"/>
        <path id="Path_4343" data-name="Path 4343" d="M152.86,136.148l-17.754-47.5H49.235l24.4,65.3" transform="translate(24.86 44.758)" fill="none" stroke="#373a36" stroke-linecap="round" stroke-linejoin="round" stroke-width="4"/>
        <path id="Path_4344" data-name="Path 4344" d="M43.267,87.387c-2.545-3.819-3.19-6.384-3.511-10.852s-16.2-22.569-20.119-27.271c-4.71-5.649-9.8,0-7.159,4.282,1.872,3.037,7.943,10.507,6.029,12.423s-8.236,12.124-3.58,18.9a31.561,31.561,0,0,0,5.961,6.941c3.111,2.474,4.862.739,8.161,6.8" transform="translate(5.935 23.675)" fill="none" stroke="#373a36" stroke-linecap="round" stroke-linejoin="round" stroke-width="4"/>
        <path id="Path_4345" data-name="Path 4345" d="M52.643,112.474c-11.276,4.136-17.021,25.838,3.731,35.9" transform="translate(21.452 56.791)" fill="none" stroke="#373a36" stroke-linecap="round" stroke-linejoin="round" stroke-width="4"/>
        <path id="Path_4346" data-name="Path 4346" d="M41.035,148.758S160.4,120.673,169.544,119.4s18.76,2.867,20.425,14.682c2.128,15.1-8.619,21.259-17.343,21.684S43.98,165.353,43.98,165.353Z" transform="translate(20.72 60.174)" fill="none" stroke="#373a36" stroke-linecap="round" stroke-linejoin="round" stroke-width="4"/>
        <path id="Path_4347" data-name="Path 4347" d="M53.048,139.018c-12.872,2.446-23.4-2.554-29.785.424s-7.234,8.084-4.68,18.724,3.4,13.644,9.787,12.978c4.578-.479,14.361-12.234,27.624-15.532C54.334,146.251,53.048,139.018,53.048,139.018Z" transform="translate(8.706 69.914)" fill="none" stroke="#373a36" stroke-linecap="round" stroke-linejoin="round" stroke-width="4"/>
        <line id="Line_1349" data-name="Line 1349" x2="79.445" y2="7.902" transform="translate(109.861 222.093)" fill="none" stroke="#373a36" stroke-linecap="round" stroke-linejoin="round" stroke-width="4"/>
        <path id="Path_4348" data-name="Path 4348" d="M136.128,144.453c11.319-1.535,21.576-7.186,25.406-4.953s2.128,24.043-2.659,29.468-28.017-8.834-33.084-9.148c.319-2.873,1.61-13.912,1.61-13.912Z" transform="translate(63.515 70.177)" fill="none" stroke="#373a36" stroke-linecap="round" stroke-linejoin="round" stroke-width="4"/>
        <path id="Path_4349" data-name="Path 4349" d="M79.4,95.251c-9.61-9.508-15.964-19.963-2.376-38.922,9.148-12.768,5.729-16.772,7.765-27.98C86.7,17.818,93.22,0,113.614,0s29.561,11.914,27.978,33.51c-3.192,2.978-10.774-2.766-7.583-5.746s13.788-4.435,24.178,7.341c6.384,7.234,7.767,27.233,2.021,26.6s-8.084-1.914-5.318-4.254,23.224.375,26.5,19.775c3.512,20.768-10.8,40.573-10.8,40.573s-12.58-17.37-16.345-19.924-20.851-4.256-25.533-4.042c-3.616-5.106-4.993-16.9-4.254-24.467.852-8.724,8.084-21.064,11.7-18.511s10,9.349,3.616,8.93S93.4,39.148,97.87,26.169c3.132-9.1,15.281-1.664,11.243,3.445S103.4,43.364,92.788,48.276c-.289,2.8-3.05,23.3-2.576,24.7a6.25,6.25,0,0,0,6.169,4.244c4.044-.014,9.269-1.746,8.783-.548s-3.687,10.784-4.911,13.252.448,3.467-7.7,3.9a51.1,51.1,0,0,0-13.4,2.34" transform="translate(34.947)" fill="#373a36"/>
        <path id="Path_4350" data-name="Path 4350" d="M133.921,89.852S152.146,135.9,152.7,136.693c-18.316,4.065-56.691,12.917-81.078,18.6l-21.2-65.44Z" transform="translate(25.458 45.368)" fill="#373a36"/>
        <path id="Path_4351" data-name="Path 4351" d="M91.373,108.779c1.127,3.925-.4,7.811-3.422,8.68s-6.379-1.615-7.508-5.54.4-7.812,3.422-8.68,6.379,1.613,7.508,5.54" transform="translate(40.43 52.041)" fill="#fff"/>
      </g>
    </g>
  </g>
</svg>
