<svg id="Layer_1" data-name="Layer 1" xmlns="http://www.w3.org/2000/svg" viewBox="0 0 628.78 437.39"><defs><style>.cls-1,.cls-7,.cls-9{fill:none;stroke-linecap:round;}.cls-1{stroke:#8ac9ed;stroke-width:4.09px;}.cls-1,.cls-3{stroke-miterlimit:10;}.cls-2{fill:#ff8d7e;}.cls-3,.cls-6{fill:#fff;}.cls-3,.cls-7{stroke:#373a36;stroke-width:8.17px;}.cls-4{fill:#8ac9ed;}.cls-5{fill:#ffda7e;}.cls-7,.cls-9{stroke-linejoin:round;}.cls-8{fill:#373a36;}.cls-9{stroke:#ffda7e;stroke-width:4px;}</style></defs><line class="cls-1" x1="134.19" y1="118.09" x2="134.19" y2="414.89"/><line class="cls-1" x1="96.79" y1="118.09" x2="96.79" y2="414.89"/><line class="cls-1" x1="171.49" y1="118.09" x2="171.49" y2="414.89"/><line class="cls-1" x1="208.89" y1="118.09" x2="208.89" y2="414.89"/><line class="cls-1" x1="246.29" y1="118.09" x2="246.29" y2="414.89"/><line class="cls-1" x1="283.59" y1="414.89" x2="283.59" y2="118.09"/><line class="cls-1" x1="319.89" y1="414.89" x2="319.89" y2="118.09"/><line class="cls-1" x1="356.19" y1="414.89" x2="356.19" y2="118.09"/><line class="cls-1" x1="392.49" y1="414.89" x2="392.49" y2="118.09"/><line class="cls-1" x1="389.79" y1="155.49" x2="96.79" y2="155.49"/><line class="cls-1" x1="389.79" y1="118.09" x2="96.79" y2="118.09"/><line class="cls-1" x1="389.79" y1="192.89" x2="96.79" y2="192.89"/><line class="cls-1" x1="389.79" y1="230.19" x2="96.79" y2="230.19"/><line class="cls-1" x1="389.79" y1="267.59" x2="96.79" y2="267.59"/><line class="cls-1" x1="389.79" y1="304.99" x2="96.79" y2="304.99"/><line class="cls-1" x1="389.79" y1="341.59" x2="96.79" y2="341.59"/><line class="cls-1" x1="389.79" y1="378.19" x2="96.79" y2="378.19"/><line class="cls-1" x1="389.79" y1="414.89" x2="96.79" y2="414.89"/><path class="cls-2" d="M249.3,548.2v-249a11,11,0,0,1,11-11h249a11,11,0,0,1,11,11v249a11,11,0,0,1-11,11h-249A11,11,0,0,1,249.3,548.2Z" transform="translate(-104.41 -121.81)"/><circle class="cls-1" cx="450.59" cy="117.99" r="12.8"/><path class="cls-1" d="M124.5,542.6l-17-17a3.74,3.74,0,0,1,0-5.2l17-17a3.74,3.74,0,0,1,5.2,0l17,17a3.74,3.74,0,0,1,0,5.2l-17,17A3.74,3.74,0,0,1,124.5,542.6Z" transform="translate(-104.41 -121.81)"/><path class="cls-3" d="M651.8,397.9H490.1a3.69,3.69,0,0,1-3.7-3.7v-87a3.69,3.69,0,0,1,3.7-3.7H651.8a3.69,3.69,0,0,1,3.7,3.7v87A3.69,3.69,0,0,1,651.8,397.9Z" transform="translate(-104.41 -121.81)"/><circle class="cls-4" cx="397.79" cy="194.59" r="3.7"/><circle class="cls-4" cx="409.39" cy="194.59" r="3.7"/><circle class="cls-4" cx="420.99" cy="194.59" r="3.7"/><path class="cls-5" d="M555.4,382.9H502.2a3.69,3.69,0,0,1-3.7-3.7V336.8a3.69,3.69,0,0,1,3.7-3.7h53.2a3.69,3.69,0,0,1,3.7,3.7v42.4A3.76,3.76,0,0,1,555.4,382.9Z" transform="translate(-104.41 -121.81)"/><path class="cls-5" d="M632,382.9H611.7a3.69,3.69,0,0,1-3.7-3.7V336.8a3.69,3.69,0,0,1,3.7-3.7H632a3.69,3.69,0,0,1,3.7,3.7v42.4A3.69,3.69,0,0,1,632,382.9Z" transform="translate(-104.41 -121.81)"/><circle class="cls-4" cx="478.19" cy="220.19" r="8.8"/><circle class="cls-4" cx="478.19" cy="252.39" r="8.8"/><path class="cls-6" d="M401,329.2c2.2,3,5.8,5.9,17.1,7.2,0,9.1-.1,21.2-.1,25.6,0,5.6-.8,13.9-10.3,20.4-5.3,2-11,.5-16.2-1.8a3,3,0,0,0-2.4,5.6,34.44,34.44,0,0,0,13.5,3.1,24.52,24.52,0,0,0,2.7-.2,34.57,34.57,0,0,0,2.9,7.3,3.24,3.24,0,0,0-.9.8c-4.1,5.3-9,8.1-14.1,8.1-7.7,0-14.5-2.7-17.7-7a3.45,3.45,0,0,0-.9-.8v-38h.2a7.3,7.3,0,0,0,0-14.6h-.2v-4.6C384.1,337.4,393.9,335,401,329.2Z" transform="translate(-104.41 -121.81)"/><path class="cls-5" d="M339.9,521.9l-.4-.1C314.2,512,308.4,509,312.2,491c3.2-15.2,12.9-51.2,20.8-69,3-5.3,5.9-9,8.6-11a65.9,65.9,0,0,1,11.5-6.3l.2-.1h.2a112.15,112.15,0,0,1,16-2.6c1.6-.2,2.8-.3,3.9-.4l1.1-.1.7.8c4.3,4.7,11.6,7.3,19.9,7.3,6,0,11.7-3,16.5-8.6l.6-.7h1c5.9.2,24.6,4.9,28.3,6.9,3.2,1.8,7.2,6.3,11.7,13.5l2,3.1H408.4a1.71,1.71,0,0,0-1.6,1.3l-15,76.8-2.3-1c-9.5-4-23.2-9.7-34.6-14l-2.1-.8,1-2c7.1-15,10-36.7,10.2-42.5a1,1,0,0,0-1-1,1.27,1.27,0,0,0-1.1,1c-.3,10.8-4.4,30-10.2,42.3l-.8,1.6-1.7-.6c-2.8-1-5.3-1.8-7.4-2.4a8.24,8.24,0,0,0-2.6-.4,5.58,5.58,0,0,0-4.8,2.4c-1.9,2.7-1.7,7,.4,9.9a6.56,6.56,0,0,0,5.5,2.8,8.42,8.42,0,0,0,2.7-.4c2.8-.9,5.5-3.4,8.1-7.4l.9-1.4,1.5.6c11.9,4.4,26.5,10.4,36.6,14.7l1.5.6-2.3,12a1.88,1.88,0,0,0,.3,1.3,1.76,1.76,0,0,0,1.3.6v4.1Z" transform="translate(-104.41 -121.81)"/><path class="cls-5" d="M338.2,519.8c-25.9-10.1-29.4-12.7-26-28.5,3.3-15.3,12.9-51.1,20.7-68.6,2.2-4,5-8,8-10.1a74.74,74.74,0,0,1,11.1-6.1,103.22,103.22,0,0,1,15.7-2.5c1.5-.2,2.8-.3,3.9-.5,4.6,5,12.5,8,21.4,8,6.6,0,12.9-3.2,18-9.3,5.8.2,24.2,4.9,27.4,6.7,3.4,1.9,7.5,7.4,11,12.8H406.3a3.56,3.56,0,0,0-3.6,3L388.2,499c-10.2-4.3-23.5-9.8-34.7-14,6.9-14.6,10.2-36.3,10.4-43.3a3.12,3.12,0,0,0-3-3.2,3.25,3.25,0,0,0-3.2,3c-.3,10.6-4.4,29.7-10,41.4-2.7-1-5.3-1.8-7.5-2.4-4.1-1.2-7.6-.2-9.7,2.8-2.4,3.4-2.2,8.7.4,12.3a9.08,9.08,0,0,0,10.4,3.1c3.5-1.1,6.6-4.1,9.2-8.2,11.7,4.3,26,10.2,36.5,14.7l-2,10.4a3.7,3.7,0,0,0,3.6,4.4H338.2Z" transform="translate(-104.41 -121.81)"/><path class="cls-5" d="M340,495.1a4.57,4.57,0,0,1-3.8-2c-1.6-2.2-1.8-5.5-.4-7.5A3.73,3.73,0,0,1,339,484a7.47,7.47,0,0,1,2,.3c1.8.5,3.9,1.2,6.2,2l2.6.9-1.6,2.2c-2,2.9-4,4.6-6.2,5.3A5.09,5.09,0,0,1,340,495.1Z" transform="translate(-104.41 -121.81)"/><path class="cls-5" d="M344.5,488.3a11.6,11.6,0,0,1-5.1,4.5c-2.1.7-3.1-.2-3.6-.9a4.75,4.75,0,0,1-.3-5.1,1.58,1.58,0,0,1,1.5-.7,7.84,7.84,0,0,1,1.4.2C340.2,486.8,342.3,487.5,344.5,488.3Z" transform="translate(-104.41 -121.81)"/><path class="cls-7" d="M337.8,523c-26.3-10.2-32.6-13.6-28.6-32.3,3.3-15.5,16.9-67.3,25.9-78.3s31.4-10.9,37.7-12.2c3.7,5,11.4,8.2,20.2,8.2s14.5-6.6,16.5-9.2c5-.7,26.6,4.9,30.3,7,8.2,4.5,18.3,25,18.3,25" transform="translate(-104.41 -121.81)"/><path class="cls-7" d="M360.7,441.5c-.4,12.9-7.9,50.2-20.4,54.2-10.4,3.3-11.8-15.5-1-12.3,19.4,5.7,63.5,25.2,63.5,25.2" transform="translate(-104.41 -121.81)"/><path class="cls-8" d="M374.4,401.9V340.4c12.2-3.7,24.4-6.5,31.4-16.2s-12.4-4.5-8.2,0,2.7,10.7,22.7,12.5-2.5-15.7-2.2-9,0,28.2,0,34.4-1,15.7-13.7,22.4a33.88,33.88,0,0,0,5.3,14.6,35.28,35.28,0,0,1,8.9.5c5.6.9,8.8,1.6,10,.6S443,380.3,443,347.6,422.4,292,393.4,292s-64.9,24.7-45.7,70.8c2.7,2.5,10,0,8.2-3s-38.3-1.4-45.3,28.4c-6.3,26.4,10.8,38.7,17.4,44.8,0,0,6-15.6,12.9-20.5s20.7-10.6,28.5-11.7,4.8,2.1,4.8,2.1" transform="translate(-104.41 -121.81)"/><circle class="cls-6" cx="270.19" cy="230.49" r="7.3"/><path class="cls-8" d="M537.2,518.9,555,428a3.7,3.7,0,0,0-3.6-4.4H406.3a3.56,3.56,0,0,0-3.6,3l-17.8,90.9a3.7,3.7,0,0,0,3.6,4.4H533.6A3.82,3.82,0,0,0,537.2,518.9Z" transform="translate(-104.41 -121.81)"/><ellipse class="cls-6" cx="472.57" cy="471.6" rx="8.8" ry="8.5" transform="translate(-221.11 663.62) rotate(-72.98)"/><path class="cls-8" d="M561,541.1H302.2a3.69,3.69,0,0,1-3.7-3.7V523.5a3.69,3.69,0,0,1,3.7-3.7H561a3.69,3.69,0,0,1,3.7,3.7v13.9A3.69,3.69,0,0,1,561,541.1Z" transform="translate(-104.41 -121.81)"/><path class="cls-7" d="M390.2,383.5c7.8,3.3,21.6,7.6,30.8-10.7" transform="translate(-104.41 -121.81)"/><circle class="cls-3" cx="535.89" cy="291.99" r="48.8"/><path class="cls-7" d="M611.3,428.6a32.53,32.53,0,0,1,56.4-32.3" transform="translate(-104.41 -121.81)"/><line class="cls-7" x1="575.29" y1="320.79" x2="624.69" y2="356.99"/><g id="Group_2622" data-name="Group 2622"><path id="Path_3305" data-name="Path 3305" class="cls-9" d="M147.23,221.78A9.9,9.9,0,1,1,135,215a9.89,9.89,0,0,1,12.24,6.79Z" transform="translate(-104.41 -121.81)"/><path id="Path_3306" data-name="Path 3306" class="cls-9" d="M208.67,197.8A9.9,9.9,0,1,1,196.43,191a9.9,9.9,0,0,1,12.24,6.79Z" transform="translate(-104.41 -121.81)"/><path id="Path_3307" data-name="Path 3307" class="cls-9" d="M241.65,131a9.9,9.9,0,1,1-12.24-6.79A9.89,9.89,0,0,1,241.65,131Z" transform="translate(-104.41 -121.81)"/><path id="Path_3308" data-name="Path 3308" class="cls-9" d="M169.78,172.19a9.9,9.9,0,1,1-12.24-6.79,9.89,9.89,0,0,1,12.24,6.79Z" transform="translate(-104.41 -121.81)"/><line id="Line_1109" data-name="Line 1109" class="cls-9" x1="37.4" y1="93.69" x2="51.77" y2="62.11"/><line id="Line_1110" data-name="Line 1110" class="cls-9" x1="64.14" y1="58.56" x2="86.49" y2="73.28"/><line id="Line_1111" data-name="Line 1111" class="cls-9" x1="99.13" y1="69.85" x2="123.35" y2="20.77"/></g></svg>