<svg width="53" height="54" viewBox="0 0 53 54" fill="none" xmlns="http://www.w3.org/2000/svg">
<path d="M47.9048 53.4481C49.11 53.4481 50.3754 52.973 51.2792 52.0822C53.1472 50.2412 53.1472 47.2125 51.2792 45.3715L41.5777 35.8102C44.2893 32.0689 45.9163 27.5555 45.9163 22.6264C45.9163 10.1551 35.6122 0 22.9581 0C10.3041 0 0 10.1551 0 22.6264C0 35.0976 10.3041 45.2527 22.9581 45.2527C27.1762 45.2527 31.0929 44.1244 34.4674 42.1646L44.4701 52.0228C45.4342 52.973 46.6996 53.4481 47.9048 53.4481ZM22.9581 35.8102C15.6067 35.8102 9.58096 29.8716 9.58096 22.6264C9.58096 15.3812 15.6067 9.4425 22.9581 9.4425C30.3096 9.4425 36.3353 15.3812 36.3353 22.6264C36.3353 29.8716 30.3096 35.8102 22.9581 35.8102Z" fill="#1F6BF1"/>
</svg>
