<?xml version="1.0" encoding="utf-8"?>
<!-- Generator: Adobe Illustrator 24.3.0, SVG Export Plug-In . SVG Version: 6.00 Build 0)  -->
<svg version="1.1" id="Layer_1" xmlns="http://www.w3.org/2000/svg" xmlns:xlink="http://www.w3.org/1999/xlink" x="0px" y="0px"
	 viewBox="0 0 864 206.6" style="enable-background:new 0 0 864 206.6;" xml:space="preserve">
<style type="text/css">
	.st0{fill:#424242;}
</style>
<g id="Master_Logo_Artwork">
</g>
<g id="gray-rgb">
	<g id="logoMark_1_">
		<g id="XMLID_1_">
			<g>
				<path class="st0" d="M861.2,86.9v76.5c0,1-0.9,1.9-1.9,1.9h-21.6c-1,0-1.9-0.9-1.9-1.9V86.9c0-1,0.9-1.9,1.9-1.9h21.6
					C860.3,85,861.2,85.9,861.2,86.9z"/>
				<path class="st0" d="M864,58.2c0,8.1-6.9,14.8-15.5,14.8s-15.8-6.8-15.8-14.8c0-8.4,7.2-14.8,15.8-14.8S864,49.7,864,58.2z"/>
				<path class="st0" d="M814.5,86.9v76.5c0,1-0.9,1.9-1.9,1.9h-21.7c-1,0-1.9-0.9-1.9-1.9v-7.1c0-0.4-0.4-0.5-0.7-0.2
					c-5.6,7-15,11.3-24.8,11.3c-22.5,0-38.3-17-38.3-42.1C725.2,100,741,83,763.9,83c9.4,0,18.8,4,24.4,10.8
					c0.2,0.3,0.7,0.1,0.7-0.2V87c0-1.2,0.9-2,1.9-2h21.7C813.6,85,814.5,85.9,814.5,86.9z M769.8,143.8c10.3,0,18.4-8.8,18.4-18.6
					c0-10.5-8.3-18.7-18.6-18.7c-10.8,0-18.4,8.4-18.4,18.7C751.2,135,758.8,143.8,769.8,143.8z"/>
				<path class="st0" d="M695.8,136.5c8.6,0,15.8,6.4,15.8,15c0,8.9-7.2,15.3-15.8,15.3c-8.4,0-15.5-6.3-15.5-15.3
					C680.3,142.9,687.3,136.5,695.8,136.5z"/>
				<path class="st0" d="M662.9,122.1v41.3c0,1-0.9,1.9-1.9,1.9h-21.7c-1,0-1.9-0.9-1.9-1.9v-40.6c0-12.4-6.2-16.3-12.7-16.3
					c-7.9,0-13.8,5.5-13.8,19.6v37.3c0,1-0.9,1.9-1.9,1.9h-21.7c-1,0-1.9-0.9-1.9-1.9v-40.1c0-12.4-6.2-16.9-12.6-16.9
					c-6.9,0-13.9,3.4-13.9,16.9v40.1c0,1-0.9,1.9-1.9,1.9h-21.6c-1,0-1.9-0.9-1.9-1.9V86.9c0-1,0.9-1.9,1.9-1.9H557
					c1,0,1.9,0.9,1.9,1.9v10.3c0,0.4,0.6,0.5,0.7,0.1c3.1-9.9,13.6-14.4,20.9-14.4c11.6,0,20.3,5.4,25.1,14.7c0.1,0.3,0.5,0.3,0.6,0
					c5.7-10.2,17.7-14.7,26-14.7C652.6,82.9,662.9,97.5,662.9,122.1z"/>
				<path class="st0" d="M512.3,86.9v76.5c0,1-0.9,1.9-1.9,1.9h-21.6c-1.1,0-1.9-0.9-1.9-1.9V86.9c0-1,0.9-1.9,1.9-1.9h21.6
					C511.4,85,512.3,85.9,512.3,86.9z"/>
				<path class="st0" d="M499.6,43.4c8.6,0,15.4,6.3,15.4,14.8c0,8.1-6.9,14.8-15.5,14.8s-15.7-6.8-15.7-14.8
					C483.8,49.8,491,43.4,499.6,43.4z"/>
				<path class="st0" d="M465.5,43.2v120.2c0,1-0.9,1.9-1.9,1.9H442c-1.1,0-1.9-0.9-1.9-1.9V43.2c0-1,0.9-1.9,1.9-1.9h21.6
					C464.6,41.3,465.5,42.2,465.5,43.2z"/>
				<path class="st0" d="M421.2,107.9c0.1,1.1-0.8,2-1.9,2h-20.4c-0.9,0-1.7-0.7-1.9-1.6c-0.7-4.1-4-6.1-8.5-6.1
					c-4.3,0-7.9,2.1-7.9,5.5c0,3.1,2.8,4.8,6.9,5.8l13.9,3.8c20.1,5.5,21.8,18.2,21.8,23.7c0,17.7-18.4,26.1-34.6,26.1
					c-17.2,0-33.6-9.1-34.8-25.9c-0.1-0.9,0.8-1.9,1.9-1.9h20.4c0.9,0,1.7,0.7,1.9,1.6c0.7,3.5,3.7,7,10,7c5.3,0,9.8-2.8,9.8-6.5
					c0-2.6-1.9-3.8-7.9-5.2l-10.5-2.8c-23.6-6.4-24.2-19.8-24.2-26.5c0-11.9,13.4-24.1,32.8-24.1C402.6,82.8,420.3,89.4,421.2,107.9
					z"/>
				<path class="st0" d="M273.3,90.2c35.8,14.3,38.8,47.6,39,56.9c0,19.2-15.3,59.4-69,59.4h-32.4H101.4H60.3
					c-18.9,0-36.4-8.6-48.1-23.9c-6.4-8.4-10.5-18.5-11.7-29.1c-1.1-9.5,0-18.9,3.2-27.7c2.3-6.3,5.7-12.2,10-17.5
					c6.9-8.4,15.9-14.7,25.9-18.4c1.9-0.7,3-2.5,3.2-4.4c0.8-9.9,3.1-19.5,7-28.7c4.6-11.1,11.4-21.1,19.9-29.6
					C78.3,18.7,88.2,12,99.3,7.3C110.7,2.5,122.9,0,135.5,0H158c45,0,67.7,10.5,84.4,27.3c8.5,8.6,15.2,18.5,19.9,29.6
					c3.8,8.9,6.1,18.3,7,27.9C269.5,87.2,271,89.3,273.3,90.2z M257.6,146.4c0-10.8-3.8-21.4-10.6-29.7
					c-6.8-8.2-16.1-13.9-26.4-16.1c-3.1-0.7-5.4-3.4-5.4-6.6c0-0.4,0-0.7,0-1c0-10.7-2.1-21.2-6.3-31c-4-9.4-9.8-18-17.1-25.3
					S176,23.6,166.5,19.6c-9.8-4.2-20.2-6.3-31-6.3c-10.7,0-21.2,2.1-31,6.3c-9.4,4-18,9.8-25.3,17.1C71.9,44,66.1,52.5,62.1,62
					c-4.2,9.8-6.3,20.2-6.3,31c0,0.3,0,0.6,0,0.9c0,3.3-2.3,6-5.5,6.7c-10.3,2.2-19.6,7.9-26.3,16.1c-6.8,8.4-10.6,18.9-10.6,29.7
					c0,14.3,6.4,27.7,17.8,36.8c8.4,6.7,19.1,10,29.9,10h40.2h108.6c10.8,0,21.5-3.3,29.9-10C251.2,174.1,257.6,160.7,257.6,146.4z"
					/>
				<path class="st0" d="M197.2,106.7c2.9,2.3,3.3,6.5,1,9.4l-8.9,11c-2,2.4-2,6,0,8.4l8.9,11c2.3,2.9,1.9,7.1-1,9.4
					c-1.2,1-2.7,1.5-4.2,1.5c-1.9,0-3.9-0.9-5.2-2.5l-8.9-11c-2.9-3.5-4.5-8-4.5-12.6c0-4.6,1.6-9,4.5-12.6l8.9-11
					C190.1,104.8,194.3,104.4,197.2,106.7z"/>
				<path class="st0" d="M154.7,151.6c3.2,1.8,4.3,5.9,2.4,9.1c-5.4,9.5-15.7,15.4-26.6,15.4s-21.1-5.9-26.6-15.4
					c-1.9-3.2-0.8-7.3,2.4-9.1c3.2-1.9,7.3-0.8,9.1,2.4c3.1,5.4,8.9,8.7,15.1,8.7s12-3.3,15.1-8.7
					C147.4,150.8,151.5,149.7,154.7,151.6z"/>
				<path class="st0" d="M79.6,106.7c2.9,2.3,3.3,6.5,1,9.4l-8.9,11c-2,2.4-2,6,0,8.4l8.9,11c2.3,2.9,1.9,7.1-1,9.4
					c-1.2,1-2.7,1.5-4.2,1.5c-1.9,0-3.9-0.9-5.2-2.5l-8.9-11c-2.9-3.5-4.5-8-4.5-12.6c0-4.6,1.6-9,4.5-12.6l8.9-11
					C72.5,104.8,76.7,104.4,79.6,106.7z"/>
			</g>
			<g>
			</g>
		</g>
	</g>
</g>
</svg>
