<svg id="Group_85" data-name="Group 85" xmlns="http://www.w3.org/2000/svg" xmlns:xlink="http://www.w3.org/1999/xlink" width="235.181" height="173.192" viewBox="0 0 235.181 173.192">
  <defs>
    <clipPath id="clip-path">
      <rect id="Rectangle_23" data-name="Rectangle 23" width="235.181" height="173.192" fill="#fff"/>
    </clipPath>
  </defs>
  <g id="Group_73" data-name="Group 73" clip-path="url(#clip-path)">
    <path id="Path_21" data-name="Path 21" d="M84.7,173.193H46a46.182,46.182,0,0,1-28.809-9.647,45.092,45.092,0,0,1,18.35-79.489,6.54,6.54,0,0,0,5.283-6.408q0-.435-.005-.872a76.776,76.776,0,1,1,153.551,0c0,.306,0,.611-.006.916a6.479,6.479,0,0,0,5.24,6.354,45.092,45.092,0,0,1,18.394,79.5,46.183,46.183,0,0,1-28.809,9.647Z" transform="translate(0 0)" fill="#fff"/>
  </g>
</svg>
