<svg xmlns="http://www.w3.org/2000/svg" xmlns:xlink="http://www.w3.org/1999/xlink" width="1138" height="357" viewBox="0 0 1138 357">
  <defs>
    <clipPath id="clip-path">
      <rect id="Rectangle_2" data-name="Rectangle 2" width="1138" height="357" transform="translate(293 402)" fill="#fff" stroke="#707070" stroke-width="1"/>
    </clipPath>
    <linearGradient id="linear-gradient" x1="0.5" x2="0.5" y2="1" gradientUnits="objectBoundingBox">
      <stop offset="0" stop-color="#fff"/>
      <stop offset="1" stop-color="#fff" stop-opacity="0"/>
    </linearGradient>
    <clipPath id="clip-path-2">
      <rect id="Rectangle_1" data-name="Rectangle 1" width="89" height="117" transform="translate(110 97)" fill="#fff"/>
    </clipPath>
    <clipPath id="clip-path-3">
      <rect id="Rectangle_3" data-name="Rectangle 3" width="67" height="134" fill="#fff"/>
    </clipPath>
  </defs>
  <g id="Mask_Group_1" data-name="Mask Group 1" transform="translate(-293 -402)" clip-path="url(#clip-path)">
    <g id="Group_10" data-name="Group 10" transform="translate(241.001 402)">
      <path id="Path_1" data-name="Path 1" d="M50,353a4,4,0,0,0,4,4H1187a4,4,0,0,0,4-4V4a4,4,0,0,0-4-4H54a4,4,0,0,0-4,4Z" fill="#1f6bf1"/>
      <path id="Path_2" data-name="Path 2" d="M263.222,93.582a44.981,44.981,0,0,0-13.594,2.093,45.8,45.8,0,0,0-69.39-39.32A75.606,75.606,0,0,0,34.908,76.933,55.507,55.507,0,0,0,52.793,183.928c.221,0,.433.068.663.068H263.222a45.215,45.215,0,1,0,0-90.423Z" fill="url(#linear-gradient)"/>
      <path id="Path_3" data-name="Path 3" d="M818.289,288.784v-.707a71.858,71.858,0,0,1,131.416-40.249,73.685,73.685,0,0,1,67.635-46.206,111.882,111.882,0,0,1,1.61-13.533c9.42-51.639,54.84-91.089,109-91.089a111.006,111.006,0,0,1,110.02,124.142,50.04,50.04,0,0,1,60.45,66.576,55.4,55.4,0,0,1,35.39,74.2A55.082,55.082,0,0,1,1282.78,396H837.15a55.261,55.261,0,0,1-18.861-107.164" fill="url(#linear-gradient)"/>
      <g id="Group_9" data-name="Group 9" clip-path="url(#clip-path-2)">
        <path id="Path_4" data-name="Path 4" d="M199,199.687l-.118.064v0h-.005L174.262,214l-.02-.015L110,176.812l.118-.069V150.926l79.6,20.633,9.162,2.38v25.679Z" fill="#d94b50"/>
        <path id="Path_5" data-name="Path 5" d="M199,199.687l-.118.064v0h-.005L174.262,214l-.02-.015V188.252l15.478-16.693,9.162,2.38v25.679Z" fill="#ff8678"/>
        <path id="Path_6" data-name="Path 6" d="M174.267,188.178,110,150.995l24.738-14.313L199,173.865Z" fill="#ff9e97"/>
        <path id="Path_7" data-name="Path 7" d="M174.3,184.942l-2.267-1.313,20.135-11.652,2.272,1.313Z" fill="#d94b50"/>
        <path id="Path_8" data-name="Path 8" d="M169.124,181.907l-2.267-1.313,20.135-11.657,2.272,1.313Z" fill="#d94b50"/>
        <path id="Path_9" data-name="Path 9" d="M163.947,178.868l-2.267-1.314L181.815,165.9l2.272,1.313Z" fill="#d94b50"/>
        <path id="Path_10" data-name="Path 10" d="M158.769,175.833,156.5,174.52l20.14-11.652,2.267,1.313Z" fill="#d94b50"/>
        <path id="Path_11" data-name="Path 11" d="M153.592,172.8l-2.272-1.313,20.14-11.652,2.267,1.313Z" fill="#d94b50"/>
        <path id="Path_12" data-name="Path 12" d="M148.415,169.763l-2.272-1.313L166.278,156.8l2.272,1.314Z" fill="#d94b50"/>
        <path id="Path_13" data-name="Path 13" d="M143.233,166.729l-2.268-1.313L161.1,153.759l2.272,1.318Z" fill="#d94b50"/>
        <path id="Path_14" data-name="Path 14" d="M138.055,163.689l-2.267-1.313,20.135-11.652,2.272,1.313Z" fill="#d94b50"/>
        <path id="Path_15" data-name="Path 15" d="M132.878,160.655l-2.272-1.314,20.14-11.651L153.018,149Z" fill="#d94b50"/>
        <path id="Path_16" data-name="Path 16" d="M127.7,157.62l-2.272-1.313,20.14-11.652,2.267,1.313Z" fill="#d94b50"/>
        <path id="Path_17" data-name="Path 17" d="M122.524,154.585l-2.273-1.313,20.14-11.652,2.268,1.313Z" fill="#d94b50"/>
        <path id="Path_18" data-name="Path 18" d="M117.346,151.55l-2.272-1.313,20.135-11.652,2.272,1.314Z" fill="#d94b50"/>
        <path id="Path_19" data-name="Path 19" d="M111.723,174.49l2.267,1.323.093-18.631-2.262-1.323Z" fill="#cc2b37"/>
        <path id="Path_20" data-name="Path 20" d="M116.924,177.485l2.263,1.324.1-18.627-2.267-1.323Z" fill="#cc2b37"/>
        <path id="Path_21" data-name="Path 21" d="M122.121,180.486l2.267,1.323.094-18.626-2.263-1.323Z" fill="#cc2b37"/>
        <path id="Path_22" data-name="Path 22" d="M127.323,183.481l2.263,1.323.1-18.626-2.268-1.323Z" fill="#cc2b37"/>
        <path id="Path_23" data-name="Path 23" d="M132.52,186.481l2.267,1.323.093-18.626-2.262-1.323Z" fill="#cc2b37"/>
        <path id="Path_24" data-name="Path 24" d="M137.722,189.482l2.262,1.323.1-18.631-2.267-1.324Z" fill="#cc2b37"/>
        <path id="Path_25" data-name="Path 25" d="M142.918,192.477l2.268,1.323.093-18.626-2.262-1.323Z" fill="#cc2b37"/>
        <path id="Path_26" data-name="Path 26" d="M148.121,195.477l2.267,1.323.093-18.626-2.262-1.323Z" fill="#cc2b37"/>
        <path id="Path_27" data-name="Path 27" d="M153.322,198.472l2.263,1.324.1-18.627-2.267-1.323Z" fill="#cc2b37"/>
        <path id="Path_28" data-name="Path 28" d="M158.519,201.473l2.267,1.323.093-18.626-2.262-1.323Z" fill="#cc2b37"/>
        <path id="Path_29" data-name="Path 29" d="M163.721,204.473l2.262,1.323.1-18.631-2.267-1.323Z" fill="#cc2b37"/>
        <path id="Path_30" data-name="Path 30" d="M168.918,207.468l2.267,1.323.093-18.626-2.262-1.323Z" fill="#cc2b37"/>
        <path id="Path_31" data-name="Path 31" d="M195.6,198.531l-2.262,1.324-.1-18.991,2.267-1.323Z" fill="#d94b50"/>
        <path id="Path_32" data-name="Path 32" d="M190.4,201.527l-2.267,1.323-.093-18.985,2.262-1.323Z" fill="#d94b50"/>
        <path id="Path_33" data-name="Path 33" d="M185.2,204.527l-2.262,1.323-.1-18.985,2.267-1.328Z" fill="#d94b50"/>
        <path id="Path_34" data-name="Path 34" d="M180,207.527l-2.268,1.323-.093-18.99,2.262-1.323Z" fill="#d94b50"/>
        <path id="Path_35" data-name="Path 35" d="M152.032,159.676v3.585c0,1.559,2.316,2.819,5.172,2.819s5.172-1.26,5.172-2.819v-3.585Z" fill="#1d68d6"/>
        <path id="Path_36" data-name="Path 36" d="M162.376,159.676c0,1.559-2.316,2.818-5.172,2.818s-5.172-1.259-5.172-2.818,2.316-2.819,5.172-2.819S162.376,158.122,162.376,159.676Z" fill="#4a92fd"/>
        <path id="Path_37" data-name="Path 37" d="M155.736,162.381v3.585a5.813,5.813,0,0,1-3.042-1.313v-3.585A5.828,5.828,0,0,0,155.736,162.381Z" fill="#2150a1"/>
        <path id="Path_38" data-name="Path 38" d="M156.934,137.858v3.162a.491.491,0,1,0,.982,0v-3.162a.491.491,0,1,0-.982,0Z" fill="#2150a1"/>
        <path id="Path_39" data-name="Path 39" d="M156.934,142.51v3.183a.491.491,0,0,0,.982,0V142.51a.491.491,0,0,0-.982,0Z" fill="#2150a1"/>
        <path id="Path_40" data-name="Path 40" d="M156.934,147.168v3.163a.491.491,0,0,0,.982,0v-3.163a.491.491,0,1,0-.982,0Z" fill="#2150a1"/>
        <path id="Path_41" data-name="Path 41" d="M156.934,151.821v3.163a.491.491,0,0,0,.982,0v-3.163a.491.491,0,1,0-.982,0Z" fill="#2150a1"/>
        <path id="Path_42" data-name="Path 42" d="M156.934,156.474v3.162a.491.491,0,1,0,.982,0v-3.162a.491.491,0,1,0-.982,0Z" fill="#2150a1"/>
        <path id="Path_43" data-name="Path 43" d="M158.946,145.958a1.571,1.571,0,0,0-.854-1.416v.915a.9.9,0,0,1,.152.491v.93a.89.89,0,0,1-.152.492v.92a1.594,1.594,0,0,0,.864-1.422v-.91Z" fill="#2150a1"/>
        <path id="Path_44" data-name="Path 44" d="M158.946,141.3a1.582,1.582,0,0,0-.854-1.416v.92a.906.906,0,0,1,.152.492v.954a.98.98,0,0,1-.152.492v.919a1.583,1.583,0,0,0,.854-1.411Z" fill="#2150a1"/>
        <path id="Path_45" data-name="Path 45" d="M158.946,150.611a1.58,1.58,0,0,0-.854-1.421v.929a.908.908,0,0,1,.152.492v.93a.886.886,0,0,1-.152.491v.92a1.579,1.579,0,0,0,.864-1.421v-.92Z" fill="#2150a1"/>
        <path id="Path_46" data-name="Path 46" d="M158.946,155.264a1.6,1.6,0,0,0-.854-1.417v.92a.908.908,0,0,1,.152.492v.925a.908.908,0,0,1-.152.492v.919a1.586,1.586,0,0,0,.864-1.421v-.93Z" fill="#2150a1"/>
        <path id="Path_47" data-name="Path 47" d="M156.772,153.847a1.577,1.577,0,0,0-.864,1.417v.93a1.586,1.586,0,0,0,.864,1.421v-.92a.906.906,0,0,1-.152-.492v-.929a.887.887,0,0,1,.152-.492v-.935Z" fill="#2150a1"/>
        <path id="Path_48" data-name="Path 48" d="M156.772,149.19a1.583,1.583,0,0,0-.864,1.421v.925a1.586,1.586,0,0,0,.864,1.421v-.92a.905.905,0,0,1-.152-.491v-.935a.908.908,0,0,1,.152-.492v-.929Z" fill="#2150a1"/>
        <path id="Path_49" data-name="Path 49" d="M156.772,139.879a1.586,1.586,0,0,0-.864,1.421v.95a1.577,1.577,0,0,0,.864,1.416v-.924a.859.859,0,0,1-.152-.492v-.95a.871.871,0,0,1,.152-.491Z" fill="#2150a1"/>
        <path id="Path_50" data-name="Path 50" d="M157.425,135.074a1.538,1.538,0,0,0-1.083.473,1.555,1.555,0,0,0-.434,1.1v.924a1.574,1.574,0,0,0,.864,1.422v-.92a.854.854,0,0,1-.152-.492v-.934a.81.81,0,0,1,.483-.807.808.808,0,0,1,.649,0,.818.818,0,0,1,.27.192.835.835,0,0,1,.17.285.8.8,0,0,1,.042.33v.929a.908.908,0,0,1-.152.492v.92a1.582,1.582,0,0,0,.864-1.422v-.919a1.547,1.547,0,0,0-.932-1.447A1.531,1.531,0,0,0,157.425,135.074Z" fill="#2150a1"/>
        <path id="Path_51" data-name="Path 51" d="M156.767,144.537a1.591,1.591,0,0,0-.859,1.416v.93a1.6,1.6,0,0,0,.229.832,1.587,1.587,0,0,0,.63.589v-.919a.917.917,0,0,1-.147-.492v-.935a.915.915,0,0,1,.147-.492Z" fill="#2150a1"/>
        <path id="Path_52" data-name="Path 52" d="M156.855,130.426A8.878,8.878,0,1,0,148,121.548,8.868,8.868,0,0,0,156.855,130.426Z" fill="#2150a1"/>
        <path id="Path_53" data-name="Path 53" d="M155.418,117.8l-.246-12.326h3.489l-.245,12.326a.762.762,0,0,1-.442.615,2.339,2.339,0,0,1-2.12,0,.742.742,0,0,1-.436-.615Z" fill="#7d90aa"/>
        <path id="Path_54" data-name="Path 54" d="M156.934,108.012a2.558,2.558,0,1,0-2.552-2.557A2.555,2.555,0,0,0,156.934,108.012Z" fill="#4a92fd"/>
        <path id="Path_55" data-name="Path 55" d="M182.8,121.873a2.558,2.558,0,1,0-2.552-2.558A2.556,2.556,0,0,0,182.8,121.873Z" fill="#4a92fd"/>
        <path id="Path_56" data-name="Path 56" d="M155.972,107.063q0-.062,0-.123v-.32a1.485,1.485,0,0,0-.059-.319v-1.687a1.761,1.761,0,0,0,.059.315v.1a.625.625,0,0,0,.025.216q0,.062,0,.123v2.017a.844.844,0,0,1,0-.123C155.987,107.2,155.982,107.132,155.972,107.063Z" fill="#3a3768"/>
        <path id="Path_57" data-name="Path 57" d="M158.009,106.3a7.168,7.168,0,0,0-.157,1.475v-1.687a7.1,7.1,0,0,1,.157-1.475Z" fill="#3a3768"/>
        <path id="Path_58" data-name="Path 58" d="M163.755,122.482l.4-.226.128-.069.29-.152.147-.079.289-.142.138-.069.387-.182h.04l.432-.192.132-.054.314-.133.157-.064.128-.049.113-.044.368-.138.2-.074.417-.147.147-.05.574-.187.123-.039.457-.133h.068l.182-.054.265-.074.265-.063.27-.069.265-.064.27-.064.265-.059a2.572,2.572,0,0,1,.274-.059h.084l.211-.045.221-.044.319-.059.211-.039.348-.054.182-.035.49-.069h.059l.525-.068h.167l.363-.045h.207l.328-.034h5.158l.589.039v1.687l-.594-.034h-4.647l-.319.029h-.216l-.329.035h-.206l-.363.039h-.167l-.53.069h-.059l-.491.069-.186.029-.344.059-.211.04-.319.059-.22.044-.295.059-.275.059-.265.059-.275.064-.265.064-.265.069-.265.069-.265.073-.25.069-.456.138-.123.039-.574.182-.147.054-.417.148-.2.074-.368.138-.24.093-.157.064-.314.128-.133.059-.432.192H165.5l-.388.182-.137.068-.29.143-.147.074-.289.152-.128.069-.4.226c-4.039,2.342-6.056,5.411-6.046,8.47v-1.766C157.7,127.888,159.716,124.819,163.755,122.482Z" fill="#1d68d6"/>
        <path id="Path_59" data-name="Path 59" d="M181.647,116.369a.086.086,0,0,1,0,.039v.03a.192.192,0,0,0,0,.034.252.252,0,0,0,0,.039v.025a.128.128,0,0,0,0,.039l.05.055.034.029h.034l.039.025.045.029.113.059h.029l.093.035h1.09l.122-.045h.089a.246.246,0,0,0,.083-.044.813.813,0,0,0,.211-.162.5.5,0,0,0,.133-.315v1.013a.583.583,0,0,1-.344.492l-.083.044H183.3l-.127.045h-.5a.138.138,0,0,1-.064,0h-.545l-.093-.035h-.034l-.108-.054h-.03l-.044-.029h-.029l-.034-.03a.283.283,0,0,1-.05-.054l-.029-.044V117.5h0a.128.128,0,0,1,0-.039v-1.087Z" fill="#05001d"/>
        <path id="Path_60" data-name="Path 60" d="M130.915,121.873a2.558,2.558,0,1,0-2.552-2.558A2.556,2.556,0,0,0,130.915,121.873Z" fill="#4a92fd"/>
        <path id="Path_61" data-name="Path 61" d="M129.762,116.369v.069a.192.192,0,0,1,0,.034h0v.064l.03.039.049.055.039.029h.029l.045.025.044.029.108.059h.034l.088.035h1.09l.123-.045h.088a.33.33,0,0,0,.088-.044.878.878,0,0,0,.206-.162.49.49,0,0,0,.26-.227v1.014a.574.574,0,0,1-.1.293.585.585,0,0,1-.239.2l-.084.044h-.083a1.277,1.277,0,0,1-.123.044h-.51a.118.118,0,0,1-.059,0h-.55l-.093-.034h-.029l-.089-.064h-.029l-.039-.03h-.035l-.034-.029a.278.278,0,0,1-.049-.054.246.246,0,0,1-.025-.045v-.059a.1.1,0,0,1,0-.034v-1.24a.082.082,0,0,0-.084-.029.074.074,0,0,0-.041.023A.078.078,0,0,0,129.762,116.369Z" fill="#05001d"/>
        <path id="Path_62" data-name="Path 62" d="M133,117.839a1.231,1.231,0,0,1,0,1.245c6.026-.418,12.3.713,16.911,3.4s6.536,6.331,5.8,9.837a5.832,5.832,0,0,1,2.14,0c-.7-3.5,1.271-7.146,5.889-9.837s10.928-3.816,16.95-3.4a1.244,1.244,0,0,1,0-1.245c-6.026.419-12.3-.713-16.911-3.4s-6.537-6.33-5.8-9.837a6.033,6.033,0,0,1-2.144,0c.7,3.5-1.271,7.141-5.889,9.837S139.022,118.258,133,117.839Z" fill="#4a92fd"/>
        <path id="Path_63" data-name="Path 63" d="M156.782,135.664a2.558,2.558,0,1,0-2.552-2.558A2.555,2.555,0,0,0,156.782,135.664Z" fill="#4a92fd"/>
        <path id="Path_64" data-name="Path 64" d="M155.639,130.16a.09.09,0,0,0,0,.04v.127l.029.045a.278.278,0,0,0,.049.054l.039.029h.03l.044.03.044.029.108.054h.034l.089.035h.25a.91.91,0,0,0,.128,0h.731a.981.981,0,0,0,.122-.044.291.291,0,0,0,.059,0h.03l.088-.045a.873.873,0,0,0,.206-.167.453.453,0,0,0,.138-.315v1.018a.583.583,0,0,1-.344.492l-.083.045h-.084l-.122.039h-.992l-.093-.035h-.029l-.113-.054h-.03l-.039-.029-.034-.025-.035-.029-.049-.049v-.04a.2.2,0,0,1,0-.034.069.069,0,0,1,0-.035v-.024a.069.069,0,0,0,0-.035v-1.106a.086.086,0,0,0-.035-.057.087.087,0,0,0-.122.021A.088.088,0,0,0,155.639,130.16Z" fill="#05001d"/>
        <path id="Path_65" data-name="Path 65" d="M155.776,102.514a.1.1,0,0,1,0,.034v.03a.065.065,0,0,0,0,.034.071.071,0,0,0,0,.029v.1l.049.054.035.029.034.03h.039l.044.029.113.054h.035l.088.035h1.109l.123-.044h.088l.083-.045a.813.813,0,0,0,.211-.162.488.488,0,0,0,.133-.315v1.013a.579.579,0,0,1-.1.3.565.565,0,0,1-.241.2.538.538,0,0,1-.083.05h-.03l-.053.024-.128.044h-1.075l-.093-.034h-.034c-.037-.018-.073-.038-.108-.059h-.03l-.039-.03.054-.024-.034-.03-.049-.054-.03-.039v-.035a.066.066,0,0,0,0-.034v-.025a.128.128,0,0,1,0-.039v-.984Z" fill="#05001d"/>
        <path id="Path_66" data-name="Path 66" d="M176.146,112.459c-3.695,2.139-3.71,5.607-.039,7.746a14.658,14.658,0,0,0,13.338,0c3.695-2.139,3.715-5.607.044-7.746A14.668,14.668,0,0,0,176.146,112.459Z" fill="#4a92fd"/>
        <g id="Group_1" data-name="Group 1" opacity="0.7">
          <path id="Path_67" data-name="Path 67" d="M179.8,121.528l2.994-5.194v5.475A15.912,15.912,0,0,1,179.8,121.528Z" fill="#dcdcdc" opacity="0.7"/>
          <path id="Path_68" data-name="Path 68" d="M185.789,111.136l-2.993,5.2v-5.479A15.9,15.9,0,0,1,185.789,111.136Z" fill="#dcdcdc" opacity="0.7"/>
        </g>
        <g id="Group_2" data-name="Group 2" opacity="0.3">
          <path id="Path_69" data-name="Path 69" d="M191.016,119a7.138,7.138,0,0,1-1.571,1.2,10.012,10.012,0,0,1-1.472.7l-5.167-4.57Z" fill="#dcdcdc" opacity="0.3"/>
          <path id="Path_70" data-name="Path 70" d="M176.147,112.459a10.01,10.01,0,0,1,1.472-.7l5.167,4.574-8.22-2.675A7.028,7.028,0,0,1,176.147,112.459Z" fill="#dcdcdc" opacity="0.3"/>
        </g>
        <path id="Path_71" data-name="Path 71" d="M181.647,115.843a1.159,1.159,0,1,1,2.317,0v.491a.583.583,0,0,1-.344.492,1.6,1.6,0,0,1-.809.2,1.657,1.657,0,0,1-.825-.2.555.555,0,0,1-.236-.2.573.573,0,0,1-.1-.294Z" fill="#4c4981"/>
        <path id="Path_72" data-name="Path 72" d="M150.284,98.6c-3.695,2.14-3.709,5.607-.044,7.742a14.675,14.675,0,0,0,13.339,0c3.7-2.14,3.714-5.607.044-7.746A14.663,14.663,0,0,0,150.284,98.6Z" fill="#4a92fd"/>
        <g id="Group_3" data-name="Group 3" opacity="0.7">
          <path id="Path_73" data-name="Path 73" d="M153.94,107.673l2.994-5.2v5.479A15.836,15.836,0,0,1,153.94,107.673Z" fill="#dcdcdc" opacity="0.7"/>
          <path id="Path_74" data-name="Path 74" d="M159.928,97.275l-2.994,5.2V97A16.314,16.314,0,0,1,159.928,97.275Z" fill="#dcdcdc" opacity="0.7"/>
        </g>
        <g id="Group_4" data-name="Group 4" opacity="0.3">
          <path id="Path_75" data-name="Path 75" d="M165.154,105.15a7.155,7.155,0,0,1-1.57,1.2,10.064,10.064,0,0,1-1.473.7l-5.167-4.574Z" fill="#dcdcdc" opacity="0.3"/>
          <path id="Path_76" data-name="Path 76" d="M150.285,98.6a10.007,10.007,0,0,1,1.472-.7l5.167,4.569-8.21-2.675A7.164,7.164,0,0,1,150.285,98.6Z" fill="#dcdcdc" opacity="0.3"/>
        </g>
        <path id="Path_77" data-name="Path 77" d="M155.776,101.987a1.158,1.158,0,1,1,2.316,0v.492a.579.579,0,0,1-.343.492,1.6,1.6,0,0,1-.81.2,1.681,1.681,0,0,1-.81-.217.565.565,0,0,1-.333-.492Z" fill="#4c4981"/>
        <path id="Path_78" data-name="Path 78" d="M124.266,112.459c-3.695,2.139-3.71,5.607-.039,7.746a14.658,14.658,0,0,0,13.338,0c3.695-2.139,3.715-5.607.044-7.746A14.668,14.668,0,0,0,124.266,112.459Z" fill="#4a92fd"/>
        <g id="Group_5" data-name="Group 5" opacity="0.7">
          <path id="Path_79" data-name="Path 79" d="M127.922,121.528l2.993-5.194v5.475A15.91,15.91,0,0,1,127.922,121.528Z" fill="#dcdcdc" opacity="0.7"/>
          <path id="Path_80" data-name="Path 80" d="M133.909,111.136l-2.993,5.2v-5.479A15.826,15.826,0,0,1,133.909,111.136Z" fill="#dcdcdc" opacity="0.7"/>
        </g>
        <g id="Group_6" data-name="Group 6" opacity="0.3">
          <path id="Path_81" data-name="Path 81" d="M139.135,119a7.048,7.048,0,0,1-1.57,1.2,10.071,10.071,0,0,1-1.473.7l-5.177-4.57Z" fill="#dcdcdc" opacity="0.3"/>
          <path id="Path_82" data-name="Path 82" d="M124.266,112.459a10.01,10.01,0,0,1,1.472-.7l5.167,4.574-8.21-2.675A7.031,7.031,0,0,1,124.266,112.459Z" fill="#dcdcdc" opacity="0.3"/>
        </g>
        <path id="Path_83" data-name="Path 83" d="M129.757,115.843a1.158,1.158,0,1,1,2.316,0v.491a.589.589,0,0,1-.1.293.579.579,0,0,1-.237.2,1.795,1.795,0,0,1-1.635,0,.572.572,0,0,1-.338-.492Z" fill="#4c4981"/>
        <path id="Path_84" data-name="Path 84" d="M150.128,126.255c-3.7,2.135-3.71,5.6-.04,7.742a14.666,14.666,0,0,0,13.339,0c3.695-2.14,3.714-5.612.044-7.747A14.683,14.683,0,0,0,150.128,126.255Z" fill="#4a92fd"/>
        <g id="Group_7" data-name="Group 7" opacity="0.7">
          <path id="Path_85" data-name="Path 85" d="M153.784,135.325l2.993-5.2V135.6A15.572,15.572,0,0,1,153.784,135.325Z" fill="#dcdcdc" opacity="0.7"/>
          <path id="Path_86" data-name="Path 86" d="M159.776,124.927l-3,5.2v-5.474A15.475,15.475,0,0,1,159.776,124.927Z" fill="#dcdcdc" opacity="0.7"/>
        </g>
        <g id="Group_8" data-name="Group 8" opacity="0.3">
          <path id="Path_87" data-name="Path 87" d="M165,132.8a7.3,7.3,0,0,1-1.571,1.2,10.655,10.655,0,0,1-1.472.7l-5.172-4.574Z" fill="#dcdcdc" opacity="0.3"/>
          <path id="Path_88" data-name="Path 88" d="M150.127,126.255a10.044,10.044,0,0,1,1.473-.7l5.167,4.574-8.21-2.676A7.275,7.275,0,0,1,150.127,126.255Z" fill="#dcdcdc" opacity="0.3"/>
        </g>
        <path id="Path_89" data-name="Path 89" d="M155.639,129.639a1.158,1.158,0,1,1,2.316,0v.492a.573.573,0,0,1-.1.293.566.566,0,0,1-.238.2,1.735,1.735,0,0,1-.814.2,1.686,1.686,0,0,1-.82-.2.585.585,0,0,1-.338-.491Z" fill="#4c4981"/>
      </g>
    </g>
    <g id="Group_19" data-name="Group 19" transform="translate(1315 581)" clip-path="url(#clip-path-3)">
      <path id="Path_90" data-name="Path 90" d="M1.2,123.861l.083.048v0h0L18.7,134l.015-.011V115.761L7.767,103.938l-6.482,1.684v18.192Z" fill="#1d68d6"/>
      <path id="Path_91" data-name="Path 91" d="M1.2,123.861l.083.048v0h0L18.7,134l.015-.011,45.442-26.33-.083-.049V89.321L7.767,103.938l-6.482,1.684v18.192Z" fill="#2150a1"/>
      <path id="Path_92" data-name="Path 92" d="M62.939,106.013l-1.6.937-.068-13.194,1.6-.938Z" fill="#1f6bf1"/>
      <path id="Path_93" data-name="Path 93" d="M59.26,108.137l-1.6.937-.068-13.2,1.6-.937Z" fill="#1f6bf1"/>
      <path id="Path_94" data-name="Path 94" d="M55.583,110.26l-1.6.938L53.912,98l1.6-.937Z" fill="#1f6bf1"/>
      <path id="Path_95" data-name="Path 95" d="M51.9,112.384l-1.6.937-.068-13.194,1.6-.937Z" fill="#1f6bf1"/>
      <path id="Path_96" data-name="Path 96" d="M48.226,114.508l-1.6.937-.068-13.194,1.6-.937Z" fill="#1f6bf1"/>
      <path id="Path_97" data-name="Path 97" d="M44.549,116.632l-1.6.937-.068-13.195,1.6-.937Z" fill="#1f6bf1"/>
      <path id="Path_98" data-name="Path 98" d="M40.87,118.756l-1.6.937L39.2,106.5l1.6-.937Z" fill="#1f6bf1"/>
      <path id="Path_99" data-name="Path 99" d="M37.193,120.879l-1.6.937-.068-13.194,1.6-.937Z" fill="#1f6bf1"/>
      <path id="Path_100" data-name="Path 100" d="M33.514,123l-1.6.937-.068-13.195,1.6-.937Z" fill="#1f6bf1"/>
      <path id="Path_101" data-name="Path 101" d="M29.836,125.127l-1.6.938-.068-13.2,1.6-.937Z" fill="#1f6bf1"/>
      <path id="Path_102" data-name="Path 102" d="M26.158,127.252l-1.6.937-.067-13.195,1.6-.938Z" fill="#1f6bf1"/>
      <path id="Path_103" data-name="Path 103" d="M22.48,129.375l-1.6.937-.068-13.194,1.6-.937Z" fill="#1f6bf1"/>
      <path id="Path_104" data-name="Path 104" d="M3.605,123.042l1.6.937.068-13.448-1.6-.937Z" fill="#1d68d6"/>
      <path id="Path_105" data-name="Path 105" d="M7.284,125.166l1.6.937.068-13.448-1.6-.938Z" fill="#1d68d6"/>
      <path id="Path_106" data-name="Path 106" d="M10.961,127.29l1.6.938.068-13.45-1.6-.937Z" fill="#1d68d6"/>
      <path id="Path_107" data-name="Path 107" d="M14.64,129.413l1.6.938L16.31,116.9l-1.6-.937Z" fill="#1d68d6"/>
      <path id="Path_108" data-name="Path 108" d="M18.7,115.711l45.456-26.34-17.5-10.138L1.2,105.573Z" fill="#4a92fd"/>
      <path id="Path_109" data-name="Path 109" d="M18.671,113.416l1.606-.93L6.032,104.233l-1.606.93Z" fill="#2150a1"/>
      <path id="Path_110" data-name="Path 110" d="M22.334,111.266l1.605-.931L9.7,102.081l-1.606.932Z" fill="#2150a1"/>
      <path id="Path_111" data-name="Path 111" d="M26,109.116l1.607-.931L13.359,99.931l-1.607.931Z" fill="#2150a1"/>
      <path id="Path_112" data-name="Path 112" d="M29.659,106.966l1.605-.931L17.021,97.781l-1.606.931Z" fill="#2150a1"/>
      <path id="Path_113" data-name="Path 113" d="M33.321,104.816l1.607-.931L20.684,95.631l-1.607.931Z" fill="#2150a1"/>
      <path id="Path_114" data-name="Path 114" d="M36.985,102.666l1.606-.931L24.346,93.481l-1.606.93Z" fill="#2150a1"/>
      <path id="Path_115" data-name="Path 115" d="M40.648,100.516l1.606-.931L28.009,91.331l-1.606.93Z" fill="#2150a1"/>
      <path id="Path_116" data-name="Path 116" d="M44.31,98.365l1.607-.93L31.673,89.181l-1.607.93Z" fill="#2150a1"/>
      <path id="Path_117" data-name="Path 117" d="M47.973,96.215l1.606-.93L35.334,87.031l-1.605.93Z" fill="#2150a1"/>
      <path id="Path_118" data-name="Path 118" d="M51.635,94.064l1.607-.93L39,84.881l-1.605.93Z" fill="#2150a1"/>
      <path id="Path_119" data-name="Path 119" d="M55.3,91.914l1.606-.93L42.661,82.731l-1.607.93Z" fill="#2150a1"/>
      <path id="Path_120" data-name="Path 120" d="M58.962,89.764l1.605-.93L46.323,80.581l-1.605.93Z" fill="#2150a1"/>
      <path id="Path_121" data-name="Path 121" d="M4.044,103.584l.083.047v0h0l17.411,10.089.017-.011L67,87.382l-.083-.049V69.044L10.611,83.661,4.127,85.345v18.192Z" fill="#f3b405"/>
      <path id="Path_122" data-name="Path 122" d="M4.044,103.584l.083.047v0h0l17.411,10.089.017-.011V95.484L10.611,83.661,4.127,85.345v18.192Z" fill="#e8c56b"/>
      <path id="Path_123" data-name="Path 123" d="M21.541,95.434,67,69.093,49.5,58.955,4.045,85.3Z" fill="#ffda7e"/>
      <path id="Path_124" data-name="Path 124" d="M21.514,93.139l1.606-.93L8.876,83.955l-1.606.93Z" fill="#f3b405"/>
      <path id="Path_125" data-name="Path 125" d="M25.176,90.989l1.606-.931L12.538,81.8l-1.606.931Z" fill="#f3b405"/>
      <path id="Path_126" data-name="Path 126" d="M28.839,88.839l1.606-.931L16.2,79.654l-1.606.931Z" fill="#f3b405"/>
      <path id="Path_127" data-name="Path 127" d="M32.5,86.689l1.607-.931L19.864,77.5l-1.607.931Z" fill="#f3b405"/>
      <path id="Path_128" data-name="Path 128" d="M36.165,84.539l1.605-.931L23.526,75.354l-1.605.931Z" fill="#f3b405"/>
      <path id="Path_129" data-name="Path 129" d="M39.828,82.389l1.605-.931L27.19,73.2l-1.606.93Z" fill="#f3b405"/>
      <path id="Path_130" data-name="Path 130" d="M43.49,80.239l1.607-.931L30.853,71.054l-1.607.93Z" fill="#f3b405"/>
      <path id="Path_131" data-name="Path 131" d="M47.153,78.088l1.605-.93L34.515,68.9l-1.606.93Z" fill="#f3b405"/>
      <path id="Path_132" data-name="Path 132" d="M50.815,75.937l1.607-.93L38.178,66.754l-1.607.93Z" fill="#f3b405"/>
      <path id="Path_133" data-name="Path 133" d="M54.479,73.787l1.605-.93L41.84,64.6l-1.605.93Z" fill="#f3b405"/>
      <path id="Path_134" data-name="Path 134" d="M58.142,71.637l1.605-.93L45.5,62.453l-1.606.93Z" fill="#f3b405"/>
      <path id="Path_135" data-name="Path 135" d="M61.8,69.487l1.607-.93L49.167,60.3l-1.607.931Z" fill="#f3b405"/>
      <path id="Path_136" data-name="Path 136" d="M65.781,85.735l-1.6.937-.068-13.194,1.6-.938Z" fill="#ffda7e"/>
      <path id="Path_137" data-name="Path 137" d="M62.1,87.859l-1.6.937-.068-13.2,1.6-.937Z" fill="#ffda7e"/>
      <path id="Path_138" data-name="Path 138" d="M58.425,89.984l-1.6.937-.068-13.2,1.6-.937Z" fill="#ffda7e"/>
      <path id="Path_139" data-name="Path 139" d="M54.746,92.107l-1.6.937L53.076,79.85l1.6-.937Z" fill="#ffda7e"/>
      <path id="Path_140" data-name="Path 140" d="M51.069,94.231l-1.6.937-.068-13.2,1.6-.937Z" fill="#ffda7e"/>
      <path id="Path_141" data-name="Path 141" d="M47.391,96.355l-1.6.937-.068-13.2,1.6-.937Z" fill="#ffda7e"/>
      <path id="Path_142" data-name="Path 142" d="M43.713,98.478l-1.6.938-.069-13.2,1.6-.937Z" fill="#ffda7e"/>
      <path id="Path_143" data-name="Path 143" d="M40.035,100.6l-1.6.937-.068-13.194,1.6-.937Z" fill="#ffda7e"/>
      <path id="Path_144" data-name="Path 144" d="M36.356,102.726l-1.6.937-.068-13.194,1.6-.938Z" fill="#ffda7e"/>
      <path id="Path_145" data-name="Path 145" d="M32.679,104.85l-1.6.937-.068-13.195,1.6-.937Z" fill="#ffda7e"/>
      <path id="Path_146" data-name="Path 146" d="M29,106.973l-1.6.938-.068-13.195,1.6-.937Z" fill="#ffda7e"/>
      <path id="Path_147" data-name="Path 147" d="M25.322,109.1l-1.6.937L23.652,96.84l1.6-.937Z" fill="#ffda7e"/>
      <path id="Path_148" data-name="Path 148" d="M6.449,102.765l1.6.937.068-13.449-1.6-.937Z" fill="#f3b405"/>
      <path id="Path_149" data-name="Path 149" d="M10.127,104.889l1.6.937L11.8,92.377l-1.6-.937Z" fill="#f3b405"/>
      <path id="Path_150" data-name="Path 150" d="M13.805,107.013l1.6.937L15.475,94.5l-1.6-.937Z" fill="#f3b405"/>
      <path id="Path_151" data-name="Path 151" d="M17.482,109.136l1.6.937.067-13.448-1.6-.937Z" fill="#f3b405"/>
      <path id="Path_152" data-name="Path 152" d="M2.141,85.982l.082.048h0L19.639,96.12l.015-.009L65.1,69.781l-.083-.051V51.441L8.707,66.058,2.223,67.743V85.935Z" fill="#12924f"/>
      <path id="Path_153" data-name="Path 153" d="M2.141,85.982l.082.048h0L19.639,96.12l.015-.009V77.881L8.707,66.058,2.223,67.743V85.935Z" fill="#0f703b"/>
      <path id="Path_154" data-name="Path 154" d="M19.638,77.832,65.1,51.491,47.6,41.352,2.141,67.693Z" fill="#67ac5b"/>
      <path id="Path_155" data-name="Path 155" d="M19.61,75.537l1.606-.93L6.972,66.353l-1.606.93Z" fill="#12924f"/>
      <path id="Path_156" data-name="Path 156" d="M23.272,73.387l1.607-.93L10.635,64.2l-1.607.93Z" fill="#12924f"/>
      <path id="Path_157" data-name="Path 157" d="M26.936,71.237l1.606-.93L14.3,62.053l-1.606.93Z" fill="#12924f"/>
      <path id="Path_158" data-name="Path 158" d="M30.6,69.086l1.606-.93L17.961,59.9l-1.606.93Z" fill="#12924f"/>
      <path id="Path_159" data-name="Path 159" d="M34.261,66.936l1.607-.93L21.623,57.751l-1.607.931Z" fill="#12924f"/>
      <path id="Path_160" data-name="Path 160" d="M37.924,64.786l1.605-.931L25.286,55.6l-1.605.931Z" fill="#12924f"/>
      <path id="Path_161" data-name="Path 161" d="M41.586,62.636l1.607-.931L28.949,53.451l-1.607.931Z" fill="#12924f"/>
      <path id="Path_162" data-name="Path 162" d="M45.25,60.486l1.605-.931L32.611,51.3l-1.606.931Z" fill="#12924f"/>
      <path id="Path_163" data-name="Path 163" d="M48.913,58.336l1.605-.931L36.274,49.151l-1.605.931Z" fill="#12924f"/>
      <path id="Path_164" data-name="Path 164" d="M52.575,56.185l1.607-.93L39.937,47l-1.607.93Z" fill="#12924f"/>
      <path id="Path_165" data-name="Path 165" d="M56.238,54.035l1.605-.93L43.6,44.851l-1.606.93Z" fill="#12924f"/>
      <path id="Path_166" data-name="Path 166" d="M59.9,51.885l1.607-.93L47.263,42.7l-1.606.93Z" fill="#12924f"/>
      <path id="Path_167" data-name="Path 167" d="M63.878,68.133l-1.6.937-.068-13.194,1.6-.937Z" fill="#67ac5b"/>
      <path id="Path_168" data-name="Path 168" d="M60.2,70.257l-1.6.937L58.53,58l1.6-.938Z" fill="#67ac5b"/>
      <path id="Path_169" data-name="Path 169" d="M56.521,72.381l-1.6.937-.068-13.2,1.6-.937Z" fill="#67ac5b"/>
      <path id="Path_170" data-name="Path 170" d="M52.844,74.5l-1.6.938-.068-13.2,1.6-.937Z" fill="#67ac5b"/>
      <path id="Path_171" data-name="Path 171" d="M49.165,76.628l-1.6.937L47.5,64.371l1.6-.937Z" fill="#67ac5b"/>
      <path id="Path_172" data-name="Path 172" d="M45.488,78.752l-1.6.937L43.817,66.5l1.6-.938Z" fill="#67ac5b"/>
      <path id="Path_173" data-name="Path 173" d="M41.809,80.877l-1.6.937-.068-13.2,1.6-.937Z" fill="#67ac5b"/>
      <path id="Path_174" data-name="Path 174" d="M38.131,83l-1.6.937-.068-13.2,1.6-.937Z" fill="#67ac5b"/>
      <path id="Path_175" data-name="Path 175" d="M34.454,85.124l-1.6.937-.067-13.194,1.6-.937Z" fill="#67ac5b"/>
      <path id="Path_176" data-name="Path 176" d="M30.775,87.248l-1.6.937L29.1,74.99l1.6-.937Z" fill="#67ac5b"/>
      <path id="Path_177" data-name="Path 177" d="M27.1,89.372l-1.6.937-.068-13.2,1.6-.937Z" fill="#67ac5b"/>
      <path id="Path_178" data-name="Path 178" d="M23.419,91.495l-1.6.938-.068-13.2,1.6-.937Z" fill="#67ac5b"/>
      <path id="Path_179" data-name="Path 179" d="M4.545,85.162l1.6.937.068-13.449-1.6-.937Z" fill="#12924f"/>
      <path id="Path_180" data-name="Path 180" d="M8.224,87.287l1.6.937.068-13.449-1.6-.937Z" fill="#12924f"/>
      <path id="Path_181" data-name="Path 181" d="M11.9,89.411l1.6.937L13.571,76.9l-1.6-.938Z" fill="#12924f"/>
      <path id="Path_182" data-name="Path 182" d="M15.58,91.534l1.6.938.068-13.45-1.6-.937Z" fill="#12924f"/>
      <path id="Path_183" data-name="Path 183" d="M28.027,57.582v3.293c0,1.431,2.125,2.593,4.746,2.593s4.746-1.159,4.746-2.593V57.582Z" fill="#1d68d6"/>
      <path id="Path_184" data-name="Path 184" d="M37.519,57.582c0,1.43-2.126,2.593-4.746,2.593s-4.746-1.16-4.746-2.593,2.125-2.593,4.746-2.593S37.519,56.152,37.519,57.582Z" fill="#4a92fd"/>
      <path id="Path_185" data-name="Path 185" d="M31.425,60.065v3.293a5.3,5.3,0,0,1-2.779-1.2V58.859A5.28,5.28,0,0,0,31.425,60.065Z" fill="#2150a1"/>
      <path id="Path_186" data-name="Path 186" d="M32.976,37.084a.453.453,0,0,1,.451.453v2.9a.451.451,0,1,1-.9,0V37.535a.447.447,0,0,1,.451-.451Z" fill="#2150a1"/>
      <path id="Path_187" data-name="Path 187" d="M32.976,41.358a.453.453,0,0,1,.451.453v2.906a.452.452,0,0,1-.9,0v-2.9a.454.454,0,0,1,.452-.454Z" fill="#2150a1"/>
      <path id="Path_188" data-name="Path 188" d="M32.976,45.636a.453.453,0,0,1,.451.453v2.906a.452.452,0,0,1-.9,0v-2.9a.453.453,0,0,1,.279-.419A.45.45,0,0,1,32.976,45.636Z" fill="#2150a1"/>
      <path id="Path_189" data-name="Path 189" d="M32.976,49.914a.453.453,0,0,1,.451.453v2.906a.451.451,0,1,1-.9,0V50.366a.45.45,0,0,1,.131-.321.447.447,0,0,1,.32-.132Z" fill="#2150a1"/>
      <path id="Path_190" data-name="Path 190" d="M32.976,54.188a.453.453,0,0,1,.451.453v2.906a.451.451,0,1,1-.9,0V54.641a.453.453,0,0,1,.451-.453Z" fill="#2150a1"/>
      <path id="Path_191" data-name="Path 191" d="M34.369,44.978v.852a1.459,1.459,0,0,1-.79,1.3v-.844a.827.827,0,0,0,.137-.46v-.852a.827.827,0,0,0-.137-.46v-.844a1.448,1.448,0,0,1,.79,1.3Z" fill="#2150a1"/>
      <path id="Path_192" data-name="Path 192" d="M34.368,40.7v.852a1.455,1.455,0,0,1-.791,1.306v-.845a.827.827,0,0,0,.137-.46V40.7a.82.82,0,0,0-.137-.459V39.4a1.452,1.452,0,0,1,.791,1.3Z" fill="#2150a1"/>
      <path id="Path_193" data-name="Path 193" d="M34.369,49.252V50.1a1.458,1.458,0,0,1-.79,1.306v-.842a.827.827,0,0,0,.137-.46v-.852a.828.828,0,0,0-.137-.456v-.846a1.452,1.452,0,0,1,.793,1.3Z" fill="#2150a1"/>
      <path id="Path_194" data-name="Path 194" d="M34.369,53.53v.852a1.454,1.454,0,0,1-.79,1.3v-.844a.827.827,0,0,0,.137-.46v-.852a.836.836,0,0,0-.137-.46v-.844a1.454,1.454,0,0,1,.79,1.3Z" fill="#2150a1"/>
      <path id="Path_195" data-name="Path 195" d="M32.375,52.227v.844a.828.828,0,0,0-.137.46v.852a.828.828,0,0,0,.137.46v.844a1.452,1.452,0,0,1-.79-1.3v-.852a1.449,1.449,0,0,1,.79-1.3Z" fill="#2150a1"/>
      <path id="Path_196" data-name="Path 196" d="M32.375,47.949v.844a.828.828,0,0,0-.138.46V50.1a.828.828,0,0,0,.138.46v.844a1.449,1.449,0,0,1-.791-1.3v-.852a1.449,1.449,0,0,1,.791-1.3Z" fill="#2150a1"/>
      <path id="Path_197" data-name="Path 197" d="M32.374,39.4v.844a.827.827,0,0,0-.137.46v.852a.827.827,0,0,0,.137.46v.845a1.45,1.45,0,0,1-.79-1.3V40.7a1.455,1.455,0,0,1,.789-1.3Z" fill="#2150a1"/>
      <path id="Path_198" data-name="Path 198" d="M32.976,34.978a1.422,1.422,0,0,1,1.393,1.446v.854a1.458,1.458,0,0,1-.79,1.3v-.844a.837.837,0,0,0,.137-.46v-.855a.745.745,0,0,0-.2-.553.742.742,0,0,0-1.279.553v.852a.827.827,0,0,0,.137.46v.844a1.451,1.451,0,0,1-.79-1.3v-.851a1.422,1.422,0,0,1,1.393-1.446Z" fill="#2150a1"/>
      <path id="Path_199" data-name="Path 199" d="M32.374,43.673v.844a.827.827,0,0,0-.137.46v.852a.827.827,0,0,0,.137.46v.844a1.451,1.451,0,0,1-.79-1.3v-.852a1.452,1.452,0,0,1,.79-1.3Z" fill="#2150a1"/>
      <path id="Path_200" data-name="Path 200" d="M32.454,30.706a8.155,8.155,0,1,0-8.125-8.155A8.14,8.14,0,0,0,32.454,30.706Z" fill="#2150a1"/>
      <path id="Path_201" data-name="Path 201" d="M31.136,19.111,30.908,7.787h3.2l-.228,11.324a.689.689,0,0,1-.406.565,2.135,2.135,0,0,1-1.941,0A.683.683,0,0,1,31.136,19.111Z" fill="#7d90aa"/>
      <path id="Path_202" data-name="Path 202" d="M32.526,10.117a2.348,2.348,0,1,0-2.34-2.348A2.344,2.344,0,0,0,32.526,10.117Z" fill="#4a92fd"/>
      <path id="Path_203" data-name="Path 203" d="M56.252,22.847a2.348,2.348,0,1,0-2.34-2.348A2.344,2.344,0,0,0,56.252,22.847Z" fill="#4a92fd"/>
      <path id="Path_204" data-name="Path 204" d="M31.644,9.245l-.011-.118c-.007-.066-.015-.133-.025-.2a.628.628,0,0,0-.013-.094c-.015-.1-.032-.2-.052-.294V6.987c.019.1.035.194.051.292a.673.673,0,0,0,.013.094c.009.066.018.133.025.2,0,.038.007.074.011.118q.009.092.014.184a.8.8,0,0,0,.006.118.4.4,0,0,1,0,.084V9.8c0-.083,0-.166-.007-.25a.8.8,0,0,0-.006-.118A1.215,1.215,0,0,0,31.644,9.245Z" fill="#3a3768"/>
      <path id="Path_205" data-name="Path 205" d="M33.51,8.546A6.48,6.48,0,0,0,33.369,9.9V8.348A6.489,6.489,0,0,1,33.51,6.99Z" fill="#3a3768"/>
      <path id="Path_206" data-name="Path 206" d="M38.784,23.409l.369-.208.117-.064.263-.14.134-.068.267-.133.125-.061c.117-.057.235-.118.352-.169l.036-.016q.2-.091.4-.177l.117-.052c.1-.041.192-.081.287-.118l.145-.059.117-.047c.033-.014.068-.026.1-.039l.336-.128.182-.067.382-.133.137-.048c.174-.058.352-.118.524-.17l.118-.034c.14-.044.281-.085.422-.126l.061-.018.168-.046.243-.067c.08-.022.161-.042.241-.064l.247-.062.243-.059.248-.059.245-.054.25-.054.08-.018.193-.038.2-.041.29-.054.193-.035.321-.053.167-.028c.143-.022.289-.045.433-.065l.055-.008c.16-.022.319-.044.48-.064l.154-.019c.117-.013.222-.027.333-.039l.188-.02.3-.029.2-.019.168-.014.125-.009.2-.015.292-.02.2-.013.3-.015.194-.008.328-.012.167-.006h.034l.332-.006H52.74l.182.006.271.007h.045l.363.017.181.008c.18.009.358.02.537.032h.007v1.554l-.533-.034-.181-.007-.364-.017-.315-.008H51.609l-.365.007-.168.006-.326.012-.194.008-.3.015-.2.013-.292.019-.2.017-.292.024-.2.019-.3.029-.189.02L48.24,22l-.155.019c-.162.02-.323.041-.484.065l-.055.008c-.146.02-.29.042-.433.065l-.169.028-.318.053-.194.035-.289.054-.2.041-.271.055-.25.054-.245.054-.248.059-.244.059-.245.062c-.081.021-.161.041-.241.064l-.243.067-.235.064c-.141.041-.282.083-.421.126l-.117.034c-.176.054-.352.112-.524.17l-.137.047-.383.134-.181.067-.336.128L41.4,23.7l-.144.059-.287.118-.117.052q-.2.087-.4.177l-.036.016c-.117.055-.235.111-.352.169l-.126.061-.265.133-.134.068c-.089.046-.176.093-.264.14l-.117.064c-.125.068-.248.137-.369.208-3.7,2.143-5.546,4.96-5.546,7.775V31.19C33.228,28.375,35.078,25.557,38.784,23.409Z" fill="#1d68d6"/>
      <path id="Path_207" data-name="Path 207" d="M55.19,17.8a.326.326,0,0,0,0,.034l.007.027a.314.314,0,0,0,.009.032.245.245,0,0,0,.011.026.083.083,0,0,0,.015.033l.014.024.026.038.016.021a.614.614,0,0,0,.046.048c.006,0,.011.012.018.018a.251.251,0,0,0,.033.027.289.289,0,0,0,.029.024l.038.026.041.026a.984.984,0,0,0,.1.051l.031.013c.027.012.055.022.083.032l.031.011.055.017.042.011.059.013.04.008c.04.007.08.012.118.017h.365l.053-.006.048-.007.056-.009.045-.01.066-.015.036-.011c.039-.011.076-.024.118-.038l.053-.024.028-.012A.8.8,0,0,0,57,18.2a.754.754,0,0,0,.2-.155.421.421,0,0,0,.117-.289v.932a.534.534,0,0,1-.315.44c-.025.014-.051.028-.078.041l-.027.012-.048.021h0a1.178,1.178,0,0,1-.117.039h-.009l-.027.006-.066.017h-.045l-.056.009h-.047l-.054.006h-.365a.61.61,0,0,1-.117-.018h-.006l-.034-.007-.059-.013-.042-.012-.054-.015h-.012l-.019-.007c-.029-.009-.056-.02-.085-.032l-.029-.013a.9.9,0,0,1-.1-.051l-.013-.008-.027-.018-.039-.026-.029-.024-.033-.027h-.007L55.342,19a.425.425,0,0,1-.045-.048l-.011-.011-.007-.011a.349.349,0,0,1-.025-.038l-.011-.015a.038.038,0,0,1,0-.008.211.211,0,0,1-.016-.033c0-.007-.006-.013-.008-.02s0,0,0-.006a.171.171,0,0,0-.009-.032c0-.011,0-.015,0-.022v-1A.3.3,0,0,0,55.19,17.8Z" fill="#05001d"/>
      <path id="Path_208" data-name="Path 208" d="M8.656,22.847A2.348,2.348,0,1,0,6.316,20.5,2.344,2.344,0,0,0,8.656,22.847Z" fill="#4a92fd"/>
      <path id="Path_209" data-name="Path 209" d="M7.593,17.8q0,.017,0,.034v.027a.121.121,0,0,0,.009.032.257.257,0,0,0,.012.026.084.084,0,0,0,.015.033.157.157,0,0,0,.014.024.353.353,0,0,0,.025.038l.018.021a.426.426,0,0,0,.045.048l.018.018.033.027a.286.286,0,0,0,.029.024l.039.026.04.026a1.006,1.006,0,0,0,.1.051l.031.013c.027.012.055.022.083.032l.031.011.055.017.041.011.059.013.04.008c.04.007.081.012.117.017h.366l.053-.006.048-.007.055-.009.045-.01.066-.015.036-.011a1.179,1.179,0,0,0,.117-.038l.054-.024.027-.012c.027-.013.053-.026.079-.041a.777.777,0,0,0,.191-.151.426.426,0,0,0,.117-.289v.932a.535.535,0,0,1-.314.44l-.078.041-.028.012-.047.021H9.23a1.185,1.185,0,0,1-.117.039H9.1l-.028.006-.066.017H8.967l-.056.009H8.863l-.053.006H8.465a.618.618,0,0,1-.117-.018H8.339L8.3,19.26l-.059-.013L8.2,19.235l-.055-.015H8.137l-.019-.007c-.028-.009-.056-.02-.083-.032L8,19.168a1,1,0,0,1-.1-.051l-.013-.008-.028-.018-.038-.026L7.8,19.042l-.033-.027L7.751,19c-.015-.015-.031-.032-.045-.048L7.7,18.944l-.008-.011L7.664,18.9l-.011-.015v-.008c0-.011-.011-.022-.015-.033a.157.157,0,0,1-.009-.02v-.006a.317.317,0,0,1-.008-.032l-.007-.022a.157.157,0,0,1,0-.033.144.144,0,0,1,0-.022.022.022,0,0,1,0-.009v-.931C7.591,17.774,7.593,17.784,7.593,17.8Z" fill="#05001d"/>
      <path id="Path_210" data-name="Path 210" d="M25.172,24.466,25,24.381c-.1-.051-.2-.1-.308-.15l-.171-.083L24.182,24l-.146-.065q-.243-.106-.49-.208l-.06-.024c-.146-.059-.294-.118-.442-.172l-.168-.062c-.117-.042-.229-.085-.344-.125l-.19-.066L22,23.156,21.8,23.09l-.187-.059-.264-.08-.19-.055-.268-.077-.189-.052-.279-.073c-.061-.015-.118-.032-.182-.046-.1-.026-.2-.051-.305-.074l-.16-.039-.409-.091-.059-.013c-.157-.034-.315-.066-.47-.1l-.146-.028-.323-.06c-.174-.031-.352-.061-.526-.09h-.027c-.186-.029-.372-.058-.559-.084l-.177-.023L16.691,22l-.211-.024-.361-.04-.235-.024-.262-.024c-.086-.007-.17-.015-.256-.021l-.262-.02-.258-.018-.262-.015-.258-.013c-.087,0-.175-.008-.263-.011l-.268-.009h-.221l-.283-.006H12.065l-.181.006c-.164,0-.33.011-.495.018l-.184.009c-.212.011-.426.022-.639.037V20.29q.319-.021.638-.037l.183-.008.494-.018H13.3l.283.006.221.006h.262l.263.011.258.013.263.015.257.018.262.02.257.021.261.024.117.011.117.013.359.04.211.025c.129.015.257.032.386.049l.179.024c.187.027.372.054.558.084h.027c.176.028.352.059.527.09l.044.008.278.052.146.028c.157.031.315.063.47.1l.061.013.406.091.161.039c.1.025.2.048.3.074l.182.046.28.073.189.052.269.077.189.055.265.08.186.059.089.027.117.039.34.118.19.066c.117.04.235.083.344.125l.169.063c.148.055.295.118.442.172l.059.024c.164.067.329.137.491.208l.144.065.339.153.173.083.308.15.171.087c.106.054.21.108.315.165l.147.078c.15.083.3.166.447.252.086.049.17.1.254.151l.04.025c.059.035.117.072.174.108s.1.065.156.1l.169.111.149.1.164.118c.048.033.1.066.143.1l.16.118c.046.034.093.067.137.1l.156.118c.052.039.088.067.13.1s.1.081.151.118l.122.093.147.126.117.1.145.131.1.091.011.011.028.026c.063.06.127.118.188.181l.052.049q.1.1.2.205c.009.008.018.018.026.026.059.062.118.118.173.186l.046.051q.094.1.183.209a.253.253,0,0,0,.022.027c.053.063.1.126.156.19l.041.052.034.042c.019.024.035.047.053.071.042.054.083.107.117.161.027.035.052.071.077.106s.074.106.11.16c.025.035.049.071.073.107s.07.108.1.164c.022.034.045.068.066.1.035.059.07.118.1.177l.042.073.01.019c.029.053.056.1.085.158.018.034.036.067.054.1.031.06.06.118.088.181l.039.079c.04.087.079.173.117.26.007.015.012.029.018.044.031.073.06.146.087.219v.009c.013.032.024.065.035.1.018.051.036.1.053.153s.023.075.036.118.031.1.045.147.021.078.032.118.027.1.039.144.018.08.027.118.022.1.032.143a.171.171,0,0,0,0,.025c.006.032.01.062.016.094s.018.1.026.146.012.08.018.118.014.1.02.143.008.083.013.124.009.094.013.143.006.083.008.124l.007.142v1.767c0-.072,0-.143-.006-.213q0-.071-.007-.141l-.007-.124-.014-.144a.927.927,0,0,0-.013-.118c0-.037-.012-.1-.019-.144l-.018-.118c-.008-.049-.018-.1-.026-.146s-.015-.079-.022-.118l-.032-.143c-.009-.04-.018-.08-.028-.118s-.025-.1-.038-.144l-.032-.118c-.014-.049-.031-.1-.046-.147s-.022-.075-.035-.118-.035-.1-.054-.153-.025-.072-.038-.107c-.028-.073-.057-.147-.087-.22l0-.039c-.036-.087-.075-.174-.118-.26l-.039-.078c-.028-.061-.058-.118-.089-.183-.016-.033-.035-.066-.053-.1-.028-.052-.055-.1-.085-.158l-.054-.092c-.034-.059-.068-.118-.1-.177l-.065-.1c-.034-.054-.069-.108-.1-.163l-.073-.107c-.036-.054-.073-.107-.112-.16l-.076-.106c-.04-.054-.081-.108-.118-.162l-.087-.118c-.014-.017-.028-.034-.041-.052-.052-.064-.1-.127-.157-.19l-.021-.027q-.089-.1-.183-.209c-.015-.017-.031-.034-.047-.051-.056-.062-.118-.125-.173-.186l-.025-.026q-.1-.1-.2-.205l-.052-.049c-.062-.061-.125-.118-.189-.182l-.028-.027-.112-.1-.143-.131-.117-.1c-.048-.041-.1-.084-.147-.125l-.125-.1-.15-.118-.132-.1c-.052-.039-.1-.079-.155-.118l-.137-.1-.16-.118c-.054-.04-.1-.067-.143-.1l-.164-.118-.149-.1-.17-.111-.155-.1-.174-.108c-.1-.059-.194-.118-.294-.176-.148-.086-.3-.17-.449-.252l-.152-.072C25.383,24.576,25.279,24.518,25.172,24.466Z" fill="#1d68d6"/>
      <path id="Path_211" data-name="Path 211" d="M10.57,19.146a1.131,1.131,0,0,1,0,1.141c5.52-.383,11.275.657,15.5,3.123s6,5.817,5.32,9.031a5.392,5.392,0,0,1,1.964,0c-.641-3.213,1.167-6.565,5.423-9.031s10.026-3.506,15.55-3.123a1.131,1.131,0,0,1,.006-1.141c-5.529.383-11.287-.657-15.515-3.123s-6-5.817-5.32-9.031a5.4,5.4,0,0,1-1.965,0c.642,3.213-1.166,6.565-5.421,9.031S16.09,19.529,10.57,19.146Z" fill="#4a92fd"/>
      <path id="Path_212" data-name="Path 212" d="M32.383,35.52a2.348,2.348,0,1,0-2.339-2.348A2.344,2.344,0,0,0,32.383,35.52Z" fill="#4a92fd"/>
      <path id="Path_213" data-name="Path 213" d="M31.321,30.466c0,.011,0,.023,0,.034l.007.027a.33.33,0,0,0,.009.032.171.171,0,0,0,.01.026.282.282,0,0,0,.015.033l.014.025c.008.012.017.025.026.037l.017.021q.021.025.046.049a.115.115,0,0,0,.018.017.252.252,0,0,0,.033.027.288.288,0,0,0,.029.023l.037.026.041.026a.984.984,0,0,0,.1.051l.031.014.083.032.031.009.055.017.042.011.059.013.04.008c.04.007.08.013.117.017H32.6l.048-.006.056-.011.045-.008L32.815,31l.036-.01c.039-.012.076-.025.117-.039l.053-.023.028-.012c.027-.013.053-.026.078-.04a.782.782,0,0,0,.191-.151.426.426,0,0,0,.118-.29v.932a.534.534,0,0,1-.315.44.8.8,0,0,1-.077.041l-.027.012-.048.021h-.006a1.181,1.181,0,0,1-.118.038h-.009l-.027.007-.066.015H32.7l-.056.009H32.6l-.054.006h-.352a.612.612,0,0,1-.118-.017h-.008l-.034-.007-.059-.013-.042-.011-.054-.017h-.012l-.019-.007c-.029-.009-.056-.02-.085-.032l-.029-.013a.9.9,0,0,1-.1-.051l-.013-.007-.027-.019a.436.436,0,0,1-.039-.026.288.288,0,0,1-.029-.024.373.373,0,0,1-.033-.027h-.007l-.011-.013a.425.425,0,0,1-.045-.048l-.011-.011-.007-.011a.348.348,0,0,1-.025-.038.067.067,0,0,1-.011-.015v-.008s-.011-.022-.015-.033,0-.013-.008-.019,0,0,0-.007a.148.148,0,0,0-.009-.032c0-.011,0-.014-.006-.021v-1A.285.285,0,0,0,31.321,30.466Z" fill="#05001d"/>
      <path id="Path_214" data-name="Path 214" d="M31.463,5.069a.3.3,0,0,0,0,.033.247.247,0,0,0,.006.028.042.042,0,0,0,.009.032l.012.026a.083.083,0,0,0,.015.033l.014.024a.337.337,0,0,0,.025.038l.018.021a.424.424,0,0,0,.045.048l.018.018.033.027a.291.291,0,0,0,.029.024l.039.026.04.026a.892.892,0,0,0,.1.051l.031.013c.027.012.055.022.083.032l.031.011.055.015.041.012.059.013.04.008c.04.007.081.012.117.016h.366l.053-.006.048-.007.055-.009.045-.009.066-.017.036-.009a1.175,1.175,0,0,0,.118-.039l.054-.022.027-.012c.027-.013.053-.027.079-.041a.8.8,0,0,0,.191-.151.432.432,0,0,0,.118-.289v.931a.537.537,0,0,1-.314.441l-.077.041-.028.012-.047.02c-.038.014-.075.027-.117.039h-.008l-.028.006-.066.017h-.043l-.056.009h-.458a.613.613,0,0,1-.118-.018l-.035-.008-.059-.012L32.082,6.5l-.055-.015h-.012L32,6.475c-.028-.009-.056-.02-.083-.032l-.03-.013c-.034-.015-.068-.033-.1-.051l-.013-.008a.228.228,0,0,1-.028-.019L31.7,6.328,31.674,6.3l-.033-.027h-.006l-.012-.012c-.015-.015-.03-.032-.045-.048l-.009-.011-.008-.012-.025-.037-.01-.015V6.134L31.51,6.1a.149.149,0,0,1-.009-.02V6.074a.317.317,0,0,1-.008-.032l-.007-.021V6.015a.166.166,0,0,1,0-.033.168.168,0,0,1,0-.022.03.03,0,0,1,0-.009V5.018C31.461,5.044,31.463,5.055,31.463,5.069Z" fill="#05001d"/>
      <path id="Path_215" data-name="Path 215" d="M50.151,14.2c-3.391,1.965-3.406,5.15-.036,7.115a13.437,13.437,0,0,0,12.238,0c3.391-1.966,3.406-5.152.04-7.117A13.451,13.451,0,0,0,50.151,14.2Z" fill="#4a92fd"/>
      <g id="Group_11" data-name="Group 11" opacity="0.7">
        <path id="Path_216" data-name="Path 216" d="M53.5,22.536l2.747-4.775v5.031A14.537,14.537,0,0,1,53.5,22.536Z" fill="#dcdcdc" opacity="0.7"/>
        <path id="Path_217" data-name="Path 217" d="M59,12.985,56.251,17.76v-5.03A14.536,14.536,0,0,1,59,12.985Z" fill="#dcdcdc" opacity="0.7"/>
      </g>
      <g id="Group_12" data-name="Group 12" opacity="0.3">
        <path id="Path_218" data-name="Path 218" d="M63.792,20.218a6.6,6.6,0,0,1-1.441,1.1,9.6,9.6,0,0,1-1.358.642l-4.743-4.2Z" fill="#dcdcdc" opacity="0.3"/>
        <path id="Path_219" data-name="Path 219" d="M50.151,14.2a9.389,9.389,0,0,1,1.359-.647l4.741,4.2L48.708,15.3A6.621,6.621,0,0,1,50.151,14.2Z" fill="#dcdcdc" opacity="0.3"/>
      </g>
      <path id="Path_220" data-name="Path 220" d="M55.188,17.311a1.063,1.063,0,1,1,2.126,0v.447A.533.533,0,0,1,57,18.2a1.637,1.637,0,0,1-1.5,0,.522.522,0,0,1-.309-.44Z" fill="#4c4981"/>
      <path id="Path_221" data-name="Path 221" d="M26.426,1.473c-3.39,1.964-3.406,5.15-.036,7.114a13.437,13.437,0,0,0,12.238,0c3.39-1.967,3.406-5.152.04-7.116A13.451,13.451,0,0,0,26.426,1.473Z" fill="#4a92fd"/>
      <g id="Group_13" data-name="Group 13" opacity="0.7">
        <path id="Path_222" data-name="Path 222" d="M29.778,9.806l2.747-4.775v5.031A14.535,14.535,0,0,1,29.778,9.806Z" fill="#dcdcdc" opacity="0.7"/>
        <path id="Path_223" data-name="Path 223" d="M35.272.256,32.525,5.031V0A14.536,14.536,0,0,1,35.272.256Z" fill="#dcdcdc" opacity="0.7"/>
      </g>
      <g id="Group_14" data-name="Group 14" opacity="0.3">
        <path id="Path_224" data-name="Path 224" d="M40.066,7.489a6.6,6.6,0,0,1-1.442,1.1,9.414,9.414,0,0,1-1.358.644l-4.741-4.2Z" fill="#dcdcdc" opacity="0.3"/>
        <path id="Path_225" data-name="Path 225" d="M26.426,1.473A9.5,9.5,0,0,1,27.782.825l4.743,4.2L24.982,2.573A6.612,6.612,0,0,1,26.426,1.473Z" fill="#dcdcdc" opacity="0.3"/>
      </g>
      <path id="Path_226" data-name="Path 226" d="M31.461,4.582a1.064,1.064,0,0,1,2.127,0v.447a.535.535,0,0,1-.314.44,1.635,1.635,0,0,1-1.5,0,.525.525,0,0,1-.309-.44Z" fill="#4c4981"/>
      <path id="Path_227" data-name="Path 227" d="M2.552,14.2c-3.39,1.965-3.406,5.15-.035,7.115a13.434,13.434,0,0,0,12.237,0c3.39-1.966,3.406-5.152.04-7.117A13.451,13.451,0,0,0,2.552,14.2Z" fill="#4a92fd"/>
      <g id="Group_15" data-name="Group 15" opacity="0.7">
        <path id="Path_228" data-name="Path 228" d="M5.908,22.536,8.655,17.76v5.031A14.529,14.529,0,0,1,5.908,22.536Z" fill="#dcdcdc" opacity="0.7"/>
        <path id="Path_229" data-name="Path 229" d="M11.4,12.985,8.655,17.76v-5.03A14.536,14.536,0,0,1,11.4,12.985Z" fill="#dcdcdc" opacity="0.7"/>
      </g>
      <g id="Group_16" data-name="Group 16" opacity="0.3">
        <path id="Path_230" data-name="Path 230" d="M16.2,20.218a6.633,6.633,0,0,1-1.442,1.1,9.544,9.544,0,0,1-1.358.642l-4.741-4.2Z" fill="#dcdcdc" opacity="0.3"/>
        <path id="Path_231" data-name="Path 231" d="M2.552,14.2a9.51,9.51,0,0,1,1.36-.647l4.743,4.2L1.112,15.3A6.612,6.612,0,0,1,2.552,14.2Z" fill="#dcdcdc" opacity="0.3"/>
      </g>
      <path id="Path_232" data-name="Path 232" d="M7.591,17.311a1.064,1.064,0,0,1,2.127,0v.447a.535.535,0,0,1-.314.44,1.64,1.64,0,0,1-1.5,0,.524.524,0,0,1-.309-.44Z" fill="#4c4981"/>
      <path id="Path_233" data-name="Path 233" d="M26.28,26.876c-3.391,1.965-3.406,5.15-.036,7.115a13.437,13.437,0,0,0,12.238,0c3.391-1.966,3.406-5.152.04-7.117A13.448,13.448,0,0,0,26.28,26.876Z" fill="#4a92fd"/>
      <g id="Group_17" data-name="Group 17" opacity="0.7">
        <path id="Path_234" data-name="Path 234" d="M29.635,35.208l2.747-4.774v5.03A14.348,14.348,0,0,1,29.635,35.208Z" fill="#dcdcdc" opacity="0.7"/>
        <path id="Path_235" data-name="Path 235" d="M35.129,25.657l-2.747,4.776V25.4A14.43,14.43,0,0,1,35.129,25.657Z" fill="#dcdcdc" opacity="0.7"/>
      </g>
      <g id="Group_18" data-name="Group 18" opacity="0.3">
        <path id="Path_236" data-name="Path 236" d="M39.923,32.888a6.6,6.6,0,0,1-1.441,1.1,9.464,9.464,0,0,1-1.358.642l-4.743-4.2Z" fill="#dcdcdc" opacity="0.3"/>
        <path id="Path_237" data-name="Path 237" d="M26.281,26.876a9.436,9.436,0,0,1,1.359-.644l4.743,4.2-7.543-2.459A6.655,6.655,0,0,1,26.281,26.876Z" fill="#dcdcdc" opacity="0.3"/>
      </g>
      <path id="Path_238" data-name="Path 238" d="M31.319,29.984a1.063,1.063,0,1,1,2.126,0v.446a.536.536,0,0,1-.314.441,1.539,1.539,0,0,1-.746.18,1.523,1.523,0,0,1-.753-.181.522.522,0,0,1-.309-.44Z" fill="#4c4981"/>
    </g>
  </g>
</svg>
