<svg width="55" height="64" viewBox="0 0 55 64" fill="none" xmlns="http://www.w3.org/2000/svg">
<path d="M18.1077 27.7433L13.623 32.2279L22.0846 40.6895C23.3234 41.9268 25.3304 41.9268 26.5692 40.6895L42.4346 24.8241L37.95 20.3395L24.3269 33.9626L18.1077 27.7433Z" fill="#FA784A"/>
<path fill-rule="evenodd" clip-rule="evenodd" d="M27.5 0L29.6154 0.729808L50.7692 8.12308L55 9.61442V35.1048C54.9878 44.7835 49.3112 53.559 40.4885 57.5385L30.1019 62.2135L27.5 63.3875L24.8981 62.2135L14.5115 57.5385C5.69226 53.5606 0.0163809 44.7903 0 35.1154V9.625L4.23077 8.13365L25.3846 0.729808L27.5 0ZM37.8865 51.7529C44.4389 48.8058 48.6534 42.2895 48.6538 35.1048V14.1202L27.5 6.71635L6.34615 14.1202V35.1048C6.3466 42.2895 10.5611 48.8058 17.1135 51.7529L27.5 56.4279L37.8865 51.7529Z" fill="#FA784A"/>
</svg>
