<?xml version="1.0" encoding="utf-8"?>
<!-- Generator: Adobe Illustrator 25.0.1, SVG Export Plug-In . SVG Version: 6.00 Build 0)  -->
<svg version="1.1" id="Layer_1" xmlns="http://www.w3.org/2000/svg" xmlns:xlink="http://www.w3.org/1999/xlink" x="0px" y="0px"
	 viewBox="0 0 800 800" style="enable-background:new 0 0 800 800;" xml:space="preserve">
<style type="text/css">
	.st0{fill:#BE8862;}
	.st1{fill:#B37247;}
	.st2{fill:#EED4B5;}
	.st3{fill:#8AC9ED;}
	.st4{fill:#FF8D7E;}
	.st5{fill:#FFFFFF;}
	.st6{fill:#373A36;}
	.st7{fill:#FFDA7E;}
	.st8{fill:none;stroke:#FFDA7E;stroke-width:5.3629;stroke-linecap:round;stroke-linejoin:round;stroke-miterlimit:10;}
	.st9{clip-path:url(#SVGID_2_);}
	.st10{clip-path:url(#SVGID_4_);}
	.st11{clip-path:url(#SVGID_6_);}
	.st12{clip-path:url(#SVGID_8_);}
	.st13{clip-path:url(#SVGID_10_);}
	.st14{clip-path:url(#SVGID_12_);}
	.st15{fill:#707070;}
	.st16{fill:#D8AC8D;}
	.st17{fill:none;}
	.st18{clip-path:url(#SVGID_14_);}
	.st19{clip-path:url(#SVGID_16_);}
	.st20{fill:none;stroke:#8AC9ED;stroke-width:4.0853;stroke-linecap:round;stroke-miterlimit:10;}
	.st21{fill:#FFFFFF;stroke:#373A36;stroke-width:8.1706;stroke-miterlimit:10;}
	.st22{fill:none;stroke:#373A36;stroke-width:8.1706;stroke-linecap:round;stroke-linejoin:round;stroke-miterlimit:10;}
	.st23{fill:#FFFFFF;stroke:#373A36;stroke-width:4;stroke-linecap:round;stroke-linejoin:round;stroke-miterlimit:10;}
	.st24{fill:none;stroke:#8AC9ED;stroke-width:4;stroke-linecap:round;stroke-miterlimit:10;}
	.st25{fill:#FFFFFF;stroke:#FF8D7E;stroke-width:4;stroke-linecap:round;stroke-linejoin:round;stroke-miterlimit:10;}
	.st26{fill:none;stroke:#FFDA7E;stroke-width:4;stroke-miterlimit:10;}
	.st27{fill:none;stroke:#FFDA7E;stroke-width:6;stroke-linecap:round;stroke-miterlimit:10;}
	.st28{fill:none;stroke:#373A36;stroke-width:4;stroke-linecap:round;stroke-linejoin:round;stroke-miterlimit:10;}
	.st29{fill:none;stroke:#8AC9ED;stroke-width:2;stroke-linecap:round;stroke-miterlimit:10;}
	.st30{fill:none;stroke:#8AC9ED;stroke-width:5.3629;stroke-linecap:round;stroke-linejoin:round;stroke-miterlimit:10;}
	.st31{fill:none;stroke:#FF8D7E;stroke-width:1.7876;stroke-miterlimit:10;}
	.st32{fill:#FFFFFF;stroke:#FF8D7E;stroke-width:5.3629;stroke-linecap:round;stroke-linejoin:round;stroke-miterlimit:10;}
	.st33{fill:none;stroke:#FF8D7E;stroke-width:5.3629;stroke-linecap:round;stroke-linejoin:round;stroke-miterlimit:10;}
	.st34{fill:#FF8D7E;stroke:#FF8D7E;stroke-width:5.3629;stroke-linecap:round;stroke-linejoin:round;stroke-miterlimit:10;}
	.st35{fill:#FFDA7E;stroke:#FFDA7E;stroke-width:5.3629;stroke-linecap:round;stroke-linejoin:round;stroke-miterlimit:10;}
	.st36{fill:#FFFFFF;stroke:#FFFFFF;stroke-width:5.3629;stroke-linecap:round;stroke-linejoin:round;stroke-miterlimit:10;}
	.st37{fill:none;stroke:#FFFFFF;stroke-width:5.3629;stroke-linecap:round;stroke-linejoin:round;stroke-miterlimit:10;}
	.st38{fill:none;stroke:#373A36;stroke-width:5.3629;stroke-linecap:round;stroke-linejoin:round;stroke-miterlimit:10;}
	
		.st39{clip-path:url(#SVGID_18_);fill:none;stroke:#8AC9ED;stroke-width:17.8762;stroke-linecap:round;stroke-linejoin:round;stroke-miterlimit:10;}
	.st40{fill:none;stroke:#FFDA7E;stroke-width:1.7876;stroke-linecap:round;stroke-miterlimit:10;}
	.st41{fill:none;stroke:#FFDA7E;stroke-width:3.5752;stroke-linecap:round;stroke-miterlimit:10;}
	.st42{fill:none;stroke:#8AC9ED;stroke-width:3.5752;stroke-linecap:round;stroke-linejoin:round;stroke-miterlimit:10;}
	.st43{clip-path:url(#SVGID_20_);}
	.st44{fill:none;stroke:#8AC9ED;stroke-linecap:round;stroke-miterlimit:10;}
	.st45{clip-path:url(#SVGID_22_);}
	.st46{fill:none;stroke:#FFDA7E;stroke-width:4;stroke-linecap:round;stroke-miterlimit:10;}
	.st47{fill:none;stroke:#FFDA7E;stroke-width:2;stroke-linecap:round;stroke-miterlimit:10;}
	.st48{fill:none;stroke:#FF8D7E;stroke-width:4;stroke-linecap:round;stroke-miterlimit:10;}
	.st49{fill:none;stroke:#373A36;stroke-width:2;stroke-linecap:round;stroke-linejoin:round;stroke-miterlimit:10;}
	.st50{fill:none;stroke:#FFDA7E;stroke-width:6;stroke-linecap:round;stroke-linejoin:round;stroke-miterlimit:10;}
	.st51{fill:none;stroke:#FF8D7E;stroke-width:6;stroke-linecap:round;stroke-linejoin:round;stroke-miterlimit:10;}
	.st52{fill:#FFDA7E;stroke:#FFDA7E;stroke-width:6;stroke-linecap:round;stroke-linejoin:round;stroke-miterlimit:10;}
	.st53{fill:#FFFFFF;stroke:#FFDA7E;stroke-width:6;stroke-linecap:round;stroke-linejoin:round;stroke-miterlimit:10;}
	.st54{fill:none;stroke:#8AC9ED;stroke-width:6;stroke-linecap:round;stroke-linejoin:round;stroke-miterlimit:10;}
	.st55{fill:none;stroke:#373A36;stroke-width:6;stroke-linecap:round;stroke-linejoin:round;stroke-miterlimit:10;}
	.st56{fill:none;stroke:#8AC9ED;stroke-width:4;stroke-linecap:round;stroke-linejoin:round;stroke-miterlimit:10;}
	.st57{fill:none;stroke:#FFDA7E;stroke-width:4;stroke-linecap:round;stroke-linejoin:round;stroke-miterlimit:10;}
	.st58{clip-path:url(#SVGID_24_);}
	.st59{fill:none;stroke:#373A36;stroke-width:4.5093;stroke-linecap:round;stroke-linejoin:round;stroke-miterlimit:10;}
	.st60{fill:none;stroke:#FF8D7E;stroke-width:3.683;stroke-linecap:round;stroke-linejoin:round;stroke-miterlimit:10;}
	.st61{fill:#FFFFFF;stroke:#FF8D7E;stroke-width:1.1273;stroke-miterlimit:10;}
	.st62{fill:none;stroke:#FFDA7E;stroke-width:4.5093;stroke-linecap:round;stroke-miterlimit:10;}
	.st63{fill:none;stroke:#8AC9ED;stroke-width:4.5093;stroke-linecap:round;stroke-miterlimit:10;}
	.st64{fill:none;stroke:#FF8D7E;stroke-width:4.5093;stroke-linecap:round;stroke-miterlimit:10;}
	.st65{fill:none;stroke:#8AC9ED;stroke-width:2.2547;stroke-linecap:round;stroke-miterlimit:10;}
	.st66{fill:none;stroke:#FFDA7E;stroke-width:2.5755;stroke-linecap:round;stroke-linejoin:round;stroke-miterlimit:10;}
	.st67{fill:none;stroke:#FF8D7E;stroke-width:2.2547;stroke-linecap:round;stroke-miterlimit:10;}
	.st68{clip-path:url(#SVGID_26_);}
	.st69{fill:none;stroke:#8AC9ED;stroke-width:3.683;stroke-linecap:round;stroke-linejoin:round;stroke-miterlimit:10;}
	.st70{fill:#FFFFFF;stroke:#8AC9ED;stroke-width:6.764;stroke-linecap:round;stroke-linejoin:round;stroke-miterlimit:10;}
	.st71{clip-path:url(#SVGID_28_);}
	.st72{fill:none;stroke:#8AC9ED;stroke-width:2.1713;stroke-linecap:round;stroke-miterlimit:10;}
	.st73{fill:none;stroke:#707070;stroke-width:7.5995;}
	.st74{fill:#FF8D7E;stroke:#FF8D7E;stroke-width:4.3426;stroke-linecap:round;stroke-linejoin:round;}
	.st75{fill:none;stroke:#FFDA7E;stroke-width:4.3426;stroke-linecap:round;stroke-linejoin:round;}
	.st76{fill:none;stroke:#8AC9ED;stroke-width:6.5138;stroke-linecap:round;stroke-linejoin:round;}
	.st77{fill:none;stroke:#8AC9ED;stroke-width:4.3426;stroke-linecap:round;stroke-linejoin:round;}
	.st78{fill:none;stroke:#8AC9ED;stroke-width:4;stroke-linecap:round;stroke-linejoin:round;}
	.st79{fill:none;stroke:#FF8D7E;stroke-width:4;stroke-linecap:round;stroke-linejoin:round;}
	.st80{fill:#FF8D7E;stroke:#FF8D7E;}
	.st81{fill:none;stroke:#373A36;stroke-width:4;stroke-linecap:round;stroke-linejoin:round;}
	.st82{fill:none;stroke:#373A36;stroke-width:4;stroke-miterlimit:10;}
	.st83{fill:#373A36;stroke:#707070;stroke-width:5;}
	.st84{fill:none;stroke:#FFDA7E;stroke-width:8;stroke-linecap:round;}
	.st85{clip-path:url(#SVGID_30_);}
	.st86{clip-path:url(#SVGID_32_);}
	.st87{fill:none;stroke:#707070;stroke-width:7;}
	.st88{fill:none;stroke:#FFDA7E;stroke-width:10;stroke-linecap:round;}
	.st89{fill:none;stroke:#000000;stroke-width:4;stroke-linecap:round;stroke-linejoin:round;}
</style>
<g>
	<g>
		<path class="st3" d="M197.38,230.27h-77.37c-15.23,0-27.63-12.39-27.63-27.62c0-14.04,10.37-25.63,24.03-27.39
			c1.75-21.92,20.37-39.37,42.6-39.37c23.57,0,42.75,19.18,42.75,42.75c0,1.52-0.08,3.05-0.25,4.59
			c11.18,1.97,19.57,11.7,19.57,23.33C221.09,219.63,210.46,230.27,197.38,230.27z M159.03,141.25c-20.15,0-36.92,16.39-37.37,36.54
			c-0.03,1.42-1.16,2.56-2.57,2.62c-11.97,0.49-21.34,10.26-21.34,22.24c0,12.28,9.99,22.26,22.26,22.26h77.37
			c10.12,0,18.35-8.23,18.35-18.35c0-9.75-7.64-17.79-17.39-18.3c-0.77-0.04-1.48-0.41-1.96-1.01c-0.48-0.6-0.68-1.38-0.54-2.13
			c0.38-2.17,0.57-4.35,0.57-6.48C196.41,158.02,179.64,141.25,159.03,141.25z"/>
	</g>
	<g>
		<path class="st3" d="M142.25,194.01c-0.98,0-1.92-0.53-2.39-1.46c-3.83-7.5-11.43-12.17-19.85-12.17c-1.48,0-2.68-1.2-2.68-2.68
			s1.2-2.68,2.68-2.68c10.44,0,19.88,5.78,24.62,15.09c0.67,1.32,0.15,2.93-1.17,3.61C143.08,193.92,142.66,194.01,142.25,194.01z"
			/>
	</g>
</g>
<g>
	<path class="st3" d="M375.09,441.9c0.3,7.16,0,15.79,0,15.79c-26.03,6.11-82.51,4.61-132.25,4.8l58.89-22.08l52.07-1.77
		L375.09,441.9z"/>
</g>
<g>
	<g>
		<path class="st5" d="M388.8,560.24V440.2l-0.06,0c-126.22-4.79-223.99-38.28-223.99-78.88v120.04
			C164.75,521.96,262.55,555.46,388.8,560.24L388.8,560.24z"/>
	</g>
</g>
<g>
	<path class="st7" d="M264.07,392.35c-1.48,0-2.68-1.2-2.68-2.68v-91.28c0-1.48,1.2-2.68,2.68-2.68s2.68,1.2,2.68,2.68v91.28
		C266.75,391.15,265.55,392.35,264.07,392.35z"/>
</g>
<g id="Axo_panel_20_">
	<path class="st7" d="M489.23,556.47c-1.32,0-2.46-0.97-2.65-2.31c-0.21-1.47,0.81-2.82,2.28-3.03
		c43.85-6.18,81.01-16.06,107.46-28.58c26.38-12.48,40.32-26.73,40.32-41.2V361.32c0-1.48,1.2-2.68,2.68-2.68s2.68,1.2,2.68,2.68
		v120.04c0,16.69-15,32.62-43.39,46.05c-26.93,12.75-64.63,22.79-109.01,29.04C489.48,556.47,489.35,556.47,489.23,556.47z"/>
</g>
<g id="Axo_base_36_">
	<path class="st7" d="M489.23,436.44c-1.32,0-2.46-0.97-2.65-2.31c-0.21-1.47,0.81-2.82,2.28-3.03
		c43.85-6.18,81.01-16.06,107.46-28.58c26.38-12.48,40.32-26.73,40.32-41.2c0-16.77-19.15-33.48-53.94-47.04
		c-1.38-0.54-2.06-2.09-1.52-3.47c0.54-1.38,2.09-2.06,3.47-1.52c37.52,14.64,57.35,32.63,57.35,52.04c0,16.69-15,32.62-43.39,46.05
		c-26.93,12.75-64.63,22.79-109.01,29.04C489.48,436.43,489.35,436.44,489.23,436.44z"/>
</g>
<g>
	<path class="st7" d="M489.16,555.97c-1.48,0-2.68-1.2-2.68-2.68V433.76c0-1.48,1.2-2.68,2.68-2.68s2.68,1.2,2.68,2.68v119.52
		C491.84,554.76,490.64,555.97,489.16,555.97z"/>
</g>
<g>
	<path class="st7" d="M583.67,413.54c-1.48,0-2.68-1.2-2.68-2.68v-99.08c0-1.48,1.2-2.68,2.68-2.68s2.68,1.2,2.68,2.68v99.08
		C586.36,412.34,585.16,413.54,583.67,413.54z"/>
</g>
<g id="Axo_base_35_">
	<path class="st3" d="M514.81,462.33c-1.27,0-2.39-0.9-2.63-2.19c-0.27-1.46,0.69-2.86,2.15-3.13
		c34.13-6.35,63.36-15.22,84.52-25.66c1.33-0.65,2.94-0.11,3.59,1.22c0.65,1.33,0.11,2.94-1.22,3.59
		c-21.6,10.65-51.31,19.68-85.91,26.12C515.14,462.31,514.97,462.33,514.81,462.33z"/>
</g>
<g id="Axo_base_34_">
	<path class="st3" d="M571.92,477.92c-1.12,0-2.16-0.71-2.54-1.82c-0.47-1.4,0.28-2.92,1.68-3.4c25.52-8.63,44.69-19.03,55.42-30.08
		c1.03-1.06,2.73-1.09,3.79-0.05c1.06,1.03,1.09,2.73,0.05,3.79c-11.49,11.82-30.85,22.39-57.55,31.42
		C572.5,477.87,572.21,477.92,571.92,477.92z"/>
</g>
<g id="Axo_base_33_">
	<path class="st3" d="M508.67,523.54c-1.28,0-2.41-0.92-2.64-2.22c-0.25-1.46,0.72-2.85,2.18-3.1
		c46.01-8.03,83.56-20.58,105.74-35.36c1.23-0.82,2.9-0.49,3.72,0.75s0.49,2.9-0.75,3.72c-23.11,15.4-60.38,27.91-107.79,36.18
		C508.98,523.53,508.82,523.54,508.67,523.54z"/>
</g>
<g>
	<g>
		<circle class="st5" cx="558.18" cy="518.7" r="32.75"/>
		<path class="st4" d="M558.24,554.13c-0.87,0-1.74-0.03-2.61-0.09c-9.44-0.68-18.05-5-24.24-12.16
			c-6.19-7.16-9.23-16.29-8.54-25.73s5-18.05,12.16-24.24c7.16-6.19,16.29-9.23,25.73-8.54c9.44,0.68,18.05,5,24.24,12.16
			c6.19,7.16,9.23,16.29,8.54,25.73s-5,18.05-12.16,24.24C574.87,551.11,566.74,554.12,558.24,554.13z M558.14,488.63
			c-7.22,0-14.11,2.56-19.62,7.33c-6.07,5.25-9.74,12.56-10.32,20.57s2,15.77,7.25,21.84c5.25,6.07,12.56,9.74,20.57,10.32
			c8.01,0.57,15.77-2,21.84-7.25c6.07-5.25,9.74-12.56,10.32-20.57s-2-15.77-7.25-21.84c0,0,0,0,0,0
			c-5.25-6.07-12.56-9.74-20.57-10.32C559.61,488.66,558.87,488.63,558.14,488.63z"/>
	</g>
	<g>
		<path class="st4" d="M586.83,554.49c-0.75,0-1.5-0.31-2.03-0.93l-7.22-8.35c-0.97-1.12-0.85-2.81,0.27-3.78
			c1.12-0.97,2.81-0.85,3.78,0.27l7.22,8.35c0.97,1.12,0.85,2.81-0.27,3.78C588.08,554.28,587.46,554.49,586.83,554.49z"/>
	</g>
	<g>
		
			<rect x="591.76" y="548.62" transform="matrix(0.7563 -0.6543 0.6543 0.7563 -224.5795 530.3857)" class="st4" width="15.61" height="35.98"/>
		<path class="st4" d="M605.44,588c-0.75,0-1.5-0.31-2.03-0.93l-23.54-27.21c-0.46-0.54-0.7-1.24-0.65-1.95
			c0.05-0.71,0.38-1.37,0.92-1.83l11.8-10.21c1.12-0.97,2.81-0.85,3.78,0.27l23.54,27.21c0.46,0.54,0.7,1.24,0.65,1.95
			c-0.05,0.71-0.38,1.37-0.92,1.83l-11.8,10.21C606.68,587.79,606.06,588,605.44,588z M585.67,558.39l20.03,23.16l7.75-6.7
			l-20.03-23.16L585.67,558.39z"/>
	</g>
</g>
<g>
	<g>
		<path class="st7" d="M583.67,311.77v99.08l0,0c34.83-13.59,55.64-30.81,55.64-49.54C639.32,342.58,618.5,325.36,583.67,311.77
			L583.67,311.77z"/>
		<path class="st7" d="M583.67,413.54c-0.53,0-1.06-0.16-1.51-0.47c-0.73-0.5-1.17-1.33-1.17-2.21v-99.08
			c0-0.89,0.44-1.71,1.17-2.21s1.66-0.61,2.49-0.28c37.52,14.64,57.35,32.63,57.35,52.04c0,19.41-19.83,37.4-57.35,52.04
			C584.33,413.48,584,413.54,583.67,413.54z M586.36,315.73v91.17c32.47-13.3,50.28-29.41,50.28-45.58S618.82,329.03,586.36,315.73z
			"/>
	</g>
</g>
<g>
	<g>
		<path class="st4" d="M546.8,152.97c-1.03-1.48-2.63-2.44-4.43-2.44h-0.4h-0.4c-1.8,0-3.41,0.96-4.43,2.44
			c-5.07,7.3-32.7,9.25-45.58,9.25v87.4c0,0,25.18,28.81,50.42,28.81c25.24,0,50.42-28.81,50.42-28.81v-87.4
			C579.5,162.22,551.87,160.27,546.8,152.97z"/>
		<path class="st4" d="M541.97,281.11c-11.07,0-23.28-5.03-36.3-14.95c-9.56-7.28-15.88-14.47-16.14-14.77
			c-0.43-0.49-0.66-1.12-0.66-1.76v-87.4c0-1.48,1.2-2.68,2.68-2.68c18.16,0,39.91-3.1,43.38-8.1c1.56-2.25,4.04-3.6,6.64-3.6h0.8
			c2.59,0,5.07,1.34,6.64,3.6l0,0c3.47,5,25.22,8.1,43.38,8.1c1.48,0,2.68,1.2,2.68,2.68v87.4c0,0.65-0.24,1.28-0.66,1.76
			c-0.26,0.3-6.58,7.49-16.14,14.77C565.25,276.08,553.03,281.11,541.97,281.11z M494.23,248.58c4.08,4.4,26.21,27.17,47.74,27.17
			c21.56,0,43.67-22.76,47.74-27.16v-83.72c-9.23-0.2-38.96-1.52-45.11-10.37c0,0,0,0,0,0c-0.57-0.82-1.38-1.29-2.23-1.29h-0.8
			c-0.85,0-1.66,0.47-2.23,1.29c-6.14,8.85-35.88,10.18-45.11,10.37V248.58z"/>
	</g>
	<g>
		<g>
			<rect x="513.72" y="200.12" class="st5" width="56.49" height="44.92"/>
			<path class="st5" d="M570.21,247.72h-56.49c-1.48,0-2.68-1.2-2.68-2.68v-44.92c0-1.48,1.2-2.68,2.68-2.68h56.49
				c1.48,0,2.68,1.2,2.68,2.68v44.92C572.89,246.52,571.69,247.72,570.21,247.72z M516.4,242.35h51.13V202.8H516.4V242.35z"/>
		</g>
		<g>
			<path class="st5" d="M553.42,208.72h-22.48c-5.01,0-9.08-4.08-9.08-9.09v-8.59c0-11.21,9.12-20.33,20.33-20.33
				c11.21,0,20.33,9.12,20.33,20.33v8.59C562.5,204.65,558.42,208.72,553.42,208.72z M542.17,176.08c-8.25,0-14.96,6.71-14.96,14.96
				v8.59c0,2.05,1.67,3.72,3.72,3.72h22.48c2.05,0,3.72-1.67,3.72-3.72v-8.59C557.14,182.79,550.42,176.08,542.17,176.08z"/>
		</g>
		<g>
			<path class="st4" d="M548.78,217.32c0-3.9-3.38-7.01-7.36-6.56c-2.98,0.33-5.41,2.73-5.79,5.7c-0.33,2.59,0.85,4.93,2.78,6.27
				v10.38c0,0.73,0.59,1.33,1.33,1.33h4.89c0.73,0,1.33-0.59,1.33-1.33v-10.38C547.66,221.54,548.78,219.56,548.78,217.32z"/>
		</g>
	</g>
</g>
<g id="Axo_panel_19_">
	<path class="st7" d="M388.81,562.92c-0.03,0-0.07,0-0.1,0c-61.66-2.33-118.54-11.62-160.15-26.16
		c-42.87-14.97-66.48-34.65-66.48-55.41V361.32c0-1.48,1.2-2.68,2.68-2.68s2.68,1.2,2.68,2.68v120.04
		c0,18.31,22.33,36.19,62.89,50.35c41.13,14.36,97.45,23.54,158.59,25.86c1.48,0.06,2.63,1.3,2.58,2.78
		C391.43,561.79,390.24,562.92,388.81,562.92z"/>
</g>
<g id="Axo_base_32_">
	<path class="st7" d="M388.75,442.88c-0.03,0-0.07,0-0.1,0c-61.64-2.34-118.51-11.63-160.11-26.16
		c-42.86-14.97-66.46-34.64-66.46-55.4c0-26.15,36.95-50.04,101.37-65.53c1.44-0.35,2.89,0.54,3.23,1.98
		c0.35,1.44-0.54,2.89-1.98,3.23c-60.9,14.65-97.26,37.2-97.26,60.32c0,18.3,22.33,36.18,62.87,50.34
		c41.11,14.36,97.42,23.54,158.55,25.86c1.48,0.06,2.63,1.3,2.58,2.78C391.37,441.74,390.18,442.88,388.75,442.88z"/>
</g>
<g id="Axo_base_31_">
	<path class="st7" d="M211.27,409.73c-1.03,0-2.01-0.6-2.45-1.6c-0.6-1.35,0.02-2.94,1.37-3.54c14.91-6.58,32.82-12.41,53.26-17.33
		c1.44-0.35,2.89,0.54,3.23,1.98c0.35,1.44-0.54,2.89-1.98,3.23c-20.12,4.84-37.73,10.57-52.35,17.02
		C212,409.65,211.63,409.73,211.27,409.73z"/>
</g>
<g>
	<g>
		<path class="st7" d="M264.07,389.87c-20.23,4.87-38.05,10.66-52.8,17.17l-0.01,0.02c-29.3-12.94-46.5-28.72-46.5-45.75
			c0-25.61,38.9-48.39,99.31-62.93l0.01,0v91.28L264.07,389.87z"/>
		<path class="st7" d="M211.24,409.74c-0.36,0-0.72-0.07-1.07-0.23c-31.47-13.89-48.1-30.56-48.1-48.2
			c0-26.15,36.95-50.04,101.37-65.53c0.62-0.15,1.26-0.07,1.83,0.21c0.91,0.45,1.49,1.39,1.49,2.4v91.28c0,0.03,0,0.07,0,0.1
			l-0.01,0.2c-0.05,1.2-0.88,2.22-2.05,2.5c-20.05,4.82-37.6,10.53-52.19,16.95C212.12,409.63,211.68,409.74,211.24,409.74z
			 M261.39,301.8c-58.91,14.66-93.96,36.81-93.96,59.51c0,15.16,15.14,29.95,43.81,42.81c14.19-6.17,31.04-11.67,50.15-16.36V301.8z
			 M264.07,389.87L264.07,389.87L264.07,389.87z"/>
	</g>
</g>
<g id="Axo_base_30_">
	<path class="st3" d="M346.93,470.22c-0.08,0-0.17,0-0.25-0.01c-74.85-6.95-134.87-23.95-164.67-46.65
		c-1.18-0.9-1.41-2.58-0.51-3.76c0.9-1.18,2.58-1.41,3.76-0.51c28.6,21.78,89.13,38.82,161.91,45.58c1.47,0.14,2.56,1.44,2.42,2.92
		C349.47,469.18,348.3,470.22,346.93,470.22z"/>
</g>
<g id="Axo_base_29_">
	<path class="st3" d="M284.85,491.54c-0.17,0-0.34-0.02-0.52-0.05c-36.05-7.02-66.29-16.83-87.44-28.36
		c-1.3-0.71-1.78-2.34-1.07-3.64c0.71-1.3,2.34-1.78,3.64-1.07c20.67,11.27,50.38,20.89,85.9,27.81c1.45,0.28,2.4,1.69,2.12,3.14
		C287.23,490.65,286.11,491.54,284.85,491.54z"/>
</g>
<g id="Axo_base_28_">
	<path class="st3" d="M359.75,531.41c-0.07,0-0.14,0-0.2-0.01c-76.12-5.73-138.96-21.8-172.4-44.08c-1.23-0.82-1.57-2.49-0.74-3.72
		s2.49-1.57,3.72-0.75c32.22,21.46,95.7,37.61,169.83,43.19c1.48,0.11,2.58,1.4,2.47,2.88
		C362.31,530.34,361.14,531.41,359.75,531.41z"/>
</g>
<g>
	<path class="st7" d="M388.8,563.5c-1.48,0-2.68-1.2-2.68-2.68V440.2c0-1.48,1.2-2.68,2.68-2.68s2.68,1.2,2.68,2.68v120.63
		C391.49,562.3,390.29,563.5,388.8,563.5z"/>
</g>
<g>
	<path class="st6" d="M232.3,469.72c-5.48,0-10.36-1.12-13.76-4.73c-4.8-5.11-5.63-13.95-2.62-27.81
		c8.41-38.6,29.39-91.63,42.84-99.58c1.28-0.75,2.92-0.33,3.67,0.94c0.75,1.27,0.33,2.92-0.94,3.67
		c-3.85,2.28-11.29,12.53-20.62,34.49c-8.2,19.29-15.38,41.75-19.71,61.62c-2.54,11.65-2.11,19.39,1.28,23
		c4.26,4.53,13.95,3.04,23.32,1.6c1.53-0.24,3.07-0.47,4.59-0.69c16.98-2.38,78.99-19.26,90.86-22.51v-16.34
		c-2.03,0.03-4.74,0.05-8.02,0.07c-15.05,0.11-47.97,0.35-68.23,2.19c-2.97,5.35-5.62,9.6-7.37,12c-2.45,3.36-5.9,4.79-9.49,3.92
		c-3.69-0.9-6.66-4.16-7.24-7.92c-0.58-3.79,1.29-7.29,5.13-9.59c2.47-1.48,7.98-2.59,15.62-3.43
		c6.82-12.73,14.49-30.11,16.63-42.97c0.24-1.46,1.63-2.45,3.09-2.2c1.46,0.24,2.45,1.62,2.2,3.08
		c-2.17,13.02-9.12,29.08-15.57,41.5c16.76-1.34,40.61-1.76,65.18-1.94c4.89-0.04,8.76-0.06,10.67-0.12c0.73,0,1.43,0.25,1.95,0.76
		c0.52,0.5,0.81,1.2,0.81,1.92v21.11c0,1.21-0.81,2.26-1.97,2.58c-3.03,0.84-74.45,20.52-93.51,23.2c-1.5,0.21-3.01,0.44-4.52,0.68
		C241.74,468.96,236.81,469.72,232.3,469.72z M258.43,426.35c-4.69,0.62-8.13,1.37-9.67,2.29c-1.35,0.81-2.89,2.19-2.59,4.19
		c0.25,1.62,1.62,3.13,3.2,3.51c1.42,0.35,2.73-0.28,3.88-1.86C254.69,432.52,256.47,429.72,258.43,426.35z"/>
</g>
<g>
	<path class="st0" d="M353.06,303.94l-0.26-2.46c-0.54-5.16-4.87-29.84-8.41-49.4l-0.73-4.01l-4.06,0.35
		c-8.47,0.73-15.03,1.8-20.65,3.37c-3.56,0.99-4.76,4.41-5.72,7.16c-0.72,2.04-1.33,3.62-2.18,4.37c-0.15-0.13-0.31-0.26-0.44-0.37
		c-1.5-1.28-3.76-3.2-7.11-3.2c-1.85,0-3.71,0.61-5.53,1.81c-8.17,5.39-3.95,14.46-0.24,22.47c0.6,1.3,1.24,2.66,1.86,4.07
		c0.24,0.55,0.39,1.2,0.46,2l0.03,0.3l0.07,0.29c2.42,10.82-1.58,32.06-6.34,40.02l-1.3,2.17l1.2,2.23
		c5.64,10.52,14.87,16.02,27.44,16.37c0.22,0.01,0.44,0.01,0.65,0.01c13.46,0,20.59-10.49,22.78-20.3l0.33-1.48l-0.64-1.38
		c-2-4.3-4.51-12.32-5.47-17.52l-0.34-1.83c5.44-0.32,10.23-1.62,12.63-3.5L353.06,303.94z"/>
</g>
<g>
	<path class="st0" d="M391.09,413.8c-1.82-2.32-5.36-3.49-10.54-3.49c-3.34,0-7.44,0.5-12.17,1.48c-2.31,0.48-4.54,1.62-7.12,2.95
		c-3.88,2-8.28,4.26-14.25,4.83l-4.04,0.39v22.55l5.15-0.79c2.37-0.36,5.22-0.56,8.04-0.56c4.1,0,7.85,0.41,10.55,1.15
		c2,0.55,3.83,0.81,5.58,0.81c0.9,0,1.78-0.07,2.62-0.22c0,0,0.31-0.06,0.35-0.06c7.53-1.48,10.95-8.1,14.34-15.95
		c0.45-1.05,0.89-2.05,1.32-2.97C393.44,418.58,392.4,415.47,391.09,413.8z"/>
</g>
<g>
	<path class="st3" d="M472.15,313.75l-2.91,3.5c-4.29,5.16-40.94,49.3-48.51,58.6c-1.48-1.53-3.14-3.27-4.94-5.15
		c-17.36-18.15-34.9-36.16-41.98-39.7c-3.42-1.71-7.99-2.51-14.38-2.51c-2.82,0-5.56,0.15-8.02,0.28c-1.68,0.09-3.06,0.16-4.3,0.19
		l-1.84,0.04l-1.12,1.16l-1.39,0.89l-0.47,1.61c-1.16,3.97-6.06,16.93-20.41,16.93c-0.22,0-0.44,0-0.68-0.01
		c-12.4-0.34-21.08-5.8-26.52-16.68l-1.21-2.42l-2.7-0.06c-0.24-0.01-0.49-0.01-0.75-0.01c-3.69,0-16.77,0.62-30.36,8.66
		c-11.92,7.05-32.74,55.81-42.02,98.45c-2.89,13.25-2.19,21.59,2.18,26.24c2.65,2.81,6.72,4.18,12.47,4.18
		c4.36,0,9.26-0.75,14.04-1.48c1.52-0.23,3.03-0.47,4.54-0.68c17.06-2.4,78.53-19.11,90.68-22.44l3.29-0.9v-20.9
		c7.54-0.16,12.92-2.94,17.29-5.18c2.46-1.26,4.58-2.35,6.63-2.78c0.56-0.11,1.09-0.21,1.7-0.33l4.05-0.76l-0.42-4.09
		c-0.88-8.55-1.93-16.79-3.05-24.06c28.26,25.55,45.79,32.47,51.73,32.5l0.1,0c4.88-0.08,12.82-3.63,31.04-30.71
		c10.31-15.31,22.4-36.17,32.34-55.79l1.58-3.12L472.15,313.75z"/>
</g>
<g>
	<path class="st0" d="M510.81,275.73c1.54-2.67,3.45-6,5.27-9.57c2.26-4.43,0.6-7.44-1.51-8.67c-0.93-0.54-2.01-0.83-3.14-0.83
		c-2.13,0-4.08,1.02-5.22,2.74c-1.92,2.89-13.82,21.21-15.67,24.52c-0.67,1.2-1.77,1.83-2.51,1.83c-0.14,0-0.26-0.02-0.37-0.07
		c-0.32-0.14-0.19-0.66-0.1-0.96c2.24-6.68-0.58-12.82-4.51-14.16l-0.7-0.25h-0.81c-1.51,0-4.28,0.73-5.98,5.62
		c-2.05,5.93-0.7,16.8,0.71,25.62l0.04,0.26c0.09,0.6,0.17,1.09,0.23,1.47c0.16,1.11-0.06,3.72-3.32,8.76l-2.12,3.27l15.76,13.56
		l2.67-4.76c4.35-7.76,7.59-11.42,9.04-12.19c1.19-0.63,2.4-1.04,3.57-1.44c2.94-0.99,5.98-2.02,8.96-6.48
		c4.12-6.18,0.91-12.55-0.81-15.97l-0.2-0.4c-0.28-0.57-0.56-1.1-0.83-1.59l-0.1-0.19c-1.22-2.3-1.72-3.42-1.36-4.51
		C508.11,280.43,509.36,278.26,510.81,275.73z"/>
</g>
<g>
	<path class="st3" d="M322.79,405.16h-96.35c-3.44,10.68-6.49,21.72-8.81,32.38c-2.89,13.25-2.19,21.59,2.18,26.24
		c2.65,2.81,6.72,4.18,12.47,4.18c4.36,0,9.26-0.75,14.04-1.48c1.52-0.23,3.03-0.47,4.54-0.68c12.46-1.75,48.6-11.13,71.92-17.37
		V405.16z"/>
</g>
<g>
	<path class="st6" d="M335.82,310.8c-6.92,0-15.32-1.51-24.24-5.76c-1.34-0.64-1.9-2.24-1.27-3.57c0.64-1.34,2.24-1.9,3.57-1.27
		c18.36,8.74,33.37,4.35,35.36,2.09c-0.34-4.41-5.93-35.99-9.49-55.5c-0.27-1.46,0.7-2.85,2.16-3.12c1.46-0.28,2.85,0.7,3.12,2.16
		c0.98,5.38,9.6,52.64,9.6,56.78c0,1.23-0.56,3.05-3.22,4.73C348.46,309.21,342.92,310.8,335.82,310.8z"/>
</g>
<g>
	<path class="st6" d="M344.69,333.67c-0.8,0-1.59-0.36-2.12-1.04c-2.87-3.69-7.72-19.87-7.72-24.51c0-1.48,1.2-2.68,2.68-2.68
		s2.68,1.2,2.68,2.68c0,3.81,4.62,18.68,6.59,21.22c0.91,1.17,0.7,2.85-0.47,3.76C345.85,333.49,345.27,333.67,344.69,333.67z"/>
</g>
<g>
	<path class="st6" d="M293.62,335.31c-0.6,0-1.19-0.2-1.69-0.6c-1.15-0.93-1.32-2.62-0.39-3.77c6.32-7.77,9.63-35.82,6.11-42.27
		c-0.71-1.3-0.23-2.93,1.07-3.64c1.3-0.71,2.93-0.23,3.64,1.07c4.51,8.26,1.28,38.48-6.66,48.23
		C295.17,334.97,294.4,335.31,293.62,335.31z"/>
</g>
<g>
	<path class="st6" d="M373.45,414.14c-1.36,0-2.53-1.04-2.67-2.42c-2.46-25.22-6.11-44.74-8.3-50.3c-0.54-1.38,0.13-2.93,1.51-3.48
		c1.38-0.54,2.94,0.13,3.48,1.51c2.82,7.17,6.38,28.45,8.65,51.75c0.14,1.47-0.94,2.79-2.41,2.93
		C373.63,414.14,373.54,414.14,373.45,414.14z"/>
</g>
<g>
	<path class="st6" d="M300.82,303.15c-6.18-0.27-27.05-6.8-27.05-34.45c0-27.65,17.09-30.66,32.68-32.93
		c15.58-2.26,26.39-23.63,41.72-23.12c15.33,0.5,20.86,13.32,20.36,19.1c-0.5,5.78-3.76,19.31-25,20.84
		c-7.37,0.53-15.89,1.42-23.37,3.51c-3.13,0.87-2.46,10.05-8.48,11.9c-3.63,1.12-5.47-6.51-11.24-2.71c-5.8,3.83-1.07,11.21,3.25,21
		C306.79,293.33,300.82,303.15,300.82,303.15z"/>
</g>
<g>
	<path class="st6" d="M486.67,330.16c-0.41,0-0.83-0.09-1.22-0.29c-1.32-0.67-1.84-2.29-1.17-3.61c1.27-2.48,7.85-15,12.6-17.52
		c1.45-0.77,2.87-1.25,4.11-1.67c2.69-0.91,4.81-1.62,7.1-5.06c2.73-4.09,0.99-8.34-1.03-12.34l-0.2-0.41
		c-0.31-0.61-0.61-1.17-0.88-1.69c-1.28-2.4-2.49-4.67-1.6-7.36c0.4-1.2,1.41-2.97,3.29-6.26c1.52-2.64,3.41-5.93,5.19-9.42
		c0.56-1.11,1.3-3.09-0.11-3.91c-1.02-0.6-2.73-0.42-3.53,0.79c-2.26,3.4-13.81,21.22-15.53,24.29c-1.67,2.97-4.96,4.42-7.5,3.29
		c-1.68-0.74-2.96-2.7-2.06-5.41c1.74-5.2-0.53-9-2.24-9.59c-1.55-0.52-2.7,2.52-2.91,3.13c-2.02,5.83,0.08,18.93,0.86,23.86
		c0.12,0.74,0.21,1.35,0.28,1.79c0.49,3.43-1.42,8.11-5.7,13.9c-0.88,1.19-2.56,1.45-3.75,0.57c-1.19-0.88-1.45-2.56-0.57-3.75
		c3.78-5.13,4.91-8.51,4.7-9.96c-0.06-0.42-0.15-1-0.26-1.7c-1.53-9.57-2.8-20.2-0.64-26.46c2.23-6.45,6.62-7.51,9.71-6.46
		c3.97,1.35,6.98,6.34,6.44,12.42c3.5-5.7,13.01-20.33,14.7-22.89c2.3-3.46,7.1-4.55,10.7-2.45c2.76,1.61,4.99,5.46,2.18,10.97
		c-1.84,3.61-3.77,6.96-5.32,9.66c-1.28,2.23-2.61,4.54-2.86,5.28c-0.17,0.5,0.49,1.72,1.24,3.14c0.3,0.56,0.62,1.16,0.95,1.82
		l0.2,0.39c1.75,3.47,5.39,10.7,0.71,17.73c-3.31,4.96-6.78,6.13-9.85,7.17c-1.15,0.39-2.24,0.76-3.31,1.32
		c-2.16,1.15-7.05,8.8-10.34,15.23C488.59,329.63,487.65,330.16,486.67,330.16z"/>
</g>
<g>
	<path class="st6" d="M232.3,469.72c-5.48,0-10.36-1.12-13.76-4.73c-4.8-5.11-5.63-13.95-2.62-27.81
		c8.41-38.6,29.39-91.63,42.84-99.58c13.93-8.24,28.63-9.33,34.46-8.76c0.94,0.09,1.76,0.67,2.16,1.53c2.6,5.52,8,17.01,25.86,17.5
		c16.78,0.42,19.89-17.68,20.01-18.45c0.23-1.42,1.54-2.42,2.96-2.25c1.54,0.18,4.12,0.04,7.1-0.13c7.02-0.39,16.63-0.92,23.28,2.4
		c7.94,3.97,28.72,25.68,42.46,40.05c1.26,1.32,2.46,2.57,3.57,3.73c10.53-12.85,49.15-59.35,49.57-59.85
		c0.46-0.55,1.12-0.9,1.84-0.96c0.72-0.06,1.43,0.17,1.97,0.64l14.41,12.4c0.93,0.8,1.2,2.13,0.65,3.23
		c-0.11,0.22-11.23,22.4-24.62,44.32c-27.75,45.42-38.14,45.58-41.55,45.63c-0.07,0-0.13,0-0.2,0c-7.19,0-18.62-5.88-33.97-17.47
		c-11.28-8.52-20.74-17.19-20.83-17.28c-1.09-1-1.16-2.7-0.16-3.79s2.7-1.16,3.79-0.16c10.12,9.3,38.95,33.33,51.15,33.33
		c0.05,0,0.09,0,0.14,0c12.94-0.2,43.54-51.52,60.52-85.12l-10.75-9.25c-8.37,10.08-44.23,53.28-49.7,60.05
		c-0.48,0.6-1.2,0.96-1.97,0.99c-0.78,0.05-1.51-0.26-2.05-0.82c-1.65-1.71-3.58-3.72-5.68-5.92
		c-12.67-13.24-33.87-35.41-40.98-38.96c-5.37-2.68-14.16-2.2-20.58-1.84c-2.05,0.11-3.93,0.22-5.54,0.22c0,0-0.01,0-0.01,0
		c-2.12,8.42-9.32,21.03-24.97,20.61c-19.5-0.53-26.84-12.93-29.88-19.14c-5.97-0.21-18.05,1.23-29.73,8.13
		c-3.85,2.28-11.29,12.53-20.62,34.49c-8.2,19.29-15.38,41.75-19.71,61.62c-2.54,11.65-2.11,19.39,1.28,23
		c4.26,4.53,13.95,3.04,23.32,1.6c1.53-0.24,3.07-0.47,4.59-0.69c16.98-2.38,78.99-19.26,90.86-22.51v-16.34
		c-2.03,0.03-4.74,0.05-8.02,0.07c-15.05,0.11-47.97,0.35-68.23,2.19c-2.97,5.35-5.62,9.6-7.37,12c-2.45,3.36-5.9,4.79-9.49,3.92
		c-3.69-0.9-6.66-4.16-7.24-7.92c-0.58-3.79,1.29-7.29,5.13-9.59c2.47-1.48,7.98-2.59,15.62-3.43
		c6.82-12.73,14.49-30.11,16.63-42.97c0.24-1.46,1.62-2.46,3.09-2.2c1.46,0.24,2.45,1.62,2.2,3.08
		c-2.17,13.02-9.12,29.08-15.57,41.5c16.76-1.34,40.61-1.76,65.18-1.94c4.89-0.04,8.76-0.06,10.67-0.12c0.73,0,1.43,0.25,1.95,0.76
		c0.52,0.5,0.81,1.2,0.81,1.92v21.11c0,1.21-0.81,2.26-1.97,2.58c-3.03,0.84-74.45,20.52-93.51,23.2c-1.5,0.21-3.01,0.44-4.52,0.68
		C241.74,468.96,236.81,469.72,232.3,469.72z M258.43,426.35c-4.69,0.62-8.13,1.37-9.67,2.29c-1.35,0.81-2.89,2.19-2.59,4.19
		c0.25,1.62,1.62,3.13,3.2,3.51c1.42,0.35,2.73-0.28,3.88-1.86C254.69,432.52,256.47,429.72,258.43,426.35z"/>
</g>
<g>
	<path class="st6" d="M372.31,444.86c-1.84,0-3.85-0.27-6.06-0.88c-6.6-1.81-17.82-1.12-21.36,0.27c-1.38,0.54-2.93-0.14-3.48-1.52
		c-0.54-1.38,0.14-2.93,1.52-3.47c4.89-1.92,17.26-2.5,24.74-0.45c10.66,2.92,14.45-3.7,18.63-13.36c0.47-1.08,0.92-2.12,1.37-3.07
		c0.78-1.66,1.9-4.69,0.59-6.35c-0.95-1.21-4.72-3.69-19.13-0.71c-1.82,0.38-3.85,1.42-6.2,2.63c-4.71,2.42-10.58,5.39-19.03,5.38
		c-1.48-0.01-2.67-1.22-2.66-2.7c0.01-1.47,1.21-2.66,2.68-2.66c0.07-0.01,0.15,0,0.22,0c7.04,0,11.97-2.54,16.34-4.78
		c2.58-1.33,5.03-2.58,7.56-3.11c12.94-2.67,20.93-1.81,24.43,2.64c1.62,2.06,2.95,5.8,0.05,11.95c-0.42,0.9-0.85,1.88-1.29,2.92
		C388.32,434.28,383.74,444.86,372.31,444.86z"/>
</g>
<g>
	<defs>
		<circle id="SVGID_1_" cx="558.18" cy="518.7" r="32.75"/>
	</defs>
	<clipPath id="SVGID_2_">
		<use xlink:href="#SVGID_1_"  style="overflow:visible;"/>
	</clipPath>
	<g id="Axo_base_27_" class="st9">
		<path class="st3" d="M508.66,529.8c-4.26,0-8.04-3.06-8.79-7.4c-0.85-4.86,2.41-9.49,7.27-10.34
			c45.17-7.88,81.87-20.1,103.34-34.4c4.11-2.74,9.66-1.63,12.39,2.48c2.74,4.11,1.62,9.66-2.48,12.39
			c-23.83,15.87-61.93,28.71-110.18,37.13C509.69,529.76,509.17,529.8,508.66,529.8z"/>
	</g>
</g>
<g>
	<path class="st4" d="M558.24,554.13c-0.87,0-1.74-0.03-2.61-0.09c-9.44-0.68-18.05-5-24.24-12.16c-6.19-7.16-9.23-16.29-8.54-25.73
		s5-18.05,12.16-24.24c7.16-6.19,16.29-9.23,25.73-8.54c9.44,0.68,18.05,5,24.24,12.16c6.19,7.16,9.23,16.29,8.54,25.73
		s-5,18.05-12.16,24.24C574.87,551.11,566.74,554.12,558.24,554.13z M558.14,488.63c-7.22,0-14.11,2.56-19.62,7.33
		c-6.07,5.25-9.74,12.56-10.32,20.57s2,15.77,7.25,21.84c5.25,6.07,12.56,9.74,20.57,10.32c8.01,0.57,15.77-2,21.84-7.25
		c6.07-5.25,9.74-12.56,10.32-20.57s-2-15.77-7.25-21.84c0,0,0,0,0,0c-5.25-6.07-12.56-9.74-20.57-10.32
		C559.61,488.66,558.87,488.63,558.14,488.63z"/>
</g>
<g>
	<path class="st4" d="M311.13,501.1c-4.11,0-7.46-3.35-7.46-7.46s3.35-7.46,7.46-7.46s7.46,3.35,7.46,7.46
		S315.24,501.1,311.13,501.1z M311.13,491.54c-1.16,0-2.09,0.94-2.09,2.09s0.94,2.09,2.09,2.09s2.1-0.94,2.1-2.09
		S312.29,491.54,311.13,491.54z"/>
</g>
<g>
	<path class="st4" d="M342.15,504.09c-4.11,0-7.46-3.35-7.46-7.46s3.35-7.46,7.46-7.46s7.46,3.35,7.46,7.46
		S346.26,504.09,342.15,504.09z M342.15,494.53c-1.16,0-2.1,0.94-2.1,2.09s0.94,2.1,2.1,2.1s2.09-0.94,2.09-2.1
		S343.3,494.53,342.15,494.53z"/>
</g>
<g>
	<path class="st4" d="M620.21,434.17c-4.11,0-7.46-3.35-7.46-7.46s3.35-7.46,7.46-7.46s7.46,3.35,7.46,7.46
		S624.32,434.17,620.21,434.17z M620.21,424.61c-1.16,0-2.1,0.94-2.1,2.09s0.94,2.1,2.1,2.1s2.09-0.94,2.09-2.1
		S621.37,424.61,620.21,424.61z"/>
</g>
<g>
	<g>
		<path class="st4" d="M78.33,549.49c3.4,0,6.16-2.76,6.16-6.16c0-3.4-2.76-6.16-6.16-6.16s-6.16,2.76-6.16,6.16
			C72.17,546.73,74.94,549.49,78.33,549.49z"/>
	</g>
	<g>
		<path class="st4" d="M96,549.49h62.59c3.4,0,6.16-2.76,6.16-6.16c0-3.4-2.76-6.16-6.16-6.16H96c-3.4,0-6.16,2.76-6.16,6.16
			C89.84,546.73,92.6,549.49,96,549.49z M96,539.61c2.05,0,3.73,1.67,3.73,3.72s-1.67,3.72-3.73,3.72c-2.05,0-3.72-1.67-3.72-3.72
			S93.95,539.61,96,539.61z"/>
	</g>
	<g>
		<path class="st4" d="M158.59,554.66H78.33c-3.4,0-6.16,2.76-6.16,6.16s2.76,6.16,6.16,6.16h80.26c3.4,0,6.16-2.76,6.16-6.16
			S161.99,554.66,158.59,554.66z M158.59,564.55c-2.05,0-3.72-1.67-3.72-3.72s1.67-3.72,3.72-3.72s3.72,1.67,3.72,3.72
			S160.65,564.55,158.59,564.55z"/>
	</g>
	<g>
		<path class="st4" d="M158.59,572.15c-3.4,0-6.16,2.76-6.16,6.16s2.76,6.16,6.16,6.16s6.16-2.76,6.16-6.16
			S161.99,572.15,158.59,572.15z"/>
	</g>
	<g>
		<path class="st4" d="M140.93,572.15H78.33c-3.4,0-6.16,2.76-6.16,6.16s2.76,6.16,6.16,6.16h62.59c3.4,0,6.16-2.76,6.16-6.16
			S144.32,572.15,140.93,572.15z M74.61,578.31c0-2.05,1.67-3.72,3.73-3.72c2.05,0,3.72,1.67,3.72,3.72s-1.67,3.72-3.72,3.72
			C76.28,582.04,74.61,580.37,74.61,578.31z"/>
	</g>
</g>
<g>
	<path class="st7" d="M399.83,674.99c-0.48,0-0.97-0.01-1.46-0.02c-23.39-0.79-42.77-8.77-54.59-22.48
		c-10.69-12.4-15.16-29.35-12.91-49.01c0.06-0.49,0.5-0.84,0.99-0.79c0.49,0.06,0.84,0.5,0.79,0.99
		c-2.19,19.15,2.13,35.62,12.49,47.64c11.49,13.32,30.42,21.09,53.3,21.86c0.47,0.02,0.94,0.02,1.4,0.02
		c18.33,0,34.96-12.05,43.78-22.6c2.56-3.06,4.67-6.17,6.28-9.23c-1.5-0.61-2.98-1.3-4.42-2.09c-12.97-7.01-12.6-14.43-11.83-17.29
		c1.23-4.63,5.92-8.06,10.85-7.9c5.23,0.13,9.18,4.08,10.57,10.58c0.97,4.52-0.02,10.01-2.7,15.72c8.65,3.05,18.01,3.12,26.93,0.12
		c14.96-5.02,27.97-18.28,36.65-37.34c0.2-0.45,0.73-0.65,1.18-0.44c0.45,0.2,0.65,0.73,0.44,1.18
		c-8.88,19.51-22.27,33.11-37.7,38.29c-9.38,3.15-19.22,3.05-28.3-0.2c-1.68,3.24-3.89,6.52-6.58,9.74
		C435.92,662.6,418.78,674.99,399.83,674.99z M444.24,615.89c-4.07,0-7.86,2.79-8.87,6.58c-1.38,5.19,2.61,10.75,10.96,15.26
		c1.43,0.77,2.89,1.46,4.38,2.05c2.56-5.4,3.52-10.53,2.62-14.72c-1.23-5.72-4.46-9.06-8.87-9.17
		C444.38,615.89,444.31,615.89,444.24,615.89z"/>
</g>
<g>
	<g>
		<path class="st7" d="M704.89,311.94c-10.57,0-19.17-8.6-19.17-19.17s8.6-19.17,19.17-19.17c10.57,0,19.17,8.6,19.17,19.17
			S715.46,311.94,704.89,311.94z M704.89,277.18c-8.6,0-15.59,7-15.59,15.59s7,15.59,15.59,15.59c8.6,0,15.59-7,15.59-15.59
			S713.49,277.18,704.89,277.18z"/>
	</g>
	<g>
		<path class="st7" d="M722.28,294.56h-19.17v-19.17c0-0.99,0.8-1.79,1.79-1.79s1.79,0.8,1.79,1.79v15.59h15.59
			c0.99,0,1.79,0.8,1.79,1.79S723.26,294.56,722.28,294.56z"/>
	</g>
</g>
<g>
	<g>
		<path class="st3" d="M110.35,425.6H79.78c-0.68,0-1.3-0.38-1.6-0.99c-0.3-0.61-0.24-1.33,0.17-1.87l4.77-6.37v-12.5
			c0-6.59,5.36-11.95,11.95-11.95s11.95,5.36,11.95,11.95l0,12.5l4.76,6.37c0.41,0.54,0.47,1.27,0.17,1.87
			C111.65,425.22,111.03,425.6,110.35,425.6z M83.35,422.03h23.43l-2.69-3.6c-0.04-0.06-0.08-0.12-0.12-0.18l-0.29-0.51
			c-0.15-0.27-0.24-0.58-0.24-0.89v-12.97c0-4.62-3.76-8.38-8.38-8.38c-4.62,0-8.38,3.76-8.38,8.38v12.97
			c0,0.31-0.08,0.62-0.24,0.89l-0.29,0.51c-0.04,0.06-0.08,0.12-0.12,0.18L83.35,422.03z"/>
	</g>
	<g>
		<path class="st3" d="M95.07,429.79c-3.19,0-5.79-2.6-5.79-5.79c0-0.99,0.8-1.79,1.79-1.79s1.79,0.8,1.79,1.79
			c0,1.22,0.99,2.21,2.21,2.21s2.21-0.99,2.21-2.21c0-0.99,0.8-1.79,1.79-1.79s1.79,0.8,1.79,1.79
			C100.86,427.19,98.26,429.79,95.07,429.79z"/>
	</g>
</g>
<g>
	<path class="st7" d="M380.26,138.22c-6.67,0-12.09-5.42-12.09-12.09c0-6.67,5.42-12.09,12.09-12.09s12.09,5.42,12.09,12.09
		C392.34,132.79,386.92,138.22,380.26,138.22z M380.26,118.04c-4.46,0-8.09,3.63-8.09,8.09c0,4.46,3.63,8.09,8.09,8.09
		s8.09-3.63,8.09-8.09C388.34,121.67,384.72,118.04,380.26,118.04z"/>
</g>
<g id="Group_2086_2_">
	<g id="Path_2546_2_">
		<path class="st4" d="M705.1,535.72c-1.44,0-2.83-0.57-3.85-1.59l-11.95-11.95c-2.12-2.13-2.12-5.57,0-7.7l11.95-11.95
			c2.15-2.06,5.55-2.06,7.7,0l11.95,11.95c2.13,2.12,2.13,5.57,0.01,7.69c0,0-0.01,0.01-0.01,0.01l-11.95,11.95
			C707.93,535.15,706.54,535.72,705.1,535.72z M705.3,530.07 M693.56,518.33l11.54,11.53l11.54-11.53l-11.54-11.54L693.56,518.33z"
			/>
	</g>
</g>
</svg>
