<?xml version="1.0" encoding="utf-8"?>
<!-- Generator: Adobe Illustrator 25.0.1, SVG Export Plug-In . SVG Version: 6.00 Build 0)  -->
<svg version="1.1" id="Layer_1" xmlns="http://www.w3.org/2000/svg" xmlns:xlink="http://www.w3.org/1999/xlink" x="0px" y="0px"
	 viewBox="0 0 800 800" style="enable-background:new 0 0 800 800;" xml:space="preserve">
<style type="text/css">
	.st0{fill:#BE8862;}
	.st1{fill:#B37247;}
	.st2{fill:#EED4B5;}
	.st3{fill:#8AC9ED;}
	.st4{fill:#FF8D7E;}
	.st5{fill:#FFFFFF;}
	.st6{fill:#373A36;}
	.st7{fill:#FFDA7E;}
	.st8{fill:none;stroke:#FFDA7E;stroke-width:5.3629;stroke-linecap:round;stroke-linejoin:round;stroke-miterlimit:10;}
	.st9{clip-path:url(#SVGID_2_);}
	.st10{clip-path:url(#SVGID_4_);}
	.st11{clip-path:url(#SVGID_6_);}
	.st12{clip-path:url(#SVGID_8_);}
	.st13{clip-path:url(#SVGID_10_);}
	.st14{clip-path:url(#SVGID_12_);}
	.st15{fill:#707070;}
	.st16{fill:#D8AC8D;}
	.st17{fill:none;}
	.st18{clip-path:url(#SVGID_14_);}
	.st19{clip-path:url(#SVGID_16_);}
	.st20{fill:none;stroke:#8AC9ED;stroke-width:4.0853;stroke-linecap:round;stroke-miterlimit:10;}
	.st21{fill:#FFFFFF;stroke:#373A36;stroke-width:8.1706;stroke-miterlimit:10;}
	.st22{fill:none;stroke:#373A36;stroke-width:8.1706;stroke-linecap:round;stroke-linejoin:round;stroke-miterlimit:10;}
	.st23{fill:#FFFFFF;stroke:#373A36;stroke-width:4;stroke-linecap:round;stroke-linejoin:round;stroke-miterlimit:10;}
	.st24{fill:none;stroke:#8AC9ED;stroke-width:4;stroke-linecap:round;stroke-miterlimit:10;}
	.st25{fill:#FFFFFF;stroke:#FF8D7E;stroke-width:4;stroke-linecap:round;stroke-linejoin:round;stroke-miterlimit:10;}
	.st26{fill:none;stroke:#FFDA7E;stroke-width:4;stroke-miterlimit:10;}
	.st27{fill:none;stroke:#FFDA7E;stroke-width:6;stroke-linecap:round;stroke-miterlimit:10;}
	.st28{fill:none;stroke:#373A36;stroke-width:4;stroke-linecap:round;stroke-linejoin:round;stroke-miterlimit:10;}
	.st29{fill:none;stroke:#8AC9ED;stroke-width:2;stroke-linecap:round;stroke-miterlimit:10;}
	.st30{fill:none;stroke:#8AC9ED;stroke-width:5.3629;stroke-linecap:round;stroke-linejoin:round;stroke-miterlimit:10;}
	.st31{fill:none;stroke:#FF8D7E;stroke-width:1.7876;stroke-miterlimit:10;}
	.st32{fill:#FFFFFF;stroke:#FF8D7E;stroke-width:5.3629;stroke-linecap:round;stroke-linejoin:round;stroke-miterlimit:10;}
	.st33{fill:none;stroke:#FF8D7E;stroke-width:5.3629;stroke-linecap:round;stroke-linejoin:round;stroke-miterlimit:10;}
	.st34{fill:#FF8D7E;stroke:#FF8D7E;stroke-width:5.3629;stroke-linecap:round;stroke-linejoin:round;stroke-miterlimit:10;}
	.st35{fill:#FFDA7E;stroke:#FFDA7E;stroke-width:5.3629;stroke-linecap:round;stroke-linejoin:round;stroke-miterlimit:10;}
	.st36{fill:#FFFFFF;stroke:#FFFFFF;stroke-width:5.3629;stroke-linecap:round;stroke-linejoin:round;stroke-miterlimit:10;}
	.st37{fill:none;stroke:#FFFFFF;stroke-width:5.3629;stroke-linecap:round;stroke-linejoin:round;stroke-miterlimit:10;}
	.st38{fill:none;stroke:#373A36;stroke-width:5.3629;stroke-linecap:round;stroke-linejoin:round;stroke-miterlimit:10;}
	
		.st39{clip-path:url(#SVGID_18_);fill:none;stroke:#8AC9ED;stroke-width:17.8762;stroke-linecap:round;stroke-linejoin:round;stroke-miterlimit:10;}
	.st40{fill:none;stroke:#FFDA7E;stroke-width:1.7876;stroke-linecap:round;stroke-miterlimit:10;}
	.st41{fill:none;stroke:#FFDA7E;stroke-width:3.5752;stroke-linecap:round;stroke-miterlimit:10;}
	.st42{fill:none;stroke:#8AC9ED;stroke-width:3.5752;stroke-linecap:round;stroke-linejoin:round;stroke-miterlimit:10;}
	.st43{clip-path:url(#SVGID_20_);}
	.st44{fill:none;stroke:#8AC9ED;stroke-linecap:round;stroke-miterlimit:10;}
	.st45{clip-path:url(#SVGID_22_);}
	.st46{fill:none;stroke:#FFDA7E;stroke-width:4;stroke-linecap:round;stroke-miterlimit:10;}
	.st47{fill:none;stroke:#FFDA7E;stroke-width:2;stroke-linecap:round;stroke-miterlimit:10;}
	.st48{fill:none;stroke:#FF8D7E;stroke-width:4;stroke-linecap:round;stroke-miterlimit:10;}
	.st49{fill:none;stroke:#373A36;stroke-width:2;stroke-linecap:round;stroke-linejoin:round;stroke-miterlimit:10;}
	.st50{fill:none;stroke:#FFDA7E;stroke-width:6;stroke-linecap:round;stroke-linejoin:round;stroke-miterlimit:10;}
	.st51{fill:none;stroke:#FF8D7E;stroke-width:6;stroke-linecap:round;stroke-linejoin:round;stroke-miterlimit:10;}
	.st52{fill:#FFDA7E;stroke:#FFDA7E;stroke-width:6;stroke-linecap:round;stroke-linejoin:round;stroke-miterlimit:10;}
	.st53{fill:#FFFFFF;stroke:#FFDA7E;stroke-width:6;stroke-linecap:round;stroke-linejoin:round;stroke-miterlimit:10;}
	.st54{fill:none;stroke:#8AC9ED;stroke-width:6;stroke-linecap:round;stroke-linejoin:round;stroke-miterlimit:10;}
	.st55{fill:none;stroke:#373A36;stroke-width:6;stroke-linecap:round;stroke-linejoin:round;stroke-miterlimit:10;}
	.st56{fill:none;stroke:#8AC9ED;stroke-width:4;stroke-linecap:round;stroke-linejoin:round;stroke-miterlimit:10;}
	.st57{fill:none;stroke:#FFDA7E;stroke-width:4;stroke-linecap:round;stroke-linejoin:round;stroke-miterlimit:10;}
	.st58{clip-path:url(#SVGID_24_);}
	.st59{fill:none;stroke:#373A36;stroke-width:4.5093;stroke-linecap:round;stroke-linejoin:round;stroke-miterlimit:10;}
	.st60{fill:none;stroke:#FF8D7E;stroke-width:3.683;stroke-linecap:round;stroke-linejoin:round;stroke-miterlimit:10;}
	.st61{fill:#FFFFFF;stroke:#FF8D7E;stroke-width:1.1273;stroke-miterlimit:10;}
	.st62{fill:none;stroke:#FFDA7E;stroke-width:4.5093;stroke-linecap:round;stroke-miterlimit:10;}
	.st63{fill:none;stroke:#8AC9ED;stroke-width:4.5093;stroke-linecap:round;stroke-miterlimit:10;}
	.st64{fill:none;stroke:#FF8D7E;stroke-width:4.5093;stroke-linecap:round;stroke-miterlimit:10;}
	.st65{fill:none;stroke:#8AC9ED;stroke-width:2.2547;stroke-linecap:round;stroke-miterlimit:10;}
	.st66{fill:none;stroke:#FFDA7E;stroke-width:2.5755;stroke-linecap:round;stroke-linejoin:round;stroke-miterlimit:10;}
	.st67{fill:none;stroke:#FF8D7E;stroke-width:2.2547;stroke-linecap:round;stroke-miterlimit:10;}
	.st68{clip-path:url(#SVGID_26_);}
	.st69{fill:none;stroke:#8AC9ED;stroke-width:3.683;stroke-linecap:round;stroke-linejoin:round;stroke-miterlimit:10;}
	.st70{fill:#FFFFFF;stroke:#8AC9ED;stroke-width:6.764;stroke-linecap:round;stroke-linejoin:round;stroke-miterlimit:10;}
	.st71{clip-path:url(#SVGID_28_);}
	.st72{fill:none;stroke:#8AC9ED;stroke-width:2.1713;stroke-linecap:round;stroke-miterlimit:10;}
	.st73{fill:none;stroke:#707070;stroke-width:7.5995;}
	.st74{fill:#FF8D7E;stroke:#FF8D7E;stroke-width:4.3426;stroke-linecap:round;stroke-linejoin:round;}
	.st75{fill:none;stroke:#FFDA7E;stroke-width:4.3426;stroke-linecap:round;stroke-linejoin:round;}
	.st76{fill:none;stroke:#8AC9ED;stroke-width:6.5138;stroke-linecap:round;stroke-linejoin:round;}
	.st77{fill:none;stroke:#8AC9ED;stroke-width:4.3426;stroke-linecap:round;stroke-linejoin:round;}
	.st78{fill:none;stroke:#8AC9ED;stroke-width:4;stroke-linecap:round;stroke-linejoin:round;}
	.st79{fill:none;stroke:#FF8D7E;stroke-width:4;stroke-linecap:round;stroke-linejoin:round;}
	.st80{fill:#FF8D7E;stroke:#FF8D7E;}
	.st81{fill:none;stroke:#373A36;stroke-width:4;stroke-linecap:round;stroke-linejoin:round;}
	.st82{fill:none;stroke:#373A36;stroke-width:4;stroke-miterlimit:10;}
	.st83{fill:#373A36;stroke:#707070;stroke-width:5;}
	.st84{fill:none;stroke:#FFDA7E;stroke-width:8;stroke-linecap:round;}
	.st85{clip-path:url(#SVGID_30_);}
	.st86{clip-path:url(#SVGID_32_);}
	.st87{fill:none;stroke:#707070;stroke-width:7;}
	.st88{fill:none;stroke:#FFDA7E;stroke-width:10;stroke-linecap:round;}
	.st89{fill:none;stroke:#000000;stroke-width:4;stroke-linecap:round;stroke-linejoin:round;}
</style>
<g>
	<polygon class="st1" points="192.1,573.94 187.63,586.98 222.08,586 210.99,570.31 	"/>
</g>
<g>
	<path class="st1" d="M162.55,460.61l-12.31,37.47c0,0,4.51,3.51,10.58,3.9c6.07,0.39,11.28-0.65,11.28-0.65l1.51-9.66l13.38-1.25
		l6.31-33L162.55,460.61z"/>
</g>
<g>
	<path class="st2" d="M589.67,233.64l-0.38-5.79c3.38-0.69,6.27-2.44,10.46-0.18c1.23,0.67,2.48,0.84,3.78,1.41l0.35,10.06
		C598.63,236.9,593.97,235.51,589.67,233.64z"/>
</g>
<g>
	<path class="st2" d="M632.14,121.8l-14.33,14.06l0.34,28.69l7.23,6.84l11.18,4.01l7.88-0.54l12.17-5.97l7.88-16.43
		c0,0-12.09-22.5-13.22-23.34s-5.91-10.41-5.91-10.41L632.14,121.8z"/>
</g>
<g>
	<path class="st7" d="M532.23,264.67l22.8-7.98l-14.09,28.06c0,0-19.91-0.19-19.59-0.75S532.23,264.67,532.23,264.67z"/>
</g>
<g>
	<path class="st6" d="M542.81,285.43c-0.29,0-0.59-0.07-0.88-0.2c-0.99-0.49-1.4-1.68-0.92-2.68l12.22-24.92
		c0.49-0.99,1.68-1.4,2.68-0.92c0.99,0.49,1.4,1.68,0.92,2.68l-12.22,24.92C544.26,285.02,543.55,285.43,542.81,285.43z"/>
</g>
<g>
	<path class="st6" d="M523.71,284.84c-0.27,0-0.55-0.06-0.82-0.18c-1.01-0.45-1.46-1.63-1.01-2.64l7.43-16.58
		c0.45-1.01,1.64-1.46,2.64-1.01c1.01,0.45,1.46,1.63,1.01,2.64l-7.43,16.58C525.2,284.4,524.47,284.84,523.71,284.84z"/>
</g>
<g>
	<path class="st4" d="M150.24,498.08c0,0-14.61,25.11-17.75,39.71c-3.14,14.61-4.16,32.4-4.16,32.4l7.13,7.13l44.98,7.83h9.49
		c0,0,3.12-13.34,2.04-13.31c-1.09,0.03-14.6-3.33-14.6-3.33s-4.72-4.64-2.84-8.03c1.88-3.39,6.04-8.56,5.91-9.64
		s8.96-13.61,8.41-18.56c-0.54-4.95-16.53-24.93-16.76-30.94l-10.93-0.59L150.24,498.08z"/>
</g>
<g>
	<defs>
		<rect id="SVGID_3_" x="116.04" y="690.52" width="178.71" height="55.16"/>
	</defs>
	<clipPath id="SVGID_2_">
		<use xlink:href="#SVGID_3_"  style="overflow:visible;"/>
	</clipPath>
	<g class="st9">
		<g>
			<path class="st3" d="M81.51,898.43c-0.28,0-0.5-0.22-0.5-0.5V655.24c0-0.28,0.22-0.5,0.5-0.5s0.5,0.22,0.5,0.5v242.68
				C82.01,898.2,81.78,898.43,81.51,898.43z"/>
		</g>
		<g>
			<path class="st3" d="M69.24,898.43c-0.28,0-0.5-0.22-0.5-0.5V655.24c0-0.28,0.22-0.5,0.5-0.5s0.5,0.22,0.5,0.5v242.68
				C69.74,898.2,69.51,898.43,69.24,898.43z"/>
		</g>
		<g>
			<path class="st3" d="M93.78,898.43c-0.28,0-0.5-0.22-0.5-0.5V655.24c0-0.28,0.22-0.5,0.5-0.5s0.5,0.22,0.5,0.5v242.68
				C94.28,898.2,94.06,898.43,93.78,898.43z"/>
		</g>
		<g>
			<path class="st3" d="M106.05,898.43c-0.28,0-0.5-0.22-0.5-0.5V655.24c0-0.28,0.22-0.5,0.5-0.5s0.5,0.22,0.5,0.5v242.68
				C106.55,898.2,106.33,898.43,106.05,898.43z"/>
		</g>
		<g>
			<path class="st3" d="M118.33,898.43c-0.28,0-0.5-0.22-0.5-0.5V655.24c0-0.28,0.22-0.5,0.5-0.5s0.5,0.22,0.5,0.5v242.68
				C118.83,898.2,118.6,898.43,118.33,898.43z"/>
		</g>
		<g>
			<path class="st3" d="M130.6,898.43c-0.28,0-0.5-0.22-0.5-0.5V655.24c0-0.28,0.22-0.5,0.5-0.5s0.5,0.22,0.5,0.5v242.68
				C131.1,898.2,130.87,898.43,130.6,898.43z"/>
		</g>
		<g>
			<path class="st3" d="M142.52,898.43c-0.28,0-0.5-0.22-0.5-0.5V655.24c0-0.28,0.22-0.5,0.5-0.5s0.5,0.22,0.5,0.5v242.68
				C143.02,898.2,142.79,898.43,142.52,898.43z"/>
		</g>
		<g>
			<path class="st3" d="M154.44,898.43c-0.28,0-0.5-0.22-0.5-0.5V655.24c0-0.28,0.22-0.5,0.5-0.5s0.5,0.22,0.5,0.5v242.68
				C154.94,898.2,154.71,898.43,154.44,898.43z"/>
		</g>
		<g>
			<path class="st3" d="M166.36,898.43c-0.28,0-0.5-0.22-0.5-0.5V655.24c0-0.28,0.22-0.5,0.5-0.5s0.5,0.22,0.5,0.5v242.68
				C166.86,898.2,166.63,898.43,166.36,898.43z"/>
		</g>
		<g>
			<path class="st3" d="M178.28,898.43c-0.28,0-0.5-0.22-0.5-0.5V655.24c0-0.28,0.22-0.5,0.5-0.5s0.5,0.22,0.5,0.5v242.68
				C178.78,898.2,178.55,898.43,178.28,898.43z"/>
		</g>
		<g>
			<path class="st3" d="M190.2,898.43c-0.28,0-0.5-0.22-0.5-0.5V655.24c0-0.28,0.22-0.5,0.5-0.5s0.5,0.22,0.5,0.5v242.68
				C190.7,898.2,190.47,898.43,190.2,898.43z"/>
		</g>
		<g>
			<path class="st3" d="M202.12,898.43c-0.28,0-0.5-0.22-0.5-0.5V655.24c0-0.28,0.22-0.5,0.5-0.5s0.5,0.22,0.5,0.5v242.68
				C202.62,898.2,202.39,898.43,202.12,898.43z"/>
		</g>
		<g>
			<path class="st3" d="M214.04,898.43c-0.28,0-0.5-0.22-0.5-0.5V655.24c0-0.28,0.22-0.5,0.5-0.5s0.5,0.22,0.5,0.5v242.68
				C214.54,898.2,214.31,898.43,214.04,898.43z"/>
		</g>
		<g>
			<path class="st3" d="M237.1,898.43c-0.28,0-0.5-0.22-0.5-0.5V655.24c0-0.28,0.22-0.5,0.5-0.5s0.5,0.22,0.5,0.5v242.68
				C237.6,898.2,237.38,898.43,237.1,898.43z"/>
		</g>
		<g>
			<path class="st3" d="M248.63,898.43c-0.28,0-0.5-0.22-0.5-0.5V655.24c0-0.28,0.22-0.5,0.5-0.5s0.5,0.22,0.5,0.5v242.68
				C249.13,898.2,248.91,898.43,248.63,898.43z"/>
		</g>
		<g>
			<path class="st3" d="M260.16,898.43c-0.28,0-0.5-0.22-0.5-0.5V655.24c0-0.28,0.22-0.5,0.5-0.5s0.5,0.22,0.5,0.5v242.68
				C260.66,898.2,260.44,898.43,260.16,898.43z"/>
		</g>
		<g>
			<path class="st3" d="M271.69,898.43c-0.28,0-0.5-0.22-0.5-0.5V655.24c0-0.28,0.22-0.5,0.5-0.5s0.5,0.22,0.5,0.5v242.68
				C272.19,898.2,271.97,898.43,271.69,898.43z"/>
		</g>
		<g>
			<path class="st3" d="M283.22,898.43c-0.28,0-0.5-0.22-0.5-0.5V655.24c0-0.28,0.22-0.5,0.5-0.5s0.5,0.22,0.5,0.5v242.68
				C283.72,898.2,283.5,898.43,283.22,898.43z"/>
		</g>
		<g>
			<path class="st3" d="M294.75,898.43c-0.28,0-0.5-0.22-0.5-0.5V655.24c0-0.28,0.22-0.5,0.5-0.5s0.5,0.22,0.5,0.5v242.68
				C295.25,898.2,295.03,898.43,294.75,898.43z"/>
		</g>
		<g>
			<path class="st3" d="M225.96,898.43c-0.28,0-0.5-0.22-0.5-0.5V655.24c0-0.28,0.22-0.5,0.5-0.5s0.5,0.22,0.5,0.5v242.68
				C226.46,898.2,226.23,898.43,225.96,898.43z"/>
		</g>
		<g>
			<path class="st3" d="M294.64,674.47H62.78c-0.28,0-0.5-0.22-0.5-0.5s0.22-0.5,0.5-0.5h231.86c0.28,0,0.5,0.22,0.5,0.5
				S294.92,674.47,294.64,674.47z"/>
		</g>
		<g>
			<path class="st3" d="M294.64,662.2H62.78c-0.28,0-0.5-0.22-0.5-0.5s0.22-0.5,0.5-0.5h231.86c0.28,0,0.5,0.22,0.5,0.5
				S294.92,662.2,294.64,662.2z"/>
		</g>
		<g>
			<path class="st3" d="M294.64,686.74H62.78c-0.28,0-0.5-0.22-0.5-0.5s0.22-0.5,0.5-0.5h231.86c0.28,0,0.5,0.22,0.5,0.5
				S294.92,686.74,294.64,686.74z"/>
		</g>
		<g>
			<path class="st3" d="M294.64,699.02H62.78c-0.28,0-0.5-0.22-0.5-0.5s0.22-0.5,0.5-0.5h231.86c0.28,0,0.5,0.22,0.5,0.5
				S294.92,699.02,294.64,699.02z"/>
		</g>
		<g>
			<path class="st3" d="M294.64,711.29H62.78c-0.28,0-0.5-0.22-0.5-0.5s0.22-0.5,0.5-0.5h231.86c0.28,0,0.5,0.22,0.5,0.5
				S294.92,711.29,294.64,711.29z"/>
		</g>
		<g>
			<path class="st3" d="M294.64,723.56H62.78c-0.28,0-0.5-0.22-0.5-0.5s0.22-0.5,0.5-0.5h231.86c0.28,0,0.5,0.22,0.5,0.5
				S294.92,723.56,294.64,723.56z"/>
		</g>
		<g>
			<path class="st3" d="M294.64,735.59H62.78c-0.28,0-0.5-0.22-0.5-0.5s0.22-0.5,0.5-0.5h231.86c0.28,0,0.5,0.22,0.5,0.5
				S294.92,735.59,294.64,735.59z"/>
		</g>
		<g>
			<path class="st3" d="M294.64,747.62H62.78c-0.28,0-0.5-0.22-0.5-0.5s0.22-0.5,0.5-0.5h231.86c0.28,0,0.5,0.22,0.5,0.5
				S294.92,747.62,294.64,747.62z"/>
		</g>
		<g>
			<path class="st3" d="M294.64,759.65H62.78c-0.28,0-0.5-0.22-0.5-0.5s0.22-0.5,0.5-0.5h231.86c0.28,0,0.5,0.22,0.5,0.5
				S294.92,759.65,294.64,759.65z"/>
		</g>
		<g>
			<path class="st3" d="M294.64,771.68H62.78c-0.28,0-0.5-0.22-0.5-0.5s0.22-0.5,0.5-0.5h231.86c0.28,0,0.5,0.22,0.5,0.5
				S294.92,771.68,294.64,771.68z"/>
		</g>
		<g>
			<path class="st3" d="M294.64,783.71H62.78c-0.28,0-0.5-0.22-0.5-0.5s0.22-0.5,0.5-0.5h231.86c0.28,0,0.5,0.22,0.5,0.5
				S294.92,783.71,294.64,783.71z"/>
		</g>
		<g>
			<path class="st3" d="M294.64,795.74H62.78c-0.28,0-0.5-0.22-0.5-0.5s0.22-0.5,0.5-0.5h231.86c0.28,0,0.5,0.22,0.5,0.5
				S294.92,795.74,294.64,795.74z"/>
		</g>
		<g>
			<path class="st3" d="M294.64,771.68H62.78c-0.28,0-0.5-0.22-0.5-0.5s0.22-0.5,0.5-0.5h231.86c0.28,0,0.5,0.22,0.5,0.5
				S294.92,771.68,294.64,771.68z"/>
		</g>
	</g>
</g>
<g>
	<defs>
		<rect id="SVGID_5_" x="441.09" y="284.78" width="233.81" height="68.2"/>
	</defs>
	<clipPath id="SVGID_4_">
		<use xlink:href="#SVGID_5_"  style="overflow:visible;"/>
	</clipPath>
	<g class="st10">
		<g>
			<path class="st3" d="M459.39,492.69c-0.28,0-0.5-0.22-0.5-0.5V249.51c0-0.28,0.22-0.5,0.5-0.5s0.5,0.22,0.5,0.5v242.68
				C459.89,492.47,459.67,492.69,459.39,492.69z"/>
		</g>
		<g>
			<path class="st3" d="M447.12,492.69c-0.28,0-0.5-0.22-0.5-0.5V249.51c0-0.28,0.22-0.5,0.5-0.5s0.5,0.22,0.5,0.5v242.68
				C447.62,492.47,447.4,492.69,447.12,492.69z"/>
		</g>
		<g>
			<path class="st3" d="M471.67,492.69c-0.28,0-0.5-0.22-0.5-0.5V249.51c0-0.28,0.22-0.5,0.5-0.5s0.5,0.22,0.5,0.5v242.68
				C472.17,492.47,471.94,492.69,471.67,492.69z"/>
		</g>
		<g>
			<path class="st3" d="M483.94,492.69c-0.28,0-0.5-0.22-0.5-0.5V249.51c0-0.28,0.22-0.5,0.5-0.5s0.5,0.22,0.5,0.5v242.68
				C484.44,492.47,484.22,492.69,483.94,492.69z"/>
		</g>
		<g>
			<path class="st3" d="M496.21,492.69c-0.28,0-0.5-0.22-0.5-0.5V249.51c0-0.28,0.22-0.5,0.5-0.5s0.5,0.22,0.5,0.5v242.68
				C496.71,492.47,496.49,492.69,496.21,492.69z"/>
		</g>
		<g>
			<path class="st3" d="M508.48,492.69c-0.28,0-0.5-0.22-0.5-0.5V249.51c0-0.28,0.22-0.5,0.5-0.5s0.5,0.22,0.5,0.5v242.68
				C508.98,492.47,508.76,492.69,508.48,492.69z"/>
		</g>
		<g>
			<path class="st3" d="M520.41,492.69c-0.28,0-0.5-0.22-0.5-0.5V249.51c0-0.28,0.22-0.5,0.5-0.5s0.5,0.22,0.5,0.5v242.68
				C520.91,492.47,520.68,492.69,520.41,492.69z"/>
		</g>
		<g>
			<path class="st3" d="M532.33,492.69c-0.28,0-0.5-0.22-0.5-0.5V249.51c0-0.28,0.22-0.5,0.5-0.5s0.5,0.22,0.5,0.5v242.68
				C532.83,492.47,532.6,492.69,532.33,492.69z"/>
		</g>
		<g>
			<path class="st3" d="M544.25,492.69c-0.28,0-0.5-0.22-0.5-0.5V249.51c0-0.28,0.22-0.5,0.5-0.5s0.5,0.22,0.5,0.5v242.68
				C544.75,492.47,544.52,492.69,544.25,492.69z"/>
		</g>
		<g>
			<path class="st3" d="M556.17,492.69c-0.28,0-0.5-0.22-0.5-0.5V249.51c0-0.28,0.22-0.5,0.5-0.5s0.5,0.22,0.5,0.5v242.68
				C556.67,492.47,556.44,492.69,556.17,492.69z"/>
		</g>
		<g>
			<path class="st3" d="M568.08,492.69c-0.28,0-0.5-0.22-0.5-0.5V249.51c0-0.28,0.22-0.5,0.5-0.5s0.5,0.22,0.5,0.5v242.68
				C568.58,492.47,568.36,492.69,568.08,492.69z"/>
		</g>
		<g>
			<path class="st3" d="M580,492.69c-0.28,0-0.5-0.22-0.5-0.5V249.51c0-0.28,0.22-0.5,0.5-0.5s0.5,0.22,0.5,0.5v242.68
				C580.5,492.47,580.28,492.69,580,492.69z"/>
		</g>
		<g>
			<path class="st3" d="M591.93,492.69c-0.28,0-0.5-0.22-0.5-0.5V249.51c0-0.28,0.22-0.5,0.5-0.5s0.5,0.22,0.5,0.5v242.68
				C592.43,492.47,592.2,492.69,591.93,492.69z"/>
		</g>
		<g>
			<path class="st3" d="M614.99,492.69c-0.28,0-0.5-0.22-0.5-0.5V249.51c0-0.28,0.22-0.5,0.5-0.5s0.5,0.22,0.5,0.5v242.68
				C615.49,492.47,615.26,492.69,614.99,492.69z"/>
		</g>
		<g>
			<path class="st3" d="M626.52,492.69c-0.28,0-0.5-0.22-0.5-0.5V249.51c0-0.28,0.22-0.5,0.5-0.5s0.5,0.22,0.5,0.5v242.68
				C627.02,492.47,626.79,492.69,626.52,492.69z"/>
		</g>
		<g>
			<path class="st3" d="M638.05,492.69c-0.28,0-0.5-0.22-0.5-0.5V249.51c0-0.28,0.22-0.5,0.5-0.5s0.5,0.22,0.5,0.5v242.68
				C638.55,492.47,638.33,492.69,638.05,492.69z"/>
		</g>
		<g>
			<path class="st3" d="M649.58,492.69c-0.28,0-0.5-0.22-0.5-0.5V249.51c0-0.28,0.22-0.5,0.5-0.5s0.5,0.22,0.5,0.5v242.68
				C650.08,492.47,649.86,492.69,649.58,492.69z"/>
		</g>
		<g>
			<path class="st3" d="M661.11,492.69c-0.28,0-0.5-0.22-0.5-0.5V249.51c0-0.28,0.22-0.5,0.5-0.5s0.5,0.22,0.5,0.5v242.68
				C661.61,492.47,661.39,492.69,661.11,492.69z"/>
		</g>
		<g>
			<path class="st3" d="M672.64,492.69c-0.28,0-0.5-0.22-0.5-0.5V249.51c0-0.28,0.22-0.5,0.5-0.5s0.5,0.22,0.5,0.5v242.68
				C673.14,492.47,672.92,492.69,672.64,492.69z"/>
		</g>
		<g>
			<path class="st3" d="M603.85,492.69c-0.28,0-0.5-0.22-0.5-0.5V249.51c0-0.28,0.22-0.5,0.5-0.5s0.5,0.22,0.5,0.5v242.68
				C604.35,492.47,604.12,492.69,603.85,492.69z"/>
		</g>
		<g>
			<path class="st3" d="M672.53,268.73H440.67c-0.28,0-0.5-0.22-0.5-0.5s0.22-0.5,0.5-0.5h231.86c0.28,0,0.5,0.22,0.5,0.5
				S672.81,268.73,672.53,268.73z"/>
		</g>
		<g>
			<path class="st3" d="M672.53,256.46H440.67c-0.28,0-0.5-0.22-0.5-0.5c0-0.28,0.22-0.5,0.5-0.5h231.86c0.28,0,0.5,0.22,0.5,0.5
				C673.03,256.24,672.81,256.46,672.53,256.46z"/>
		</g>
		<g>
			<path class="st3" d="M672.53,281H440.67c-0.28,0-0.5-0.22-0.5-0.5s0.22-0.5,0.5-0.5h231.86c0.28,0,0.5,0.22,0.5,0.5
				S672.81,281,672.53,281z"/>
		</g>
		<g>
			<path class="st3" d="M672.53,293.28H440.67c-0.28,0-0.5-0.22-0.5-0.5s0.22-0.5,0.5-0.5h231.86c0.28,0,0.5,0.22,0.5,0.5
				S672.81,293.28,672.53,293.28z"/>
		</g>
		<g>
			<path class="st3" d="M672.53,305.55H440.67c-0.28,0-0.5-0.22-0.5-0.5s0.22-0.5,0.5-0.5h231.86c0.28,0,0.5,0.22,0.5,0.5
				S672.81,305.55,672.53,305.55z"/>
		</g>
		<g>
			<path class="st3" d="M672.53,317.82H440.67c-0.28,0-0.5-0.22-0.5-0.5s0.22-0.5,0.5-0.5h231.86c0.28,0,0.5,0.22,0.5,0.5
				S672.81,317.82,672.53,317.82z"/>
		</g>
		<g>
			<path class="st3" d="M672.53,329.85H440.67c-0.28,0-0.5-0.22-0.5-0.5s0.22-0.5,0.5-0.5h231.86c0.28,0,0.5,0.22,0.5,0.5
				S672.81,329.85,672.53,329.85z"/>
		</g>
		<g>
			<path class="st3" d="M672.53,341.88H440.67c-0.28,0-0.5-0.22-0.5-0.5s0.22-0.5,0.5-0.5h231.86c0.28,0,0.5,0.22,0.5,0.5
				S672.81,341.88,672.53,341.88z"/>
		</g>
		<g>
			<path class="st3" d="M672.53,353.91H440.67c-0.28,0-0.5-0.22-0.5-0.5s0.22-0.5,0.5-0.5h231.86c0.28,0,0.5,0.22,0.5,0.5
				S672.81,353.91,672.53,353.91z"/>
		</g>
		<g>
			<path class="st3" d="M672.53,365.94H440.67c-0.28,0-0.5-0.22-0.5-0.5s0.22-0.5,0.5-0.5h231.86c0.28,0,0.5,0.22,0.5,0.5
				S672.81,365.94,672.53,365.94z"/>
		</g>
		<g>
			<path class="st3" d="M672.53,377.97H440.67c-0.28,0-0.5-0.22-0.5-0.5s0.22-0.5,0.5-0.5h231.86c0.28,0,0.5,0.22,0.5,0.5
				S672.81,377.97,672.53,377.97z"/>
		</g>
		<g>
			<path class="st3" d="M672.53,390H440.67c-0.28,0-0.5-0.22-0.5-0.5s0.22-0.5,0.5-0.5h231.86c0.28,0,0.5,0.22,0.5,0.5
				S672.81,390,672.53,390z"/>
		</g>
		<g>
			<path class="st3" d="M672.53,402.03H440.67c-0.28,0-0.5-0.22-0.5-0.5s0.22-0.5,0.5-0.5h231.86c0.28,0,0.5,0.22,0.5,0.5
				S672.81,402.03,672.53,402.03z"/>
		</g>
		<g>
			<path class="st3" d="M672.53,414.06H440.67c-0.28,0-0.5-0.22-0.5-0.5s0.22-0.5,0.5-0.5h231.86c0.28,0,0.5,0.22,0.5,0.5
				S672.81,414.06,672.53,414.06z"/>
		</g>
		<g>
			<path class="st3" d="M672.53,426.09H440.67c-0.28,0-0.5-0.22-0.5-0.5s0.22-0.5,0.5-0.5h231.86c0.28,0,0.5,0.22,0.5,0.5
				S672.81,426.09,672.53,426.09z"/>
		</g>
		<g>
			<path class="st3" d="M672.53,438.12H440.67c-0.28,0-0.5-0.22-0.5-0.5s0.22-0.5,0.5-0.5h231.86c0.28,0,0.5,0.22,0.5,0.5
				S672.81,438.12,672.53,438.12z"/>
		</g>
		<g>
			<path class="st3" d="M672.53,450.15H440.67c-0.28,0-0.5-0.22-0.5-0.5s0.22-0.5,0.5-0.5h231.86c0.28,0,0.5,0.22,0.5,0.5
				S672.81,450.15,672.53,450.15z"/>
		</g>
		<g>
			<path class="st3" d="M672.53,462.18H440.67c-0.28,0-0.5-0.22-0.5-0.5s0.22-0.5,0.5-0.5h231.86c0.28,0,0.5,0.22,0.5,0.5
				S672.81,462.18,672.53,462.18z"/>
		</g>
		<g>
			<path class="st3" d="M672.53,474.21H440.67c-0.28,0-0.5-0.22-0.5-0.5s0.22-0.5,0.5-0.5h231.86c0.28,0,0.5,0.22,0.5,0.5
				S672.81,474.21,672.53,474.21z"/>
		</g>
		<g>
			<path class="st3" d="M672.53,486.24H440.67c-0.28,0-0.5-0.22-0.5-0.5s0.22-0.5,0.5-0.5h231.86c0.28,0,0.5,0.22,0.5,0.5
				S672.81,486.24,672.53,486.24z"/>
		</g>
		<g>
			<path class="st3" d="M672.53,365.94H440.67c-0.28,0-0.5-0.22-0.5-0.5s0.22-0.5,0.5-0.5h231.86c0.28,0,0.5,0.22,0.5,0.5
				S672.81,365.94,672.53,365.94z"/>
		</g>
	</g>
</g>
<g>
	<path class="st7" d="M441.27,104.16c-6.67,0-12.09-5.42-12.09-12.09s5.42-12.09,12.09-12.09s12.09,5.42,12.09,12.09
		S447.94,104.16,441.27,104.16z M441.27,83.99c-4.46,0-8.09,3.63-8.09,8.09s3.63,8.09,8.09,8.09s8.09-3.63,8.09-8.09
		S445.73,83.99,441.27,83.99z"/>
</g>
<g>
	<path class="st7" d="M512.47,665.02c-20.8,0-38.81-5.9-51.56-17.07c-13.78-12.07-21.37-30.15-21.94-52.29
		c-0.01-0.55,0.42-1.01,0.97-1.03c0.01,0,0.02,0,0.03,0c0.54,0,0.99,0.43,1,0.97c0.56,21.56,7.91,39.14,21.26,50.83
		c14.81,12.97,36.98,18.62,62.46,15.92c21.01-2.24,38.21-18.66,46.54-32.05c2.36-3.79,4.21-7.57,5.52-11.2
		c-1.76-0.44-3.5-0.98-5.23-1.62c-15.46-5.75-16.2-14.02-15.8-17.31c0.64-5.32,5.28-9.81,10.79-10.45
		c5.82-0.67,10.81,3.09,13.36,10.07c1.78,4.86,1.54,11.09-0.54,17.84c10.06,2.03,20.44,0.65,29.86-4.06
		c15.79-7.9,28.14-24.62,34.78-47.08c0.16-0.53,0.71-0.83,1.24-0.68c0.53,0.16,0.83,0.71,0.68,1.24c-6.8,23-19.52,40.16-35.81,48.3
		c-9.9,4.95-20.82,6.37-31.39,4.18c-1.36,3.85-3.3,7.83-5.77,11.81c-8.58,13.77-26.3,30.67-48.03,32.98
		C520.67,664.8,516.52,665.02,512.47,665.02z M567.85,591.65c-0.36,0-0.73,0.02-1.1,0.06c-4.62,0.53-8.5,4.27-9.04,8.7
		c-0.72,5.96,4.57,11.5,14.52,15.2c1.71,0.63,3.43,1.17,5.17,1.59c2-6.38,2.26-12.21,0.61-16.72
		C575.92,594.81,572.26,591.65,567.85,591.65z"/>
</g>
<g>
	<path class="st7" d="M249.39,301.45c-0.34,0-0.67-0.17-0.86-0.48c-8.7-14.45-11.01-28.25-6.5-38.88c1.22-2.88,2.95-5.47,5.04-7.66
		c-1.49-3.1-2.48-6.74-2.88-10.71c-1.81-18.21,8.46-38.39,27.47-53.98c34.91-28.64,72.11-20.87,72.48-20.79
		c0.54,0.12,0.88,0.65,0.76,1.19c-0.12,0.54-0.65,0.88-1.19,0.76c-0.36-0.08-36.65-7.62-70.78,20.38
		c-18.49,15.17-28.49,34.7-26.74,52.24c0.35,3.49,1.18,6.69,2.41,9.45c2.97-2.6,6.52-4.47,10.4-5.37c4.37-1.01,7.9,0.22,9.68,3.38
		c1.99,3.54,1.25,8.67-1.68,11.68c-2.88,2.95-7.17,3.25-11.76,0.8c-2.86-1.52-5.3-4-7.16-7.17c-1.73,1.91-3.16,4.12-4.19,6.57
		c-4.25,10.02-1.98,23.18,6.38,37.06c0.28,0.47,0.13,1.09-0.34,1.37C249.75,301.41,249.57,301.45,249.39,301.45z M249.53,254.83
		c1.71,3.07,3.97,5.45,6.64,6.87c3.81,2.02,7.14,1.87,9.39-0.44c2.31-2.36,2.92-6.53,1.37-9.3c-1.33-2.36-3.99-3.22-7.48-2.41
		C255.73,250.42,252.32,252.26,249.53,254.83z"/>
</g>
<g>
	<path class="st3" d="M166.63,232.81c-1.01,0-1.95-0.39-2.67-1.11h0l-9.01-9.01c-0.71-0.71-1.1-1.66-1.1-2.67
		c0-1.01,0.39-1.96,1.11-2.67l9.01-9.01c1.42-1.43,3.91-1.43,5.33,0l9.01,9.01c0.71,0.71,1.1,1.66,1.1,2.67
		c0,1.01-0.39,1.95-1.1,2.67l-9.01,9.01C168.58,232.42,167.64,232.81,166.63,232.81z M166.79,228.88h0.01H166.79z M157.94,220.03
		l8.69,8.69l8.69-8.69l-8.69-8.69L157.94,220.03z"/>
</g>
<g>
	<path class="st4" d="M462.28,782.45c-0.84,0-1.68-0.25-2.42-0.74c-1.32-0.88-2.05-2.35-1.95-3.93l1.41-22.29
		c0.1-1.58,1-2.94,2.41-3.64c1.41-0.71,3.04-0.61,4.36,0.25l18.69,12.22c1.33,0.87,2.07,2.33,1.98,3.92s-0.99,2.96-2.41,3.67
		l-20.1,10.07C463.62,782.29,462.95,782.45,462.28,782.45z M463.7,755.38c-0.06,0-0.12,0.01-0.17,0.04
		c-0.13,0.07-0.2,0.17-0.21,0.32l-1.41,22.29c-0.01,0.15,0.05,0.26,0.17,0.34c0.12,0.08,0.25,0.09,0.38,0.02l20.1-10.07
		c0.13-0.07,0.2-0.17,0.21-0.32c0.01-0.15-0.05-0.26-0.17-0.34l-18.69-12.22C463.84,755.4,463.77,755.38,463.7,755.38z
		 M459.91,777.91L459.91,777.91L459.91,777.91z"/>
</g>
<g>
	<g>
		<path class="st6" d="M146.32,682.48c-0.55,0-1-0.45-1-1v-55.86c0-0.55,0.45-1,1-1s1,0.45,1,1v55.86
			C147.32,682.03,146.88,682.48,146.32,682.48z"/>
	</g>
	<g>
		<path class="st6" d="M294.3,642.93H169.69c-0.55,0-1-0.45-1-1s0.45-1,1-1H294.3c0.55,0,1,0.45,1,1S294.85,642.93,294.3,642.93z"/>
	</g>
	<g>
		<path class="st6" d="M275.8,662.7h-35.53c-0.55,0-1-0.45-1-1s0.45-1,1-1h35.53c0.55,0,1,0.45,1,1S276.36,662.7,275.8,662.7z"/>
	</g>
	<g>
		<path class="st7" d="M298.74,684.48H272.3c-1.66,0-3-1.34-3-3s1.34-3,3-3h26.44c13.75,0,24.93-11.18,24.93-24.93
			c0-13.75-11.18-24.93-24.93-24.93H272.3c-1.66,0-3-1.34-3-3s1.34-3,3-3h26.44c17.05,0,30.93,13.87,30.93,30.93
			S315.8,684.48,298.74,684.48z"/>
	</g>
	<g>
		<path class="st7" d="M343.31,684.48H272.3c-1.66,0-3-1.34-3-3s1.34-3,3-3h71.01c13.75,0,24.93-11.18,24.93-24.93
			c0-13.75-11.18-24.93-24.93-24.93H272.3c-1.66,0-3-1.34-3-3s1.34-3,3-3h71.01c17.05,0,30.93,13.87,30.93,30.93
			S360.36,684.48,343.31,684.48z"/>
	</g>
	<g>
		<path class="st7" d="M326.67,628.62H128.8c-1.66,0-3-1.34-3-3s1.34-3,3-3h197.87c1.66,0,3,1.34,3,3S328.33,628.62,326.67,628.62z"
			/>
	</g>
	<g>
		<path class="st7" d="M326.67,684.48H128.8c-1.66,0-3-1.34-3-3s1.34-3,3-3h197.87c1.66,0,3,1.34,3,3S328.33,684.48,326.67,684.48z"
			/>
	</g>
	<g>
		<path class="st7" d="M345.31,679.97h-29.79c7.11-5.77,11.66-16.57,11.66-26.42s-4.55-20.65-11.66-26.42h29.79
			c13.46,0,24.42,12.96,24.42,26.42S358.77,679.97,345.31,679.97z"/>
	</g>
</g>
<g>
	<path class="st6" d="M651.2,430.58c-0.55,0-1-0.45-1-1v-69.76c0-0.55,0.45-1,1-1s1,0.45,1,1v69.76
		C652.2,430.13,651.76,430.58,651.2,430.58z"/>
</g>
<g>
	<path class="st6" d="M622.02,410.21H466.38c-0.55,0-1-0.45-1-1s0.45-1,1-1h155.64c0.55,0,1,0.45,1,1S622.57,410.21,622.02,410.21z"
		/>
</g>
<g>
	<path class="st6" d="M533.87,385.52h-44.38c-0.55,0-1-0.45-1-1s0.45-1,1-1h44.38c0.55,0,1,0.45,1,1S534.42,385.52,533.87,385.52z"
		/>
</g>
<g>
	<path class="st4" d="M493.86,432.58h-33.02c-20.89,0-37.88-16.99-37.88-37.88s16.99-37.88,37.88-37.88h33.02c1.66,0,3,1.34,3,3
		s-1.34,3-3,3h-33.02c-17.58,0-31.88,14.3-31.88,31.88s14.3,31.88,31.88,31.88h33.02c1.66,0,3,1.34,3,3S495.51,432.58,493.86,432.58
		z"/>
</g>
<g>
	<path class="st4" d="M493.86,432.58h-88.69c-20.89,0-37.88-16.99-37.88-37.88s16.99-37.88,37.88-37.88h88.69c1.66,0,3,1.34,3,3
		s-1.34,3-3,3h-88.69c-17.58,0-31.88,14.3-31.88,31.88s14.3,31.88,31.88,31.88h88.69c1.66,0,3,1.34,3,3S495.51,432.58,493.86,432.58
		z"/>
</g>
<g>
	<path class="st4" d="M405.1,428.04c-18.38,0-33.34-14.95-33.34-33.34c0-18.38,14.95-33.34,33.34-33.34h42.79
		c-10.47,7.39-24.43,19.58-24.43,33.34c0,13.76,13.97,25.94,24.44,33.34H405.1z"/>
</g>
<g>
	<path class="st4" d="M673.09,432.58H425.95c-1.66,0-3-1.34-3-3s1.34-3,3-3h247.14c1.66,0,3,1.34,3,3S674.75,432.58,673.09,432.58z"
		/>
</g>
<g>
	<path class="st4" d="M673.09,362.82H425.95c-1.66,0-3-1.34-3-3s1.34-3,3-3h247.14c1.66,0,3,1.34,3,3S674.75,362.82,673.09,362.82z"
		/>
</g>
<g>
	<g>
		<path class="st6" d="M294.75,744.36c-0.55,0-1-0.45-1-1v-55.86c0-0.55,0.45-1,1-1s1,0.45,1,1v55.86
			C295.75,743.91,295.31,744.36,294.75,744.36z"/>
	</g>
	<g>
		<path class="st4" d="M168.78,746.36h-26.44c-17.05,0-30.93-13.87-30.93-30.93s13.87-30.93,30.93-30.93h26.44c1.66,0,3,1.34,3,3
			s-1.34,3-3,3h-26.44c-13.75,0-24.93,11.18-24.93,24.93s11.18,24.93,24.93,24.93h26.44c1.66,0,3,1.34,3,3
			S170.43,746.36,168.78,746.36z"/>
	</g>
	<g>
		<path class="st4" d="M168.78,746.36H97.77c-17.05,0-30.93-13.87-30.93-30.93s13.87-30.93,30.93-30.93h71.01c1.66,0,3,1.34,3,3
			s-1.34,3-3,3H97.77c-13.75,0-24.93,11.18-24.93,24.93s11.18,24.93,24.93,24.93h71.01c1.66,0,3,1.34,3,3
			S170.43,746.36,168.78,746.36z"/>
	</g>
	<g>
		<path class="st4" d="M97.74,743.55c-15.5,0-28.11-12.61-28.11-28.11s12.61-28.11,28.11-28.11h33.01
			c-8.18,6.64-17.9,16.78-17.9,28.11s9.71,21.47,17.9,28.11H97.74z"/>
	</g>
	<g>
		<path class="st4" d="M312.28,746.36H114.41c-1.66,0-3-1.34-3-3s1.34-3,3-3h197.87c1.66,0,3,1.34,3,3S313.93,746.36,312.28,746.36z
			"/>
	</g>
	<g>
		<path class="st4" d="M312.28,690.51H114.41c-1.66,0-3-1.34-3-3s1.34-3,3-3h197.87c1.66,0,3,1.34,3,3S313.93,690.51,312.28,690.51z
			"/>
	</g>
	<g>
		<path class="st6" d="M271.39,736.04H146.78c-0.55,0-1-0.45-1-1s0.45-1,1-1h124.61c0.55,0,1,0.45,1,1S271.94,736.04,271.39,736.04z
			"/>
	</g>
	<g>
		<path class="st6" d="M200.81,711.66h-35.53c-0.55,0-1-0.45-1-1s0.45-1,1-1h35.53c0.55,0,1,0.45,1,1S201.36,711.66,200.81,711.66z"
			/>
	</g>
</g>
<g>
	<rect x="405.17" y="435.4" class="st7" width="316.52" height="70.87"/>
	<path class="st7" d="M721.69,509.26H405.17c-1.66,0-3-1.34-3-3V435.4c0-1.66,1.34-3,3-3h316.52c1.66,0,3,1.34,3,3v70.87
		C724.69,507.92,723.35,509.26,721.69,509.26z M408.17,503.26h310.52V438.4H408.17V503.26z"/>
</g>
<g>
	<rect x="432.07" y="435.4" class="st5" width="34.31" height="70.87"/>
	<path class="st7" d="M466.38,509.26h-34.31c-1.66,0-3-1.34-3-3V435.4c0-1.66,1.34-3,3-3h34.31c1.66,0,3,1.34,3,3v70.87
		C469.38,507.92,468.04,509.26,466.38,509.26z M435.07,503.26h28.31V438.4h-28.31V503.26z"/>
</g>
<g>
	<rect x="636.79" y="435.4" class="st5" width="34.31" height="70.87"/>
	<path class="st7" d="M671.1,509.26h-34.31c-1.66,0-3-1.34-3-3V435.4c0-1.66,1.34-3,3-3h34.31c1.66,0,3,1.34,3,3v70.87
		C674.1,507.92,672.76,509.26,671.1,509.26z M639.79,503.26h28.31V438.4h-28.31V503.26z"/>
</g>
<g>
	<g>
		<path class="st6" d="M334.89,546.79c-0.16,0-0.32-0.02-0.48-0.06c-1.07-0.26-1.73-1.34-1.47-2.42l76.67-313.23
			c0.26-1.07,1.34-1.73,2.42-1.47c1.07,0.26,1.73,1.34,1.47,2.42l-76.66,313.23C336.61,546.18,335.79,546.79,334.89,546.79z"/>
	</g>
	<g>
		<path class="st6" d="M278.83,546.79c-0.16,0-0.32-0.02-0.48-0.06c-1.07-0.26-1.73-1.34-1.47-2.42l76.67-313.23
			c0.26-1.07,1.35-1.73,2.42-1.47c1.07,0.26,1.73,1.34,1.47,2.42l-76.67,313.23C280.55,546.18,279.73,546.79,278.83,546.79z"/>
	</g>
	<g>
		<path class="st6" d="M405.17,253.89h-54.66c-1.1,0-2-0.9-2-2s0.9-2,2-2h54.66c1.1,0,2,0.9,2,2S406.28,253.89,405.17,253.89z"/>
	</g>
	<g>
		<path class="st6" d="M395.29,300h-56.06c-1.1,0-2-0.9-2-2s0.9-2,2-2h56.06c1.1,0,2,0.9,2,2S396.39,300,395.29,300z"/>
	</g>
	<g>
		<path class="st6" d="M381.12,346.11h-53.18c-1.1,0-2-0.9-2-2s0.9-2,2-2h53.18c1.1,0,2,0.9,2,2S382.23,346.11,381.12,346.11z"/>
	</g>
	<g>
		<path class="st6" d="M369.1,392.21h-51.94c-1.1,0-2-0.9-2-2s0.9-2,2-2h51.94c1.1,0,2,0.9,2,2S370.2,392.21,369.1,392.21z"/>
	</g>
	<g>
		<path class="st6" d="M361.44,438.32h-56.06c-1.1,0-2-0.9-2-2s0.9-2,2-2h56.06c1.1,0,2,0.9,2,2S362.54,438.32,361.44,438.32z"/>
	</g>
	<g>
		<path class="st6" d="M350.15,484.42h-56.06c-1.1,0-2-0.9-2-2s0.9-2,2-2h56.06c1.1,0,2,0.9,2,2S351.26,484.42,350.15,484.42z"/>
	</g>
	<g>
		<path class="st6" d="M338.49,530.53h-55.68c-1.1,0-2-0.9-2-2s0.9-2,2-2h55.68c1.1,0,2,0.9,2,2S339.59,530.53,338.49,530.53z"/>
	</g>
</g>
<g>
	<path class="st6" d="M440.78,354.76c-0.55,0-1-0.45-1-1V284c0-0.55,0.45-1,1-1s1,0.45,1,1v69.76
		C441.78,354.32,441.33,354.76,440.78,354.76z"/>
</g>
<g>
	<path class="st6" d="M625.6,305.37H469.96c-0.55,0-1-0.45-1-1s0.45-1,1-1H625.6c0.55,0,1,0.45,1,1S626.15,305.37,625.6,305.37z"/>
</g>
<g>
	<path class="st6" d="M602.49,330.06h-44.38c-0.55,0-1-0.45-1-1s0.45-1,1-1h44.38c0.55,0,1,0.45,1,1S603.05,330.06,602.49,330.06z"
		/>
</g>
<g>
	<path class="st3" d="M631.14,356.76h-33.02c-1.66,0-3-1.34-3-3s1.34-3,3-3h33.02c17.58,0,31.88-14.3,31.88-31.88
		S648.72,287,631.14,287h-33.02c-1.66,0-3-1.34-3-3s1.34-3,3-3h33.02c20.89,0,37.88,16.99,37.88,37.88S652.03,356.76,631.14,356.76z
		"/>
</g>
<g>
	<path class="st3" d="M686.81,356.76h-88.69c-1.66,0-3-1.34-3-3s1.34-3,3-3h88.69c17.58,0,31.88-14.3,31.88-31.88
		S704.39,287,686.81,287h-88.69c-1.66,0-3-1.34-3-3s1.34-3,3-3h88.69c20.89,0,37.88,16.99,37.88,37.88S707.7,356.76,686.81,356.76z"
		/>
</g>
<g>
	<path class="st3" d="M686.9,352.98h-40.52c10.71-7.56,17.72-20.02,17.72-34.1c0-14.08-7.01-26.54-17.72-34.1h40.52
		c18.8,0,34.1,15.3,34.1,34.1C721.01,337.68,705.71,352.98,686.9,352.98z"/>
</g>
<g>
	<path class="st3" d="M666.03,287H418.89c-1.66,0-3-1.34-3-3s1.34-3,3-3h247.14c1.66,0,3,1.34,3,3S667.68,287,666.03,287z"/>
</g>
<g>
	<path class="st3" d="M666.03,356.76H418.89c-1.66,0-3-1.34-3-3s1.34-3,3-3h247.14c1.66,0,3,1.34,3,3S667.68,356.76,666.03,356.76z"
		/>
</g>
<g>
	<path class="st5" d="M172.1,692.44l1.28-2.04c1.39-2.21,4.58-6.05,10.34-6.94l0.9-0.14l14.78,7.62l-0.2,1.9
		c-0.29,2.8,1.68,5.18,6.18,10.28c1.24,1.41,2.61,2.96,4.16,4.79c3.79,4.46,5,9.66,3.4,14.65l-1.29,4.04L172.1,692.44z"/>
</g>
<g>
	<path class="st5" d="M235.59,710.05c-1.2-2.59-2.77-7.78,0.22-13.38l0.39-1.56l1.57-0.55c2.34-0.68,6.07-2.17,11.73-4.7l1.38-0.62
		l1.27,0.82c0.97,0.62,2.16,0.9,3.87,0.9c2,0,4.49-0.37,7.65-0.84c1.8-0.27,3.88-0.58,6.28-0.89c0.88-0.11,10.86,8.39,10.86,8.39
		l-44.21,14.62L235.59,710.05z"/>
</g>
<g>
	<path class="st5" d="M203.29,704.99c1.2,1.36,2.57,2.92,4.13,4.75c4.03,4.75,3.78,9.15,2.87,11.98l-34.53-29.82
		c1.27-2.02,3.89-4.96,8.4-5.66l12.27,6.33C195.98,696.7,198.69,699.78,203.29,704.99z"/>
</g>
<g>
	<g>
		<path class="st3" d="M234.46,595.71c-1.81-2.73-5.01-4.12-9.51-4.12h-60.1c-0.23,0-0.42-0.19-0.42-0.42
			c0-0.23,0.19-0.42,0.42-0.42h14.16l-3.45-4.5c-0.28-0.37-0.43-0.78-0.43-1.21c0-0.32,0.09-0.64,0.26-0.96
			c0,0-27.62-0.65-33.98-4.88l-2.72-0.23l-0.31,2.71c-1.07,9.48-3.92,34.66,21.45,38.55c4.31,0.66,8.59,0.99,12.73,0.99
			c20.66,0,33.8-7.19,33.73-6.98c-5.56,15.81-17.68,57.38-20.4,66.22l-0.69,2.24l14.74,7.61l1.21-2.71
			c2.82-6.33,9.51-21.32,16.11-36.16l0.22-0.49c6.34-14.26,14.28-32.14,16.05-36.33C236.07,608.61,237.64,600.51,234.46,595.71z"/>
	</g>
	<g>
		<path class="st3" d="M232.97,618.09l-3.35,7.58c-2.93,6.65-6.82,15.4-10.8,24.34l-0.48,1.08l0.44,1.1
			c5.93,14.94,13.53,33.75,16.19,39.75l1.04,2.35l2.43-0.83c2.09-0.72,5.61-2.13,9.41-3.79l2.16-0.94L232.97,618.09z"/>
	</g>
</g>
<g>
	<path class="st6" d="M235.84,696.49c-0.75,0-1.05-0.24-1.36-0.49c-0.54-0.43-1.35-1.08-18.46-44.19c-0.41-1.03,0.09-2.19,1.12-2.6
		c1.03-0.41,2.19,0.09,2.6,1.12c5.67,14.29,14.75,36.84,17.12,41.97c2.1-0.61,6.89-2.55,11.3-4.5l-17.03-70.6
		c-0.26-1.07,0.4-2.15,1.48-2.41c1.08-0.26,2.15,0.4,2.41,1.48l17.42,72.22c0.23,0.93-0.25,1.9-1.12,2.29
		C241.12,695.37,237.45,696.49,235.84,696.49z"/>
</g>
<g>
	<path class="st6" d="M205.63,722.81c-0.46,0-0.92-0.16-1.28-0.46l-33.89-28.12c-0.65-0.54-0.89-1.43-0.6-2.22
		c0.15-0.42,3.8-10.19,14.67-11.12c1.11-0.09,2.07,0.72,2.16,1.82c0.09,1.1-0.72,2.07-1.82,2.16c-6.32,0.54-9.48,5.02-10.67,7.25
		l30.85,25.6c1.39-3.04,3.05-9.16-2.28-14.73l-0.61-0.64c-4.47-4.66-6.15-6.41-3.87-12.23c0.4-1.03,1.56-1.53,2.59-1.13
		c1.03,0.4,1.54,1.56,1.13,2.59c-1.35,3.44-1.27,3.53,3.03,8l0.61,0.64c7.68,8.02,4.41,17.72,1.61,21.72
		c-0.32,0.46-0.82,0.76-1.37,0.84C205.8,722.8,205.71,722.81,205.63,722.81z"/>
</g>
<g>
	<path class="st6" d="M237.8,715.51c-0.57,0-1.12-0.24-1.51-0.69c-0.29-0.33-7.06-8.27-2.59-18.22c0.45-1.01,1.64-1.46,2.64-1
		c1.01,0.45,1.46,1.64,1,2.64c-2.6,5.78-0.22,10.72,1.15,12.85l37.36-14.52c-1.99-2.69-6.52-7.12-13.98-5.17l-0.85,0.22
		c-6.25,1.64-8.59,2.26-12.57-2.56c-0.7-0.85-0.58-2.11,0.27-2.82c0.85-0.7,2.11-0.58,2.82,0.27c2.35,2.85,2.47,2.82,8.46,1.24
		l0.86-0.23c10.74-2.82,17.63,4.76,19.76,9.15c0.24,0.5,0.27,1.08,0.06,1.61s-0.62,0.93-1.14,1.13l-41.04,15.95
		C238.28,715.46,238.04,715.51,237.8,715.51z"/>
</g>
<g>
	<path class="st6" d="M177.17,590.02c-1.65,0-2.99-1.34-3-2.99c-0.01-1.66,1.33-3.01,2.99-3.01l56.77-0.21l13.68-51.1
		c0.43-1.6,2.07-2.55,3.67-2.12c1.6,0.43,2.55,2.07,2.12,3.67l-14.27,53.32c-0.35,1.31-1.53,2.22-2.89,2.22l-59.06,0.22
		C177.18,590.02,177.17,590.02,177.17,590.02z"/>
</g>
<g>
	<path class="st6" d="M200.15,692.86c-0.32,0-0.63-0.08-0.92-0.22l-15.45-7.98c-0.86-0.44-1.28-1.44-1-2.36
		c0.14-0.46,12.9-42.37,19.94-63.41c-7.64,3.61-22.53,6.87-43.25,3.7c-27.71-4.24-24.53-32.18-23.48-41.36
		c0.08-0.66,0.14-1.23,0.18-1.7c0.1-1.1,1.08-1.92,2.18-1.81c1.1,0.1,1.91,1.08,1.81,2.18c-0.05,0.49-0.11,1.09-0.19,1.78
		c-1.04,9.11-3.8,33.29,20.11,36.96c27.96,4.28,43.54-3.77,44.77-5.82c0.53-0.88,1.64-1.21,2.57-0.78c0.93,0.44,1.38,1.51,1.04,2.47
		c-5.6,15.92-18.67,58.57-21.35,67.36l12.09,6.24c4.96-11.1,29.64-66.43,32.9-74.13c2.26-5.35,3.9-13.12,1.06-17.4
		c-1.5-2.26-4.26-3.41-8.19-3.41h-60.1c-1.1,0-2-0.9-2-2s0.9-2,2-2h60.1c5.36,0,9.24,1.75,11.53,5.2
		c4.67,7.05,0.64,17.99-0.71,21.17c-3.62,8.56-33.49,75.46-33.79,76.14c-0.22,0.5-0.65,0.89-1.16,1.07
		C200.6,692.83,200.38,692.86,200.15,692.86z"/>
</g>
<g>
	<path class="st6" d="M180.8,494.31c-3.91,0-8.98-1.56-13.23-5.38c-0.82-0.74-0.89-2-0.15-2.83c0.74-0.82,2-0.88,2.82-0.15
		c4.13,3.72,9.19,4.79,12.16,4.22c1.19-0.23,1.67-0.65,1.77-0.84c2.92-5.97,4.43-14.44,5.81-25.33c0.14-1.1,1.13-1.87,2.24-1.73
		c1.1,0.14,1.87,1.14,1.73,2.24c-1.43,11.28-3.02,20.12-6.19,26.59c-0.74,1.51-2.37,2.57-4.6,3
		C182.45,494.24,181.65,494.31,180.8,494.31z"/>
</g>
<g>
	<path class="st6" d="M187.76,585.09c-4.81,0-16.27-0.12-27.76-1.14c-21.63-1.92-32.17-5.76-33.17-12.1
		c-3.06-19.45,8.4-58.11,21.89-73.87c0.72-0.84,1.98-0.94,2.82-0.22c0.84,0.72,0.94,1.98,0.22,2.82
		c-12.67,14.8-23.84,52.43-20.98,70.64c0.23,1.46,3.04,6.39,29.57,8.74c12.06,1.07,24.1,1.15,28.21,1.12l2.22-7.97
		c-3.67-0.67-11.46-2.13-19.31-3.78c-22.5-4.74-23.54-6.38-24.23-7.47c-0.37-0.59-0.48-1.26-0.31-1.91c2.18-8.08,4.16-11.13,6.68-15
		c2.13-3.29,4.55-7.01,7.94-15.12c1.52-3.63,2.17-7.1,1.93-10.33c-0.08-1.1,0.75-2.06,1.85-2.14c1.1-0.07,2.06,0.75,2.14,1.85
		c0.28,3.86-0.47,7.95-2.23,12.16c-3.53,8.45-6.16,12.5-8.28,15.76c-2.29,3.53-3.98,6.13-5.87,12.77c4.27,2.08,24.3,6.42,42.56,9.66
		c0.56,0.1,1.04,0.43,1.34,0.9c0.3,0.48,0.39,1.06,0.23,1.6l-3.21,11.54c-0.24,0.86-1.01,1.45-1.9,1.46
		C190.08,585.08,189.23,585.09,187.76,585.09z"/>
</g>
<g>
	<path class="st6" d="M220.84,587.14c-0.78,0-1.52-0.46-1.85-1.23c-0.03-0.07-2.98-7.06-6.68-12.33c-1.29-1.84-2.56-1.73-7-0.49
		c-3.27,0.91-7.35,2.05-12.31,1.31c-1.09-0.16-1.85-1.18-1.69-2.27s1.18-1.85,2.27-1.69c4.12,0.61,7.59-0.36,10.65-1.21
		c4.08-1.14,8.29-2.31,11.35,2.04c3.96,5.63,6.97,12.78,7.09,13.08c0.43,1.02-0.05,2.19-1.07,2.62
		C221.36,587.09,221.1,587.14,220.84,587.14z"/>
</g>
<g>
	<path class="st6" d="M193,447.66c-9.57-14.57-30.46-11.22-38.5,0.98c-5.13,7.78-5.87,14.55-5.74,18.44
		c0.07,2.12-1.2,4.03-3.17,4.82c-9.71,3.91-52.16,14.22-41.4,43.04c10.68,28.62,31.27,13.14,31.27,13.14l12.8-24.45
		c10.53-9.96,9.79-14.79,13.65-29.99c-0.53-0.83-0.85-1.81-0.85-2.87c0-2.96,2.4-5.35,5.35-5.35c7.48,7.53,12.75,0.08,20.4,2.16
		c3.51,0.96,11.29,3.27,15.51-0.06c1.65-1.31,3.83-10.78,3.41-14.6C205.32,449.39,194.8,450.41,193,447.66z"/>
</g>
<g>
	<path class="st6" d="M175.25,568.69c-0.13,0-0.26-0.01-0.39-0.04c-1.08-0.21-1.79-1.26-1.58-2.35c0.17-0.88-0.03-1.72-0.28-2.78
		c-0.93-3.9-1.12-7.67,6.09-14.19c4.95-4.47,7.64-9.79,7.79-15.39c0.16-6.03-2.58-11.01-5.21-13.65c-4.79-4.82-16-16.12-9.03-29.55
		c0.51-0.98,1.72-1.36,2.7-0.85c0.98,0.51,1.36,1.72,0.85,2.7c-4.96,9.55,1.42,17.95,8.32,24.89c3.21,3.23,6.56,9.28,6.37,16.58
		c-0.13,4.68-1.81,11.65-9.1,18.25c-6.04,5.46-5.5,7.7-4.89,10.29c0.31,1.28,0.65,2.74,0.31,4.47
		C177.02,568.03,176.19,568.69,175.25,568.69z"/>
</g>
<g>
	<path class="st6" d="M165.08,504.46c-10.09,0-16.05-6.67-16.35-7.02c-0.73-0.83-0.64-2.1,0.19-2.82c0.83-0.73,2.1-0.64,2.82,0.19
		c0.3,0.34,7.65,8.44,19.75,4.61c1.05-0.33,2.18,0.25,2.51,1.3c0.33,1.05-0.25,2.18-1.3,2.51
		C169.95,504.1,167.41,504.46,165.08,504.46z"/>
</g>
<g>
	<path class="st5" d="M471.32,282.84c-2.76-3.8-10.95-18.3-15.61-25.48c1.85-0.33,2.86-2.3,5.1-1.51c1.74,0.61,6.49,0.3,7.68,2.66
		c1.18,2.33,2.91,5.62,4.87,6.87c2.46,1.57,5.22,2.84,7.24,3.06l5.28,10.5v3.9H471.32z"/>
</g>
<g>
	<path class="st3" d="M670.98,189.34c0,0-3.41-10.34-3.71-11.38l-0.11-0.37l-0.22-0.32c-3.2-4.78-12.96-5.79-14.06-5.89l-1.23-0.11
		l-0.83,0.91c-2.49,2.72-7.29,3.84-10.95,3.98c-0.32,0.01-0.64,0.02-0.96,0.02c-4.88,0-9.07-1.47-11.49-4.02l-0.84-0.89l-1.22,0.13
		c-5.17,0.54-9.09,2.5-13.28,6.79c-4.2,4.29-4.31,20.52-8.89,32.4c-2.32,6.02-17.55,6.86-18.44,8.64c-0.48,0.96,4.95,7.84,4.95,7.84
		l2.44-0.51c0.56-0.12,1.13-0.18,1.69-0.18c0.86,0,1.73,0.13,2.64,0.41l1.11,0.33l6.36,3.83l1.44,8.47l2.25-0.16
		c2.79-0.2,8.39,5.43,8.39,5.43c15.23,6.38,32.33,14.38,32.33,14.38c3.29,0.8,13.59,3.4,13.59,3.4c5.37-9.12,7.3-24.06,8.59-34.52
		C671.47,220.37,671.89,198.48,670.98,189.34z"/>
</g>
<g>
	<path class="st5" d="M597.59,227.11c2.63-1.95,14.95-0.43,16.62-3.31c0.72-1.24,3.04-4.88,3.36-3.44c0.55,2.41-0.06,7.41,0.23,9.79
		C613.44,230.93,605.87,230.47,597.59,227.11z"/>
</g>
<g>
	<path class="st7" d="M645.84,258.47c-2.14-0.88-52.54-21.66-62.05-26.3c-1.89-0.92-3.78-1.66-5.6-2.2l-0.12-0.04l-0.13-0.02
		c-1.86-0.34-3.69-0.65-5.47-0.93l-0.14-0.02l-0.14-0.01c-0.31-0.01-0.62-0.02-0.92-0.02c-3.09,0-5.91,0.69-8.38,2.05
		c-4.27,2.35-66.53,30.95-78.96,36.66l-2.42,1.11l5.33,9.81l1.91-0.53c31.42-8.75,60.52-17.81,74.15-23.06l3.6-0.98
		c41.21,30.97,70.17,28.18,72.17,27.72c10.53-2.45,16.23-7.24,23.3-19.23C661.96,262.46,645.91,258.5,645.84,258.47z"/>
</g>
<g>
	<path class="st6" d="M649.03,248.39c-11.66,0-43.16-6.06-44.55-6.33c-0.82-0.16-1.45-0.81-1.59-1.63l-1.65-9.69
		c-0.1-0.59,0.07-1.2,0.46-1.65c0.39-0.45,0.96-0.74,1.57-0.69c14.77,0.43,39.3,0.77,42.23-0.17c2.97-0.95,3.25-11.77,3.47-20.46
		c0.18-6.82,0.36-13.86,1.43-20.14c0.19-1.09,1.22-1.83,2.31-1.63c1.09,0.19,1.82,1.22,1.63,2.31c-1.03,5.99-1.21,12.89-1.38,19.57
		c-0.32,12.49-0.58,22.35-6.25,24.17c-4.03,1.29-31.25,0.69-41.12,0.42l1.01,5.91c6.51,1.23,34.55,6.4,43.45,5.98
		c8.43-0.38,10.06-4.35,11.78-8.56l0.38-0.92c2.49-5.91,10.47-34.99,5.49-51.87c-1.42-4.82-11.83-9.41-15.59-10.24
		c-2.66,3.22-7.88,4.56-12.17,4.73c-5.98,0.24-11.03-1.55-13.82-4.81c-4.79,0.54-10.95,4.83-12.46,6.72
		c-1.45,1.92-6.21,19.59-8.48,31.52c-0.38,2.01-2.45,4.63-14.84,8.73c-6.47,2.15-12.93,3.74-12.99,3.75
		c-1.07,0.26-2.16-0.39-2.42-1.47c-0.26-1.07,0.39-2.16,1.47-2.42c12.55-3.08,23.94-7.4,24.88-9.43c1.6-8.42,6.71-30,9.27-33.19
		c2.25-2.81,10.12-8.27,16.53-8.27c0.67,0,1.29,0.33,1.66,0.89c1.76,2.65,6,4.18,11.05,3.98c4.5-0.17,8.46-1.75,9.63-3.84
		c0.35-0.63,1.02-1.02,1.75-1.02c3.44,0,18.12,5.63,20.37,13.24c5.73,19.4-4.04,50.77-5.64,54.55l-0.37,0.88
		c-1.82,4.45-4.32,10.54-15.3,11.04C649.85,248.38,649.45,248.39,649.03,248.39z"/>
</g>
<g>
	<path class="st6" d="M600.42,229.24c-1.73,0-2.89-0.12-3.05-0.14c-1.1-0.12-1.89-1.11-1.76-2.21c0.12-1.1,1.12-1.89,2.21-1.76
		c0.13,0.02,13.06,1.36,18.12-5.91c0.63-0.91,1.88-1.13,2.79-0.5c0.91,0.63,1.13,1.88,0.5,2.78
		C614.49,228.29,605.23,229.24,600.42,229.24z"/>
</g>
<g>
	<path class="st6" d="M617.73,232.88c-0.08,0-0.17,0-0.25-0.02c-1.1-0.14-1.87-1.14-1.74-2.23c0.92-7.34,0.12-12.82-0.65-18.12
		c-1.03-7.04-2.09-14.32,1.03-25.32c0.3-1.06,1.41-1.68,2.47-1.38c1.06,0.3,1.68,1.41,1.38,2.47c-2.89,10.17-1.93,16.72-0.92,23.65
		c0.81,5.57,1.65,11.32,0.66,19.2C619.58,232.14,618.72,232.88,617.73,232.88z"/>
</g>
<g>
	<path class="st6" d="M603.21,232.41c-0.1,0-0.2-0.01-0.31-0.02c-1.29-0.2-2.35-0.88-3.47-1.61c-2.37-1.53-5.06-3.27-10.95-0.95
		c-1.03,0.41-2.19-0.1-2.59-1.13c-0.4-1.03,0.1-2.19,1.13-2.59c7.8-3.07,11.88-0.43,14.58,1.31c0.76,0.49,1.47,0.95,1.91,1.02
		c1.09,0.17,1.84,1.19,1.67,2.28C605.03,231.7,604.18,232.41,603.21,232.41z"/>
</g>
<g>
	<path class="st6" d="M633.21,284.14c-21.7,0-56.48-17.65-67.03-27.66c-6.14,2.54-17.21,6.43-37.45,12.62
		c-20.83,6.36-41.47,12.08-41.68,12.14c-0.9,0.25-1.85-0.16-2.29-0.97l-5.91-10.87c-0.26-0.49-0.32-1.06-0.14-1.59
		s0.56-0.96,1.06-1.19c0.77-0.35,77.23-35.43,81.84-37.97c4.51-2.48,12.21-4.29,23.34,1.14c9.52,4.64,67.94,28.92,68.53,29.17
		c1.02,0.42,1.5,1.59,1.08,2.61c-0.42,1.02-1.6,1.5-2.61,1.08c-2.41-1-59.12-24.57-68.75-29.26c-7.59-3.7-14.38-4.12-19.66-1.23
		c-4.37,2.4-67.87,31.57-80.15,37.2l4.12,7.59c29.88-8.31,61.83-18.07,76-23.68c-0.05-0.1-0.1-0.19-0.14-0.29
		c-1.36-2.91-0.84-5.61,1.39-7.23c2.58-1.87,6.88-1.75,9.02,0.25c1.24,1.16,1.99,3.28,0.42,5.79c-0.35,0.55-0.85,1.34-4.09,2.94
		c10.38,8.79,42.82,25.41,63.11,25.41c8.26,0,15.23-3.1,20.74-9.22c16.01-17.8,15.78-56.49,14.87-65.11
		c-0.12-1.1,0.68-2.08,1.78-2.2c1.09-0.1,2.08,0.68,2.2,1.78c1.01,9.55,1.29,49.12-15.87,68.21
		C650.62,280.59,642.64,284.14,633.21,284.14z M569.17,248.43c-0.58,0-1.2,0.1-1.75,0.38c-0.45,0.23-1.3,0.65-0.43,2.49
		c0.06,0.13,0.14,0.28,0.24,0.42c1.93-0.88,3.18-1.59,3.62-2.11c0.22-0.35,0.25-0.59,0.25-0.64
		C570.95,248.71,570.12,248.43,569.17,248.43z"/>
</g>
<g>
	<path class="st6" d="M590.89,233.12l-10.37-49.41c-0.15-0.72-0.79-1.24-1.53-1.24h-76.96c-1.04,0-1.79,1-1.5,2l15.39,53.09
		c0.19,0.67,0.81,1.13,1.5,1.13h23.87c0.24,0,2.68,0.56,2.89,0.45c2.28-1.14,14.7-7.73,18.4-8.72c4.04-1.08,11.71-3.2,18.17-0.26
		C584.54,231.88,591.15,234.36,590.89,233.12z"/>
</g>
<g>
	<path class="st6" d="M486.51,286H472.5c-0.64,0-1.25-0.31-1.62-0.83c-0.57-0.79-14.07-19.49-18.48-27.05
		c-0.28-0.49-0.35-1.07-0.18-1.6c0.17-0.54,0.55-0.98,1.06-1.21c0.25-0.12,6.26-2.87,12.98-0.5c3.63,1.28,5.42,4.27,6.85,6.67
		c0.79,1.33,1.54,2.58,2.36,3.11c2.92,1.87,3.39,1.98,5,1.87c1.14-0.06,2.06,0.75,2.13,1.86c0.08,1.1-0.75,2.06-1.86,2.13
		c-2.93,0.2-4.29-0.48-7.44-2.49c-1.62-1.03-2.65-2.76-3.64-4.43c-1.27-2.13-2.47-4.14-4.75-4.94c-3.03-1.07-5.91-0.78-7.78-0.34
		c4.58,7.29,13.93,20.36,16.38,23.77h10.76l-0.39-3.64c-0.12-1.1,0.68-2.08,1.77-2.2c1.08-0.12,2.08,0.68,2.2,1.77l0.63,5.85
		c0.06,0.56-0.12,1.13-0.5,1.55C487.62,285.76,487.08,286,486.51,286z"/>
</g>
<g>
	
		<ellipse transform="matrix(0.9893 -0.1462 0.1462 0.9893 -24.7907 82.0205)" class="st5" cx="545.69" cy="209.69" rx="3.53" ry="4.32"/>
</g>
<g>
	<path class="st6" d="M658.69,131.42c3.46-7.46,0.65-16.67-7.84-18.9c-5.38-1.42-9.54,0.17-12.12,2.19
		c-0.18-0.21-0.38-0.41-0.63-0.61c-3.48-2.67-16.52-1.93-22.62,11.27c-7.43,16.1-2.82,42.09-3.38,52.8c0,0,13.02-7.99,15.96-7.99
		s5.62-13.37,3.21-12.85c-2.41,0.52-9.5,1.94-9.79-2.62c-0.27-4.28-0.78-5.8-0.78-16.27s16-9.16,20.28-16.29
		c-2.16,7.04,0.58,16.76,4.81,19.84c1.41,0.84,3.19,1.02,5.36,0.46c0.06,1.81-1.41,4.7-3.21,5.3c-0.61,0.2-1.24,0.24-1.84,0.17
		c-0.47,1.17-0.52,1.46-0.67,3.29c-0.53,6.77,4.25,18.65,6.15,18.54c1.9-0.11,5.28,3.69,11.64,5.8c6.36,2.11,6.73,10.47,7.91,21.28
		c0,0,10.84-8.76,10.84-30.68C681.98,149.6,667.43,136.73,658.69,131.42z"/>
</g>
<g>
	<path class="st3" d="M98.76,417.03H78.84c-1.1,0-2-0.9-2-2v-11.29c-6.99-4.2-11.29-11.73-11.29-19.94
		c0-12.82,10.43-23.25,23.25-23.25c12.82,0,23.25,10.43,23.25,23.25c0,8.21-4.3,15.74-11.29,19.94v11.29
		C100.76,416.13,99.87,417.03,98.76,417.03z M80.84,413.03h15.92v-10.46c0-0.74,0.41-1.42,1.06-1.77
		c6.31-3.35,10.23-9.87,10.23-17.01c0-10.62-8.64-19.25-19.25-19.25c-10.61,0-19.25,8.64-19.25,19.25c0,7.13,3.92,13.65,10.23,17.01
		c0.65,0.35,1.06,1.03,1.06,1.77V413.03z"/>
</g>
<g>
	<path class="st3" d="M88.8,353.22c-1.1,0-2-0.9-2-2v-12.81c0-1.1,0.9-2,2-2s2,0.9,2,2v12.81C90.8,352.32,89.9,353.22,88.8,353.22z"
		/>
</g>
<g>
	<path class="st3" d="M64.55,363.26c-0.51,0-1.02-0.2-1.41-0.59l-9.06-9.06c-0.78-0.78-0.78-2.05,0-2.83c0.78-0.78,2.05-0.78,2.83,0
		l9.06,9.06c0.78,0.78,0.78,2.05,0,2.83C65.57,363.07,65.06,363.26,64.55,363.26z"/>
</g>
<g>
	<path class="st3" d="M113.05,363.26c-0.51,0-1.02-0.2-1.41-0.59c-0.78-0.78-0.78-2.05,0-2.83l9.06-9.06c0.78-0.78,2.05-0.78,2.83,0
		c0.78,0.78,0.78,2.05,0,2.83l-9.06,9.06C114.08,363.07,113.56,363.26,113.05,363.26z"/>
</g>
<g>
	<path class="st7" d="M703.67,116.79c-0.31,0-0.62-0.07-0.9-0.22c-0.83-0.42-1.26-1.35-1.04-2.25l8.1-34.13h-10.96
		c-0.64,0-1.24-0.31-1.62-0.82c-0.38-0.52-0.48-1.18-0.28-1.79l9.42-29.01c0.27-0.82,1.04-1.38,1.9-1.38h31.04
		c0.68,0,1.32,0.35,1.69,0.92c0.37,0.58,0.42,1.3,0.13,1.92l-6.82,14.72h10.17c0.78,0,1.49,0.45,1.82,1.16
		c0.33,0.71,0.21,1.54-0.29,2.13l-40.84,48.04C704.81,116.54,704.25,116.79,703.67,116.79z M701.62,76.2h10.74
		c0.61,0,1.19,0.28,1.57,0.76c0.38,0.48,0.52,1.11,0.38,1.7l-6.76,28.49l32.64-38.4h-8.98c-0.68,0-1.32-0.35-1.69-0.92
		c-0.37-0.58-0.42-1.3-0.13-1.92l6.82-14.72h-26.46L701.62,76.2z"/>
</g>
<g>
	<path class="st7" d="M712.36,80.2c-0.61,0-1.19-0.28-1.56-0.75c-0.38-0.48-0.52-1.1-0.38-1.69c1.97-8.59,6.35-8.63,7.66-8.43
		c2.44,0.37,4.21,2.63,4.02,5.14C721.98,75.82,720.98,80.2,712.36,80.2z M717.38,73.28c-0.54,0-1.45,0.75-2.25,2.69
		c2.06-0.39,2.92-1.2,2.96-1.8c0.03-0.41-0.27-0.83-0.63-0.89C717.44,73.28,717.41,73.28,717.38,73.28z"/>
</g>
</svg>
