<svg xmlns="http://www.w3.org/2000/svg" width="133.233" height="98.115" viewBox="0 0 133.233 98.115">
  <g id="Group_396" data-name="Group 396" transform="translate(0 0)">
    <g id="Group_2470" data-name="Group 2470">
      <path id="Path_21" data-name="Path 21" d="M47.984,98.116H26.058A26.163,26.163,0,0,1,9.737,92.651a25.545,25.545,0,0,1,10.4-45.032,3.705,3.705,0,0,0,2.993-3.63q0-.246,0-.494a43.494,43.494,0,1,1,86.989,0c0,.174,0,.346,0,.519a3.67,3.67,0,0,0,2.968,3.6A25.545,25.545,0,0,1,123.5,92.651a26.163,26.163,0,0,1-16.321,5.465Z" transform="translate(0 -0.001)" fill="#fff"/>
      <path id="Path_2883" data-name="Path 2883" d="M47.984,98.116H26.058A26.163,26.163,0,0,1,9.737,92.651a25.545,25.545,0,0,1,10.4-45.032,3.705,3.705,0,0,0,2.993-3.63q0-.246,0-.494a43.494,43.494,0,1,1,86.989,0c0,.174,0,.346,0,.519a3.67,3.67,0,0,0,2.968,3.6A25.545,25.545,0,0,1,123.5,92.651a26.163,26.163,0,0,1-16.321,5.465Z" transform="translate(0 -0.001)" fill="rgba(138,201,237,0.25)"/>
    </g>
  </g>
</svg>
