<?xml version="1.0" encoding="UTF-8"?>
<svg width="55px" height="58px" viewBox="0 0 55 58" version="1.1" xmlns="http://www.w3.org/2000/svg" xmlns:xlink="http://www.w3.org/1999/xlink">
    <title>automation-icon</title>
    <g id="CISO-Landing" stroke="none" stroke-width="1" fill="none" fill-rule="evenodd">
        <g id="1.0-Slim-CISO-LP--v1" transform="translate(-557.000000, -1037.000000)" fill="#4CAF50" fill-rule="nonzero">
            <g id="automation-icon" transform="translate(557.000000, 1037.000000)">
                <path d="M11,55.11 C16.5688712,55.11 21.0833333,50.5955379 21.0833333,45.0266667 C21.0833333,39.4577954 16.5688712,34.9433333 11,34.9433333 C5.43112877,34.9433333 0.916666667,39.4577954 0.916666667,45.0266667 C0.916666667,50.5955379 5.43112877,55.11 11,55.11 Z M11,40.4433333 C13.5313051,40.4433333 15.5833333,42.4953616 15.5833333,45.0266667 C15.5833333,47.5579718 13.5313051,49.61 11,49.61 C8.4686949,49.61 6.41666667,47.5579718 6.41666667,45.0266667 C6.41666667,42.4953616 8.4686949,40.4433333 11,40.4433333 L11,40.4433333 Z" id="Shape"></path>
                <path d="M54.0833333,12.0266667 C54.0833333,6.45779544 49.5688712,1.94333333 44,1.94333333 C38.4311288,1.94333333 33.9166667,6.45779544 33.9166667,12.0266667 C33.9166667,17.5955379 38.4311288,22.11 44,22.11 C49.5688712,22.11 54.0833333,17.5955379 54.0833333,12.0266667 Z M39.4166667,12.0266667 C39.4166667,9.49536156 41.4686949,7.44333333 44,7.44333333 C46.5313051,7.44333333 48.5833333,9.49536156 48.5833333,12.0266667 C48.5833333,14.5579718 46.5313051,16.61 44,16.61 C41.4686949,16.61 39.4166667,14.5579718 39.4166667,12.0266667 L39.4166667,12.0266667 Z" id="Shape"></path>
                <path d="M27.39,46.97 L37.4733333,57.0533333 L41.36,53.1666667 L35.97,47.7766667 L44.9166667,47.7766667 C47.5909329,47.7766667 50.1556682,46.7143185 52.04666,44.8233267 C53.9376519,42.9323349 55,40.3675996 55,37.6933333 L55,27.61 L49.5,27.61 L49.5,37.6933333 C49.5,40.2246384 47.4479718,42.2766667 44.9166667,42.2766667 L35.97,42.2766667 L41.36,36.8866667 L37.4733333,33 L27.39,43.0833333 C26.3176709,44.1569977 26.3176709,45.8963357 27.39,46.97 L27.39,46.97 Z" id="Path"></path>
                <path d="M0,19.36 L0,29.4433333 L5.5,29.4433333 L5.5,19.36 C5.5,16.8286949 7.55202823,14.7766667 10.0833333,14.7766667 L19.03,14.7766667 L13.64,20.1666667 L17.5266667,24.0533333 L27.61,13.97 C28.6823291,12.8963357 28.6823291,11.1569977 27.61,10.0833333 L17.5266667,0 L13.64,3.88666667 L19.03,9.27666667 L10.0833333,9.27666667 C4.51446211,9.27666667 0,13.7911288 0,19.36 Z" id="Path"></path>
            </g>
        </g>
    </g>
</svg>