<svg width="157" height="42" viewBox="0 0 157 42" fill="none" xmlns="http://www.w3.org/2000/svg">
<path d="M11.6695 8.64C11.4788 8.00933 11.3395 7.694 11.2515 7.694C11.2368 7.694 11.2295 7.70133 11.2295 7.716L11.1195 8.42C11.0315 8.88933 10.9435 9.37333 10.8555 9.872C10.7822 10.356 10.7455 10.6273 10.7455 10.686C10.7455 10.7447 10.9215 10.774 11.2735 10.774C11.9775 10.774 12.3295 10.7153 12.3295 10.598C12.3295 10.466 12.2562 10.2313 12.1095 9.894C11.9922 9.61533 11.8455 9.19733 11.6695 8.64ZM9.9975 1.93C10.3788 1.43133 10.9068 1.182 11.5815 1.182C12.1828 1.182 12.7402 1.39467 13.2535 1.82C13.7815 2.26 14.3975 3.404 15.1015 5.252C15.1602 5.39867 15.2335 5.59667 15.3215 5.846C15.4242 6.08067 15.4828 6.22 15.4975 6.264C15.5708 6.41067 15.6075 6.572 15.6075 6.748C15.6075 6.86533 15.6955 7.12933 15.8715 7.54C15.9742 7.77467 16.1575 8.27333 16.4215 9.036C16.6855 9.784 16.8688 10.2753 16.9715 10.51C17.2355 11.0967 17.4775 11.6907 17.6975 12.292C17.9908 13.1133 18.1375 13.7733 18.1375 14.272C18.1375 14.7413 18.1082 15.02 18.0495 15.108C17.9908 15.1813 17.8735 15.2547 17.6975 15.328C17.5362 15.3867 17.3895 15.416 17.2575 15.416C17.1695 15.416 17.1182 15.4087 17.1035 15.394C16.9128 15.262 16.6195 15.196 16.2235 15.196C15.9742 15.196 15.7762 15.2327 15.6295 15.306C15.4242 15.4087 15.2482 15.46 15.1015 15.46C14.9548 15.46 14.8155 15.394 14.6835 15.262C14.5368 15.1153 14.3902 15.042 14.2435 15.042C13.9208 15.042 13.6642 14.668 13.4735 13.92C13.3415 13.4067 13.2242 13.1353 13.1215 13.106H13.0335C12.7988 13.106 12.3515 13.1647 11.6915 13.282C11.0462 13.3993 10.7088 13.4873 10.6795 13.546C10.6062 13.6633 10.5548 13.8833 10.5255 14.206C10.4815 14.558 10.4228 14.8 10.3495 14.932C10.2908 15.064 10.1955 15.13 10.0635 15.13C9.99016 15.13 9.9315 15.1227 9.8875 15.108C9.56483 15.0347 9.32283 14.998 9.1615 14.998C8.8535 14.998 8.6115 15.108 8.4355 15.328C8.2595 15.5333 8.1055 15.5993 7.9735 15.526C7.7095 15.3793 7.5335 14.8 7.4455 13.788C7.41616 13.436 7.4015 13.2453 7.4015 13.216C7.4015 13.0987 7.41616 13.018 7.4455 12.974C7.4895 12.93 7.56283 12.8933 7.6655 12.864C7.85616 12.8053 7.9515 12.732 7.9515 12.644C7.9515 12.5853 7.87816 12.49 7.7315 12.358C7.5995 12.27 7.5335 12.094 7.5335 11.83C7.5335 11.5953 7.54083 11.39 7.5555 11.214C7.5995 10.466 7.71683 9.476 7.9075 8.244C8.11283 6.99733 8.26683 6.286 8.3695 6.11C8.44283 5.99267 8.57483 5.61867 8.7655 4.988C8.95616 4.34267 9.0515 3.96867 9.0515 3.866C9.0515 3.76333 9.16883 3.47 9.4035 2.986C9.63816 2.48733 9.83616 2.13533 9.9975 1.93ZM27.5057 3.096C27.7257 2.81733 27.9017 2.678 28.0337 2.678C28.1804 2.678 28.4444 2.854 28.8257 3.206C29.2217 3.54333 29.5224 3.866 29.7277 4.174C29.9477 4.526 30.1384 4.944 30.2997 5.428C30.4611 5.89733 30.5417 6.27133 30.5417 6.55C30.5417 6.69667 30.5197 6.792 30.4757 6.836C30.4024 6.90933 30.2924 6.946 30.1457 6.946C30.0284 6.946 29.8964 6.98267 29.7497 7.056C29.6324 7.12933 29.6984 7.276 29.9477 7.496C30.1824 7.68667 30.2997 7.92867 30.2997 8.222C30.2997 8.38333 30.2484 8.69133 30.1457 9.146C29.7644 10.7887 29.0751 12.0867 28.0777 13.04C27.5937 13.5093 27.1611 13.8393 26.7797 14.03C26.3984 14.2207 25.9291 14.3307 25.3717 14.36C25.2251 14.3747 25.0491 14.382 24.8437 14.382C24.5211 14.382 24.1984 14.3013 23.8757 14.14C22.8784 13.6853 22.2037 12.93 21.8517 11.874C21.4997 10.8033 21.3237 8.99933 21.3237 6.462C21.3237 4.98067 21.3604 4.108 21.4337 3.844C21.5071 3.59467 21.5877 3.47 21.6757 3.47C21.7051 3.47 21.7784 3.48467 21.8957 3.514C22.1891 3.57267 22.4531 3.602 22.6877 3.602C22.9077 3.602 23.1644 3.57267 23.4577 3.514C23.6044 3.48467 23.6997 3.48467 23.7437 3.514C23.8024 3.54333 23.8611 3.63867 23.9197 3.8C24.0371 4.07867 24.1251 4.80467 24.1837 5.978C24.3011 7.97267 24.4257 9.35133 24.5577 10.114C24.6897 10.8767 24.8804 11.2727 25.1297 11.302H25.2177C25.6431 11.302 26.0464 10.928 26.4277 10.18C26.8237 9.432 27.0511 8.58867 27.1097 7.65C27.1097 7.57667 27.1097 7.48867 27.1097 7.386C27.1244 7.26867 27.1317 7.188 27.1317 7.144C27.1317 6.76267 27.0584 6.33 26.9117 5.846C26.7504 5.30333 26.6111 4.92933 26.4937 4.724C26.4351 4.62133 26.4057 4.54067 26.4057 4.482C26.4057 4.40867 26.5231 4.23267 26.7577 3.954C27.0951 3.57267 27.3444 3.28667 27.5057 3.096ZM43.4441 1.798C43.7961 1.622 44.1847 1.534 44.6101 1.534C44.8447 1.534 45.0134 1.58533 45.1161 1.688C45.1307 1.70267 45.1381 1.74667 45.1381 1.82C45.1381 1.952 45.1014 2.20133 45.0281 2.568C44.9401 2.876 44.8961 3.17667 44.8961 3.47C44.8961 3.57267 44.9034 3.63867 44.9181 3.668C44.9474 3.888 44.8667 4.086 44.6761 4.262C44.5147 4.40867 44.1041 4.62867 43.4441 4.922C42.5641 5.406 42.0361 5.648 41.8601 5.648H41.7941C41.7354 5.648 41.7061 5.72867 41.7061 5.89C41.7061 6.05133 41.7501 6.73333 41.8381 7.936C41.8527 8.25867 41.8747 8.60333 41.9041 8.97C41.9334 9.322 41.9554 9.60067 41.9701 9.806C41.9847 10.0113 41.9921 10.1213 41.9921 10.136C41.9921 10.4733 42.0507 10.8767 42.1681 11.346C42.2854 11.8007 42.4027 12.1307 42.5201 12.336C42.6667 12.5707 42.7401 12.8787 42.7401 13.26C42.7547 13.6267 42.7841 13.9053 42.8281 14.096C42.8867 14.3307 42.9161 14.4773 42.9161 14.536C42.9161 14.5947 42.8867 14.7267 42.8281 14.932C42.8134 14.976 42.7841 15.0493 42.7401 15.152C42.7107 15.2547 42.6814 15.3427 42.6521 15.416C42.6374 15.4893 42.6301 15.548 42.6301 15.592C42.5861 15.812 42.4321 16.054 42.1681 16.318C41.9041 16.5673 41.6547 16.714 41.4201 16.758C41.3614 16.7727 41.2807 16.78 41.1781 16.78C40.9287 16.78 40.8041 16.5747 40.8041 16.164C40.8041 15.944 40.7674 15.834 40.6941 15.834C40.6501 15.834 40.5621 15.9 40.4301 16.032C40.3274 16.164 40.2027 16.23 40.0561 16.23C39.8947 16.23 39.7261 16.1347 39.5501 15.944C39.2274 15.5773 38.9707 14.8953 38.7801 13.898C38.6334 13.1793 38.4867 11.7347 38.3401 9.564C38.3254 9.432 38.3181 9.21933 38.3181 8.926C38.3181 8.442 38.3401 8.03867 38.3841 7.716C38.4427 7.21733 38.4721 6.95333 38.4721 6.924C38.4721 6.73333 38.3841 6.638 38.2081 6.638C38.0614 6.638 37.7901 6.682 37.3941 6.77C36.3527 6.99 35.5241 7.1 34.9081 7.1C34.7614 7.1 34.6441 7.08533 34.5561 7.056C34.4241 6.99733 34.3581 6.87267 34.3581 6.682C34.3581 6.49133 34.3287 6.396 34.2701 6.396C34.1967 6.396 34.0941 6.34467 33.9621 6.242C33.8594 6.16867 33.8081 6.11733 33.8081 6.088C33.8227 6.05867 33.8887 6 34.0061 5.912C34.1234 5.83867 34.1821 5.78 34.1821 5.736C34.1967 5.692 34.1601 5.61867 34.0721 5.516C33.9987 5.44267 33.9621 5.35467 33.9621 5.252C33.9621 5.032 34.0867 4.922 34.3361 4.922C34.4974 4.922 34.6221 4.86333 34.7101 4.746C34.8567 4.55533 35.2821 4.37933 35.9861 4.218C36.5141 4.10067 37.5847 3.77067 39.1981 3.228C40.8114 2.67067 41.8381 2.326 42.2781 2.194C42.9674 1.974 43.3561 1.842 43.4441 1.798ZM54.1373 4.02C53.7413 3.78533 53.5213 3.668 53.4773 3.668C53.4186 3.668 53.294 3.81467 53.1033 4.108C52.9126 4.40133 52.744 4.702 52.5973 5.01C52.1133 6.022 51.8713 7.09267 51.8713 8.222C51.8713 8.55933 51.9006 8.816 51.9593 8.992C52.1793 9.66667 52.5386 10.1067 53.0373 10.312C53.2573 10.4 53.5433 10.444 53.8953 10.444C54.4526 10.444 54.9366 10.3487 55.3473 10.158C55.758 9.95267 56.1393 9.66667 56.4913 9.3C56.8433 8.93333 57.056 8.58867 57.1293 8.266C57.1293 8.25133 57.1293 8.222 57.1293 8.178C57.144 8.134 57.1513 8.09733 57.1513 8.068C57.1513 7.33467 57.056 6.76267 56.8653 6.352C56.704 6.044 56.3593 5.67 55.8313 5.23C55.3033 4.77533 54.7386 4.372 54.1373 4.02ZM54.0053 0.697999C54.0346 0.639332 54.0786 0.609999 54.1373 0.609999C54.2546 0.609999 55.0979 0.954666 56.6673 1.644C58.046 2.24533 59.0946 2.942 59.8133 3.734C60.5466 4.526 61.0306 5.50133 61.2653 6.66C61.2946 6.836 61.3093 6.93133 61.3093 6.946C61.3093 7.06333 61.2066 7.18067 61.0013 7.298C60.796 7.43 60.6053 7.496 60.4293 7.496C60.2386 7.496 60.1433 7.54 60.1433 7.628C60.1433 7.716 60.2679 7.848 60.5173 8.024C60.5319 8.03867 60.554 8.05333 60.5833 8.068C60.7886 8.22933 60.8986 8.36867 60.9133 8.486C60.9133 8.58867 60.8546 8.91867 60.7373 9.476C60.6346 10.0187 60.29 10.6933 59.7033 11.5C59.1166 12.292 58.6106 12.7833 58.1853 12.974C57.936 13.0913 57.606 13.282 57.1953 13.546C56.5646 14.0007 55.6039 14.228 54.3133 14.228C53.316 14.228 52.5166 14.0813 51.9153 13.788C51.6219 13.6707 51.4019 13.5973 51.2553 13.568C51.0646 13.524 50.7053 13.2527 50.1773 12.754C49.6493 12.2553 49.3266 11.8813 49.2093 11.632C48.6666 10.5467 48.3953 9.55667 48.3953 8.662C48.3953 8.41267 48.4173 8.16333 48.4613 7.914C48.8573 5.538 49.5979 3.71933 50.6833 2.458C51.5339 1.446 52.3993 0.910666 53.2793 0.851999C53.7193 0.822666 53.9613 0.771332 54.0053 0.697999ZM66.7529 4.064C66.5623 3.94667 66.4376 3.888 66.3789 3.888C66.3056 3.888 66.2689 3.93933 66.2689 4.042C66.2689 4.27667 66.4009 4.40133 66.6649 4.416H66.7969C66.9436 4.416 67.0169 4.38667 67.0169 4.328C67.0169 4.26933 66.9289 4.18133 66.7529 4.064ZM72.7589 2.436C73.0083 2.24533 73.2429 2.15 73.4629 2.15C73.6243 2.15 73.7636 2.15733 73.8809 2.172C74.3649 2.216 74.6876 2.326 74.8489 2.502C75.0249 2.678 75.1129 2.80267 75.1129 2.876C75.1129 2.92 75.2156 3.04467 75.4209 3.25C76.0369 3.866 76.4623 5.50133 76.6969 8.156C76.8729 10.3707 77.0563 12.0353 77.2469 13.15C77.2909 13.3993 77.2396 13.5973 77.0929 13.744C76.9463 13.8907 76.8729 14.0373 76.8729 14.184C76.8729 14.272 76.7556 14.4113 76.5209 14.602C76.3009 14.778 76.1836 14.8807 76.1689 14.91C76.1103 14.998 76.0076 15.042 75.8609 15.042C75.6849 15.042 75.5529 14.8807 75.4649 14.558C75.4063 14.3527 75.3623 14.228 75.3329 14.184C75.3036 14.1253 75.2523 14.096 75.1789 14.096C75.1203 14.096 75.0689 14.1033 75.0249 14.118C74.6289 14.2207 74.3429 14.272 74.1669 14.272C74.0056 14.272 73.8956 14.1987 73.8369 14.052C73.6023 13.5533 73.4483 13.15 73.3749 12.842C73.3016 12.534 73.2283 11.962 73.1549 11.126C73.0523 9.95267 72.9716 9.366 72.9129 9.366C72.8543 9.366 72.8249 9.40267 72.8249 9.476C72.8249 9.59333 72.6783 9.99667 72.3849 10.686C72.1063 11.3607 71.9229 11.7493 71.8349 11.852C71.7323 11.984 71.6003 12.1967 71.4389 12.49C71.1016 13.106 70.5516 13.414 69.7889 13.414C69.4663 13.414 69.1656 13.3333 68.8869 13.172C68.4323 12.908 68.0729 12.534 67.8089 12.05C67.7356 11.918 67.6916 11.9253 67.6769 12.072C67.6623 12.1453 67.6549 12.2627 67.6549 12.424C67.6403 12.7027 67.6109 12.8787 67.5669 12.952C67.5376 13.0107 67.4496 13.0473 67.3029 13.062C67.1269 13.0767 67.0316 13.1133 67.0169 13.172C67.0169 13.2307 67.0903 13.326 67.2369 13.458C67.3836 13.59 67.4569 13.7953 67.4569 14.074C67.4569 14.426 67.3616 14.6973 67.1709 14.888C67.0096 15.064 66.8556 15.152 66.7089 15.152C66.6209 15.152 66.5549 15.1007 66.5109 14.998C66.4083 14.7487 66.2469 14.7707 66.0269 15.064C65.9389 15.1813 65.8729 15.2473 65.8289 15.262C65.7849 15.262 65.6969 15.218 65.5649 15.13C65.2716 14.9393 65.1249 14.7487 65.1249 14.558C65.1249 14.4993 65.1396 14.4627 65.1689 14.448C65.2423 14.3893 65.2276 14.3087 65.1249 14.206C65.0076 14.074 64.8756 13.2013 64.7289 11.588C64.5823 9.97467 64.5089 8.72067 64.5089 7.826C64.5089 7.44467 64.5236 7.232 64.5529 7.188C64.6116 7.1 64.7216 7.056 64.8829 7.056C64.9856 7.056 65.0589 7.04133 65.1029 7.012C65.1469 6.98267 65.1543 6.946 65.1249 6.902C65.0956 6.858 65.0296 6.82133 64.9269 6.792C64.6776 6.73333 64.5529 6.53533 64.5529 6.198C64.5529 6.05133 64.5749 5.868 64.6189 5.648C64.8243 4.69467 64.9783 4.218 65.0809 4.218C65.1689 4.218 65.2569 4.13733 65.3449 3.976C65.5356 3.668 65.8949 3.514 66.4229 3.514C66.6869 3.514 66.9216 3.57267 67.1269 3.69C67.2003 3.734 67.2883 3.78533 67.3909 3.844C67.5083 3.888 67.5963 3.92467 67.6549 3.954C67.7136 3.98333 67.7796 4.03467 67.8529 4.108C67.9263 4.16667 67.9996 4.24733 68.0729 4.35C68.2343 4.59933 68.4616 5.02467 68.7549 5.626C69.0629 6.21267 69.2316 6.58667 69.2609 6.748C69.3196 6.98267 69.4443 7.34933 69.6349 7.848C69.8256 8.34667 69.9356 8.596 69.9649 8.596C70.0383 8.596 70.1849 8.222 70.4049 7.474C70.6543 6.62333 70.9623 5.74333 71.3289 4.834C71.6956 3.91 71.9669 3.30867 72.1429 3.03C72.2749 2.83933 72.4803 2.64133 72.7589 2.436ZM84.6537 8.64C84.4631 8.00933 84.3237 7.694 84.2357 7.694C84.2211 7.694 84.2137 7.70133 84.2137 7.716L84.1037 8.42C84.0157 8.88933 83.9277 9.37333 83.8397 9.872C83.7664 10.356 83.7297 10.6273 83.7297 10.686C83.7297 10.7447 83.9057 10.774 84.2577 10.774C84.9617 10.774 85.3137 10.7153 85.3137 10.598C85.3137 10.466 85.2404 10.2313 85.0937 9.894C84.9764 9.61533 84.8297 9.19733 84.6537 8.64ZM82.9817 1.93C83.3631 1.43133 83.8911 1.182 84.5657 1.182C85.1671 1.182 85.7244 1.39467 86.2377 1.82C86.7657 2.26 87.3817 3.404 88.0857 5.252C88.1444 5.39867 88.2177 5.59667 88.3057 5.846C88.4084 6.08067 88.4671 6.22 88.4817 6.264C88.5551 6.41067 88.5917 6.572 88.5917 6.748C88.5917 6.86533 88.6797 7.12933 88.8557 7.54C88.9584 7.77467 89.1417 8.27333 89.4057 9.036C89.6697 9.784 89.8531 10.2753 89.9557 10.51C90.2197 11.0967 90.4617 11.6907 90.6817 12.292C90.9751 13.1133 91.1217 13.7733 91.1217 14.272C91.1217 14.7413 91.0924 15.02 91.0337 15.108C90.9751 15.1813 90.8577 15.2547 90.6817 15.328C90.5204 15.3867 90.3737 15.416 90.2417 15.416C90.1537 15.416 90.1024 15.4087 90.0877 15.394C89.8971 15.262 89.6037 15.196 89.2077 15.196C88.9584 15.196 88.7604 15.2327 88.6137 15.306C88.4084 15.4087 88.2324 15.46 88.0857 15.46C87.9391 15.46 87.7997 15.394 87.6677 15.262C87.5211 15.1153 87.3744 15.042 87.2277 15.042C86.9051 15.042 86.6484 14.668 86.4577 13.92C86.3257 13.4067 86.2084 13.1353 86.1057 13.106H86.0177C85.7831 13.106 85.3357 13.1647 84.6757 13.282C84.0304 13.3993 83.6931 13.4873 83.6637 13.546C83.5904 13.6633 83.5391 13.8833 83.5097 14.206C83.4657 14.558 83.4071 14.8 83.3337 14.932C83.2751 15.064 83.1797 15.13 83.0477 15.13C82.9744 15.13 82.9157 15.1227 82.8717 15.108C82.5491 15.0347 82.3071 14.998 82.1457 14.998C81.8377 14.998 81.5957 15.108 81.4197 15.328C81.2437 15.5333 81.0897 15.5993 80.9577 15.526C80.6937 15.3793 80.5177 14.8 80.4297 13.788C80.4004 13.436 80.3857 13.2453 80.3857 13.216C80.3857 13.0987 80.4004 13.018 80.4297 12.974C80.4737 12.93 80.5471 12.8933 80.6497 12.864C80.8404 12.8053 80.9357 12.732 80.9357 12.644C80.9357 12.5853 80.8624 12.49 80.7157 12.358C80.5837 12.27 80.5177 12.094 80.5177 11.83C80.5177 11.5953 80.5251 11.39 80.5397 11.214C80.5837 10.466 80.7011 9.476 80.8917 8.244C81.0971 6.99733 81.2511 6.286 81.3537 6.11C81.4271 5.99267 81.5591 5.61867 81.7497 4.988C81.9404 4.34267 82.0357 3.96867 82.0357 3.866C82.0357 3.76333 82.1531 3.47 82.3877 2.986C82.6224 2.48733 82.8204 2.13533 82.9817 1.93ZM104.01 1.798C104.362 1.622 104.751 1.534 105.176 1.534C105.411 1.534 105.579 1.58533 105.682 1.688C105.697 1.70267 105.704 1.74667 105.704 1.82C105.704 1.952 105.667 2.20133 105.594 2.568C105.506 2.876 105.462 3.17667 105.462 3.47C105.462 3.57267 105.469 3.63867 105.484 3.668C105.513 3.888 105.433 4.086 105.242 4.262C105.081 4.40867 104.67 4.62867 104.01 4.922C103.13 5.406 102.602 5.648 102.426 5.648H102.36C102.301 5.648 102.272 5.72867 102.272 5.89C102.272 6.05133 102.316 6.73333 102.404 7.936C102.419 8.25867 102.441 8.60333 102.47 8.97C102.499 9.322 102.521 9.60067 102.536 9.806C102.551 10.0113 102.558 10.1213 102.558 10.136C102.558 10.4733 102.617 10.8767 102.734 11.346C102.851 11.8007 102.969 12.1307 103.086 12.336C103.233 12.5707 103.306 12.8787 103.306 13.26C103.321 13.6267 103.35 13.9053 103.394 14.096C103.453 14.3307 103.482 14.4773 103.482 14.536C103.482 14.5947 103.453 14.7267 103.394 14.932C103.379 14.976 103.35 15.0493 103.306 15.152C103.277 15.2547 103.247 15.3427 103.218 15.416C103.203 15.4893 103.196 15.548 103.196 15.592C103.152 15.812 102.998 16.054 102.734 16.318C102.47 16.5673 102.221 16.714 101.986 16.758C101.927 16.7727 101.847 16.78 101.744 16.78C101.495 16.78 101.37 16.5747 101.37 16.164C101.37 15.944 101.333 15.834 101.26 15.834C101.216 15.834 101.128 15.9 100.996 16.032C100.893 16.164 100.769 16.23 100.622 16.23C100.461 16.23 100.292 16.1347 100.116 15.944C99.7933 15.5773 99.5366 14.8953 99.346 13.898C99.1993 13.1793 99.0526 11.7347 98.906 9.564C98.8913 9.432 98.884 9.21933 98.884 8.926C98.884 8.442 98.906 8.03867 98.95 7.716C99.0086 7.21733 99.038 6.95333 99.038 6.924C99.038 6.73333 98.95 6.638 98.774 6.638C98.6273 6.638 98.356 6.682 97.96 6.77C96.9186 6.99 96.09 7.1 95.474 7.1C95.3273 7.1 95.21 7.08533 95.122 7.056C94.99 6.99733 94.924 6.87267 94.924 6.682C94.924 6.49133 94.8946 6.396 94.836 6.396C94.7626 6.396 94.66 6.34467 94.528 6.242C94.4253 6.16867 94.374 6.11733 94.374 6.088C94.3886 6.05867 94.4546 6 94.572 5.912C94.6893 5.83867 94.748 5.78 94.748 5.736C94.7626 5.692 94.726 5.61867 94.638 5.516C94.5646 5.44267 94.528 5.35467 94.528 5.252C94.528 5.032 94.6526 4.922 94.902 4.922C95.0633 4.922 95.188 4.86333 95.276 4.746C95.4226 4.55533 95.848 4.37933 96.552 4.218C97.08 4.10067 98.1506 3.77067 99.764 3.228C101.377 2.67067 102.404 2.326 102.844 2.194C103.533 1.974 103.922 1.842 104.01 1.798ZM116.727 1.116C117.109 1.01333 117.439 0.961999 117.717 0.961999C117.967 0.961999 118.128 0.998666 118.201 1.072C118.289 1.16 118.333 1.29933 118.333 1.49C118.333 1.65133 118.297 1.80533 118.223 1.952C118.121 2.11333 118.047 2.34067 118.003 2.634C117.974 2.81 117.959 2.92 117.959 2.964C117.959 3.11067 118.018 3.28667 118.135 3.492C118.238 3.63867 118.289 3.77067 118.289 3.888C118.289 4.03467 118.187 4.152 117.981 4.24C117.937 4.26933 117.864 4.306 117.761 4.35C117.659 4.394 117.593 4.42333 117.563 4.438C117.182 4.658 116.867 4.768 116.617 4.768C116.544 4.768 116.331 4.75333 115.979 4.724C115.847 4.70933 115.671 4.702 115.451 4.702C115.407 4.702 115.356 4.702 115.297 4.702C115.092 4.68733 114.989 4.73133 114.989 4.834C114.989 5.11267 115.019 5.428 115.077 5.78C115.151 6.176 115.246 7.254 115.363 9.014C115.481 10.7593 115.547 11.7347 115.561 11.94L115.627 12.644L116.529 12.622H116.793C117.747 12.622 118.223 12.776 118.223 13.084C118.223 13.172 118.165 13.3333 118.047 13.568C117.974 13.7147 117.937 13.8247 117.937 13.898C117.952 13.9567 118.011 14.052 118.113 14.184C118.275 14.3893 118.333 14.58 118.289 14.756C118.275 14.844 118.216 14.9247 118.113 14.998C118.025 15.0713 117.937 15.108 117.849 15.108C117.761 15.108 117.71 15.0787 117.695 15.02C117.681 14.932 117.637 14.8953 117.563 14.91C117.49 14.9247 117.453 14.976 117.453 15.064C117.453 15.196 117.365 15.284 117.189 15.328C117.028 15.3573 116.588 15.4013 115.869 15.46C114.887 15.5187 113.779 15.6213 112.547 15.768C111.491 15.8707 110.831 15.922 110.567 15.922C110.054 15.922 109.797 15.8047 109.797 15.57C109.797 15.482 109.834 15.3427 109.907 15.152C110.025 14.844 110.047 14.624 109.973 14.492C109.9 14.3453 109.863 14.2427 109.863 14.184C109.863 14.0227 110.003 13.8907 110.281 13.788C110.34 13.7587 110.406 13.722 110.479 13.678C110.567 13.634 110.648 13.5973 110.721 13.568C110.795 13.524 110.839 13.4947 110.853 13.48C110.956 13.4213 111.227 13.3407 111.667 13.238C111.961 13.1793 112.137 13.1353 112.195 13.106C112.269 13.0767 112.305 13.0107 112.305 12.908C112.305 12.8493 112.283 11.874 112.239 9.982C112.195 8.09 112.173 6.82133 112.173 6.176V4.856L111.535 4.944C111.433 4.95867 111.235 4.98067 110.941 5.01C110.663 5.03933 110.465 5.06133 110.347 5.076C110.259 5.09067 110.157 5.098 110.039 5.098C109.863 5.098 109.717 5.032 109.599 4.9C109.453 4.75333 109.423 4.56267 109.511 4.328C109.585 4.07867 109.621 3.91733 109.621 3.844C109.621 3.74133 109.541 3.69 109.379 3.69C109.145 3.69 109.027 3.60933 109.027 3.448C109.027 3.34533 109.035 3.25733 109.049 3.184C109.064 3.03733 109.13 2.91267 109.247 2.81C109.365 2.69267 109.482 2.634 109.599 2.634C109.673 2.634 109.731 2.656 109.775 2.7C109.849 2.77333 109.966 2.744 110.127 2.612C110.259 2.49467 110.611 2.35533 111.183 2.194C111.755 2.018 112.173 1.93 112.437 1.93C112.687 1.93 112.965 1.87867 113.273 1.776C113.567 1.67333 114.153 1.556 115.033 1.424C115.899 1.32133 116.463 1.21867 116.727 1.116ZM127.293 4.02C126.897 3.78533 126.677 3.668 126.633 3.668C126.575 3.668 126.45 3.81467 126.259 4.108C126.069 4.40133 125.9 4.702 125.753 5.01C125.269 6.022 125.027 7.09267 125.027 8.222C125.027 8.55933 125.057 8.816 125.115 8.992C125.335 9.66667 125.695 10.1067 126.193 10.312C126.413 10.4 126.699 10.444 127.051 10.444C127.609 10.444 128.093 10.3487 128.503 10.158C128.914 9.95267 129.295 9.66667 129.647 9.3C129.999 8.93333 130.212 8.58867 130.285 8.266C130.285 8.25133 130.285 8.222 130.285 8.178C130.3 8.134 130.307 8.09733 130.307 8.068C130.307 7.33467 130.212 6.76267 130.021 6.352C129.86 6.044 129.515 5.67 128.987 5.23C128.459 4.77533 127.895 4.372 127.293 4.02ZM127.161 0.697999C127.191 0.639332 127.235 0.609999 127.293 0.609999C127.411 0.609999 128.254 0.954666 129.823 1.644C131.202 2.24533 132.251 2.942 132.969 3.734C133.703 4.526 134.187 5.50133 134.421 6.66C134.451 6.836 134.465 6.93133 134.465 6.946C134.465 7.06333 134.363 7.18067 134.157 7.298C133.952 7.43 133.761 7.496 133.585 7.496C133.395 7.496 133.299 7.54 133.299 7.628C133.299 7.716 133.424 7.848 133.673 8.024C133.688 8.03867 133.71 8.05333 133.739 8.068C133.945 8.22933 134.055 8.36867 134.069 8.486C134.069 8.58867 134.011 8.91867 133.893 9.476C133.791 10.0187 133.446 10.6933 132.859 11.5C132.273 12.292 131.767 12.7833 131.341 12.974C131.092 13.0913 130.762 13.282 130.351 13.546C129.721 14.0007 128.76 14.228 127.469 14.228C126.472 14.228 125.673 14.0813 125.071 13.788C124.778 13.6707 124.558 13.5973 124.411 13.568C124.221 13.524 123.861 13.2527 123.333 12.754C122.805 12.2553 122.483 11.8813 122.365 11.632C121.823 10.5467 121.551 9.55667 121.551 8.662C121.551 8.41267 121.573 8.16333 121.617 7.914C122.013 5.538 122.754 3.71933 123.839 2.458C124.69 1.446 125.555 0.910666 126.435 0.851999C126.875 0.822666 127.117 0.771332 127.161 0.697999ZM138.831 2.326C139.036 2.20867 139.249 2.15 139.469 2.15C139.704 2.15 139.843 2.216 139.887 2.348C139.916 2.49467 140.063 2.546 140.327 2.502C140.371 2.48733 140.43 2.48 140.503 2.48C140.62 2.48 140.745 2.53867 140.877 2.656C141.009 2.77333 141.251 3.03733 141.603 3.448C141.764 3.63867 141.948 3.91733 142.153 4.284C142.358 4.65067 142.461 4.89267 142.461 5.01C142.461 5.08333 142.534 5.26667 142.681 5.56C142.828 5.80933 142.96 6.176 143.077 6.66C143.136 6.924 143.297 7.37133 143.561 8.002C143.708 8.31 143.847 8.65467 143.979 9.036C144.111 9.41733 144.272 9.79867 144.463 10.18C144.522 10.312 144.595 10.466 144.683 10.642C144.771 10.818 144.837 10.9647 144.881 11.082C144.94 11.1847 144.976 11.258 144.991 11.302C145.035 11.434 145.079 11.5 145.123 11.5C145.24 11.5 145.321 11.0087 145.365 10.026C145.38 9.586 145.409 9.16067 145.453 8.75C145.512 8.32467 145.556 8.024 145.585 7.848C145.614 7.65733 145.68 7.298 145.783 6.77C145.9 6.22733 145.974 5.87533 146.003 5.714C146.194 4.834 146.421 4.394 146.685 4.394C146.758 4.394 146.832 4.42333 146.905 4.482C147.066 4.59933 147.176 4.614 147.235 4.526C147.264 4.482 147.418 4.36467 147.697 4.174C147.976 3.98333 148.137 3.888 148.181 3.888C148.254 3.888 148.379 4.05667 148.555 4.394C148.731 4.71667 148.819 4.944 148.819 5.076C148.819 5.208 148.797 5.30333 148.753 5.362C148.709 5.406 148.621 5.44267 148.489 5.472C148.284 5.516 148.181 5.56733 148.181 5.626C148.181 5.67 148.247 5.78 148.379 5.956C148.511 6.132 148.577 6.36667 148.577 6.66C148.577 6.71867 148.562 7.07067 148.533 7.716C148.533 7.936 148.526 8.2 148.511 8.508C148.496 8.816 148.482 9.08 148.467 9.3C148.467 9.50533 148.467 9.652 148.467 9.74V9.872C148.467 10.3707 148.43 11.0673 148.357 11.962C148.284 12.8567 148.218 13.4067 148.159 13.612C148.144 13.6707 148.108 13.81 148.049 14.03C147.99 14.2353 147.954 14.3893 147.939 14.492C147.895 14.6827 147.829 14.8293 147.741 14.932C147.653 15.0347 147.484 15.174 147.235 15.35C146.839 15.5847 146.531 15.702 146.311 15.702C146.12 15.702 145.952 15.6947 145.805 15.68C144.28 15.5773 143.099 14.6533 142.263 12.908C142.19 12.7467 142.102 12.578 141.999 12.402C141.911 12.2113 141.823 12.0427 141.735 11.896C141.662 11.7347 141.618 11.6393 141.603 11.61C141.046 10.4953 140.73 9.71067 140.657 9.256C140.584 8.97733 140.518 8.838 140.459 8.838C140.415 8.838 140.393 9.15333 140.393 9.784C140.393 9.88667 140.393 10.0993 140.393 10.422C140.408 10.7447 140.415 11.016 140.415 11.236V12.27C140.415 13.238 140.4 13.8247 140.371 14.03C140.312 14.3087 140.173 14.448 139.953 14.448C139.85 14.448 139.748 14.4187 139.645 14.36C139.542 14.3013 139.447 14.272 139.359 14.272C139.3 14.272 139.146 14.3087 138.897 14.382C138.574 14.4993 138.376 14.5213 138.303 14.448C138.024 14.1693 137.812 12.622 137.665 9.806C137.621 9.08733 137.599 8.53733 137.599 8.156C137.599 7.42267 137.738 6.99 138.017 6.858L138.347 6.704L137.995 6.418C137.775 6.242 137.665 6.01467 137.665 5.736V5.472C137.694 4.768 137.819 4.11533 138.039 3.514C138.274 2.91267 138.538 2.51667 138.831 2.326ZM3.04995 28.064C2.85928 27.9467 2.73462 27.888 2.67595 27.888C2.60262 27.888 2.56595 27.9393 2.56595 28.042C2.56595 28.2767 2.69795 28.4013 2.96195 28.416H3.09395C3.24062 28.416 3.31395 28.3867 3.31395 28.328C3.31395 28.2693 3.22595 28.1813 3.04995 28.064ZM9.05595 26.436C9.30528 26.2453 9.53995 26.15 9.75995 26.15C9.92128 26.15 10.0606 26.1573 10.178 26.172C10.662 26.216 10.9846 26.326 11.146 26.502C11.322 26.678 11.41 26.8027 11.41 26.876C11.41 26.92 11.5126 27.0447 11.718 27.25C12.334 27.866 12.7593 29.5013 12.994 32.156C13.17 34.3707 13.3533 36.0353 13.544 37.15C13.588 37.3993 13.5366 37.5973 13.39 37.744C13.2433 37.8907 13.17 38.0373 13.17 38.184C13.17 38.272 13.0526 38.4113 12.818 38.602C12.598 38.778 12.4806 38.8807 12.466 38.91C12.4073 38.998 12.3046 39.042 12.158 39.042C11.982 39.042 11.85 38.8807 11.762 38.558C11.7033 38.3527 11.6593 38.228 11.63 38.184C11.6006 38.1253 11.5493 38.096 11.476 38.096C11.4173 38.096 11.366 38.1033 11.322 38.118C10.926 38.2207 10.64 38.272 10.464 38.272C10.3026 38.272 10.1926 38.1987 10.134 38.052C9.89928 37.5533 9.74528 37.15 9.67195 36.842C9.59862 36.534 9.52528 35.962 9.45195 35.126C9.34928 33.9527 9.26862 33.366 9.20995 33.366C9.15128 33.366 9.12195 33.4027 9.12195 33.476C9.12195 33.5933 8.97528 33.9967 8.68195 34.686C8.40328 35.3607 8.21995 35.7493 8.13195 35.852C8.02928 35.984 7.89728 36.1967 7.73595 36.49C7.39862 37.106 6.84862 37.414 6.08595 37.414C5.76328 37.414 5.46262 37.3333 5.18395 37.172C4.72928 36.908 4.36995 36.534 4.10595 36.05C4.03262 35.918 3.98862 35.9253 3.97395 36.072C3.95928 36.1453 3.95195 36.2627 3.95195 36.424C3.93728 36.7027 3.90795 36.8787 3.86395 36.952C3.83462 37.0107 3.74662 37.0473 3.59995 37.062C3.42395 37.0767 3.32862 37.1133 3.31395 37.172C3.31395 37.2307 3.38728 37.326 3.53395 37.458C3.68062 37.59 3.75395 37.7953 3.75395 38.074C3.75395 38.426 3.65862 38.6973 3.46795 38.888C3.30662 39.064 3.15262 39.152 3.00595 39.152C2.91795 39.152 2.85195 39.1007 2.80795 38.998C2.70528 38.7487 2.54395 38.7707 2.32395 39.064C2.23595 39.1813 2.16995 39.2473 2.12595 39.262C2.08195 39.262 1.99395 39.218 1.86195 39.13C1.56862 38.9393 1.42195 38.7487 1.42195 38.558C1.42195 38.4993 1.43662 38.4627 1.46595 38.448C1.53928 38.3893 1.52462 38.3087 1.42195 38.206C1.30462 38.074 1.17262 37.2013 1.02595 35.588C0.879284 33.9747 0.80595 32.7207 0.80595 31.826C0.80595 31.4447 0.820617 31.232 0.84995 31.188C0.908617 31.1 1.01862 31.056 1.17995 31.056C1.28262 31.056 1.35595 31.0413 1.39995 31.012C1.44395 30.9827 1.45128 30.946 1.42195 30.902C1.39262 30.858 1.32662 30.8213 1.22395 30.792C0.974617 30.7333 0.84995 30.5353 0.84995 30.198C0.84995 30.0513 0.87195 29.868 0.915951 29.648C1.12128 28.6947 1.27528 28.218 1.37795 28.218C1.46595 28.218 1.55395 28.1373 1.64195 27.976C1.83262 27.668 2.19195 27.514 2.71995 27.514C2.98395 27.514 3.21862 27.5727 3.42395 27.69C3.49728 27.734 3.58528 27.7853 3.68795 27.844C3.80528 27.888 3.89328 27.9247 3.95195 27.954C4.01062 27.9833 4.07662 28.0347 4.14995 28.108C4.22328 28.1667 4.29662 28.2473 4.36995 28.35C4.53128 28.5993 4.75862 29.0247 5.05195 29.626C5.35995 30.2127 5.52862 30.5867 5.55795 30.748C5.61662 30.9827 5.74128 31.3493 5.93195 31.848C6.12262 32.3467 6.23262 32.596 6.26195 32.596C6.33528 32.596 6.48195 32.222 6.70195 31.474C6.95128 30.6233 7.25928 29.7433 7.62595 28.834C7.99262 27.91 8.26395 27.3087 8.43995 27.03C8.57195 26.8393 8.77728 26.6413 9.05595 26.436ZM20.9508 32.64C20.7601 32.0093 20.6208 31.694 20.5328 31.694C20.5181 31.694 20.5108 31.7013 20.5108 31.716L20.4008 32.42C20.3128 32.8893 20.2248 33.3733 20.1368 33.872C20.0634 34.356 20.0268 34.6273 20.0268 34.686C20.0268 34.7447 20.2028 34.774 20.5548 34.774C21.2588 34.774 21.6108 34.7153 21.6108 34.598C21.6108 34.466 21.5374 34.2313 21.3908 33.894C21.2734 33.6153 21.1268 33.1973 20.9508 32.64ZM19.2788 25.93C19.6601 25.4313 20.1881 25.182 20.8628 25.182C21.4641 25.182 22.0214 25.3947 22.5348 25.82C23.0628 26.26 23.6788 27.404 24.3828 29.252C24.4414 29.3987 24.5148 29.5967 24.6028 29.846C24.7054 30.0807 24.7641 30.22 24.7788 30.264C24.8521 30.4107 24.8888 30.572 24.8888 30.748C24.8888 30.8653 24.9768 31.1293 25.1528 31.54C25.2554 31.7747 25.4388 32.2733 25.7028 33.036C25.9668 33.784 26.1501 34.2753 26.2528 34.51C26.5168 35.0967 26.7588 35.6907 26.9788 36.292C27.2721 37.1133 27.4188 37.7733 27.4188 38.272C27.4188 38.7413 27.3894 39.02 27.3308 39.108C27.2721 39.1813 27.1548 39.2547 26.9788 39.328C26.8174 39.3867 26.6708 39.416 26.5388 39.416C26.4508 39.416 26.3994 39.4087 26.3848 39.394C26.1941 39.262 25.9008 39.196 25.5048 39.196C25.2554 39.196 25.0574 39.2327 24.9108 39.306C24.7054 39.4087 24.5294 39.46 24.3828 39.46C24.2361 39.46 24.0968 39.394 23.9648 39.262C23.8181 39.1153 23.6714 39.042 23.5248 39.042C23.2021 39.042 22.9454 38.668 22.7548 37.92C22.6228 37.4067 22.5054 37.1353 22.4028 37.106H22.3148C22.0801 37.106 21.6328 37.1647 20.9728 37.282C20.3274 37.3993 19.9901 37.4873 19.9608 37.546C19.8874 37.6633 19.8361 37.8833 19.8068 38.206C19.7628 38.558 19.7041 38.8 19.6308 38.932C19.5721 39.064 19.4768 39.13 19.3448 39.13C19.2714 39.13 19.2128 39.1227 19.1688 39.108C18.8461 39.0347 18.6041 38.998 18.4428 38.998C18.1348 38.998 17.8928 39.108 17.7168 39.328C17.5408 39.5333 17.3868 39.5993 17.2548 39.526C16.9908 39.3793 16.8148 38.8 16.7268 37.788C16.6974 37.436 16.6828 37.2453 16.6828 37.216C16.6828 37.0987 16.6974 37.018 16.7268 36.974C16.7708 36.93 16.8441 36.8933 16.9468 36.864C17.1374 36.8053 17.2328 36.732 17.2328 36.644C17.2328 36.5853 17.1594 36.49 17.0128 36.358C16.8808 36.27 16.8148 36.094 16.8148 35.83C16.8148 35.5953 16.8221 35.39 16.8368 35.214C16.8808 34.466 16.9981 33.476 17.1888 32.244C17.3941 30.9973 17.5481 30.286 17.6508 30.11C17.7241 29.9927 17.8561 29.6187 18.0468 28.988C18.2374 28.3427 18.3328 27.9687 18.3328 27.866C18.3328 27.7633 18.4501 27.47 18.6848 26.986C18.9194 26.4873 19.1174 26.1353 19.2788 25.93ZM37.051 25.336C37.139 25.16 37.2417 25.072 37.359 25.072C37.491 25.072 37.6743 25.1893 37.909 25.424C38.1583 25.6733 38.283 25.93 38.283 26.194C38.283 26.4873 38.3563 26.8027 38.503 27.14C38.6497 27.5653 38.7963 28.0493 38.943 28.592C39.1337 29.4427 39.229 30.132 39.229 30.66C39.229 31.716 38.877 32.6473 38.173 33.454L37.711 33.96L38.217 34.532C39.009 35.456 39.515 36.6733 39.735 38.184C39.7643 38.3747 39.779 38.624 39.779 38.932C39.779 39.5333 39.6397 39.966 39.361 40.23C39.0677 40.45 38.8917 40.472 38.833 40.296C38.833 40.2227 38.8037 40.164 38.745 40.12C38.6863 40.0613 38.6057 40.01 38.503 39.966C38.4003 39.922 38.3343 39.8853 38.305 39.856C38.2023 39.7827 37.9823 39.6873 37.645 39.57C37.3957 39.482 37.2343 39.394 37.161 39.306C37.0877 39.218 36.985 38.9613 36.853 38.536C36.3543 37.04 35.7383 36.1307 35.005 35.808C34.741 35.676 34.5577 35.61 34.455 35.61C34.411 35.61 34.389 35.7347 34.389 35.984C34.389 36.7173 34.4623 37.3993 34.609 38.03C34.7263 38.5873 34.785 39.108 34.785 39.592C34.785 40.032 34.741 40.34 34.653 40.516C34.4917 40.824 34.1397 41.044 33.597 41.176C33.421 41.2053 33.3183 41.2053 33.289 41.176C33.2597 41.1467 33.2303 41.0293 33.201 40.824C33.1863 40.56 33.0837 40.428 32.893 40.428C32.7463 40.428 32.5557 40.4573 32.321 40.516C32.277 40.5307 32.2257 40.538 32.167 40.538C32.0497 40.538 31.9323 40.4133 31.815 40.164C31.595 39.6653 31.4263 37.964 31.309 35.06C31.2797 34.0333 31.1257 32.3467 30.847 30C30.715 28.944 30.649 28.064 30.649 27.36C30.649 26.2013 30.847 25.622 31.243 25.622C31.4337 25.622 31.639 25.7247 31.859 25.93C32.1377 26.15 32.365 26.282 32.541 26.326C32.8343 26.3847 33.003 26.4433 33.047 26.502C33.1203 26.6047 33.2377 27.1473 33.399 28.13C33.4577 28.5553 33.5383 29.054 33.641 29.626C33.7437 30.1833 33.8317 30.748 33.905 31.32C33.9783 32.1267 34.059 32.53 34.147 32.53C34.235 32.53 34.4697 32.4273 34.851 32.222C35.2323 32.002 35.489 31.8333 35.621 31.716C36.0023 31.3787 36.193 30.8947 36.193 30.264C36.193 29.8093 36.1197 29.2227 35.973 28.504C35.8263 27.7707 35.753 27.1473 35.753 26.634C35.753 25.9007 35.9217 25.534 36.259 25.534C36.3177 25.534 36.3617 25.5413 36.391 25.556C36.6257 25.6147 36.7577 25.644 36.787 25.644C36.8603 25.644 36.9483 25.5413 37.051 25.336ZM49.6023 24.94C49.8077 24.808 49.9543 24.742 50.0423 24.742C50.189 24.742 50.3063 24.9693 50.3943 25.424C50.497 25.952 50.5777 26.3187 50.6363 26.524C50.7097 26.8027 50.7097 27.0007 50.6363 27.118C50.4603 27.338 50.0057 27.5653 49.2723 27.8C48.539 28.02 47.835 28.152 47.1603 28.196C46.5297 28.2547 46.1923 28.3207 46.1483 28.394C46.075 28.4967 46.0163 29.0027 45.9723 29.912C45.943 30.4107 45.9283 30.704 45.9283 30.792C45.9283 31.144 45.9943 31.32 46.1263 31.32C46.229 31.32 46.4563 31.2247 46.8083 31.034C47.1017 30.8873 47.527 30.748 48.0843 30.616C48.6417 30.484 49.0963 30.4107 49.4483 30.396H49.8223L49.8883 31.496C49.903 31.6133 49.9103 31.782 49.9103 32.002C49.9103 32.354 49.8883 32.596 49.8443 32.728C49.8003 32.8307 49.617 32.9187 49.2943 32.992C48.8543 33.1533 48.363 33.3587 47.8203 33.608C47.0283 33.9747 46.559 34.18 46.4123 34.224L46.0163 34.356L46.2803 34.84C46.4417 35.1627 46.6837 35.3827 47.0063 35.5L47.4463 35.654L47.8863 35.192C48.1503 34.884 48.341 34.73 48.4583 34.73C48.5757 34.73 48.825 35.1187 49.2063 35.896C49.529 36.5267 49.6903 36.9227 49.6903 37.084C49.6903 37.2453 49.5217 37.5387 49.1843 37.964C48.9203 38.3013 48.561 38.5653 48.1063 38.756C47.6663 38.9467 47.2117 39.042 46.7423 39.042C46.3463 39.042 45.965 38.9613 45.5983 38.8C45.3637 38.6973 45.0703 38.514 44.7183 38.25C44.381 37.986 44.1317 37.766 43.9703 37.59C43.633 37.1793 43.369 36.644 43.1783 35.984C43.0463 35.5147 42.9803 34.8767 42.9803 34.07C42.9803 32.75 43.1417 30.9533 43.4643 28.68C43.5083 28.3867 43.5523 28.0713 43.5963 27.734C43.6403 27.382 43.6697 27.118 43.6843 26.942C43.7137 26.766 43.7283 26.6707 43.7283 26.656C43.7283 26.5973 43.8163 26.5387 43.9923 26.48C44.1537 26.4067 44.2197 26.2893 44.1903 26.128C44.1903 26.1133 44.183 26.0987 44.1683 26.084C44.1683 26.0547 44.1683 26.0327 44.1683 26.018C44.1683 25.8567 44.293 25.7467 44.5423 25.688C44.7917 25.6293 45.3123 25.578 46.1043 25.534C47.923 25.4607 49.089 25.2627 49.6023 24.94ZM59.3283 24.984C59.6069 24.9107 59.9369 24.874 60.3183 24.874C61.3449 24.874 62.0489 25.1013 62.4303 25.556C62.7676 25.952 62.9509 26.3847 62.9803 26.854C62.9949 27.1473 62.9289 27.3307 62.7823 27.404C62.5183 27.5213 62.4963 27.6607 62.7163 27.822C62.7896 27.8807 62.8263 27.9613 62.8263 28.064C62.8263 28.2107 62.7456 28.3207 62.5843 28.394C62.4376 28.4233 62.2543 28.328 62.0343 28.108C61.8289 27.9173 61.6823 27.822 61.5943 27.822C61.5796 27.822 61.5283 27.8367 61.4403 27.866C61.2789 27.9687 61.1396 27.9247 61.0223 27.734C60.9049 27.558 60.7509 27.47 60.5603 27.47C60.3549 27.47 60.0103 27.58 59.5263 27.8C59.1449 27.976 58.8003 28.1887 58.4923 28.438C58.1843 28.6873 58.0303 28.878 58.0303 29.01C58.0303 29.23 58.5436 29.5527 59.5703 29.978C60.1569 30.242 60.4723 30.3887 60.5163 30.418C60.6043 30.4767 60.7876 30.5573 61.0663 30.66C61.5796 30.8507 62.1883 31.1513 62.8923 31.562C63.5963 31.958 63.9483 32.2073 63.9483 32.31C63.9483 32.3687 64.1389 32.5887 64.5203 32.97C64.9163 33.3367 65.1949 33.7107 65.3563 34.092C65.5029 34.4293 65.5763 34.73 65.5763 34.994C65.5763 35.17 65.5689 35.3167 65.5543 35.434C65.4663 36.49 64.9676 37.282 64.0583 37.81C63.3249 38.2647 62.3129 38.492 61.0223 38.492C59.6289 38.492 58.2136 38.2207 56.7763 37.678C56.3216 37.5167 55.9329 37.3847 55.6103 37.282C55.2583 37.194 54.8989 36.93 54.5323 36.49C54.1656 36.05 53.9823 35.6613 53.9823 35.324C53.9823 35.2067 54.3123 34.9867 54.9723 34.664C55.4709 34.4147 55.7936 34.29 55.9403 34.29C56.0283 34.29 56.0943 34.3267 56.1383 34.4C56.2409 34.5467 56.6149 34.686 57.2603 34.818C57.9056 34.9353 58.6609 35.016 59.5263 35.06C60.0836 35.0893 60.4429 35.104 60.6043 35.104C61.3229 35.104 61.6823 35.0307 61.6823 34.884C61.6823 34.8693 61.6676 34.8473 61.6383 34.818C61.2863 34.4073 60.2303 33.828 58.4703 33.08C58.1769 32.9627 57.7149 32.6767 57.0843 32.222C56.4536 31.7527 55.9769 31.3567 55.6543 31.034C55.1703 30.55 54.9283 29.9927 54.9283 29.362C54.9283 29.2593 54.9429 29.0907 54.9723 28.856C55.0603 28.3867 55.1556 28.042 55.2583 27.822C55.5369 27.2353 56.0649 26.6707 56.8423 26.128C57.6196 25.5853 58.4483 25.204 59.3283 24.984ZM82.8456 25.116C83.2269 25.0133 83.5569 24.962 83.8356 24.962C84.0849 24.962 84.2463 24.9987 84.3196 25.072C84.4076 25.16 84.4516 25.2993 84.4516 25.49C84.4516 25.6513 84.4149 25.8053 84.3416 25.952C84.2389 26.1133 84.1656 26.3407 84.1216 26.634C84.0923 26.81 84.0776 26.92 84.0776 26.964C84.0776 27.1107 84.1363 27.2867 84.2536 27.492C84.3563 27.6387 84.4076 27.7707 84.4076 27.888C84.4076 28.0347 84.3049 28.152 84.0996 28.24C84.0556 28.2693 83.9823 28.306 83.8796 28.35C83.7769 28.394 83.7109 28.4233 83.6816 28.438C83.3003 28.658 82.9849 28.768 82.7356 28.768C82.6623 28.768 82.4496 28.7533 82.0976 28.724C81.9656 28.7093 81.7896 28.702 81.5696 28.702C81.5256 28.702 81.4743 28.702 81.4156 28.702C81.2103 28.6873 81.1076 28.7313 81.1076 28.834C81.1076 29.1127 81.1369 29.428 81.1956 29.78C81.2689 30.176 81.3643 31.254 81.4816 33.014C81.5989 34.7593 81.6649 35.7347 81.6796 35.94L81.7456 36.644L82.6476 36.622H82.9116C83.8649 36.622 84.3416 36.776 84.3416 37.084C84.3416 37.172 84.2829 37.3333 84.1656 37.568C84.0923 37.7147 84.0556 37.8247 84.0556 37.898C84.0703 37.9567 84.1289 38.052 84.2316 38.184C84.3929 38.3893 84.4516 38.58 84.4076 38.756C84.3929 38.844 84.3343 38.9247 84.2316 38.998C84.1436 39.0713 84.0556 39.108 83.9676 39.108C83.8796 39.108 83.8283 39.0787 83.8136 39.02C83.7989 38.932 83.7549 38.8953 83.6816 38.91C83.6083 38.9247 83.5716 38.976 83.5716 39.064C83.5716 39.196 83.4836 39.284 83.3076 39.328C83.1463 39.3573 82.7063 39.4013 81.9876 39.46C81.0049 39.5187 79.8976 39.6213 78.6656 39.768C77.6096 39.8707 76.9496 39.922 76.6856 39.922C76.1723 39.922 75.9156 39.8047 75.9156 39.57C75.9156 39.482 75.9523 39.3427 76.0256 39.152C76.1429 38.844 76.1649 38.624 76.0916 38.492C76.0183 38.3453 75.9816 38.2427 75.9816 38.184C75.9816 38.0227 76.1209 37.8907 76.3996 37.788C76.4583 37.7587 76.5243 37.722 76.5976 37.678C76.6856 37.634 76.7663 37.5973 76.8396 37.568C76.9129 37.524 76.9569 37.4947 76.9716 37.48C77.0743 37.4213 77.3456 37.3407 77.7856 37.238C78.0789 37.1793 78.2549 37.1353 78.3136 37.106C78.3869 37.0767 78.4236 37.0107 78.4236 36.908C78.4236 36.8493 78.4016 35.874 78.3576 33.982C78.3136 32.09 78.2916 30.8213 78.2916 30.176V28.856L77.6536 28.944C77.5509 28.9587 77.3529 28.9807 77.0596 29.01C76.7809 29.0393 76.5829 29.0613 76.4656 29.076C76.3776 29.0907 76.2749 29.098 76.1576 29.098C75.9816 29.098 75.8349 29.032 75.7176 28.9C75.5709 28.7533 75.5416 28.5627 75.6296 28.328C75.7029 28.0787 75.7396 27.9173 75.7396 27.844C75.7396 27.7413 75.6589 27.69 75.4976 27.69C75.2629 27.69 75.1456 27.6093 75.1456 27.448C75.1456 27.3453 75.1529 27.2573 75.1676 27.184C75.1823 27.0373 75.2483 26.9127 75.3656 26.81C75.4829 26.6927 75.6003 26.634 75.7176 26.634C75.7909 26.634 75.8496 26.656 75.8936 26.7C75.9669 26.7733 76.0843 26.744 76.2456 26.612C76.3776 26.4947 76.7296 26.3553 77.3016 26.194C77.8736 26.018 78.2916 25.93 78.5556 25.93C78.8049 25.93 79.0836 25.8787 79.3916 25.776C79.6849 25.6733 80.2716 25.556 81.1516 25.424C82.0169 25.3213 82.5816 25.2187 82.8456 25.116ZM97.3498 25.798C97.7018 25.622 98.0905 25.534 98.5158 25.534C98.7505 25.534 98.9191 25.5853 99.0218 25.688C99.0365 25.7027 99.0438 25.7467 99.0438 25.82C99.0438 25.952 99.0071 26.2013 98.9338 26.568C98.8458 26.876 98.8018 27.1767 98.8018 27.47C98.8018 27.5727 98.8091 27.6387 98.8238 27.668C98.8531 27.888 98.7725 28.086 98.5818 28.262C98.4205 28.4087 98.0098 28.6287 97.3498 28.922C96.4698 29.406 95.9418 29.648 95.7658 29.648H95.6998C95.6411 29.648 95.6118 29.7287 95.6118 29.89C95.6118 30.0513 95.6558 30.7333 95.7438 31.936C95.7585 32.2587 95.7805 32.6033 95.8098 32.97C95.8391 33.322 95.8611 33.6007 95.8758 33.806C95.8905 34.0113 95.8978 34.1213 95.8978 34.136C95.8978 34.4733 95.9565 34.8767 96.0738 35.346C96.1911 35.8007 96.3085 36.1307 96.4258 36.336C96.5725 36.5707 96.6458 36.8787 96.6458 37.26C96.6605 37.6267 96.6898 37.9053 96.7338 38.096C96.7925 38.3307 96.8218 38.4773 96.8218 38.536C96.8218 38.5947 96.7925 38.7267 96.7338 38.932C96.7191 38.976 96.6898 39.0493 96.6458 39.152C96.6165 39.2547 96.5871 39.3427 96.5578 39.416C96.5431 39.4893 96.5358 39.548 96.5358 39.592C96.4918 39.812 96.3378 40.054 96.0738 40.318C95.8098 40.5673 95.5605 40.714 95.3258 40.758C95.2671 40.7727 95.1865 40.78 95.0838 40.78C94.8345 40.78 94.7098 40.5747 94.7098 40.164C94.7098 39.944 94.6731 39.834 94.5998 39.834C94.5558 39.834 94.4678 39.9 94.3358 40.032C94.2331 40.164 94.1085 40.23 93.9618 40.23C93.8005 40.23 93.6318 40.1347 93.4558 39.944C93.1331 39.5773 92.8765 38.8953 92.6858 37.898C92.5391 37.1793 92.3925 35.7347 92.2458 33.564C92.2311 33.432 92.2238 33.2193 92.2238 32.926C92.2238 32.442 92.2458 32.0387 92.2898 31.716C92.3485 31.2173 92.3778 30.9533 92.3778 30.924C92.3778 30.7333 92.2898 30.638 92.1138 30.638C91.9671 30.638 91.6958 30.682 91.2998 30.77C90.2585 30.99 89.4298 31.1 88.8138 31.1C88.6671 31.1 88.5498 31.0853 88.4618 31.056C88.3298 30.9973 88.2638 30.8727 88.2638 30.682C88.2638 30.4913 88.2345 30.396 88.1758 30.396C88.1025 30.396 87.9998 30.3447 87.8678 30.242C87.7651 30.1687 87.7138 30.1173 87.7138 30.088C87.7285 30.0587 87.7945 30 87.9118 29.912C88.0291 29.8387 88.0878 29.78 88.0878 29.736C88.1025 29.692 88.0658 29.6187 87.9778 29.516C87.9045 29.4427 87.8678 29.3547 87.8678 29.252C87.8678 29.032 87.9925 28.922 88.2418 28.922C88.4031 28.922 88.5278 28.8633 88.6158 28.746C88.7625 28.5553 89.1878 28.3793 89.8918 28.218C90.4198 28.1007 91.4905 27.7707 93.1038 27.228C94.7171 26.6707 95.7438 26.326 96.1838 26.194C96.8731 25.974 97.2618 25.842 97.3498 25.798ZM115.218 24.94C115.423 24.808 115.57 24.742 115.658 24.742C115.804 24.742 115.922 24.9693 116.01 25.424C116.112 25.952 116.193 26.3187 116.252 26.524C116.325 26.8027 116.325 27.0007 116.252 27.118C116.076 27.338 115.621 27.5653 114.888 27.8C114.154 28.02 113.45 28.152 112.776 28.196C112.145 28.2547 111.808 28.3207 111.764 28.394C111.69 28.4967 111.632 29.0027 111.588 29.912C111.558 30.4107 111.544 30.704 111.544 30.792C111.544 31.144 111.61 31.32 111.742 31.32C111.844 31.32 112.072 31.2247 112.424 31.034C112.717 30.8873 113.142 30.748 113.7 30.616C114.257 30.484 114.712 30.4107 115.064 30.396H115.438L115.504 31.496C115.518 31.6133 115.526 31.782 115.526 32.002C115.526 32.354 115.504 32.596 115.46 32.728C115.416 32.8307 115.232 32.9187 114.91 32.992C114.47 33.1533 113.978 33.3587 113.436 33.608C112.644 33.9747 112.174 34.18 112.028 34.224L111.632 34.356L111.896 34.84C112.057 35.1627 112.299 35.3827 112.622 35.5L113.062 35.654L113.502 35.192C113.766 34.884 113.956 34.73 114.074 34.73C114.191 34.73 114.44 35.1187 114.822 35.896C115.144 36.5267 115.306 36.9227 115.306 37.084C115.306 37.2453 115.137 37.5387 114.8 37.964C114.536 38.3013 114.176 38.5653 113.722 38.756C113.282 38.9467 112.827 39.042 112.358 39.042C111.962 39.042 111.58 38.9613 111.214 38.8C110.979 38.6973 110.686 38.514 110.334 38.25C109.996 37.986 109.747 37.766 109.586 37.59C109.248 37.1793 108.984 36.644 108.794 35.984C108.662 35.5147 108.596 34.8767 108.596 34.07C108.596 32.75 108.757 30.9533 109.08 28.68C109.124 28.3867 109.168 28.0713 109.212 27.734C109.256 27.382 109.285 27.118 109.3 26.942C109.329 26.766 109.344 26.6707 109.344 26.656C109.344 26.5973 109.432 26.5387 109.608 26.48C109.769 26.4067 109.835 26.2893 109.806 26.128C109.806 26.1133 109.798 26.0987 109.784 26.084C109.784 26.0547 109.784 26.0327 109.784 26.018C109.784 25.8567 109.908 25.7467 110.158 25.688C110.407 25.6293 110.928 25.578 111.72 25.534C113.538 25.4607 114.704 25.2627 115.218 24.94ZM123.8 32.64C123.609 32.0093 123.47 31.694 123.382 31.694C123.367 31.694 123.36 31.7013 123.36 31.716L123.25 32.42C123.162 32.8893 123.074 33.3733 122.986 33.872C122.912 34.356 122.876 34.6273 122.876 34.686C122.876 34.7447 123.052 34.774 123.404 34.774C124.108 34.774 124.46 34.7153 124.46 34.598C124.46 34.466 124.386 34.2313 124.24 33.894C124.122 33.6153 123.976 33.1973 123.8 32.64ZM122.128 25.93C122.509 25.4313 123.037 25.182 123.712 25.182C124.313 25.182 124.87 25.3947 125.384 25.82C125.912 26.26 126.528 27.404 127.232 29.252C127.29 29.3987 127.364 29.5967 127.452 29.846C127.554 30.0807 127.613 30.22 127.628 30.264C127.701 30.4107 127.738 30.572 127.738 30.748C127.738 30.8653 127.826 31.1293 128.002 31.54C128.104 31.7747 128.288 32.2733 128.552 33.036C128.816 33.784 128.999 34.2753 129.102 34.51C129.366 35.0967 129.608 35.6907 129.828 36.292C130.121 37.1133 130.268 37.7733 130.268 38.272C130.268 38.7413 130.238 39.02 130.18 39.108C130.121 39.1813 130.004 39.2547 129.828 39.328C129.666 39.3867 129.52 39.416 129.388 39.416C129.3 39.416 129.248 39.4087 129.234 39.394C129.043 39.262 128.75 39.196 128.354 39.196C128.104 39.196 127.906 39.2327 127.76 39.306C127.554 39.4087 127.378 39.46 127.232 39.46C127.085 39.46 126.946 39.394 126.814 39.262C126.667 39.1153 126.52 39.042 126.374 39.042C126.051 39.042 125.794 38.668 125.604 37.92C125.472 37.4067 125.354 37.1353 125.252 37.106H125.164C124.929 37.106 124.482 37.1647 123.822 37.282C123.176 37.3993 122.839 37.4873 122.81 37.546C122.736 37.6633 122.685 37.8833 122.656 38.206C122.612 38.558 122.553 38.8 122.48 38.932C122.421 39.064 122.326 39.13 122.194 39.13C122.12 39.13 122.062 39.1227 122.018 39.108C121.695 39.0347 121.453 38.998 121.292 38.998C120.984 38.998 120.742 39.108 120.566 39.328C120.39 39.5333 120.236 39.5993 120.104 39.526C119.84 39.3793 119.664 38.8 119.576 37.788C119.546 37.436 119.532 37.2453 119.532 37.216C119.532 37.0987 119.546 37.018 119.576 36.974C119.62 36.93 119.693 36.8933 119.796 36.864C119.986 36.8053 120.082 36.732 120.082 36.644C120.082 36.5853 120.008 36.49 119.862 36.358C119.73 36.27 119.664 36.094 119.664 35.83C119.664 35.5953 119.671 35.39 119.686 35.214C119.73 34.466 119.847 33.476 120.038 32.244C120.243 30.9973 120.397 30.286 120.5 30.11C120.573 29.9927 120.705 29.6187 120.896 28.988C121.086 28.3427 121.182 27.9687 121.182 27.866C121.182 27.7633 121.299 27.47 121.534 26.986C121.768 26.4873 121.966 26.1353 122.128 25.93ZM138.866 24.984C139.145 24.9107 139.475 24.874 139.856 24.874C140.883 24.874 141.587 25.1013 141.968 25.556C142.305 25.952 142.489 26.3847 142.518 26.854C142.533 27.1473 142.467 27.3307 142.32 27.404C142.056 27.5213 142.034 27.6607 142.254 27.822C142.327 27.8807 142.364 27.9613 142.364 28.064C142.364 28.2107 142.283 28.3207 142.122 28.394C141.975 28.4233 141.792 28.328 141.572 28.108C141.367 27.9173 141.22 27.822 141.132 27.822C141.117 27.822 141.066 27.8367 140.978 27.866C140.817 27.9687 140.677 27.9247 140.56 27.734C140.443 27.558 140.289 27.47 140.098 27.47C139.893 27.47 139.548 27.58 139.064 27.8C138.683 27.976 138.338 28.1887 138.03 28.438C137.722 28.6873 137.568 28.878 137.568 29.01C137.568 29.23 138.081 29.5527 139.108 29.978C139.695 30.242 140.01 30.3887 140.054 30.418C140.142 30.4767 140.325 30.5573 140.604 30.66C141.117 30.8507 141.726 31.1513 142.43 31.562C143.134 31.958 143.486 32.2073 143.486 32.31C143.486 32.3687 143.677 32.5887 144.058 32.97C144.454 33.3367 144.733 33.7107 144.894 34.092C145.041 34.4293 145.114 34.73 145.114 34.994C145.114 35.17 145.107 35.3167 145.092 35.434C145.004 36.49 144.505 37.282 143.596 37.81C142.863 38.2647 141.851 38.492 140.56 38.492C139.167 38.492 137.751 38.2207 136.314 37.678C135.859 37.5167 135.471 37.3847 135.148 37.282C134.796 37.194 134.437 36.93 134.07 36.49C133.703 36.05 133.52 35.6613 133.52 35.324C133.52 35.2067 133.85 34.9867 134.51 34.664C135.009 34.4147 135.331 34.29 135.478 34.29C135.566 34.29 135.632 34.3267 135.676 34.4C135.779 34.5467 136.153 34.686 136.798 34.818C137.443 34.9353 138.199 35.016 139.064 35.06C139.621 35.0893 139.981 35.104 140.142 35.104C140.861 35.104 141.22 35.0307 141.22 34.884C141.22 34.8693 141.205 34.8473 141.176 34.818C140.824 34.4073 139.768 33.828 138.008 33.08C137.715 32.9627 137.253 32.6767 136.622 32.222C135.991 31.7527 135.515 31.3567 135.192 31.034C134.708 30.55 134.466 29.9927 134.466 29.362C134.466 29.2593 134.481 29.0907 134.51 28.856C134.598 28.3867 134.693 28.042 134.796 27.822C135.075 27.2353 135.603 26.6707 136.38 26.128C137.157 25.5853 137.986 25.204 138.866 24.984ZM153.735 25.688C153.837 25.6 153.947 25.556 154.065 25.556C154.226 25.556 154.417 25.6733 154.637 25.908C154.915 26.1867 155.194 26.436 155.473 26.656L156.023 27.118L156.155 28.174C156.199 28.614 156.221 29.1273 156.221 29.714C156.221 30.77 156.162 31.5107 156.045 31.936C155.854 32.7427 155.414 33.454 154.725 34.07L154.175 34.554L154.417 35.962C154.593 36.93 154.681 37.986 154.681 39.13C154.681 39.5847 154.659 39.922 154.615 40.142C154.571 40.3767 154.409 40.6113 154.131 40.846L153.735 41.154L153.361 40.802C153.155 40.5967 153.009 40.494 152.921 40.494C152.906 40.494 152.796 40.5233 152.591 40.582C152.327 40.6847 152.151 40.67 152.063 40.538C152.019 40.4207 151.894 40.2447 151.689 40.01C151.557 39.8487 151.476 39.6873 151.447 39.526C151.417 39.35 151.395 38.9833 151.381 38.426C151.381 37.8247 151.351 37.3773 151.293 37.084C151.249 36.776 151.219 36.402 151.205 35.962C151.205 35.8007 151.197 35.632 151.183 35.456C151.168 35.28 151.153 35.1407 151.139 35.038C151.139 34.9353 151.139 34.8767 151.139 34.862C151.139 34.8033 150.963 34.6933 150.611 34.532C149.745 34.1067 149.159 33.4613 148.851 32.596C148.513 31.6573 148.345 30.6307 148.345 29.516C148.345 29.2813 148.359 28.9293 148.389 28.46C148.477 27.316 148.653 26.6047 148.917 26.326C149.034 26.2087 149.144 26.15 149.247 26.15C149.393 26.15 149.547 26.2527 149.709 26.458C149.841 26.6633 150.105 26.8393 150.501 26.986C150.779 27.0887 150.948 27.1767 151.007 27.25C151.08 27.3233 151.131 27.4847 151.161 27.734C151.205 28.306 151.227 28.7533 151.227 29.076C151.227 29.5453 151.285 30.0587 151.403 30.616C151.535 31.1733 151.659 31.5107 151.777 31.628C151.953 31.804 152.136 31.892 152.327 31.892C152.503 31.892 152.671 31.826 152.833 31.694L153.163 31.408L153.229 29.01C153.258 27.6753 153.302 26.8247 153.361 26.458C153.419 26.0913 153.544 25.8347 153.735 25.688Z" fill="#4CAF50"/>
</svg>

