<svg width="48" height="49" viewBox="0 0 48 49" fill="none" xmlns="http://www.w3.org/2000/svg">
<path fill-rule="evenodd" clip-rule="evenodd" d="M47.9988 17.7807V17.3644C47.9988 15.7292 47.8559 14.1414 47.714 12.5653L47.714 12.5652C47.668 12.0551 47.6222 11.5462 47.5814 11.0373C47.5396 10.7043 47.5188 10.3713 47.4979 10.0383C47.477 9.70529 47.4561 9.37228 47.4144 9.03927C47.3309 8.12351 46.7464 7.54075 45.828 7.45749C41.4863 7.04124 36.9777 6.87473 31.968 6.87473C31.968 6.62498 31.968 6.37522 32.0515 6.12547C32.2185 4.71019 32.5525 3.71118 33.0534 3.12842C33.4709 2.62891 33.5544 2.62891 34.1389 2.87866C34.6398 3.04516 34.8068 3.37817 34.9738 4.12743L35.2243 4.8767C35.4748 5.45946 36.0592 5.79246 36.7272 5.70921C37.3116 5.62596 37.6456 5.12645 37.6456 4.54369C37.5621 3.21167 36.9777 0.714122 35.1408 0.131361C33.5544 -0.368148 31.801 0.63087 30.8826 1.87964C29.9642 3.21167 29.3797 4.95995 29.3797 6.95799C24.871 6.95799 20.1119 7.12449 14.4343 7.37424C14.4343 6.97255 14.5137 6.61041 14.5903 6.26056C14.6249 6.10287 14.6589 5.94767 14.6848 5.79246C15.2693 3.54467 15.8537 3.21167 16.0207 3.12842C16.4382 3.04516 16.9391 3.87768 17.1896 4.37719L17.2731 4.46044C17.6071 4.95995 18.1915 5.2097 18.776 4.95995C19.277 4.79345 19.6944 4.21069 19.5274 3.54467C19.11 1.79639 18.0245 0.547619 16.7721 0.297864C15.5197 0.0481095 14.3508 0.714122 13.3489 2.04615C12.2635 3.54467 11.679 5.37621 11.679 7.37424C10.0926 7.45749 8.48539 7.56156 6.87814 7.66562L6.87812 7.66562H6.87811C5.27086 7.76969 3.6636 7.87375 2.07722 7.957C1.40927 8.04026 0.908309 8.37326 0.741321 8.95602C-0.260605 12.2028 -0.260605 15.8659 0.824815 20.528C0.741321 20.9442 0.908309 21.4437 1.15879 21.7768C1.40927 22.1098 1.74325 22.2763 2.24421 22.2763H4.41505C4.08108 31.9334 4.33156 40.2586 5.1665 47.7512C5.24999 48.5005 5.83445 49 6.5024 49C11.8205 48.9242 17.2769 48.8313 22.8243 48.7367H22.8244C29.4702 48.6235 36.2466 48.508 43.0727 48.4172C43.4902 48.4172 43.9076 48.2507 44.2416 47.9177C44.4921 47.5847 44.6591 47.2517 44.6591 46.8355C44.5756 44.4212 44.4921 41.9236 44.4921 39.4261C44.4086 33.5152 44.2416 27.4379 43.5737 21.6103C44.7426 21.6103 45.995 21.527 46.8299 21.0275C48.0091 20.322 48.004 19.1 47.9994 17.9867C47.9991 17.9175 47.9988 17.8488 47.9988 17.7807ZM40.9854 39.3428C41.1523 41.3409 41.2358 43.3389 41.3193 45.3369H39.8164L38.0821 45.378L38.0812 45.3781C28.0965 45.6146 17.7676 45.8593 7.58782 46.2527C6.66938 38.5936 6.33541 30.6847 6.58589 22.193H8.17227L9.62191 22.1776C17.0265 22.0989 25.2822 22.0111 32.803 21.7768C34.2224 21.6935 35.6418 21.6935 37.0611 21.6935C37.6039 21.6935 38.1674 21.6727 38.731 21.6519C39.2946 21.6311 39.8582 21.6103 40.4009 21.6103C40.2528 26.8542 40.5646 32.1636 40.8701 37.3642L40.8701 37.3648C40.909 38.026 40.9477 38.6855 40.9854 39.3428ZM15.3527 12.2861C15.6867 13.0353 15.2693 13.8679 14.6013 14.1176C14.0168 14.4506 13.3489 14.2009 13.0149 13.4516C12.514 12.3693 12.18 11.2871 11.9295 10.2048C10.0411 10.2655 8.01935 10.3706 5.76699 10.4876C4.93221 10.531 4.06574 10.576 3.16264 10.6211C2.49469 13.1186 2.57819 15.7826 3.24614 19.1127C10.5936 19.0295 19.277 18.7797 27.0419 18.5299H28.4613C29.171 18.5299 29.8598 18.5091 30.5486 18.4883C31.2375 18.4675 31.9263 18.4467 32.636 18.4467L32.8804 18.4409C36.3095 18.3595 39.8163 18.2763 43.3232 18.1137C43.6572 18.1137 43.9076 18.1137 44.1581 18.0304C44.3251 17.9472 44.5756 17.9472 44.7426 17.9472V17.9471C44.7426 17.5309 44.7426 17.0314 44.6591 16.6152C44.5756 16.3654 44.5756 16.0324 44.5756 15.8659C44.4921 14.0344 44.4086 12.2028 44.2416 10.4545C40.4009 10.1215 36.4767 9.95504 32.2185 9.87179L32.2185 9.87184C32.3855 10.6211 32.5525 11.3703 32.8865 12.1196C33.1369 12.7856 32.8865 13.3684 32.302 13.6181C31.7175 13.9511 30.8826 13.7014 30.5486 12.9521C30.1312 12.0363 29.7972 11.0373 29.6302 9.95504C25.038 9.87179 20.1119 9.95504 14.6013 10.2048C14.7683 10.8708 15.0188 11.5368 15.3527 12.2861Z" fill="#1F6BF1"/>
</svg>

