<svg width="131" height="17" viewBox="0 0 131 17" fill="none" xmlns="http://www.w3.org/2000/svg">
<path d="M4.962 0.697999C5.226 0.595333 5.6 0.543999 6.084 0.543999C6.568 0.543999 7.02267 0.602666 7.448 0.72C7.94667 0.866666 8.40867 1.204 8.834 1.732C9.274 2.26 9.494 2.744 9.494 3.184C9.494 3.33067 9.472 3.44067 9.428 3.514C9.384 3.58733 9.28133 3.66067 9.12 3.734C8.88533 3.83667 8.768 3.96133 8.768 4.108C8.768 4.24 8.87067 4.35 9.076 4.438C9.28133 4.51133 9.406 4.68 9.45 4.944C9.46467 5.01733 9.472 5.13467 9.472 5.296C9.472 5.61867 9.41333 5.91933 9.296 6.198C9.17867 6.47667 9.04667 6.616 8.9 6.616C8.768 6.616 8.51133 6.44 8.13 6.088C7.71933 5.72133 7.36733 5.50867 7.074 5.45L6.612 5.362L6.634 4.702V4.46C6.634 4.196 6.612 4.02 6.568 3.932C6.53867 3.844 6.458 3.8 6.326 3.8C6.238 3.8 6.16467 3.80733 6.106 3.822C5.87133 3.866 5.70267 3.932 5.6 4.02C5.49733 4.09333 5.292 4.32067 4.984 4.702C4.16267 5.72867 3.752 6.814 3.752 7.958C3.752 8.09 3.76667 8.30267 3.796 8.596C3.94267 9.68133 4.24333 10.3633 4.698 10.642C5.138 10.906 5.78333 11.038 6.634 11.038C7.32333 11.038 7.85133 10.9427 8.218 10.752C8.45267 10.6347 8.59933 10.576 8.658 10.576C8.68733 10.576 8.77533 10.6053 8.922 10.664C9.11267 10.7667 9.23733 10.928 9.296 11.148C9.32533 11.236 9.472 11.4927 9.736 11.918C10.0147 12.3287 10.154 12.6073 10.154 12.754C10.154 13.0767 9.91933 13.4067 9.45 13.744C8.98067 14.0667 8.38667 14.3233 7.668 14.514C7.21333 14.6313 6.84667 14.69 6.568 14.69C6.26 14.69 5.98133 14.6753 5.732 14.646C4.25067 14.4993 3.07 14.03 2.19 13.238C1.838 12.9153 1.486 12.49 1.134 11.962C0.782 11.4193 0.576667 10.9867 0.518 10.664C0.474 10.4 0.408 10.0993 0.32 9.762C0.232 9.39533 0.188 8.97 0.188 8.486C0.188 7.694 0.298 6.86533 0.518 6C0.738 5.13467 1.03867 4.40867 1.42 3.822C1.58133 3.57267 1.89667 3.19133 2.366 2.678C2.83533 2.15 3.15067 1.82733 3.312 1.71C3.50267 1.59267 3.61267 1.50467 3.642 1.446C3.89133 1.16733 4.33133 0.917999 4.962 0.697999ZM19.0788 4.02C18.6828 3.78533 18.4628 3.668 18.4188 3.668C18.3601 3.668 18.2355 3.81467 18.0448 4.108C17.8541 4.40133 17.6855 4.702 17.5388 5.01C17.0548 6.022 16.8128 7.09267 16.8128 8.222C16.8128 8.55933 16.8421 8.816 16.9008 8.992C17.1208 9.66667 17.4801 10.1067 17.9788 10.312C18.1988 10.4 18.4848 10.444 18.8368 10.444C19.3941 10.444 19.8781 10.3487 20.2888 10.158C20.6995 9.95267 21.0808 9.66667 21.4328 9.3C21.7848 8.93333 21.9975 8.58867 22.0708 8.266C22.0708 8.25133 22.0708 8.222 22.0708 8.178C22.0855 8.134 22.0928 8.09733 22.0928 8.068C22.0928 7.33467 21.9975 6.76267 21.8068 6.352C21.6455 6.044 21.3008 5.67 20.7728 5.23C20.2448 4.77533 19.6801 4.372 19.0788 4.02ZM18.9468 0.697999C18.9761 0.639332 19.0201 0.609999 19.0788 0.609999C19.1961 0.609999 20.0395 0.954666 21.6088 1.644C22.9875 2.24533 24.0361 2.942 24.7548 3.734C25.4881 4.526 25.9721 5.50133 26.2068 6.66C26.2361 6.836 26.2508 6.93133 26.2508 6.946C26.2508 7.06333 26.1481 7.18067 25.9428 7.298C25.7375 7.43 25.5468 7.496 25.3708 7.496C25.1801 7.496 25.0848 7.54 25.0848 7.628C25.0848 7.716 25.2095 7.848 25.4588 8.024C25.4735 8.03867 25.4955 8.05333 25.5248 8.068C25.7301 8.22933 25.8401 8.36867 25.8548 8.486C25.8548 8.58867 25.7961 8.91867 25.6788 9.476C25.5761 10.0187 25.2315 10.6933 24.6448 11.5C24.0581 12.292 23.5521 12.7833 23.1268 12.974C22.8775 13.0913 22.5475 13.282 22.1368 13.546C21.5061 14.0007 20.5455 14.228 19.2548 14.228C18.2575 14.228 17.4581 14.0813 16.8568 13.788C16.5635 13.6707 16.3435 13.5973 16.1968 13.568C16.0061 13.524 15.6468 13.2527 15.1188 12.754C14.5908 12.2553 14.2681 11.8813 14.1508 11.632C13.6081 10.5467 13.3368 9.55667 13.3368 8.662C13.3368 8.41267 13.3588 8.16333 13.4028 7.914C13.7988 5.538 14.5395 3.71933 15.6248 2.458C16.4755 1.446 17.3408 0.910666 18.2208 0.851999C18.6608 0.822666 18.9028 0.771332 18.9468 0.697999ZM30.6164 2.326C30.8218 2.20867 31.0344 2.15 31.2544 2.15C31.4891 2.15 31.6284 2.216 31.6724 2.348C31.7018 2.49467 31.8484 2.546 32.1124 2.502C32.1564 2.48733 32.2151 2.48 32.2884 2.48C32.4058 2.48 32.5304 2.53867 32.6624 2.656C32.7944 2.77333 33.0364 3.03733 33.3884 3.448C33.5498 3.63867 33.7331 3.91733 33.9384 4.284C34.1438 4.65067 34.2464 4.89267 34.2464 5.01C34.2464 5.08333 34.3198 5.26667 34.4664 5.56C34.6131 5.80933 34.7451 6.176 34.8624 6.66C34.9211 6.924 35.0824 7.37133 35.3464 8.002C35.4931 8.31 35.6324 8.65467 35.7644 9.036C35.8964 9.41733 36.0578 9.79867 36.2484 10.18C36.3071 10.312 36.3804 10.466 36.4684 10.642C36.5564 10.818 36.6224 10.9647 36.6664 11.082C36.7251 11.1847 36.7618 11.258 36.7764 11.302C36.8204 11.434 36.8644 11.5 36.9084 11.5C37.0258 11.5 37.1064 11.0087 37.1504 10.026C37.1651 9.586 37.1944 9.16067 37.2384 8.75C37.2971 8.32467 37.3411 8.024 37.3704 7.848C37.3998 7.65733 37.4658 7.298 37.5684 6.77C37.6858 6.22733 37.7591 5.87533 37.7884 5.714C37.9791 4.834 38.2064 4.394 38.4704 4.394C38.5438 4.394 38.6171 4.42333 38.6904 4.482C38.8518 4.59933 38.9618 4.614 39.0204 4.526C39.0498 4.482 39.2038 4.36467 39.4824 4.174C39.7611 3.98333 39.9224 3.888 39.9664 3.888C40.0398 3.888 40.1644 4.05667 40.3404 4.394C40.5164 4.71667 40.6044 4.944 40.6044 5.076C40.6044 5.208 40.5824 5.30333 40.5384 5.362C40.4944 5.406 40.4064 5.44267 40.2744 5.472C40.0691 5.516 39.9664 5.56733 39.9664 5.626C39.9664 5.67 40.0324 5.78 40.1644 5.956C40.2964 6.132 40.3624 6.36667 40.3624 6.66C40.3624 6.71867 40.3478 7.07067 40.3184 7.716C40.3184 7.936 40.3111 8.2 40.2964 8.508C40.2818 8.816 40.2671 9.08 40.2524 9.3C40.2524 9.50533 40.2524 9.652 40.2524 9.74V9.872C40.2524 10.3707 40.2158 11.0673 40.1424 11.962C40.0691 12.8567 40.0031 13.4067 39.9444 13.612C39.9298 13.6707 39.8931 13.81 39.8344 14.03C39.7758 14.2353 39.7391 14.3893 39.7244 14.492C39.6804 14.6827 39.6144 14.8293 39.5264 14.932C39.4384 15.0347 39.2698 15.174 39.0204 15.35C38.6244 15.5847 38.3164 15.702 38.0964 15.702C37.9058 15.702 37.7371 15.6947 37.5904 15.68C36.0651 15.5773 34.8844 14.6533 34.0484 12.908C33.9751 12.7467 33.8871 12.578 33.7844 12.402C33.6964 12.2113 33.6084 12.0427 33.5204 11.896C33.4471 11.7347 33.4031 11.6393 33.3884 11.61C32.8311 10.4953 32.5158 9.71067 32.4424 9.256C32.3691 8.97733 32.3031 8.838 32.2444 8.838C32.2004 8.838 32.1784 9.15333 32.1784 9.784C32.1784 9.88667 32.1784 10.0993 32.1784 10.422C32.1931 10.7447 32.2004 11.016 32.2004 11.236V12.27C32.2004 13.238 32.1858 13.8247 32.1564 14.03C32.0978 14.3087 31.9584 14.448 31.7384 14.448C31.6358 14.448 31.5331 14.4187 31.4304 14.36C31.3278 14.3013 31.2324 14.272 31.1444 14.272C31.0858 14.272 30.9318 14.3087 30.6824 14.382C30.3598 14.4993 30.1618 14.5213 30.0884 14.448C29.8098 14.1693 29.5971 12.622 29.4504 9.806C29.4064 9.08733 29.3844 8.53733 29.3844 8.156C29.3844 7.42267 29.5238 6.99 29.8024 6.858L30.1324 6.704L29.7804 6.418C29.5604 6.242 29.4504 6.01467 29.4504 5.736V5.472C29.4798 4.768 29.6044 4.11533 29.8244 3.514C30.0591 2.91267 30.3231 2.51667 30.6164 2.326ZM53.4179 1.798C53.7699 1.622 54.1586 1.534 54.5839 1.534C54.8186 1.534 54.9872 1.58533 55.0899 1.688C55.1046 1.70267 55.1119 1.74667 55.1119 1.82C55.1119 1.952 55.0752 2.20133 55.0019 2.568C54.9139 2.876 54.8699 3.17667 54.8699 3.47C54.8699 3.57267 54.8772 3.63867 54.8919 3.668C54.9212 3.888 54.8406 4.086 54.6499 4.262C54.4886 4.40867 54.0779 4.62867 53.4179 4.922C52.5379 5.406 52.0099 5.648 51.8339 5.648H51.7679C51.7092 5.648 51.6799 5.72867 51.6799 5.89C51.6799 6.05133 51.7239 6.73333 51.8119 7.936C51.8266 8.25867 51.8486 8.60333 51.8779 8.97C51.9072 9.322 51.9292 9.60067 51.9439 9.806C51.9586 10.0113 51.9659 10.1213 51.9659 10.136C51.9659 10.4733 52.0246 10.8767 52.1419 11.346C52.2592 11.8007 52.3766 12.1307 52.4939 12.336C52.6406 12.5707 52.7139 12.8787 52.7139 13.26C52.7286 13.6267 52.7579 13.9053 52.8019 14.096C52.8606 14.3307 52.8899 14.4773 52.8899 14.536C52.8899 14.5947 52.8606 14.7267 52.8019 14.932C52.7872 14.976 52.7579 15.0493 52.7139 15.152C52.6846 15.2547 52.6552 15.3427 52.6259 15.416C52.6112 15.4893 52.6039 15.548 52.6039 15.592C52.5599 15.812 52.4059 16.054 52.1419 16.318C51.8779 16.5673 51.6286 16.714 51.3939 16.758C51.3352 16.7727 51.2546 16.78 51.1519 16.78C50.9026 16.78 50.7779 16.5747 50.7779 16.164C50.7779 15.944 50.7412 15.834 50.6679 15.834C50.6239 15.834 50.5359 15.9 50.4039 16.032C50.3012 16.164 50.1766 16.23 50.0299 16.23C49.8686 16.23 49.6999 16.1347 49.5239 15.944C49.2012 15.5773 48.9446 14.8953 48.7539 13.898C48.6072 13.1793 48.4606 11.7347 48.3139 9.564C48.2992 9.432 48.2919 9.21933 48.2919 8.926C48.2919 8.442 48.3139 8.03867 48.3579 7.716C48.4166 7.21733 48.4459 6.95333 48.4459 6.924C48.4459 6.73333 48.3579 6.638 48.1819 6.638C48.0352 6.638 47.7639 6.682 47.3679 6.77C46.3266 6.99 45.4979 7.1 44.8819 7.1C44.7352 7.1 44.6179 7.08533 44.5299 7.056C44.3979 6.99733 44.3319 6.87267 44.3319 6.682C44.3319 6.49133 44.3026 6.396 44.2439 6.396C44.1706 6.396 44.0679 6.34467 43.9359 6.242C43.8332 6.16867 43.7819 6.11733 43.7819 6.088C43.7966 6.05867 43.8626 6 43.9799 5.912C44.0972 5.83867 44.1559 5.78 44.1559 5.736C44.1706 5.692 44.1339 5.61867 44.0459 5.516C43.9726 5.44267 43.9359 5.35467 43.9359 5.252C43.9359 5.032 44.0606 4.922 44.3099 4.922C44.4712 4.922 44.5959 4.86333 44.6839 4.746C44.8306 4.55533 45.2559 4.37933 45.9599 4.218C46.4879 4.10067 47.5586 3.77067 49.1719 3.228C50.7852 2.67067 51.8119 2.326 52.2519 2.194C52.9412 1.974 53.3299 1.842 53.4179 1.798ZM62.6151 8.64C62.4245 8.00933 62.2851 7.694 62.1971 7.694C62.1825 7.694 62.1751 7.70133 62.1751 7.716L62.0651 8.42C61.9771 8.88933 61.8891 9.37333 61.8011 9.872C61.7278 10.356 61.6911 10.6273 61.6911 10.686C61.6911 10.7447 61.8671 10.774 62.2191 10.774C62.9231 10.774 63.2751 10.7153 63.2751 10.598C63.2751 10.466 63.2018 10.2313 63.0551 9.894C62.9378 9.61533 62.7911 9.19733 62.6151 8.64ZM60.9431 1.93C61.3245 1.43133 61.8525 1.182 62.5271 1.182C63.1285 1.182 63.6858 1.39467 64.1991 1.82C64.7271 2.26 65.3431 3.404 66.0471 5.252C66.1058 5.39867 66.1791 5.59667 66.2671 5.846C66.3698 6.08067 66.4285 6.22 66.4431 6.264C66.5165 6.41067 66.5531 6.572 66.5531 6.748C66.5531 6.86533 66.6411 7.12933 66.8171 7.54C66.9198 7.77467 67.1031 8.27333 67.3671 9.036C67.6311 9.784 67.8145 10.2753 67.9171 10.51C68.1811 11.0967 68.4231 11.6907 68.6431 12.292C68.9365 13.1133 69.0831 13.7733 69.0831 14.272C69.0831 14.7413 69.0538 15.02 68.9951 15.108C68.9365 15.1813 68.8191 15.2547 68.6431 15.328C68.4818 15.3867 68.3351 15.416 68.2031 15.416C68.1151 15.416 68.0638 15.4087 68.0491 15.394C67.8585 15.262 67.5651 15.196 67.1691 15.196C66.9198 15.196 66.7218 15.2327 66.5751 15.306C66.3698 15.4087 66.1938 15.46 66.0471 15.46C65.9005 15.46 65.7611 15.394 65.6291 15.262C65.4825 15.1153 65.3358 15.042 65.1891 15.042C64.8665 15.042 64.6098 14.668 64.4191 13.92C64.2871 13.4067 64.1698 13.1353 64.0671 13.106H63.9791C63.7445 13.106 63.2971 13.1647 62.6371 13.282C61.9918 13.3993 61.6545 13.4873 61.6251 13.546C61.5518 13.6633 61.5005 13.8833 61.4711 14.206C61.4271 14.558 61.3685 14.8 61.2951 14.932C61.2365 15.064 61.1411 15.13 61.0091 15.13C60.9358 15.13 60.8771 15.1227 60.8331 15.108C60.5105 15.0347 60.2685 14.998 60.1071 14.998C59.7991 14.998 59.5571 15.108 59.3811 15.328C59.2051 15.5333 59.0511 15.5993 58.9191 15.526C58.6551 15.3793 58.4791 14.8 58.3911 13.788C58.3618 13.436 58.3471 13.2453 58.3471 13.216C58.3471 13.0987 58.3618 13.018 58.3911 12.974C58.4351 12.93 58.5085 12.8933 58.6111 12.864C58.8018 12.8053 58.8971 12.732 58.8971 12.644C58.8971 12.5853 58.8238 12.49 58.6771 12.358C58.5451 12.27 58.4791 12.094 58.4791 11.83C58.4791 11.5953 58.4865 11.39 58.5011 11.214C58.5451 10.466 58.6625 9.476 58.8531 8.244C59.0585 6.99733 59.2125 6.286 59.3151 6.11C59.3885 5.99267 59.5205 5.61867 59.7111 4.988C59.9018 4.34267 59.9971 3.96867 59.9971 3.866C59.9971 3.76333 60.1145 3.47 60.3491 2.986C60.5838 2.48733 60.7818 2.13533 60.9431 1.93ZM77.0654 0.697999C77.3294 0.595333 77.7034 0.543999 78.1874 0.543999C78.6714 0.543999 79.126 0.602666 79.5514 0.72C80.05 0.866666 80.512 1.204 80.9374 1.732C81.3774 2.26 81.5974 2.744 81.5974 3.184C81.5974 3.33067 81.5754 3.44067 81.5314 3.514C81.4874 3.58733 81.3847 3.66067 81.2234 3.734C80.9887 3.83667 80.8714 3.96133 80.8714 4.108C80.8714 4.24 80.974 4.35 81.1794 4.438C81.3847 4.51133 81.5094 4.68 81.5534 4.944C81.568 5.01733 81.5754 5.13467 81.5754 5.296C81.5754 5.61867 81.5167 5.91933 81.3994 6.198C81.282 6.47667 81.15 6.616 81.0034 6.616C80.8714 6.616 80.6147 6.44 80.2334 6.088C79.8227 5.72133 79.4707 5.50867 79.1774 5.45L78.7154 5.362L78.7374 4.702V4.46C78.7374 4.196 78.7154 4.02 78.6714 3.932C78.642 3.844 78.5614 3.8 78.4294 3.8C78.3414 3.8 78.268 3.80733 78.2094 3.822C77.9747 3.866 77.806 3.932 77.7034 4.02C77.6007 4.09333 77.3954 4.32067 77.0874 4.702C76.266 5.72867 75.8554 6.814 75.8554 7.958C75.8554 8.09 75.87 8.30267 75.8994 8.596C76.046 9.68133 76.3467 10.3633 76.8014 10.642C77.2414 10.906 77.8867 11.038 78.7374 11.038C79.4267 11.038 79.9547 10.9427 80.3214 10.752C80.556 10.6347 80.7027 10.576 80.7614 10.576C80.7907 10.576 80.8787 10.6053 81.0254 10.664C81.216 10.7667 81.3407 10.928 81.3994 11.148C81.4287 11.236 81.5754 11.4927 81.8394 11.918C82.118 12.3287 82.2574 12.6073 82.2574 12.754C82.2574 13.0767 82.0227 13.4067 81.5534 13.744C81.084 14.0667 80.49 14.3233 79.7714 14.514C79.3167 14.6313 78.95 14.69 78.6714 14.69C78.3634 14.69 78.0847 14.6753 77.8354 14.646C76.354 14.4993 75.1734 14.03 74.2934 13.238C73.9414 12.9153 73.5894 12.49 73.2374 11.962C72.8854 11.4193 72.68 10.9867 72.6214 10.664C72.5774 10.4 72.5114 10.0993 72.4234 9.762C72.3354 9.39533 72.2914 8.97 72.2914 8.486C72.2914 7.694 72.4014 6.86533 72.6214 6C72.8414 5.13467 73.142 4.40867 73.5234 3.822C73.6847 3.57267 74 3.19133 74.4694 2.678C74.9387 2.15 75.254 1.82733 75.4154 1.71C75.606 1.59267 75.716 1.50467 75.7454 1.446C75.9947 1.16733 76.4347 0.917999 77.0654 0.697999ZM95.1202 1.798C95.4722 1.622 95.8608 1.534 96.2862 1.534C96.5208 1.534 96.6895 1.58533 96.7922 1.688C96.8068 1.70267 96.8142 1.74667 96.8142 1.82C96.8142 1.952 96.7775 2.20133 96.7042 2.568C96.6162 2.876 96.5722 3.17667 96.5722 3.47C96.5722 3.57267 96.5795 3.63867 96.5942 3.668C96.6235 3.888 96.5428 4.086 96.3522 4.262C96.1908 4.40867 95.7802 4.62867 95.1202 4.922C94.2402 5.406 93.7122 5.648 93.5362 5.648H93.4702C93.4115 5.648 93.3822 5.72867 93.3822 5.89C93.3822 6.05133 93.4262 6.73333 93.5142 7.936C93.5288 8.25867 93.5508 8.60333 93.5802 8.97C93.6095 9.322 93.6315 9.60067 93.6462 9.806C93.6608 10.0113 93.6682 10.1213 93.6682 10.136C93.6682 10.4733 93.7268 10.8767 93.8442 11.346C93.9615 11.8007 94.0788 12.1307 94.1962 12.336C94.3428 12.5707 94.4162 12.8787 94.4162 13.26C94.4308 13.6267 94.4602 13.9053 94.5042 14.096C94.5628 14.3307 94.5922 14.4773 94.5922 14.536C94.5922 14.5947 94.5628 14.7267 94.5042 14.932C94.4895 14.976 94.4602 15.0493 94.4162 15.152C94.3868 15.2547 94.3575 15.3427 94.3282 15.416C94.3135 15.4893 94.3062 15.548 94.3062 15.592C94.2622 15.812 94.1082 16.054 93.8442 16.318C93.5802 16.5673 93.3308 16.714 93.0962 16.758C93.0375 16.7727 92.9568 16.78 92.8542 16.78C92.6048 16.78 92.4802 16.5747 92.4802 16.164C92.4802 15.944 92.4435 15.834 92.3702 15.834C92.3262 15.834 92.2382 15.9 92.1062 16.032C92.0035 16.164 91.8788 16.23 91.7322 16.23C91.5708 16.23 91.4022 16.1347 91.2262 15.944C90.9035 15.5773 90.6468 14.8953 90.4562 13.898C90.3095 13.1793 90.1628 11.7347 90.0162 9.564C90.0015 9.432 89.9942 9.21933 89.9942 8.926C89.9942 8.442 90.0162 8.03867 90.0602 7.716C90.1188 7.21733 90.1482 6.95333 90.1482 6.924C90.1482 6.73333 90.0602 6.638 89.8842 6.638C89.7375 6.638 89.4662 6.682 89.0702 6.77C88.0288 6.99 87.2002 7.1 86.5842 7.1C86.4375 7.1 86.3202 7.08533 86.2322 7.056C86.1002 6.99733 86.0342 6.87267 86.0342 6.682C86.0342 6.49133 86.0048 6.396 85.9462 6.396C85.8728 6.396 85.7702 6.34467 85.6382 6.242C85.5355 6.16867 85.4842 6.11733 85.4842 6.088C85.4988 6.05867 85.5648 6 85.6822 5.912C85.7995 5.83867 85.8582 5.78 85.8582 5.736C85.8728 5.692 85.8362 5.61867 85.7482 5.516C85.6748 5.44267 85.6382 5.35467 85.6382 5.252C85.6382 5.032 85.7628 4.922 86.0122 4.922C86.1735 4.922 86.2982 4.86333 86.3862 4.746C86.5328 4.55533 86.9582 4.37933 87.6622 4.218C88.1902 4.10067 89.2608 3.77067 90.8742 3.228C92.4875 2.67067 93.5142 2.326 93.9542 2.194C94.6435 1.974 95.0322 1.842 95.1202 1.798ZM112.548 3.096C112.768 2.81733 112.944 2.678 113.076 2.678C113.223 2.678 113.487 2.854 113.868 3.206C114.264 3.54333 114.565 3.866 114.77 4.174C114.99 4.526 115.181 4.944 115.342 5.428C115.503 5.89733 115.584 6.27133 115.584 6.55C115.584 6.69667 115.562 6.792 115.518 6.836C115.445 6.90933 115.335 6.946 115.188 6.946C115.071 6.946 114.939 6.98267 114.792 7.056C114.675 7.12933 114.741 7.276 114.99 7.496C115.225 7.68667 115.342 7.92867 115.342 8.222C115.342 8.38333 115.291 8.69133 115.188 9.146C114.807 10.7887 114.117 12.0867 113.12 13.04C112.636 13.5093 112.203 13.8393 111.822 14.03C111.441 14.2207 110.971 14.3307 110.414 14.36C110.267 14.3747 110.091 14.382 109.886 14.382C109.563 14.382 109.241 14.3013 108.918 14.14C107.921 13.6853 107.246 12.93 106.894 11.874C106.542 10.8033 106.366 8.99933 106.366 6.462C106.366 4.98067 106.403 4.108 106.476 3.844C106.549 3.59467 106.63 3.47 106.718 3.47C106.747 3.47 106.821 3.48467 106.938 3.514C107.231 3.57267 107.495 3.602 107.73 3.602C107.95 3.602 108.207 3.57267 108.5 3.514C108.647 3.48467 108.742 3.48467 108.786 3.514C108.845 3.54333 108.903 3.63867 108.962 3.8C109.079 4.07867 109.167 4.80467 109.226 5.978C109.343 7.97267 109.468 9.35133 109.6 10.114C109.732 10.8767 109.923 11.2727 110.172 11.302H110.26C110.685 11.302 111.089 10.928 111.47 10.18C111.866 9.432 112.093 8.58867 112.152 7.65C112.152 7.57667 112.152 7.48867 112.152 7.386C112.167 7.26867 112.174 7.188 112.174 7.144C112.174 6.76267 112.101 6.33 111.954 5.846C111.793 5.30333 111.653 4.92933 111.536 4.724C111.477 4.62133 111.448 4.54067 111.448 4.482C111.448 4.40867 111.565 4.23267 111.8 3.954C112.137 3.57267 112.387 3.28667 112.548 3.096ZM124.196 0.983999C124.475 0.910666 124.805 0.873999 125.186 0.873999C126.213 0.873999 126.917 1.10133 127.298 1.556C127.636 1.952 127.819 2.38467 127.848 2.854C127.863 3.14733 127.797 3.33067 127.65 3.404C127.386 3.52133 127.364 3.66067 127.584 3.822C127.658 3.88067 127.694 3.96133 127.694 4.064C127.694 4.21067 127.614 4.32067 127.452 4.394C127.306 4.42333 127.122 4.328 126.902 4.108C126.697 3.91733 126.55 3.822 126.462 3.822C126.448 3.822 126.396 3.83667 126.308 3.866C126.147 3.96867 126.008 3.92467 125.89 3.734C125.773 3.558 125.619 3.47 125.428 3.47C125.223 3.47 124.878 3.58 124.394 3.8C124.013 3.976 123.668 4.18867 123.36 4.438C123.052 4.68733 122.898 4.878 122.898 5.01C122.898 5.23 123.412 5.55267 124.438 5.978C125.025 6.242 125.34 6.38867 125.384 6.418C125.472 6.47667 125.656 6.55733 125.934 6.66C126.448 6.85067 127.056 7.15133 127.76 7.562C128.464 7.958 128.816 8.20733 128.816 8.31C128.816 8.36867 129.007 8.58867 129.388 8.97C129.784 9.33667 130.063 9.71067 130.224 10.092C130.371 10.4293 130.444 10.73 130.444 10.994C130.444 11.17 130.437 11.3167 130.422 11.434C130.334 12.49 129.836 13.282 128.926 13.81C128.193 14.2647 127.181 14.492 125.89 14.492C124.497 14.492 123.082 14.2207 121.644 13.678C121.19 13.5167 120.801 13.3847 120.478 13.282C120.126 13.194 119.767 12.93 119.4 12.49C119.034 12.05 118.85 11.6613 118.85 11.324C118.85 11.2067 119.18 10.9867 119.84 10.664C120.339 10.4147 120.662 10.29 120.808 10.29C120.896 10.29 120.962 10.3267 121.006 10.4C121.109 10.5467 121.483 10.686 122.128 10.818C122.774 10.9353 123.529 11.016 124.394 11.06C124.952 11.0893 125.311 11.104 125.472 11.104C126.191 11.104 126.55 11.0307 126.55 10.884C126.55 10.8693 126.536 10.8473 126.506 10.818C126.154 10.4073 125.098 9.828 123.338 9.08C123.045 8.96267 122.583 8.67667 121.952 8.222C121.322 7.75267 120.845 7.35667 120.522 7.034C120.038 6.55 119.796 5.99267 119.796 5.362C119.796 5.25933 119.811 5.09067 119.84 4.856C119.928 4.38667 120.024 4.042 120.126 3.822C120.405 3.23533 120.933 2.67067 121.71 2.128C122.488 1.58533 123.316 1.204 124.196 0.983999Z" fill="#4CAF50"/>
</svg>

