<svg width="32" height="23" viewBox="0 0 32 23" fill="none" xmlns="http://www.w3.org/2000/svg">
<g clip-path="url(#clip0_669_1171)">
<path d="M31.6881 8.69727C31.5992 8.62299 30.7978 8.01349 29.0761 8.01349C28.6307 8.01349 28.1706 8.05824 27.7257 8.13252C27.3991 5.85785 25.5144 4.75743 25.4402 4.69836L24.9801 4.43076L24.6835 4.8617C24.3123 5.44167 24.0304 6.09548 23.8673 6.76494C23.5555 8.05824 23.7485 9.27769 24.4016 10.3181C23.6149 10.7643 22.3386 10.8681 22.0715 10.8829H0.996072C0.447051 10.8829 0.00166975 11.3291 0.00166975 11.879C-0.0278139 13.7228 0.283551 15.566 0.921916 17.3055C1.64918 19.2087 2.73248 20.6211 4.12759 21.4834C5.70094 22.4496 8.26825 23 11.1626 23C12.4688 23 13.7745 22.881 15.066 22.6433C16.8618 22.3162 18.5835 21.6919 20.1716 20.7848C21.4778 20.0268 22.65 19.0602 23.6444 17.9302C25.3214 16.0422 26.3158 13.9309 27.0431 12.0576H27.3397C29.165 12.0576 30.293 11.3291 30.9166 10.7048C31.332 10.3181 31.6439 9.84244 31.8663 9.30722L31.9999 8.92058L31.6881 8.69772V8.69727Z" fill="#616161"/>
<path d="M2.95552 10.2734H5.77523C5.9088 10.2734 6.02763 10.1691 6.02763 10.0205V7.49303C6.02763 7.35923 5.92354 7.24019 5.77523 7.24019H2.95552C2.82195 7.24019 2.70312 7.34446 2.70312 7.49303V10.0205C2.71787 10.1691 2.82195 10.2734 2.95552 10.2734ZM6.84379 10.2734H9.66349C9.79706 10.2734 9.91589 10.1691 9.91589 10.0205V7.49303C9.91589 7.35923 9.8118 7.24019 9.66349 7.24019H6.84379C6.71022 7.24019 6.59139 7.34446 6.59139 7.49303V10.0205C6.60613 10.1691 6.71022 10.2734 6.84379 10.2734ZM10.8067 10.2734H13.6264C13.7599 10.2734 13.8788 10.1691 13.8788 10.0205V7.49303C13.8788 7.35923 13.7747 7.24019 13.6264 7.24019H10.8067C10.6731 7.24019 10.5543 7.34446 10.5543 7.49303V10.0205C10.5543 10.1691 10.6583 10.2734 10.8067 10.2734ZM14.7101 10.2734H17.5298C17.6634 10.2734 17.7822 10.1691 17.7822 10.0205V7.49303C17.7822 7.35923 17.6781 7.24019 17.5298 7.24019H14.7101C14.5765 7.24019 14.4577 7.34446 14.4577 7.49303V10.0205C14.4577 10.1691 14.5765 10.2734 14.7101 10.2734ZM6.84423 6.66067H9.66394C9.79751 6.66067 9.91634 6.54164 9.91634 6.40783V3.88032C9.91634 3.74652 9.81225 3.62748 9.66394 3.62748H6.84423C6.71066 3.62748 6.59184 3.73175 6.59184 3.88032V6.40783C6.60658 6.54164 6.71066 6.66067 6.84423 6.66067ZM10.8071 6.66067H13.6268C13.7604 6.66067 13.8792 6.54164 13.8792 6.40783V3.88032C13.8792 3.74652 13.7751 3.62748 13.6268 3.62748H10.8071C10.6735 3.62748 10.5547 3.73175 10.5547 3.88032V6.40783C10.5547 6.54164 10.6588 6.66067 10.8071 6.66067ZM14.7106 6.66067H17.5303C17.6638 6.66067 17.7827 6.54164 17.7827 6.40783V3.88032C17.7827 3.74652 17.6638 3.62748 17.5303 3.62748H14.7106C14.577 3.62748 14.4582 3.73175 14.4582 3.88032V6.40783C14.4582 6.54164 14.577 6.66067 14.7106 6.66067ZM14.7106 3.03319H17.5303C17.6638 3.03319 17.7827 2.92892 17.7827 2.78035V0.252841C17.7827 0.119037 17.6638 0 17.5303 0H14.7106C14.577 0 14.4582 0.104269 14.4582 0.252841V2.78035C14.4582 2.91416 14.577 3.03319 14.7106 3.03319ZM18.6435 10.2738H21.4632C21.5968 10.2738 21.7156 10.1696 21.7156 10.021V7.49348C21.7156 7.35968 21.6115 7.24064 21.4632 7.24064H18.6435C18.5099 7.24064 18.3911 7.34491 18.3911 7.49348V10.021C18.4058 10.1696 18.5099 10.2738 18.6435 10.2738Z" fill="#616161"/>
</g>
<defs>
<clipPath id="clip0_669_1171">
<rect width="32" height="23" fill="white"/>
</clipPath>
</defs>
</svg>

