<svg width="277" height="164" viewBox="0 0 277 164" fill="none" xmlns="http://www.w3.org/2000/svg">
<path d="M39.1328 10.5213C41.1608 10.5213 41.7968 8.45728 41.7968 6.23728C41.7968 4.01728 41.1368 1.91728 39.0488 1.91728C36.7568 1.91728 36.3848 4.30528 36.3848 6.22528C36.3848 8.14528 36.7808 10.5213 39.1328 10.5213ZM39.1088 9.53728C37.6448 9.53728 37.4408 7.85728 37.4408 6.22528C37.4408 4.55728 37.6448 2.90128 39.0488 2.90128C40.4288 2.90128 40.6808 4.46128 40.6808 6.22528C40.6808 7.92928 40.4408 9.53728 39.1088 9.53728ZM44.1857 6.15328H45.4217V4.74928H44.1857V6.15328ZM44.1857 10.4013H45.4217V8.99728H44.1857V10.4013ZM53.9687 2.03728V2.67327C53.9687 3.18928 53.6927 3.36928 53.2247 3.36928H51.9287V4.31728H53.9687V10.4013H55.0007V2.03728H53.9687ZM59.8736 9.42928C61.7696 8.25328 63.5696 6.51328 63.5696 4.47328C63.5696 2.87728 62.5256 1.91728 61.0256 1.91728C59.2496 1.91728 58.2776 3.26128 58.2776 4.86928L59.2976 4.94128C59.3216 3.82528 59.8136 2.91328 61.0136 2.91328C62.0096 2.91328 62.5256 3.54928 62.5256 4.49728C62.5256 6.63328 59.9336 8.37328 58.1336 9.48928V10.4013H63.9416V9.42928H59.8736ZM68.1066 10.5213C69.7386 10.5213 71.0946 9.62128 71.0946 8.00128C71.0946 6.87328 70.4226 6.12928 69.4866 5.91328C70.1346 5.64928 70.6506 4.98928 70.6506 4.10128C70.6506 2.70928 69.4506 1.91728 68.1066 1.91728C66.6666 1.91728 65.5266 2.81728 65.5266 4.30528L66.5346 4.37728C66.5466 3.44128 67.1946 2.90128 68.1426 2.90128C68.9586 2.90128 69.6186 3.32128 69.6186 4.23328C69.6186 5.14528 68.9106 5.58928 67.7106 5.58928V6.42928C68.7306 6.42928 70.0626 6.57328 70.0626 7.89328C70.0626 8.97328 69.2106 9.53728 68.1306 9.53728C66.9666 9.53728 66.1386 8.90128 66.1386 7.79728L65.1186 7.85728C65.1186 9.59728 66.4386 10.5213 68.1066 10.5213ZM73.2555 10.4013H74.4555V8.99728H73.2555V10.4013ZM79.5298 1.92928C77.9218 1.92928 76.6258 3.16528 76.6258 4.76128C76.6258 6.20128 77.6578 7.35328 79.0618 7.50928C79.4458 7.55728 79.8178 7.52128 80.1658 7.42528L78.3178 10.4013H79.4938L82.0018 6.26128C82.2778 5.81728 82.4458 5.27728 82.4458 4.74928C82.4458 3.16528 81.1258 1.92928 79.5298 1.92928ZM79.5298 6.59728C78.4978 6.59728 77.6698 5.80528 77.6698 4.76128C77.6698 3.71728 78.4978 2.92528 79.5298 2.92528C80.5738 2.92528 81.3898 3.71728 81.3898 4.76128C81.3898 5.80528 80.5618 6.59728 79.5298 6.59728ZM94.5251 2.03728L91.9811 8.46928L89.4371 2.03728H87.8891V10.4013H88.9571V3.46528L91.4651 9.69328H92.5091L94.9931 3.48928V10.4013H96.0731V2.03728H94.5251ZM98.8383 10.4013H101.814C103.53 10.4013 104.514 9.53728 104.514 8.02528C104.514 6.93328 103.998 6.20128 103.026 5.92528C103.698 5.61328 104.07 4.96528 104.07 4.13728C104.07 2.81728 103.134 2.03728 101.526 2.03728H98.8383V10.4013ZM99.9063 5.57728V3.02128H101.526C102.462 3.02128 103.002 3.50128 103.002 4.31728C103.002 5.10928 102.51 5.57728 101.634 5.57728H99.9063ZM99.9063 9.41728V6.53728H101.886C102.882 6.53728 103.434 7.04128 103.434 7.94128C103.434 8.87728 102.822 9.41728 101.742 9.41728H99.9063ZM46.2266 21.0373V21.6733C46.2266 22.1893 45.9506 22.3693 45.4826 22.3693H44.1866V23.3173H46.2266V29.4013H47.2586V21.0373H46.2266ZM51.2795 25.1533H52.5155V23.7493H51.2795V25.1533ZM51.2795 29.4013H52.5155V27.9973H51.2795V29.4013ZM61.0625 21.0373V21.6733C61.0625 22.1893 60.7865 22.3693 60.3185 22.3693H59.0225V23.3173H61.0625V29.4013H62.0945V21.0373H61.0625ZM68.2266 29.5213C70.2546 29.5213 70.8906 27.4573 70.8906 25.2373C70.8906 23.0173 70.2306 20.9173 68.1426 20.9173C65.8506 20.9173 65.4786 23.3053 65.4786 25.2253C65.4786 27.1453 65.8746 29.5213 68.2266 29.5213ZM68.2026 28.5373C66.7386 28.5373 66.5346 26.8573 66.5346 25.2253C66.5346 23.5573 66.7386 21.9013 68.1426 21.9013C69.5226 21.9013 69.7746 23.4613 69.7746 25.2253C69.7746 26.9293 69.5346 28.5373 68.2026 28.5373ZM73.2555 29.4013H74.4555V27.9973H73.2555V29.4013ZM76.5298 21.0373V22.0213H81.2458L77.3938 29.4013H78.5698L82.5298 21.6373V21.0373H76.5298ZM94.5251 21.0373L91.9811 27.4693L89.4371 21.0373H87.8891V29.4013H88.9571V22.4653L91.4651 28.6933H92.5091L94.9931 22.4893V29.4013H96.0731V21.0373H94.5251ZM98.8383 29.4013H101.814C103.53 29.4013 104.514 28.5373 104.514 27.0253C104.514 25.9333 103.998 25.2013 103.026 24.9253C103.698 24.6133 104.07 23.9653 104.07 23.1373C104.07 21.8173 103.134 21.0373 101.526 21.0373H98.8383V29.4013ZM99.9063 24.5773V22.0213H101.526C102.462 22.0213 103.002 22.5013 103.002 23.3173C103.002 24.1093 102.51 24.5773 101.634 24.5773H99.9063ZM99.9063 28.4173V25.5373H101.886C102.882 25.5373 103.434 26.0413 103.434 26.9413C103.434 27.8773 102.822 28.4173 101.742 28.4173H99.9063ZM45.0377 47.4293C46.9337 46.2533 48.7337 44.5133 48.7337 42.4733C48.7337 40.8773 47.6897 39.9173 46.1897 39.9173C44.4137 39.9173 43.4417 41.2613 43.4417 42.8693L44.4617 42.9413C44.4857 41.8253 44.9777 40.9133 46.1777 40.9133C47.1737 40.9133 47.6897 41.5493 47.6897 42.4973C47.6897 44.6333 45.0977 46.3733 43.2977 47.4893V48.4013H49.1057V47.4293H45.0377ZM51.3146 44.1533H52.5506V42.7493H51.3146V44.1533ZM51.3146 48.4013H52.5506V46.9973H51.3146V48.4013ZM61.0976 40.0373V40.6733C61.0976 41.1893 60.8216 41.3693 60.3536 41.3693H59.0576V42.3173H61.0976V48.4013H62.1296V40.0373H61.0976ZM68.1786 48.5093C69.6666 48.5093 71.0826 47.6693 71.0826 46.0013C71.0826 45.0053 70.5666 44.2133 69.6546 43.8533C70.2426 43.5413 70.6506 42.9293 70.6506 42.1493C70.6506 40.7813 69.5106 39.9293 68.1906 39.9293C66.9306 39.9293 65.7066 40.7333 65.7066 42.1133C65.7066 42.9053 66.1026 43.5173 66.7026 43.8533C65.7906 44.2133 65.2626 44.9933 65.2626 46.0013C65.2626 47.6813 66.6906 48.5093 68.1786 48.5093ZM68.1906 43.5533C67.3266 43.5533 66.7386 43.0373 66.7386 42.1973C66.7386 41.4053 67.3866 40.9253 68.1906 40.9253C69.0306 40.9253 69.6306 41.4533 69.6306 42.2213C69.6306 43.0373 69.0306 43.5533 68.1906 43.5533ZM68.1786 47.5253C67.1586 47.5253 66.2946 46.9853 66.2946 45.9173C66.2946 44.8973 67.0746 44.2733 68.1786 44.2733C69.2826 44.2733 70.0626 44.8973 70.0626 45.9173C70.0626 46.9853 69.1986 47.5253 68.1786 47.5253ZM73.2555 48.4013H74.4555V46.9973H73.2555V48.4013ZM79.5298 39.9293C77.9218 39.9293 76.6258 41.1653 76.6258 42.7613C76.6258 44.2013 77.6578 45.3533 79.0618 45.5093C79.4458 45.5573 79.8178 45.5213 80.1658 45.4253L78.3178 48.4013H79.4938L82.0018 44.2613C82.2778 43.8173 82.4458 43.2773 82.4458 42.7493C82.4458 41.1653 81.1258 39.9293 79.5298 39.9293ZM79.5298 44.5973C78.4978 44.5973 77.6698 43.8053 77.6698 42.7613C77.6698 41.7173 78.4978 40.9253 79.5298 40.9253C80.5738 40.9253 81.3898 41.7173 81.3898 42.7613C81.3898 43.8053 80.5618 44.5973 79.5298 44.5973ZM94.5251 40.0373L91.9811 46.4693L89.4371 40.0373H87.8891V48.4013H88.9571V41.4653L91.4651 47.6933H92.5091L94.9931 41.4893V48.4013H96.0731V40.0373H94.5251ZM98.8383 48.4013H101.814C103.53 48.4013 104.514 47.5373 104.514 46.0253C104.514 44.9333 103.998 44.2013 103.026 43.9253C103.698 43.6133 104.07 42.9653 104.07 42.1373C104.07 40.8173 103.134 40.0373 101.526 40.0373H98.8383V48.4013ZM99.9063 43.5773V41.0213H101.526C102.462 41.0213 103.002 41.5013 103.002 42.3173C103.002 43.1093 102.51 43.5773 101.634 43.5773H99.9063ZM99.9063 47.4173V44.5373H101.886C102.882 44.5373 103.434 45.0413 103.434 45.9413C103.434 46.8773 102.822 47.4173 101.742 47.4173H99.9063ZM39.0128 67.5213C40.6448 67.5213 42.0008 66.6213 42.0008 65.0013C42.0008 63.8733 41.3288 63.1293 40.3928 62.9133C41.0408 62.6493 41.5568 61.9893 41.5568 61.1013C41.5568 59.7093 40.3568 58.9173 39.0128 58.9173C37.5728 58.9173 36.4328 59.8173 36.4328 61.3053L37.4408 61.3773C37.4528 60.4413 38.1008 59.9013 39.0488 59.9013C39.8648 59.9013 40.5248 60.3213 40.5248 61.2333C40.5248 62.1453 39.8168 62.5893 38.6168 62.5893V63.4293C39.6368 63.4293 40.9688 63.5733 40.9688 64.8933C40.9688 65.9733 40.1168 66.5373 39.0368 66.5373C37.8728 66.5373 37.0448 65.9013 37.0448 64.7973L36.0248 64.8573C36.0248 66.5973 37.3448 67.5213 39.0128 67.5213ZM44.1857 63.1533H45.4217V61.7493H44.1857V63.1533ZM44.1857 67.4013H45.4217V65.9973H44.1857V67.4013ZM53.9687 59.0373V59.6733C53.9687 60.1893 53.6927 60.3693 53.2247 60.3693H51.9287V61.3173H53.9687V67.4013H55.0007V59.0373H53.9687ZM61.2056 61.7613C60.6896 61.7613 60.1016 61.9053 59.5736 62.3493L59.9936 60.0213H63.5816V59.0373H59.1416L58.3616 63.3813L59.3816 63.6453C59.7536 63.0933 60.3056 62.7213 61.0856 62.7213C62.2376 62.7213 62.8736 63.5493 62.8736 64.5453C62.8736 65.5773 62.1776 66.5133 61.0016 66.5133C59.9456 66.5133 59.2736 65.7813 59.1176 64.8813L58.1096 65.0493C58.3376 66.4173 59.4656 67.5093 61.0136 67.5093C62.7176 67.5093 63.9656 66.1293 63.9656 64.5453C63.9656 63.0093 62.8136 61.7613 61.2056 61.7613ZM68.2266 59.0373V59.6733C68.2266 60.1893 67.9506 60.3693 67.4826 60.3693H66.1866V61.3173H68.2266V67.4013H69.2586V59.0373H68.2266ZM73.2555 67.4013H74.4555V65.9973H73.2555V67.4013ZM79.5298 58.9293C77.9218 58.9293 76.6258 60.1653 76.6258 61.7613C76.6258 63.2013 77.6578 64.3533 79.0618 64.5093C79.4458 64.5573 79.8178 64.5213 80.1658 64.4253L78.3178 67.4013H79.4938L82.0018 63.2613C82.2778 62.8173 82.4458 62.2773 82.4458 61.7493C82.4458 60.1653 81.1258 58.9293 79.5298 58.9293ZM79.5298 63.5973C78.4978 63.5973 77.6698 62.8053 77.6698 61.7613C77.6698 60.7173 78.4978 59.9253 79.5298 59.9253C80.5738 59.9253 81.3898 60.7173 81.3898 61.7613C81.3898 62.8053 80.5618 63.5973 79.5298 63.5973ZM94.5251 59.0373L91.9811 65.4693L89.4371 59.0373H87.8891V67.4013H88.9571V60.4653L91.4651 66.6933H92.5091L94.9931 60.4893V67.4013H96.0731V59.0373H94.5251ZM98.8383 67.4013H101.814C103.53 67.4013 104.514 66.5373 104.514 65.0253C104.514 63.9333 103.998 63.2013 103.026 62.9253C103.698 62.6133 104.07 61.9653 104.07 61.1373C104.07 59.8173 103.134 59.0373 101.526 59.0373H98.8383V67.4013ZM99.9063 62.5773V60.0213H101.526C102.462 60.0213 103.002 60.5013 103.002 61.3173C103.002 62.1093 102.51 62.5773 101.634 62.5773H99.9063ZM99.9063 66.4173V63.5373H101.886C102.882 63.5373 103.434 64.0413 103.434 64.9413C103.434 65.8773 102.822 66.4173 101.742 66.4173H99.9063ZM40.9688 83.4253V78.0373H40.0328L35.8328 83.7733V84.4213H39.9368V86.4013H40.9688V84.4213H42.3128V83.4253H40.9688ZM37.1768 83.4253L39.9368 79.5493V83.4253H37.1768ZM44.1857 82.1533H45.4217V80.7493H44.1857V82.1533ZM44.1857 86.4013H45.4217V84.9973H44.1857V86.4013ZM54.0767 80.7613C53.5607 80.7613 52.9727 80.9053 52.4447 81.3493L52.8647 79.0213H56.4527V78.0373H52.0127L51.2327 82.3813L52.2527 82.6453C52.6247 82.0933 53.1767 81.7213 53.9567 81.7213C55.1087 81.7213 55.7447 82.5493 55.7447 83.5453C55.7447 84.5773 55.0487 85.5133 53.8727 85.5133C52.8167 85.5133 52.1447 84.7813 51.9887 83.8813L50.9807 84.0493C51.2087 85.4173 52.3367 86.5093 53.8847 86.5093C55.5887 86.5093 56.8367 85.1293 56.8367 83.5453C56.8367 82.0093 55.6847 80.7613 54.0767 80.7613ZM59.8736 85.4293C61.7696 84.2533 63.5696 82.5133 63.5696 80.4733C63.5696 78.8773 62.5256 77.9173 61.0256 77.9173C59.2496 77.9173 58.2776 79.2613 58.2776 80.8693L59.2976 80.9413C59.3216 79.8253 59.8136 78.9133 61.0136 78.9133C62.0096 78.9133 62.5256 79.5493 62.5256 80.4973C62.5256 82.6333 59.9336 84.3733 58.1336 85.4893V86.4013H63.9416V85.4293H59.8736ZM68.1786 86.5093C69.6666 86.5093 71.0826 85.6693 71.0826 84.0013C71.0826 83.0053 70.5666 82.2133 69.6546 81.8533C70.2426 81.5413 70.6506 80.9293 70.6506 80.1493C70.6506 78.7813 69.5106 77.9293 68.1906 77.9293C66.9306 77.9293 65.7066 78.7333 65.7066 80.1133C65.7066 80.9053 66.1026 81.5173 66.7026 81.8533C65.7906 82.2133 65.2626 82.9933 65.2626 84.0013C65.2626 85.6813 66.6906 86.5093 68.1786 86.5093ZM68.1906 81.5533C67.3266 81.5533 66.7386 81.0373 66.7386 80.1973C66.7386 79.4053 67.3866 78.9253 68.1906 78.9253C69.0306 78.9253 69.6306 79.4533 69.6306 80.2213C69.6306 81.0373 69.0306 81.5533 68.1906 81.5533ZM68.1786 85.5253C67.1586 85.5253 66.2946 84.9853 66.2946 83.9173C66.2946 82.8973 67.0746 82.2733 68.1786 82.2733C69.2826 82.2733 70.0626 82.8973 70.0626 83.9173C70.0626 84.9853 69.1986 85.5253 68.1786 85.5253ZM73.2555 86.4013H74.4555V84.9973H73.2555V86.4013ZM81.4258 83.4253V78.0373H80.4898L76.2898 83.7733V84.4213H80.3938V86.4013H81.4258V84.4213H82.7698V83.4253H81.4258ZM77.6338 83.4253L80.3938 79.5493V83.4253H77.6338ZM94.5251 78.0373L91.9811 84.4693L89.4371 78.0373H87.8891V86.4013H88.9571V79.4653L91.4651 85.6933H92.5091L94.9931 79.4893V86.4013H96.0731V78.0373H94.5251ZM98.8383 86.4013H101.814C103.53 86.4013 104.514 85.5373 104.514 84.0253C104.514 82.9333 103.998 82.2013 103.026 81.9253C103.698 81.6133 104.07 80.9653 104.07 80.1373C104.07 78.8173 103.134 78.0373 101.526 78.0373H98.8383V86.4013ZM99.9063 81.5773V79.0213H101.526C102.462 79.0213 103.002 79.5013 103.002 80.3173C103.002 81.1093 102.51 81.5773 101.634 81.5773H99.9063ZM99.9063 85.4173V82.5373H101.886C102.882 82.5373 103.434 83.0413 103.434 83.9413C103.434 84.8773 102.822 85.4173 101.742 85.4173H99.9063ZM53.4986 99.7613C52.9826 99.7613 52.3946 99.9053 51.8666 100.349L52.2866 98.0213H55.8746V97.0373H51.4346L50.6546 101.381L51.6746 101.645C52.0466 101.093 52.5986 100.721 53.3786 100.721C54.5306 100.721 55.1666 101.549 55.1666 102.545C55.1666 103.577 54.4706 104.513 53.2946 104.513C52.2386 104.513 51.5666 103.781 51.4106 102.881L50.4026 103.049C50.6306 104.417 51.7586 105.509 53.3066 105.509C55.0106 105.509 56.2586 104.129 56.2586 102.545C56.2586 101.009 55.1066 99.7613 53.4986 99.7613ZM58.4435 101.153H59.6795V99.7493H58.4435V101.153ZM58.4435 105.401H59.6795V103.997H58.4435V105.401ZM68.2266 105.521C70.2546 105.521 70.8906 103.457 70.8906 101.237C70.8906 99.0173 70.2306 96.9173 68.1426 96.9173C65.8506 96.9173 65.4786 99.3053 65.4786 101.225C65.4786 103.145 65.8746 105.521 68.2266 105.521ZM68.2026 104.537C66.7386 104.537 66.5346 102.857 66.5346 101.225C66.5346 99.5573 66.7386 97.9013 68.1426 97.9013C69.5226 97.9013 69.7746 99.4613 69.7746 101.225C69.7746 102.929 69.5346 104.537 68.2026 104.537ZM73.2555 105.401H74.4555V103.997H73.2555V105.401ZM79.4698 105.521C81.1018 105.521 82.4578 104.621 82.4578 103.001C82.4578 101.873 81.7858 101.129 80.8498 100.913C81.4978 100.649 82.0138 99.9893 82.0138 99.1013C82.0138 97.7093 80.8138 96.9173 79.4698 96.9173C78.0298 96.9173 76.8898 97.8173 76.8898 99.3053L77.8978 99.3773C77.9098 98.4413 78.5578 97.9013 79.5058 97.9013C80.3218 97.9013 80.9818 98.3213 80.9818 99.2333C80.9818 100.145 80.2738 100.589 79.0738 100.589V101.429C80.0938 101.429 81.4258 101.573 81.4258 102.893C81.4258 103.973 80.5738 104.537 79.4938 104.537C78.3298 104.537 77.5018 103.901 77.5018 102.797L76.4818 102.857C76.4818 104.597 77.8018 105.521 79.4698 105.521ZM94.5251 97.0373L91.9811 103.469L89.4371 97.0373H87.8891V105.401H88.9571V98.4653L91.4651 104.693H92.5091L94.9931 98.4893V105.401H96.0731V97.0373H94.5251ZM98.8383 105.401H101.814C103.53 105.401 104.514 104.537 104.514 103.025C104.514 101.933 103.998 101.201 103.026 100.925C103.698 100.613 104.07 99.9653 104.07 99.1373C104.07 97.8173 103.134 97.0373 101.526 97.0373H98.8383V105.401ZM99.9063 100.577V98.0213H101.526C102.462 98.0213 103.002 98.5013 103.002 99.3173C103.002 100.109 102.51 100.577 101.634 100.577H99.9063ZM99.9063 104.417V101.537H101.886C102.882 101.537 103.434 102.041 103.434 102.941C103.434 103.877 102.822 104.417 101.742 104.417H99.9063ZM39.5528 118.929C39.1808 118.881 38.7968 118.917 38.4488 119.013L40.3088 116.037H39.1328L36.6248 120.177C36.3488 120.621 36.1808 121.161 36.1808 121.689C36.1808 123.273 37.4888 124.509 39.0968 124.509C40.6928 124.509 42.0008 123.273 42.0008 121.677C42.0008 120.237 40.9688 119.085 39.5528 118.929ZM39.0968 123.513C38.0528 123.513 37.2248 122.721 37.2248 121.677C37.2248 120.633 38.0648 119.841 39.0968 119.841C40.1168 119.841 40.9568 120.633 40.9568 121.677C40.9568 122.721 40.1168 123.513 39.0968 123.513ZM44.1857 120.153H45.4217V118.749H44.1857V120.153ZM44.1857 124.401H45.4217V122.997H44.1857V124.401ZM53.9687 116.037V116.673C53.9687 117.189 53.6927 117.369 53.2247 117.369H51.9287V118.317H53.9687V124.401H55.0007V116.037H53.9687ZM61.2056 118.761C60.6896 118.761 60.1016 118.905 59.5736 119.349L59.9936 117.021H63.5816V116.037H59.1416L58.3616 120.381L59.3816 120.645C59.7536 120.093 60.3056 119.721 61.0856 119.721C62.2376 119.721 62.8736 120.549 62.8736 121.545C62.8736 122.577 62.1776 123.513 61.0016 123.513C59.9456 123.513 59.2736 122.781 59.1176 121.881L58.1096 122.049C58.3376 123.417 59.4656 124.509 61.0136 124.509C62.7176 124.509 63.9656 123.129 63.9656 121.545C63.9656 120.009 62.8136 118.761 61.2056 118.761ZM68.2266 124.521C70.2546 124.521 70.8906 122.457 70.8906 120.237C70.8906 118.017 70.2306 115.917 68.1426 115.917C65.8506 115.917 65.4786 118.305 65.4786 120.225C65.4786 122.145 65.8746 124.521 68.2266 124.521ZM68.2026 123.537C66.7386 123.537 66.5346 121.857 66.5346 120.225C66.5346 118.557 66.7386 116.901 68.1426 116.901C69.5226 116.901 69.7746 118.461 69.7746 120.225C69.7746 121.929 69.5346 123.537 68.2026 123.537ZM73.2555 124.401H74.4555V122.997H73.2555V124.401ZM79.5298 115.929C77.9218 115.929 76.6258 117.165 76.6258 118.761C76.6258 120.201 77.6578 121.353 79.0618 121.509C79.4458 121.557 79.8178 121.521 80.1658 121.425L78.3178 124.401H79.4938L82.0018 120.261C82.2778 119.817 82.4458 119.277 82.4458 118.749C82.4458 117.165 81.1258 115.929 79.5298 115.929ZM79.5298 120.597C78.4978 120.597 77.6698 119.805 77.6698 118.761C77.6698 117.717 78.4978 116.925 79.5298 116.925C80.5738 116.925 81.3898 117.717 81.3898 118.761C81.3898 119.805 80.5618 120.597 79.5298 120.597ZM94.5251 116.037L91.9811 122.469L89.4371 116.037H87.8891V124.401H88.9571V117.465L91.4651 123.693H92.5091L94.9931 117.489V124.401H96.0731V116.037H94.5251ZM98.8383 124.401H101.814C103.53 124.401 104.514 123.537 104.514 122.025C104.514 120.933 103.998 120.201 103.026 119.925C103.698 119.613 104.07 118.965 104.07 118.137C104.07 116.817 103.134 116.037 101.526 116.037H98.8383V124.401ZM99.9063 119.577V117.021H101.526C102.462 117.021 103.002 117.501 103.002 118.317C103.002 119.109 102.51 119.577 101.634 119.577H99.9063ZM99.9063 123.417V120.537H101.886C102.882 120.537 103.434 121.041 103.434 121.941C103.434 122.877 102.822 123.417 101.742 123.417H99.9063ZM50.565 135.037V136.021H55.281L51.429 143.401H52.605L56.565 135.637V135.037H50.565ZM58.4435 139.153H59.6795V137.749H58.4435V139.153ZM58.4435 143.401H59.6795V141.997H58.4435V143.401ZM65.1666 135.037V136.021H69.8826L66.0306 143.401H67.2066L71.1666 135.637V135.037H65.1666ZM73.2555 143.401H74.4555V141.997H73.2555V143.401ZM80.0098 137.929C79.6378 137.881 79.2538 137.917 78.9058 138.013L80.7658 135.037H79.5898L77.0818 139.177C76.8058 139.621 76.6378 140.161 76.6378 140.689C76.6378 142.273 77.9458 143.509 79.5538 143.509C81.1498 143.509 82.4578 142.273 82.4578 140.677C82.4578 139.237 81.4258 138.085 80.0098 137.929ZM79.5538 142.513C78.5098 142.513 77.6818 141.721 77.6818 140.677C77.6818 139.633 78.5218 138.841 79.5538 138.841C80.5738 138.841 81.4138 139.633 81.4138 140.677C81.4138 141.721 80.5738 142.513 79.5538 142.513ZM94.5251 135.037L91.9811 141.469L89.4371 135.037H87.8891V143.401H88.9571V136.465L91.4651 142.693H92.5091L94.9931 136.489V143.401H96.0731V135.037H94.5251ZM98.8383 143.401H101.814C103.53 143.401 104.514 142.537 104.514 141.025C104.514 139.933 103.998 139.201 103.026 138.925C103.698 138.613 104.07 137.965 104.07 137.137C104.07 135.817 103.134 135.037 101.526 135.037H98.8383V143.401ZM99.9063 138.577V136.021H101.526C102.462 136.021 103.002 136.501 103.002 137.317C103.002 138.109 102.51 138.577 101.634 138.577H99.9063ZM99.9063 142.417V139.537H101.886C102.882 139.537 103.434 140.041 103.434 140.941C103.434 141.877 102.822 142.417 101.742 142.417H99.9063ZM53.3426 162.509C54.8306 162.509 56.2466 161.669 56.2466 160.001C56.2466 159.005 55.7306 158.213 54.8186 157.853C55.4066 157.541 55.8146 156.929 55.8146 156.149C55.8146 154.781 54.6746 153.929 53.3546 153.929C52.0946 153.929 50.8706 154.733 50.8706 156.113C50.8706 156.905 51.2666 157.517 51.8666 157.853C50.9546 158.213 50.4266 158.993 50.4266 160.001C50.4266 161.681 51.8546 162.509 53.3426 162.509ZM53.3546 157.553C52.4906 157.553 51.9026 157.037 51.9026 156.197C51.9026 155.405 52.5506 154.925 53.3546 154.925C54.1946 154.925 54.7946 155.453 54.7946 156.221C54.7946 157.037 54.1946 157.553 53.3546 157.553ZM53.3426 161.525C52.3226 161.525 51.4586 160.985 51.4586 159.917C51.4586 158.897 52.2386 158.273 53.3426 158.273C54.4466 158.273 55.2266 158.897 55.2266 159.917C55.2266 160.985 54.3626 161.525 53.3426 161.525ZM58.4435 158.153H59.6795V156.749H58.4435V158.153ZM58.4435 162.401H59.6795V160.997H58.4435V162.401ZM68.2266 162.521C70.2546 162.521 70.8906 160.457 70.8906 158.237C70.8906 156.017 70.2306 153.917 68.1426 153.917C65.8506 153.917 65.4786 156.305 65.4786 158.225C65.4786 160.145 65.8746 162.521 68.2266 162.521ZM68.2026 161.537C66.7386 161.537 66.5346 159.857 66.5346 158.225C66.5346 156.557 66.7386 154.901 68.1426 154.901C69.5226 154.901 69.7746 156.461 69.7746 158.225C69.7746 159.929 69.5346 161.537 68.2026 161.537ZM73.2555 162.401H74.4555V160.997H73.2555V162.401ZM79.5898 162.521C81.6178 162.521 82.2538 160.457 82.2538 158.237C82.2538 156.017 81.5938 153.917 79.5058 153.917C77.2138 153.917 76.8418 156.305 76.8418 158.225C76.8418 160.145 77.2378 162.521 79.5898 162.521ZM79.5658 161.537C78.1018 161.537 77.8978 159.857 77.8978 158.225C77.8978 156.557 78.1018 154.901 79.5058 154.901C80.8858 154.901 81.1378 156.461 81.1378 158.225C81.1378 159.929 80.8978 161.537 79.5658 161.537ZM94.5251 154.037L91.9811 160.469L89.4371 154.037H87.8891V162.401H88.9571V155.465L91.4651 161.693H92.5091L94.9931 155.489V162.401H96.0731V154.037H94.5251ZM98.8383 162.401H101.814C103.53 162.401 104.514 161.537 104.514 160.025C104.514 158.933 103.998 158.201 103.026 157.925C103.698 157.613 104.07 156.965 104.07 156.137C104.07 154.817 103.134 154.037 101.526 154.037H98.8383V162.401ZM99.9063 157.577V155.021H101.526C102.462 155.021 103.002 155.501 103.002 156.317C103.002 157.109 102.51 157.577 101.634 157.577H99.9063ZM99.9063 161.417V158.537H101.886C102.882 158.537 103.434 159.041 103.434 159.941C103.434 160.877 102.822 161.417 101.742 161.417H99.9063Z" fill="black"/>
<line x1="109" y1="15.8751" x2="276.165" y2="15.875" stroke="#616161" stroke-width="0.25"/>
<line x1="109.382" y1="34.8442" x2="276.547" y2="34.8442" stroke="#616161" stroke-width="0.25"/>
<line x1="109" y1="52.875" x2="276.165" y2="52.875" stroke="#616161" stroke-width="0.25"/>
<line x1="109" y1="72.875" x2="276.165" y2="72.875" stroke="#616161" stroke-width="0.25"/>
<line x1="109" y1="111.875" x2="276.165" y2="111.875" stroke="#616161" stroke-width="0.25"/>
<line x1="109" y1="91.875" x2="276.165" y2="91.875" stroke="#616161" stroke-width="0.25"/>
<line x1="109" y1="129.875" x2="276.165" y2="129.875" stroke="#616161" stroke-width="0.25"/>
<line x1="109" y1="148.875" x2="276.165" y2="148.875" stroke="#616161" stroke-width="0.25"/>
<rect x="109" y="20" width="2.90722" height="10.8025" fill="#FF9900"/>
<rect x="109" y="152" width="22" height="12" fill="#FF8D7E"/>
<rect x="109" y="133" width="1" height="12" fill="#FF9900"/>
<rect x="109" y="115" width="1.45361" height="10.8025" fill="#67AC5B"/>
<rect x="109" y="77" width="94.4845" height="10.8025" fill="#FF8D7E"/>
<rect x="109" y="58" width="33.433" height="10.8025" fill="#1F6BF1"/>
<rect x="109" y="96" width="33.433" height="10.8025" fill="#1F6BF1"/>
<rect x="109" y="39" width="4.36083" height="10.8025" fill="#FFDA7E"/>
<rect x="109" y="2.00003" width="21.8041" height="10.8025" fill="#1F6BF1"/>
</svg>
