<svg width="309" height="146" viewBox="0 0 309 146" fill="none" xmlns="http://www.w3.org/2000/svg">
<path d="M23.0504 13.144C25.0544 13.144 26.1224 12.04 26.1224 9.916V4.636H25.0544V9.844C25.0544 11.404 24.4424 12.1 23.0504 12.1C21.6704 12.1 21.0584 11.416 21.0584 9.868V4.636H19.9904V9.976C19.9904 12.052 21.0584 13.144 23.0504 13.144ZM31.3462 6.976C30.5422 6.976 29.8462 7.312 29.4502 7.888V7.084H28.4182V13H29.4502V10.444C29.4502 8.98 29.8822 7.888 31.0702 7.888C32.0302 7.888 32.3062 8.584 32.3062 9.568V13H33.3382V9.316C33.3382 7.792 32.6422 6.976 31.3462 6.976ZM35.465 13H36.497V11.26L37.709 9.964L39.665 13H40.889L38.417 9.328L40.577 7.084H39.197L36.497 9.976V4.636H35.465V13ZM45.1938 6.976C44.3898 6.976 43.6938 7.312 43.2978 7.888V7.084H42.2658V13H43.2978V10.444C43.2978 8.98 43.7298 7.888 44.9178 7.888C45.8778 7.888 46.1538 8.584 46.1538 9.568V13H47.1858V9.316C47.1858 7.792 46.4898 6.976 45.1938 6.976ZM51.6647 13.108C53.4047 13.108 54.5567 11.752 54.5567 10.036C54.5567 8.308 53.3927 6.976 51.6647 6.976C49.9247 6.976 48.7967 8.308 48.7967 10.036C48.7967 11.764 49.9247 13.108 51.6647 13.108ZM51.6647 12.196C50.4647 12.196 49.8287 11.248 49.8287 10.036C49.8287 8.824 50.4527 7.888 51.6647 7.888C52.8767 7.888 53.5247 8.812 53.5247 10.036C53.5247 11.236 52.8767 12.196 51.6647 12.196ZM57.1563 13H58.1043L59.5563 8.524L60.9963 13H61.9443L63.7083 7.084H62.6043L61.4163 11.428L60.0123 7.084H59.0883L57.6843 11.428L56.4963 7.084H55.3923L57.1563 13ZM68.1391 6.976C67.3351 6.976 66.6391 7.312 66.2431 7.888V7.084H65.2111V13H66.2431V10.444C66.2431 8.98 66.6751 7.888 67.8631 7.888C68.8231 7.888 69.0991 8.584 69.0991 9.568V13H70.1311V9.316C70.1311 7.792 69.4351 6.976 68.1391 6.976ZM34.553 38.144C36.257 38.144 37.529 37.316 38.141 35.756L37.133 35.384C36.701 36.536 35.801 37.124 34.553 37.124C32.765 37.124 31.733 35.912 31.733 33.8C31.733 31.7 32.765 30.512 34.589 30.512C35.849 30.512 36.713 31.064 37.133 32.216L38.117 31.832C37.529 30.284 36.293 29.492 34.589 29.492C32.153 29.492 30.665 31.124 30.665 33.8C30.665 36.5 32.141 38.144 34.553 38.144ZM42.4706 31.976C41.8466 31.976 41.1386 32.252 40.7666 33.008V32.084H39.7346V38H40.7666V34.808C40.7666 33.584 41.3546 32.948 42.2546 32.948C42.5186 32.948 42.7706 33.008 43.0226 33.128L43.5266 32.264C43.1786 32.06 42.8426 31.976 42.4706 31.976ZM44.7761 30.896H45.9281V29.636H44.7761V30.896ZM44.8361 38H45.8681V32.084H44.8361V38ZM50.821 32.924V32.084H49.369V29.912L48.337 30.68V32.084H47.365V32.924H48.337V36.524C48.337 37.64 49.009 38.108 49.861 38.108C50.173 38.108 50.497 38.048 50.821 37.94V37.064C50.557 37.148 50.317 37.196 50.113 37.196C49.645 37.196 49.369 36.956 49.369 36.416V32.924H50.821ZM52.4832 30.896H53.6352V29.636H52.4832V30.896ZM52.5432 38H53.5752V32.084H52.5432V38ZM58.084 38.108C59.188 38.108 60.064 37.508 60.46 36.428L59.512 36.068C59.308 36.776 58.768 37.196 58.072 37.196C56.896 37.196 56.392 36.176 56.392 35.06C56.392 33.944 56.896 32.888 58.072 32.888C58.756 32.888 59.296 33.32 59.536 34.04L60.52 33.644C60.052 32.516 59.164 31.976 58.072 31.976C56.236 31.976 55.336 33.5 55.336 35.06C55.336 36.68 56.296 38.108 58.084 38.108ZM64.2143 31.976C63.1823 31.976 62.3783 32.372 61.7183 33.212L62.4623 33.836C62.9303 33.212 63.4943 32.888 64.1903 32.888C65.0903 32.888 65.5943 33.392 65.5943 34.304V34.544H64.2863C63.2903 34.544 62.7023 34.64 62.2583 34.88C61.7783 35.144 61.5143 35.624 61.5143 36.248C61.5143 37.388 62.3183 38.108 63.5903 38.108C64.4783 38.108 65.1863 37.748 65.6063 37.112L65.6783 38H66.6263V34.304C66.6263 32.84 65.7263 31.976 64.2143 31.976ZM63.8303 37.244C63.0383 37.244 62.5463 36.872 62.5463 36.296C62.5463 35.996 62.6543 35.768 62.8463 35.612C63.0983 35.42 63.5063 35.348 64.4063 35.348H65.5943V35.408C65.5943 36.5 64.8743 37.244 63.8303 37.244ZM69.8908 38.108C70.1548 38.108 70.4668 38.036 70.7428 37.94L70.7308 37.088C70.5628 37.136 70.3708 37.184 70.2028 37.184C69.8548 37.184 69.7108 36.968 69.7108 36.608V29.636H68.6788V36.668C68.6788 37.64 69.1708 38.108 69.8908 38.108ZM46.6545 63H47.7225V59.22H51.8385V63H52.9185V54.636H51.8385V58.224H47.7225V54.636H46.6545V63ZM55.3816 55.896H56.5336V54.636H55.3816V55.896ZM55.4416 63H56.4736V57.084H55.4416V63ZM60.8505 62.22C60.0345 62.1 59.3385 61.968 59.3385 61.416C59.3385 61.2 59.4465 61.032 59.6625 60.912C59.9985 61.092 60.4065 61.188 60.8505 61.188C62.1105 61.188 63.1425 60.372 63.1425 59.124C63.1425 58.716 63.0345 58.344 62.8425 58.032L63.6585 57.36L63.1185 56.7L62.2785 57.42C61.8825 57.144 61.3905 56.976 60.8265 56.976C59.5425 56.976 58.5105 57.84 58.5105 59.076C58.5105 59.592 58.6905 60.06 59.0145 60.42C58.6185 60.708 58.4025 61.068 58.4025 61.572C58.4025 62.172 58.7145 62.52 59.1585 62.736L58.2225 63.444C58.2105 63.516 58.1985 63.588 58.1985 63.708C58.1985 64.908 59.2065 65.556 60.8865 65.556C62.4105 65.556 63.4785 65.028 63.4785 63.876C63.4785 62.544 62.0385 62.388 60.8505 62.22ZM60.8385 57.84C61.6185 57.84 62.1105 58.356 62.1105 59.1C62.1105 59.808 61.6425 60.348 60.8385 60.348C60.0225 60.348 59.5425 59.796 59.5425 59.1C59.5425 58.356 60.0825 57.84 60.8385 57.84ZM60.9345 64.728C60.0345 64.728 59.2185 64.5 59.2185 63.768C59.2185 63.744 59.2185 63.72 59.2305 63.672L59.9385 62.988C60.1665 63.036 60.4065 63.072 60.6345 63.108C61.5705 63.252 62.4465 63.336 62.4465 63.972C62.4465 64.488 61.8345 64.728 60.9345 64.728ZM68.1511 56.976C67.3231 56.976 66.6391 57.312 66.2431 57.888V54.636H65.2111V63H66.2431V60.396C66.2431 58.74 66.8071 57.888 67.8751 57.888C68.7151 57.888 69.0991 58.416 69.0991 59.568V63H70.1311V59.316C70.1311 57.792 69.4351 56.976 68.1511 56.976ZM33.5601 79.636L31.0161 86.068L28.4721 79.636H26.9241V88H27.9921V81.064L30.5001 87.292H31.5441L34.0281 81.088V88H35.1081V79.636H33.5601ZM42.4336 84.82C42.4336 83.38 41.6296 81.976 39.8176 81.976C38.0176 81.976 37.1296 83.44 37.1296 85.072C37.1296 86.716 38.0296 88.108 39.9136 88.108C40.8496 88.108 41.5696 87.808 42.2416 87.088L41.5336 86.452C41.0296 86.992 40.5256 87.16 39.9256 87.16C38.8336 87.16 38.1976 86.476 38.1616 85.348H42.3976C42.4216 85.192 42.4336 84.988 42.4336 84.82ZM38.1616 84.508C38.2336 83.62 38.7976 82.84 39.8056 82.84C40.8016 82.84 41.4016 83.488 41.4376 84.4C41.4376 84.448 41.4376 84.484 41.4496 84.508H38.1616ZM48.1954 79.636V82.828C47.7874 82.288 47.1034 81.976 46.3234 81.976C44.7394 81.976 43.7314 83.164 43.7314 85.036C43.7314 86.8 44.6314 88.108 46.3234 88.108C47.1034 88.108 47.7754 87.82 48.1954 87.268V88H49.2274V79.636H48.1954ZM46.5154 87.172C45.3514 87.172 44.7634 86.296 44.7634 85.036C44.7634 83.74 45.3994 82.9 46.5154 82.9C47.6554 82.9 48.2794 83.776 48.2794 85.036C48.2794 86.26 47.6914 87.172 46.5154 87.172ZM51.4324 80.896H52.5844V79.636H51.4324V80.896ZM51.4924 88H52.5244V82.084H51.4924V88ZM58.5333 82.084V84.652C58.5333 86.02 58.1373 87.196 56.9013 87.196C55.7853 87.196 55.6773 86.248 55.6773 85.48V82.084H54.6453V85.732C54.6453 87.124 55.2453 88.108 56.6373 88.108C57.3813 88.108 58.1133 87.82 58.5333 87.196V88H59.5653V82.084H58.5333ZM68.1121 81.976C67.2601 81.976 66.5881 82.324 66.1801 83.128C65.8561 82.3 65.2081 81.976 64.4401 81.976C63.8041 81.976 63.2041 82.204 62.8321 82.816V82.084H61.8241L61.8361 88H62.8681V85.348C62.8681 84.064 63.0721 82.888 64.2481 82.888C65.2441 82.888 65.4721 83.8 65.4721 84.604V88H66.5041V85.348C66.5041 84.064 66.6961 82.888 67.9081 82.888C69.0841 82.888 69.1081 84.088 69.1081 84.58V88H70.1401V84.28C70.1401 82.96 69.5281 81.976 68.1121 81.976ZM50.0217 113H54.8337V112.016H51.0897V104.636H50.0217V113ZM58.7116 113.108C60.4516 113.108 61.6036 111.752 61.6036 110.036C61.6036 108.308 60.4396 106.976 58.7116 106.976C56.9716 106.976 55.8436 108.308 55.8436 110.036C55.8436 111.764 56.9716 113.108 58.7116 113.108ZM58.7116 112.196C57.5116 112.196 56.8756 111.248 56.8756 110.036C56.8756 108.824 57.4996 107.888 58.7116 107.888C59.9236 107.888 60.5716 108.812 60.5716 110.036C60.5716 111.236 59.9236 112.196 58.7116 112.196ZM64.2032 113H65.1512L66.6032 108.524L68.0432 113H68.9912L70.7552 107.084H69.6512L68.4632 111.428L67.0592 107.084H66.1352L64.7312 111.428L63.5432 107.084H62.4392L64.2032 113ZM21.6131 129.636V136.152L17.6891 129.636H16.5491V138H17.6171V131.46L21.5291 138H22.6811V129.636H21.6131ZM30.0078 134.82C30.0078 133.38 29.2038 131.976 27.3918 131.976C25.5918 131.976 24.7038 133.44 24.7038 135.072C24.7038 136.716 25.6038 138.108 27.4878 138.108C28.4238 138.108 29.1438 137.808 29.8158 137.088L29.1078 136.452C28.6038 136.992 28.0998 137.16 27.4998 137.16C26.4078 137.16 25.7718 136.476 25.7358 135.348H29.9718C29.9958 135.192 30.0078 134.988 30.0078 134.82ZM25.7358 134.508C25.8078 133.62 26.3718 132.84 27.3798 132.84C28.3758 132.84 28.9758 133.488 29.0118 134.4C29.0118 134.448 29.0118 134.484 29.0238 134.508H25.7358ZM33.8856 137.22C33.0696 137.1 32.3736 136.968 32.3736 136.416C32.3736 136.2 32.4816 136.032 32.6976 135.912C33.0336 136.092 33.4416 136.188 33.8856 136.188C35.1456 136.188 36.1776 135.372 36.1776 134.124C36.1776 133.716 36.0696 133.344 35.8776 133.032L36.6936 132.36L36.1536 131.7L35.3136 132.42C34.9176 132.144 34.4256 131.976 33.8616 131.976C32.5776 131.976 31.5456 132.84 31.5456 134.076C31.5456 134.592 31.7256 135.06 32.0496 135.42C31.6536 135.708 31.4376 136.068 31.4376 136.572C31.4376 137.172 31.7496 137.52 32.1936 137.736L31.2576 138.444C31.2456 138.516 31.2336 138.588 31.2336 138.708C31.2336 139.908 32.2416 140.556 33.9216 140.556C35.4456 140.556 36.5136 140.028 36.5136 138.876C36.5136 137.544 35.0736 137.388 33.8856 137.22ZM33.8736 132.84C34.6536 132.84 35.1456 133.356 35.1456 134.1C35.1456 134.808 34.6776 135.348 33.8736 135.348C33.0576 135.348 32.5776 134.796 32.5776 134.1C32.5776 133.356 33.1176 132.84 33.8736 132.84ZM33.9696 139.728C33.0696 139.728 32.2536 139.5 32.2536 138.768C32.2536 138.744 32.2536 138.72 32.2656 138.672L32.9736 137.988C33.2016 138.036 33.4416 138.072 33.6696 138.108C34.6056 138.252 35.4816 138.336 35.4816 138.972C35.4816 139.488 34.8696 139.728 33.9696 139.728ZM39.4103 138.108C39.6743 138.108 39.9863 138.036 40.2623 137.94L40.2503 137.088C40.0823 137.136 39.8903 137.184 39.7223 137.184C39.3743 137.184 39.2303 136.968 39.2303 136.608V129.636H38.1983V136.668C38.1983 137.64 38.6903 138.108 39.4103 138.108ZM41.7175 130.896H42.8695V129.636H41.7175V130.896ZM41.7775 138H42.8095V132.084H41.7775V138ZM47.1864 137.22C46.3704 137.1 45.6744 136.968 45.6744 136.416C45.6744 136.2 45.7824 136.032 45.9984 135.912C46.3344 136.092 46.7424 136.188 47.1864 136.188C48.4464 136.188 49.4784 135.372 49.4784 134.124C49.4784 133.716 49.3704 133.344 49.1784 133.032L49.9944 132.36L49.4544 131.7L48.6144 132.42C48.2184 132.144 47.7264 131.976 47.1624 131.976C45.8784 131.976 44.8464 132.84 44.8464 134.076C44.8464 134.592 45.0264 135.06 45.3504 135.42C44.9544 135.708 44.7384 136.068 44.7384 136.572C44.7384 137.172 45.0504 137.52 45.4944 137.736L44.5584 138.444C44.5464 138.516 44.5344 138.588 44.5344 138.708C44.5344 139.908 45.5424 140.556 47.2224 140.556C48.7464 140.556 49.8144 140.028 49.8144 138.876C49.8144 137.544 48.3744 137.388 47.1864 137.22ZM47.1744 132.84C47.9544 132.84 48.4464 133.356 48.4464 134.1C48.4464 134.808 47.9784 135.348 47.1744 135.348C46.3584 135.348 45.8784 134.796 45.8784 134.1C45.8784 133.356 46.4184 132.84 47.1744 132.84ZM47.2704 139.728C46.3704 139.728 45.5544 139.5 45.5544 138.768C45.5544 138.744 45.5544 138.72 45.5664 138.672L46.2744 137.988C46.5024 138.036 46.7424 138.072 46.9704 138.108C47.9064 138.252 48.7824 138.336 48.7824 138.972C48.7824 139.488 48.1704 139.728 47.2704 139.728ZM51.4871 130.896H52.6391V129.636H51.4871V130.896ZM51.5471 138H52.5791V132.084H51.5471V138ZM57.7479 131.976C56.9679 131.976 56.2839 132.288 55.8759 132.828V129.636H54.8439V138H55.8759V137.268C56.2959 137.82 56.9679 138.108 57.7479 138.108C59.4399 138.108 60.3399 136.8 60.3399 135.036C60.3399 133.164 59.3319 131.976 57.7479 131.976ZM57.5559 137.172C56.3799 137.172 55.7919 136.26 55.7919 135.036C55.7919 133.776 56.4159 132.9 57.5559 132.9C58.6719 132.9 59.3079 133.74 59.3079 135.036C59.3079 136.296 58.7199 137.172 57.5559 137.172ZM63.3009 138.108C63.5649 138.108 63.8769 138.036 64.1529 137.94L64.1409 137.088C63.9729 137.136 63.7809 137.184 63.6129 137.184C63.2649 137.184 63.1209 136.968 63.1209 136.608V129.636H62.0889V136.668C62.0889 137.64 62.5809 138.108 63.3009 138.108ZM70.4922 134.82C70.4922 133.38 69.6882 131.976 67.8762 131.976C66.0762 131.976 65.1882 133.44 65.1882 135.072C65.1882 136.716 66.0882 138.108 67.9722 138.108C68.9082 138.108 69.6282 137.808 70.3002 137.088L69.5922 136.452C69.0882 136.992 68.5842 137.16 67.9842 137.16C66.8922 137.16 66.2562 136.476 66.2202 135.348H70.4562C70.4802 135.192 70.4922 134.988 70.4922 134.82ZM66.2202 134.508C66.2922 133.62 66.8562 132.84 67.8642 132.84C68.8602 132.84 69.4602 133.488 69.4962 134.4C69.4962 134.448 69.4962 134.484 69.5082 134.508H66.2202Z" fill="black"/>
<line x1="76" y1="0.875031" x2="309" y2="0.875012" stroke="#616161" stroke-width="0.25"/>
<line x1="76" y1="46.875" x2="309" y2="46.875" stroke="#616161" stroke-width="0.25"/>
<line x1="76" y1="95.875" x2="309" y2="95.875" stroke="#616161" stroke-width="0.25"/>
<line x1="76" y1="71.875" x2="309" y2="71.875" stroke="#616161" stroke-width="0.25"/>
<line x1="76" y1="145.875" x2="309" y2="145.875" stroke="#616161" stroke-width="0.25"/>
<line x1="76" y1="121.875" x2="309" y2="121.875" stroke="#616161" stroke-width="0.25"/>
<line x1="76" y1="23.875" x2="309" y2="23.875" stroke="#616161" stroke-width="0.25"/>
<rect x="76" y="5" width="87" height="15" fill="#A23631"/>
<rect x="76" y="126" width="78" height="15" fill="#BCDBC3"/>
<rect x="76" y="101" width="100" height="15" fill="#529E53"/>
<rect x="76" y="76" width="175" height="15" fill="#F7D98F"/>
<rect x="76" y="52" width="125" height="15" fill="#E89486"/>
<rect x="76" y="28" width="43" height="15" fill="#DA3832"/>
</svg>
