<svg width="255" height="142" viewBox="0 0 255 142" fill="none" xmlns="http://www.w3.org/2000/svg">
<path d="M59.7983 4.636L57.2543 11.068L54.7103 4.636H53.1623V13H54.2303V6.064L56.7383 12.292H57.7823L60.2663 6.088V13H61.3463V4.636H59.7983ZM64.1116 13H65.1796V4.636H64.1116V13ZM69.8072 13H70.8872V5.62H73.6952V4.636H66.9992V5.62H69.8072V13ZM56.0082 29.608V30.532H57.9762V30.748C57.9762 32.392 56.8722 33.124 55.4682 33.124C53.5122 33.124 52.5882 31.732 52.5882 29.776C52.5882 27.784 53.5722 26.512 55.4442 26.512C56.7522 26.512 57.5922 27.112 57.9882 28.216L58.9842 27.832C58.4082 26.344 57.1962 25.492 55.4562 25.492C52.9122 25.492 51.5202 27.316 51.5202 29.8C51.5202 32.344 52.9842 34.144 55.3962 34.144C56.5962 34.144 57.5682 33.688 58.0482 32.86L58.1922 34H59.0082V29.608H56.0082ZM61.4748 34H62.5428V30.412H63.9828C65.7708 30.412 66.7668 29.56 66.7668 28C66.7668 26.464 65.7948 25.636 63.9828 25.636H61.4748V34ZM62.5428 29.428V26.62H63.8748C65.0988 26.62 65.6988 27.076 65.6988 28.012C65.6988 28.96 65.0988 29.428 63.8748 29.428H62.5428ZM68.885 34H73.697V33.016H69.953V25.636H68.885V34ZM16.8212 55H17.9972L14.7932 46.636H13.9532L10.7492 55H11.9252L12.6692 52.924H16.0772L16.8212 55ZM13.0172 51.976L14.3732 48.184L15.7292 51.976H13.0172ZM22.4159 48.976C21.6479 48.976 20.9759 49.252 20.5439 49.816V49.084H19.5119V57.448H20.5439V54.256C20.9399 54.784 21.6239 55.108 22.4159 55.108C24.0599 55.108 25.0079 53.86 25.0079 52.036C25.0079 50.212 24.0479 48.976 22.4159 48.976ZM22.2239 54.196C21.0479 54.196 20.4599 53.272 20.4599 52.036C20.4599 50.752 21.0839 49.876 22.2239 49.876C23.3399 49.876 23.9759 50.716 23.9759 52.036C23.9759 53.32 23.3759 54.196 22.2239 54.196ZM28.9409 48.976C27.9089 48.976 27.1049 49.372 26.4449 50.212L27.1889 50.836C27.6569 50.212 28.2209 49.888 28.9169 49.888C29.8169 49.888 30.3209 50.392 30.3209 51.304V51.544H29.0129C28.0169 51.544 27.4289 51.64 26.9849 51.88C26.5049 52.144 26.2409 52.624 26.2409 53.248C26.2409 54.388 27.0449 55.108 28.3169 55.108C29.2049 55.108 29.9129 54.748 30.3329 54.112L30.4049 55H31.3529V51.304C31.3529 49.84 30.4529 48.976 28.9409 48.976ZM28.5569 54.244C27.7649 54.244 27.2729 53.872 27.2729 53.296C27.2729 52.996 27.3809 52.768 27.5729 52.612C27.8249 52.42 28.2329 52.348 29.1329 52.348H30.3209V52.408C30.3209 53.5 29.6009 54.244 28.5569 54.244ZM35.6856 55.108C36.7896 55.108 37.6656 54.508 38.0616 53.428L37.1136 53.068C36.9096 53.776 36.3696 54.196 35.6736 54.196C34.4976 54.196 33.9936 53.176 33.9936 52.06C33.9936 50.944 34.4976 49.888 35.6736 49.888C36.3576 49.888 36.8976 50.32 37.1376 51.04L38.1216 50.644C37.6536 49.516 36.7656 48.976 35.6736 48.976C33.8376 48.976 32.9376 50.5 32.9376 52.06C32.9376 53.68 33.8976 55.108 35.6856 55.108ZM42.6668 48.976C41.8388 48.976 41.1548 49.312 40.7588 49.888V46.636H39.7268V55H40.7588V52.396C40.7588 50.74 41.3228 49.888 42.3908 49.888C43.2308 49.888 43.6148 50.416 43.6148 51.568V55H44.6468V51.316C44.6468 49.792 43.9508 48.976 42.6668 48.976ZM51.5976 51.82C51.5976 50.38 50.7936 48.976 48.9816 48.976C47.1816 48.976 46.2936 50.44 46.2936 52.072C46.2936 53.716 47.1936 55.108 49.0776 55.108C50.0136 55.108 50.7336 54.808 51.4056 54.088L50.6976 53.452C50.1936 53.992 49.6896 54.16 49.0896 54.16C47.9976 54.16 47.3616 53.476 47.3256 52.348H51.5616C51.5856 52.192 51.5976 51.988 51.5976 51.82ZM47.3256 51.508C47.3976 50.62 47.9616 49.84 48.9696 49.84C49.9656 49.84 50.5656 50.488 50.6016 51.4C50.6016 51.448 50.6016 51.484 50.6136 51.508H47.3256ZM58.0258 54.028C59.9218 52.852 61.7218 51.112 61.7218 49.072C61.7218 47.476 60.6778 46.516 59.1778 46.516C57.4018 46.516 56.4298 47.86 56.4298 49.468L57.4498 49.54C57.4738 48.424 57.9658 47.512 59.1658 47.512C60.1618 47.512 60.6778 48.148 60.6778 49.096C60.6778 51.232 58.0858 52.972 56.2858 54.088V55H62.0938V54.028H58.0258ZM64.2787 55H65.4787V53.596H64.2787V55ZM70.6131 55.12C72.6411 55.12 73.2771 53.056 73.2771 50.836C73.2771 48.616 72.6171 46.516 70.5291 46.516C68.2371 46.516 67.8651 48.904 67.8651 50.824C67.8651 52.744 68.2611 55.12 70.6131 55.12ZM70.5891 54.136C69.1251 54.136 68.9211 52.456 68.9211 50.824C68.9211 49.156 69.1251 47.5 70.5291 47.5C71.9091 47.5 72.1611 49.06 72.1611 50.824C72.1611 52.528 71.9211 54.136 70.5891 54.136ZM55.7053 76H56.7733V67.636H55.7053V76ZM61.797 76.132C63.525 76.132 64.569 75.184 64.569 73.732C64.569 72.556 64.017 71.896 62.181 71.2C60.885 70.696 60.357 70.324 60.357 69.628C60.357 68.98 60.933 68.452 61.713 68.452C62.385 68.452 62.949 68.824 63.285 69.46L64.185 68.908C63.669 67.984 62.829 67.492 61.749 67.492C60.285 67.492 59.289 68.368 59.289 69.664C59.289 70.792 59.889 71.404 61.605 72.064C62.997 72.604 63.489 73.036 63.489 73.828C63.489 74.608 62.901 75.172 61.809 75.172C60.741 75.172 59.973 74.536 59.829 73.48L58.773 73.744C59.001 75.184 60.213 76.132 61.797 76.132ZM69.9241 76.144C71.6281 76.144 72.9001 75.316 73.5121 73.756L72.5041 73.384C72.0721 74.536 71.1721 75.124 69.9241 75.124C68.1361 75.124 67.1041 73.912 67.1041 71.8C67.1041 69.7 68.1361 68.512 69.9601 68.512C71.2201 68.512 72.0841 69.064 72.5041 70.216L73.4881 69.832C72.9001 68.284 71.6641 67.492 69.9601 67.492C67.5241 67.492 66.0361 69.124 66.0361 71.8C66.0361 74.5 67.5121 76.144 69.9241 76.144ZM41.2131 97H44.1891C45.9051 97 46.8891 96.136 46.8891 94.624C46.8891 93.532 46.3731 92.8 45.4011 92.524C46.0731 92.212 46.4451 91.564 46.4451 90.736C46.4451 89.416 45.5091 88.636 43.9011 88.636H41.2131V97ZM42.2811 92.176V89.62H43.9011C44.8371 89.62 45.3771 90.1 45.3771 90.916C45.3771 91.708 44.8851 92.176 44.0091 92.176H42.2811ZM42.2811 96.016V93.136H44.2611C45.2571 93.136 45.8091 93.64 45.8091 94.54C45.8091 95.476 45.1971 96.016 44.1171 96.016H42.2811ZM51.3243 97.132C53.0523 97.132 54.0963 96.184 54.0963 94.732C54.0963 93.556 53.5443 92.896 51.7083 92.2C50.4123 91.696 49.8843 91.324 49.8843 90.628C49.8843 89.98 50.4603 89.452 51.2403 89.452C51.9123 89.452 52.4763 89.824 52.8123 90.46L53.7123 89.908C53.1963 88.984 52.3563 88.492 51.2763 88.492C49.8123 88.492 48.8163 89.368 48.8163 90.664C48.8163 91.792 49.4163 92.404 51.1323 93.064C52.5243 93.604 53.0163 94.036 53.0163 94.828C53.0163 95.608 52.4283 96.172 51.3363 96.172C50.2683 96.172 49.5003 95.536 49.3563 94.48L48.3003 94.744C48.5283 96.184 49.7403 97.132 51.3243 97.132ZM56.1623 97H58.4783C61.2623 97 62.7863 95.548 62.7863 92.884C62.7863 90.184 61.2263 88.636 58.4903 88.636H56.1623V97ZM57.2303 96.016V89.62H58.4663C60.6383 89.62 61.7063 90.688 61.7063 92.836C61.7063 94.996 60.6383 96.016 58.3823 96.016H57.2303ZM70.4931 97.12C72.1251 97.12 73.4811 96.22 73.4811 94.6C73.4811 93.472 72.8091 92.728 71.8731 92.512C72.5211 92.248 73.0371 91.588 73.0371 90.7C73.0371 89.308 71.8371 88.516 70.4931 88.516C69.0531 88.516 67.9131 89.416 67.9131 90.904L68.9211 90.976C68.9331 90.04 69.5811 89.5 70.5291 89.5C71.3451 89.5 72.0051 89.92 72.0051 90.832C72.0051 91.744 71.2971 92.188 70.0971 92.188V93.028C71.1171 93.028 72.4491 93.172 72.4491 94.492C72.4491 95.572 71.5971 96.136 70.5171 96.136C69.3531 96.136 68.5251 95.5 68.5251 94.396L67.5051 94.456C67.5051 96.196 68.8251 97.12 70.4931 97.12ZM41.314 109.636L38.77 116.068L36.226 109.636H34.678V118H35.746V111.064L38.254 117.292H39.298L41.782 111.088V118H42.862V109.636H41.314ZM47.7155 118.108C49.4555 118.108 50.6075 116.752 50.6075 115.036C50.6075 113.308 49.4435 111.976 47.7155 111.976C45.9755 111.976 44.8475 113.308 44.8475 115.036C44.8475 116.764 45.9755 118.108 47.7155 118.108ZM47.7155 117.196C46.5155 117.196 45.8795 116.248 45.8795 115.036C45.8795 113.824 46.5035 112.888 47.7155 112.888C48.9275 112.888 49.5755 113.812 49.5755 115.036C49.5755 116.236 48.9275 117.196 47.7155 117.196ZM56.5532 112.084H51.8612V112.96H55.2812L51.6692 117.28V118H56.5412V117.124H53.0252L56.5532 112.864V112.084ZM58.2019 110.896H59.3539V109.636H58.2019V110.896ZM58.2619 118H59.2939V112.084H58.2619V118ZM62.7228 118.108C62.9868 118.108 63.2988 118.036 63.5748 117.94L63.5628 117.088C63.3948 117.136 63.2028 117.184 63.0348 117.184C62.6868 117.184 62.5428 116.968 62.5428 116.608V109.636H61.5108V116.668C61.5108 117.64 62.0028 118.108 62.7228 118.108ZM66.254 118.108C66.518 118.108 66.83 118.036 67.106 117.94L67.094 117.088C66.926 117.136 66.734 117.184 66.566 117.184C66.218 117.184 66.074 116.968 66.074 116.608V109.636H65.042V116.668C65.042 117.64 65.534 118.108 66.254 118.108ZM70.7456 111.976C69.7136 111.976 68.9096 112.372 68.2496 113.212L68.9936 113.836C69.4616 113.212 70.0256 112.888 70.7216 112.888C71.6216 112.888 72.1256 113.392 72.1256 114.304V114.544H70.8176C69.8216 114.544 69.2336 114.64 68.7896 114.88C68.3096 115.144 68.0456 115.624 68.0456 116.248C68.0456 117.388 68.8496 118.108 70.1216 118.108C71.0096 118.108 71.7176 117.748 72.1376 117.112L72.2096 118H73.1576V114.304C73.1576 112.84 72.2576 111.976 70.7456 111.976ZM70.3616 117.244C69.5696 117.244 69.0776 116.872 69.0776 116.296C69.0776 115.996 69.1856 115.768 69.3776 115.612C69.6296 115.42 70.0376 115.348 70.9376 115.348H72.1256V115.408C72.1256 116.5 71.4056 117.244 70.3616 117.244ZM53.7248 139H59.2448V138.016H54.7928V135.22H58.8368V134.236H54.7928V131.62H59.2448V130.636H53.7248V139ZM61.4748 139H62.5428V135.412H63.9828C65.7708 135.412 66.7668 134.56 66.7668 133C66.7668 131.464 65.7948 130.636 63.9828 130.636H61.4748V139ZM62.5428 134.428V131.62H63.8748C65.0988 131.62 65.6988 132.076 65.6988 133.012C65.6988 133.96 65.0988 134.428 63.8748 134.428H62.5428ZM68.885 139H73.697V138.016H69.953V130.636H68.885V139Z" fill="black"/>
<line x1="87" y1="18.875" x2="254.165" y2="18.875" stroke="#616161" stroke-width="0.25"/>
<line x1="87" y1="39.875" x2="254.165" y2="39.875" stroke="#616161" stroke-width="0.25"/>
<line x1="87" y1="60.875" x2="254.165" y2="60.875" stroke="#616161" stroke-width="0.25"/>
<line x1="87" y1="102.875" x2="254.165" y2="102.875" stroke="#616161" stroke-width="0.25"/>
<line x1="87" y1="81.875" x2="254.165" y2="81.875" stroke="#616161" stroke-width="0.25"/>
<line x1="87" y1="124.875" x2="254.165" y2="124.875" stroke="#616161" stroke-width="0.25"/>
<rect x="87" width="87" height="15" fill="#1F6BF1"/>
<rect x="87" y="43" width="72" height="15" fill="#67AC5B"/>
<rect x="87" y="106" width="121" height="15" fill="#FFDA7E"/>
<rect x="87" y="85" width="6" height="15" fill="#1F6BF1"/>
<rect x="87" y="64" width="39" height="15" fill="#FF8D7E"/>
<rect x="87" y="22" width="59" height="15" fill="#FF9900"/>
</svg>
