<svg width="23" height="23" viewBox="0 0 23 23" fill="none" xmlns="http://www.w3.org/2000/svg">
<path d="M11.0636 0C4.95328 0 0 5.03186 0 11.239C0 16.4806 3.53231 20.8841 8.31045 22.127C8.30723 20.828 8.30321 19.2349 8.30052 18.7387C5.10777 19.4441 4.4343 17.363 4.4343 17.363C3.91236 16.0155 3.16004 15.657 3.16004 15.657C2.11858 14.9333 3.23835 14.9481 3.23835 14.9481C4.39058 15.0302 4.9978 16.1497 4.9978 16.1497C6.02129 17.9319 7.68257 17.4167 8.33754 17.1187C8.44053 16.3653 8.7377 15.8509 9.06626 15.5596C6.5172 15.2648 3.83726 14.2652 3.83726 9.79793C3.83726 8.52501 4.28571 7.48517 5.01979 6.66874C4.90044 6.37505 4.50778 5.1893 5.13083 3.58327C5.13083 3.58327 6.09451 3.27 8.28765 4.77841C9.20331 4.52012 10.185 4.39058 11.1602 4.38602C12.1354 4.39031 13.1178 4.52012 14.0351 4.77841C16.2256 3.27 17.1879 3.58327 17.1879 3.58327C17.8125 5.1893 17.4196 6.37505 17.3005 6.66874C18.0365 7.48517 18.4817 8.52528 18.4817 9.79793C18.4817 14.2759 15.797 15.2616 13.2412 15.5505C13.6526 15.9123 14.0195 16.6217 14.0195 17.7093C14.0195 18.5729 14.0155 20.5614 14.012 22.0709C18.6899 20.7596 22.1267 16.4082 22.1267 11.2388C22.127 5.03186 17.1737 0 11.0636 0Z" fill="#616161"/>
</svg>
