<?xml version="1.0" encoding="UTF-8"?>
<svg width="55px" height="64px" viewBox="0 0 55 64" version="1.1" xmlns="http://www.w3.org/2000/svg" xmlns:xlink="http://www.w3.org/1999/xlink">
    <title>offense-icon</title>
    <g id="CISO-Landing" stroke="none" stroke-width="1" fill="none" fill-rule="evenodd">
        <g id="1.0-Slim-CISO-LP--v1" transform="translate(-988.000000, -1037.000000)" fill="#FA784A" fill-rule="nonzero">
            <g id="offense-icon" transform="translate(988.000000, 1037.000000)">
                <path d="M18.1076923,27.7432692 L13.6230769,32.2278846 L22.0846154,40.6894231 C23.3234589,41.9267258 25.3303873,41.9267258 26.5692308,40.6894231 L42.4346154,24.8240385 L37.95,20.3394231 L24.3269231,33.9625 L18.1076923,27.7432692 Z" id="Path"></path>
                <path d="M29.6153846,0.729807692 L27.5,0 L25.3846154,0.729807692 L4.23076923,8.13365385 L0,9.625 L0,35.1153846 C0.0163809012,44.7902549 5.69225865,53.5605617 14.5115385,57.5384615 L24.8980769,62.2134615 L27.5,63.3875 L30.1019231,62.2134615 L40.4884615,57.5384615 C49.3112278,53.5589817 54.9877693,44.7835119 55,35.1048077 L55,9.61442308 L50.7692308,8.12307692 L29.6153846,0.729807692 Z M48.6538462,35.1048077 C48.6534019,42.2894524 44.4389125,48.805765 37.8865385,51.7528846 L27.5,56.4278846 L17.1134615,51.7528846 C10.5610875,48.805765 6.34659813,42.2894524 6.34615385,35.1048077 L6.34615385,14.1201923 L27.5,6.71634615 L48.6538462,14.1201923 L48.6538462,35.1048077 Z" id="Shape"></path>
            </g>
        </g>
    </g>
</svg>