<svg width="47" height="47" viewBox="0 0 47 47" fill="none" xmlns="http://www.w3.org/2000/svg">
<g clip-path="url(#clip0_963_567)">
<path d="M36.5039 23.2446L41.3804 23.2446L34.8785 16.731L28.3765 23.2446L33.253 23.2446C33.253 28.6346 28.8804 33.015 23.5 33.015C21.8582 33.015 20.2978 32.6079 18.9486 31.8751L16.5754 34.2525C18.5748 35.5227 20.948 36.2718 23.5 36.2718C30.6847 36.2718 36.5039 30.4421 36.5039 23.2446ZM13.747 23.2446C13.747 17.8546 18.1196 13.4742 23.5 13.4742C25.1417 13.4742 26.7022 13.8813 28.0514 14.6141L30.4246 12.2366C28.4252 10.9665 26.052 10.2174 23.5 10.2174C16.3153 10.2174 10.496 16.0471 10.496 23.2446L5.61956 23.2446L12.1215 29.7582L18.6235 23.2446L13.747 23.2446Z" fill="#67AC5A"/>
<g clip-path="url(#clip1_963_567)">
<path d="M22.4783 25.2921L20.5094 23.3232L20.3326 23.1464L20.1558 23.3232L19.4406 24.0384L19.2638 24.2152L19.4406 24.392L22.3015 27.2528L22.4783 27.4296L22.655 27.2528L28.7855 21.1224L28.9622 20.9456L28.7855 20.7688L28.0703 20.0536L27.8935 19.8769L27.7167 20.0536L22.4783 25.2921Z" fill="#67AC5A" stroke="#67AC5A" stroke-width="0.5"/>
</g>
</g>
<defs>
<clipPath id="clip0_963_567">
<rect width="47" height="47" fill="white" transform="translate(47) rotate(90)"/>
</clipPath>
<clipPath id="clip1_963_567">
<rect width="12.2609" height="12.2609" fill="white" transform="translate(17.8804 17.3696)"/>
</clipPath>
</defs>
</svg>

