<svg width="50" height="37" viewBox="0 0 50 37" fill="none" xmlns="http://www.w3.org/2000/svg">
<path d="M31.9931 37H40.2224C42.4329 37 44.6176 36.3239 46.3421 34.9364C47.7715 33.8065 48.8514 32.2911 49.4556 30.5673C50.0599 28.8434 50.1635 26.9823 49.7544 25.2015C49.3453 23.4206 48.4403 21.7936 47.1453 20.5105C45.8503 19.2274 44.2187 18.3412 42.4411 17.9556C42.1255 17.8928 41.8411 17.7224 41.636 17.4733C41.4308 17.2241 41.3176 16.9115 41.3153 16.5881V16.3981C41.3132 12.6133 40.0092 8.94567 37.6244 6.0166C35.2395 3.08754 31.9205 1.0772 28.2297 0.326237C24.5388 -0.424724 20.7031 0.129874 17.3726 1.89606C14.042 3.66224 11.4214 6.53138 9.9548 10.0173C9.10295 12.0354 8.66687 14.206 8.67287 16.3981C8.67287 16.4642 3.53925 19.5767 2.16809 21.2604C1.36117 22.2513 0.758839 23.3938 0.396317 24.6213C0.0337906 25.8488 -0.0816574 27.1366 0.0567169 28.4095C0.195087 29.6824 0.584507 30.9147 1.20221 32.0346C1.81992 33.1545 2.65352 34.1393 3.65429 34.9317C5.3882 36.3109 7.56467 36.9953 9.77402 36.9953L31.9931 37Z" fill="#4CAF50"/>
</svg>

