<?xml version="1.0" encoding="UTF-8"?>
<svg width="55px" height="64px" viewBox="0 0 55 64" version="1.1" xmlns="http://www.w3.org/2000/svg" xmlns:xlink="http://www.w3.org/1999/xlink">
    <title>transparency-icon</title>
    <g id="CISO-Landing" stroke="none" stroke-width="1" fill="none" fill-rule="evenodd">
        <g id="1.0-Slim-CISO-LP--v1" transform="translate(-126.000000, -1037.000000)" fill="#1F6BF1" fill-rule="nonzero">
            <g id="transparency-icon" transform="translate(126.000000, 1037.000000)">
                <path d="M46.8518519,39.7222222 L46.8518519,27.5 C46.8518519,23.5624143 43.6598079,20.3703704 39.7222222,20.3703704 L38.7037037,20.3703704 L38.7037037,11.2037037 C38.7037037,5.01606901 33.6876347,0 27.5,0 C21.3123653,0 16.2962963,5.01606901 16.2962963,11.2037037 L16.2962963,20.3703704 L15.2777778,20.3703704 C11.3401921,20.3703704 8.14814815,23.5624143 8.14814815,27.5 L8.14814815,39.7222222 C8.14814815,43.6598079 11.3401921,46.8518519 15.2777778,46.8518519 L39.7222222,46.8518519 C43.6598079,46.8518519 46.8518519,43.6598079 46.8518519,39.7222222 L46.8518519,39.7222222 Z M22.4074074,11.2037037 C22.4074074,8.39114248 24.6874388,6.11111111 27.5,6.11111111 C30.3125612,6.11111111 32.5925926,8.39114248 32.5925926,11.2037037 L32.5925926,20.3703704 L22.4074074,20.3703704 L22.4074074,11.2037037 Z M14.2592593,39.7222222 L14.2592593,27.5 C14.2592593,26.9374878 14.7152655,26.4814815 15.2777778,26.4814815 L39.7222222,26.4814815 C40.2847345,26.4814815 40.7407407,26.9374878 40.7407407,27.5 L40.7407407,39.7222222 C40.7407407,40.2847345 40.2847345,40.7407407 39.7222222,40.7407407 L15.2777778,40.7407407 C14.7152655,40.7407407 14.2592593,40.2847345 14.2592593,39.7222222 Z" id="Shape"></path>
                <rect id="Rectangle" x="16.2962963" y="57.037037" width="6.11111111" height="6.11111111"></rect>
                <rect id="Rectangle" x="32.5925926" y="57.037037" width="6.11111111" height="6.11111111"></rect>
                <rect id="Rectangle" x="48.8888889" y="57.037037" width="6.11111111" height="6.11111111"></rect>
                <rect id="Rectangle" x="0" y="57.037037" width="6.11111111" height="6.11111111"></rect>
            </g>
        </g>
    </g>
</svg>