<svg width="60" height="70" viewBox="0 0 60 70" fill="none" xmlns="http://www.w3.org/2000/svg">
<path d="M29.8692 0H30.0285C30.8436 0.391944 31.6374 0.827405 32.4067 1.30453C41.2628 6.44689 50.1186 11.5905 58.9743 16.7354C59.317 16.92 59.5968 17.2044 59.7775 17.5516C59.9582 17.8987 60.0314 18.2927 59.9877 18.6824C59.9678 29.5251 59.9877 40.3658 59.9752 51.2041C59.8607 51.7226 59.5476 52.1742 59.1043 52.4603C49.6863 57.9326 40.2683 63.4028 30.8502 68.8709C30.622 69.0465 30.3469 69.1492 30.0604 69.1655C29.7739 69.1818 29.4891 69.1112 29.2428 68.9626C19.814 63.5045 10.3941 58.0364 0.983109 52.5582C0.677233 52.4122 0.421026 52.178 0.246777 51.8851C0.0725268 51.5923 -0.0119681 51.2539 0.0039403 50.9127V18.3929C-0.0190341 18.0532 0.0588374 17.7142 0.227603 17.4194C0.396369 17.1246 0.648363 16.8873 0.951382 16.7379C9.79625 11.6026 18.6411 6.46301 27.486 1.31898C28.2735 0.864874 29.0468 0.383132 29.8692 0Z" fill="#019239"/>
<path d="M12.2979 21.0937V47.923C12.2866 48.4182 12.3732 48.9108 12.5526 49.3718C12.7321 49.8328 13.0007 50.2531 13.343 50.6081C13.9986 51.2619 14.8564 51.669 15.7733 51.7617C16.6902 51.8544 17.6109 51.627 18.3819 51.1175C18.8984 50.7635 19.3213 50.2874 19.6137 49.7306C19.9061 49.1738 20.0592 48.5532 20.0597 47.923C20.0597 41.45 20.0472 34.9775 20.0597 28.5045C25.9044 35.5704 31.7616 42.6259 37.6312 49.671C38.4467 50.505 39.4566 51.1189 40.5681 51.4565C41.6797 51.794 42.8574 51.8444 43.9933 51.603C44.7953 51.4434 45.5254 51.0282 46.0764 50.4184C46.6273 49.8087 46.97 49.0367 47.054 48.2157C47.0673 39.0896 47.0673 29.9642 47.054 20.8393C46.9707 19.8644 46.5283 18.9565 45.8142 18.295C45.1001 17.6335 44.1662 17.2665 43.197 17.2665C42.2279 17.2665 41.294 17.6335 40.5798 18.295C39.8657 18.9565 39.4233 19.8644 39.3401 20.8393C39.3401 27.416 39.3009 33.9852 39.3401 40.5612C33.6007 33.7283 27.9322 26.8325 22.2127 19.9732C21.4589 18.9971 20.4609 18.2417 19.3216 17.7848C18.1823 17.3279 16.9428 17.1862 15.7312 17.3742C14.8129 17.4772 13.9616 17.9091 13.3318 18.5915C12.7019 19.2739 12.335 20.1616 12.2979 21.0937Z" fill="white"/>
</svg>
