<?xml version="1.0" encoding="UTF-8"?>
<svg width="32px" height="32px" viewBox="0 0 32 32" version="1.1" xmlns="http://www.w3.org/2000/svg" xmlns:xlink="http://www.w3.org/1999/xlink">
    <title>linkedin</title>
    <g id="linkedin" stroke="none" stroke-width="1" fill="none" fill-rule="evenodd">
        <path d="M22.5877616,11 C19.6322592,11 18.3081936,12.6114848 17.56955,13.7416091 L17.56955,11.390178 L12,11.390178 C12.0737345,12.9483759 12,28 12,28 L17.56955,28 L17.56955,18.7239057 C17.56955,18.2270925 17.6059842,17.7321803 17.7525253,17.3762187 C18.1558379,16.384432 19.0721371,15.3573863 20.6092408,15.3573863 C22.6259279,15.3573863 23.431316,16.8813065 23.431316,19.1131026 L23.431316,28 L29,28 L29,18.4756218 C29,13.3738128 26.2533913,11 22.5877616,11 L22.5877616,11 Z M6.01747665,3 C4.19238137,3 3,4.29669602 3,5.99865362 C3,7.66560523 4.15748731,9 5.94768854,9 L5.98169395,9 C7.84168329,9 9,7.66554112 9,5.99865362 C8.96510595,4.29669602 7.84174253,3 6.01747665,3 L6.01747665,3 Z M3,28 L9,28 L9,11 L3,11 L3,28 Z" id="Fill-1" fill="#1E7CAE"></path>
    </g>
</svg>