<?xml version="1.0" encoding="UTF-8"?>
<svg width="58px" height="38px" viewBox="0 0 58 38" version="1.1" xmlns="http://www.w3.org/2000/svg" xmlns:xlink="http://www.w3.org/1999/xlink">
    <title>Logo/Slim Bug</title>
    <g id="Logo/Slim-Bug" stroke="none" stroke-width="1" fill="none" fill-rule="evenodd">
        <g id="Group-16" transform="translate(-0.000070, -0.000174)" fill="#000000">
            <path d="M40.2578627,34.9925282 L40.1066898,35.0123371 L40.1066898,35.0655083 L11.2799305,35.0655083 C6.71624674,35.0655083 2.95186794,31.4450043 2.88861859,26.9946134 C2.82953953,22.8274544 5.89713293,19.2847958 10.0243267,18.7544744 C10.3040834,18.7186794 10.5046047,18.4719374 10.4806255,18.1932233 C10.4455256,17.7803649 10.4278019,17.3650738 10.4278019,16.959861 C10.4278019,8.93205908 16.9588184,2.40104257 24.9866203,2.40104257 C33.0144222,2.40104257 39.5457863,8.93205908 39.5457863,16.959861 C39.5457863,17.3553432 39.5287576,17.7595135 39.4957428,18.1609036 C39.4717637,18.4490009 39.6799305,18.6957428 39.9697654,18.7238923 C44.1873154,19.1287576 47.3675065,22.6331885 47.3675065,26.8754127 C47.3675065,30.9685491 44.3110339,34.4580365 40.2578627,34.9925282 M49.7973936,16.2099044 C49.4662033,7.20208514 42.0635969,0 32.9748045,0 C32.7760209,0 32.5789748,0.00834057341 32.3815812,0.0149435274 L25.5798436,0.0149435274 C25.38245,0.00834057341 25.1857515,0 24.9866203,0 C15.942311,0 8.5657689,7.13119027 8.16750652,16.0771503 C3.4602954,17.3664639 0,21.6719374 0,26.7881842 C0,32.9223284 4.97271937,37.8950478 11.1072111,37.8950478 L46.407298,37.8950478 C52.5414422,37.8950478 57.5141616,32.9223284 57.5141616,26.7881842 C57.5141616,21.8363162 54.2731538,17.6434405 49.7973936,16.2099044" id="Fill-12"></path>
            <path d="M36.5508254,19.3894353 C35.9916594,19.0168897 35.23649,19.167715 34.8639444,19.726881 L32.7895743,22.8382624 C32.3200695,23.5423458 32.3200695,24.4521633 32.7895743,25.1562467 L34.8639444,28.2679757 C35.098523,28.6196699 35.4842745,28.8097654 35.8773241,28.8097654 C36.1091225,28.8097654 36.3433536,28.7437359 36.5508254,28.6054214 C37.1096438,28.2328758 37.2608167,27.4777063 36.8882711,26.9188879 L34.9407472,23.9972546 L36.8882711,21.0763162 C37.2608167,20.5171503 37.1096438,19.7619809 36.5508254,19.3894353" id="Fill-13"></path>
            <path d="M14.7711903,19.3894353 C14.2120243,19.0168897 13.4568549,19.167715 13.0843093,19.726881 L11.0095917,22.8389574 C10.5407819,23.5423458 10.5407819,24.4518158 11.0099392,25.1562467 L13.0843093,28.2679757 C13.3188879,28.6196699 13.7046394,28.8097654 14.097689,28.8097654 C14.3294874,28.8097654 14.5637185,28.7437359 14.7711903,28.6054214 C15.3300087,28.2328758 15.4811816,27.4777063 15.108636,26.9188879 L13.1611121,23.9976021 L15.108636,21.0763162 C15.4811816,20.5171503 15.3300087,19.7619809 14.7711903,19.3894353" id="Fill-14"></path>
            <path d="M28.6122328,27.6271764 C28.02596,27.3095395 27.2885143,27.5281321 26.9656646,28.1126672 C26.926742,28.1825195 25.9995482,29.8231798 24.1889487,29.8231798 C22.4016334,29.8231798 21.5175326,28.2151868 21.472702,28.1314335 C21.1651434,27.5389053 20.4363858,27.3043267 19.8400348,27.6087576 C19.2419461,27.9142311 19.0045873,28.647159 19.3100608,29.2452476 C19.3729626,29.3682711 20.8853866,32.2558471 24.1889487,32.2558471 C27.4789574,32.2558471 29.0438575,29.3856473 29.1088445,29.2633189 C29.4226586,28.6735708 29.1995482,27.9458558 28.6122328,27.6271764" id="Fill-15"></path>
        </g>
    </g>
</svg>