<?xml version="1.0" encoding="UTF-8"?>
<svg width="160px" height="38px" viewBox="0 0 160 38" version="1.1" xmlns="http://www.w3.org/2000/svg" xmlns:xlink="http://www.w3.org/1999/xlink">
    <title>Logo/Slim BW</title>
    <g id="Logo/Slim-BW" stroke="none" stroke-width="1" fill="none" fill-rule="evenodd">
        <path d="M32.974735,-0.000173761946 C42.0635274,-0.000173761946 49.4661338,7.20191138 49.7973241,16.2097307 C54.2730843,17.6432667 57.5140921,21.8361425 57.5140921,26.7880104 C57.5140921,32.9221546 52.5413727,37.894874 46.4072285,37.894874 L46.4072285,37.894874 L11.1071416,37.894874 C4.97264987,37.894874 -6.95047785e-05,32.9221546 -6.95047785e-05,26.7880104 C-6.95047785e-05,21.6717637 3.46022589,17.3662902 8.16743701,16.0769765 C8.56569939,7.13101651 15.9422415,-0.000173761946 24.9865508,-0.000173761946 C25.185682,-0.000173761946 25.3823805,0.00816681147 25.5797741,0.0147697654 L25.5797741,0.0147697654 L32.3815117,0.0147697654 C32.5789053,0.00816681147 32.7759513,-0.000173761946 32.974735,-0.000173761946 Z M24.9865508,2.40086881 C16.9587489,2.40086881 10.4277324,8.93188532 10.4277324,16.9596872 C10.4277324,17.3649001 10.4454561,17.7801911 10.480556,18.1930495 C10.5045352,18.4717637 10.3040139,18.7185056 10.0242572,18.7543006 C5.89706342,19.2846221 2.82947003,22.8272806 2.88854909,26.9944396 C2.95179844,31.4448306 6.71617724,35.0653345 11.279861,35.0653345 L11.279861,35.0653345 L40.1066203,35.0653345 L40.1066203,35.0121633 L40.2577932,34.9923545 C44.3109644,34.4578627 47.367437,30.9683753 47.367437,26.8752389 C47.367437,22.6330148 44.1872459,19.1285838 39.9696959,18.7237185 C39.679861,18.6955691 39.4716942,18.4488271 39.4956733,18.1607298 C39.5286881,17.7593397 39.5457168,17.3551694 39.5457168,16.9596872 C39.5457168,8.93188532 33.0143527,2.40086881 24.9865508,2.40086881 Z M19.8399652,27.6085838 C20.4363162,27.3041529 21.1650738,27.5387315 21.4726325,28.1312598 C21.5174631,28.215013 22.4015639,29.8230061 24.1888792,29.8230061 C25.9994787,29.8230061 26.9266725,28.1823458 26.9655951,28.1124935 C27.2884448,27.5279583 28.0258905,27.3093658 28.6121633,27.6270026 C29.1994787,27.945682 29.4225891,28.673397 29.108775,29.2631451 C29.043788,29.3854735 27.4788879,32.2556733 24.1888792,32.2556733 C20.8853171,32.2556733 19.3728931,29.3680973 19.3099913,29.2450738 C19.0045178,28.6469852 19.2418766,27.9140573 19.8399652,27.6085838 Z M128.498593,24.3332407 C128.946898,24.3332407 129.370877,24.4173414 129.772963,24.5851955 C130.174005,24.753397 130.524309,24.9869331 130.822832,25.2854561 C131.121355,25.5843267 131.354891,25.9342832 131.522745,26.3353258 C131.690947,26.7370634 131.775048,27.1613901 131.775048,27.6096959 C131.775048,28.0573067 131.690947,28.4823284 131.522745,28.8837185 C131.354891,29.2851086 131.121355,29.6354127 130.822832,29.9335882 C130.524309,30.2324587 130.174005,30.4656473 129.772963,30.6338488 C129.370877,30.8013553 128.946898,30.8858036 128.498593,30.8858036 C128.050634,30.8858036 127.62596,30.8013553 127.22457,30.6338488 C126.822832,30.4656473 126.473223,30.2324587 126.1747,29.9335882 C125.876177,29.6354127 125.642641,29.2851086 125.474787,28.8837185 C125.306586,28.4823284 125.222485,28.0573067 125.222485,27.6096959 C125.222485,27.1613901 125.306586,26.7370634 125.474787,26.3353258 C125.642641,25.9342832 125.876177,25.5843267 126.1747,25.2854561 C126.473223,24.9869331 126.822832,24.753397 127.22457,24.5851955 C127.62596,24.4173414 128.050634,24.3332407 128.498593,24.3332407 Z M141.63159,15.4848306 C143.423423,15.4848306 144.907698,16.1103736 146.083719,17.3607646 L146.083719,17.3607646 L146.083719,15.9327889 L151.180156,15.9327889 L151.180156,30.297689 L146.083719,30.297689 L146.083719,28.7015117 C145.000834,30.0645004 143.535673,30.7456473 141.687194,30.7456473 C140.641842,30.7456473 139.680591,30.5538141 138.80344,30.1715378 C137.925248,29.7892615 137.160348,29.2523371 136.507003,28.5614596 C135.85331,27.8712772 135.344883,27.0591138 134.981373,26.1253171 C134.61682,25.1922155 134.435065,24.175013 134.435065,23.0730148 C134.435065,22.0467767 134.612302,21.0709296 134.967124,20.1472111 C135.321599,19.2231451 135.816473,18.4158471 136.451051,17.7249696 C137.085282,17.0347871 137.841494,16.4884796 138.718992,16.086742 C139.59649,15.6856994 140.567472,15.4848306 141.63159,15.4848306 Z M71.7692789,15.0965421 C75.1194092,15.0649175 77.3630235,16.8348566 77.5840487,19.7106169 L77.5840487,19.7106169 L73.5388705,19.7106169 C73.3810947,18.9839444 72.7489487,18.4466725 71.7692789,18.4466725 C70.8212337,18.4466725 70.2523371,18.9839444 70.2523371,19.6157428 C70.2523371,21.6383319 77.8686707,20.5008862 77.8686707,26.1891573 C77.8686707,28.9387663 75.1510339,30.6451086 72.148775,30.6451086 C68.6092441,30.6451086 66.1439096,28.6225195 65.8916073,25.873258 L65.8916073,25.873258 L69.9996872,25.873258 C70.2207124,26.8845526 71.1374805,27.2953258 72.148775,27.2953258 C73.0968202,27.2953258 73.7602433,26.8845526 73.7602433,26.1891573 C73.7602433,24.040417 66.2704083,25.4624848 66.2704083,19.6157428 C66.2704083,17.0246047 68.4507732,15.1281668 71.7692789,15.0965421 Z M85.6858384,7.05647263 L85.6858384,30.2974805 L80.61755,30.2974805 L80.61755,7.05647263 L85.6858384,7.05647263 Z M94.2258905,15.9325804 L94.2258905,30.2974805 L89.1576021,30.2974805 L89.1576021,15.9325804 L94.2258905,15.9325804 Z M117.158645,15.6808688 C117.830408,15.6808688 118.464987,15.7788705 119.062728,15.9752215 C119.660122,16.1708775 120.173067,16.4787837 120.602606,16.8989401 C121.032146,17.3190964 121.372719,17.8650565 121.625022,18.5371677 C121.876629,19.2089314 122.00278,20.0210947 122.00278,20.9733102 L122.00278,20.9733102 L122.00278,30.2977237 L116.934492,30.2977237 L116.934492,23.2134492 C116.934492,22.4853866 116.883058,21.887993 116.780539,21.4212685 C116.677672,20.9548914 116.528584,20.5906864 116.332928,20.3290009 C116.136229,20.0680104 115.907559,19.8907732 115.646568,19.7969418 C115.384883,19.7041529 115.105126,19.6572372 114.806603,19.6572372 C113.182276,19.6572372 112.37046,20.8429887 112.37046,23.2134492 L112.37046,23.2134492 L112.37046,30.2977237 L107.302172,30.2977237 L107.302172,23.2134492 C107.302172,22.4853866 107.255256,21.8831277 107.16212,21.4073675 C107.068636,20.9312598 106.933102,20.5531538 106.756212,20.2730495 C106.57828,19.9932928 106.350304,19.8021546 106.0702,19.6989401 C105.790096,19.596768 105.463076,19.544987 105.090182,19.544987 C104.772198,19.544987 104.47437,19.5919027 104.193918,19.6850391 C103.914162,19.7788705 103.666377,19.9606255 103.451955,20.2309991 C103.237185,20.5020678 103.069331,20.8753084 102.948045,21.3510686 C102.826412,21.8271764 102.765943,22.4482016 102.765943,23.2134492 L102.765943,23.2134492 L102.765943,30.2977237 L97.6980017,30.2977237 L97.6980017,15.9328236 L102.765943,15.9328236 L102.765943,17.6968549 C104.147003,16.3717463 105.696612,15.7090182 107.414075,15.7090182 C109.542311,15.7090182 111.165943,16.6049348 112.28636,18.3971156 C113.425195,16.5865161 115.048827,15.6808688 117.158645,15.6808688 Z M159.692094,15.9325804 L159.692094,30.2974805 L154.623805,30.2974805 L154.623805,15.9325804 L159.692094,15.9325804 Z M34.8638749,19.7267072 C35.2364205,19.1675413 35.9915899,19.0167159 36.5507559,19.3892615 C37.1095743,19.7618071 37.2607472,20.5169765 36.8882016,21.0761425 L36.8882016,21.0761425 L34.9406777,23.9970808 L36.8882016,26.9187142 C37.2607472,27.4775326 37.1095743,28.232702 36.5507559,28.6052476 C36.3432841,28.7435621 36.109053,28.8095917 35.8772546,28.8095917 C35.484205,28.8095917 35.0984535,28.6194961 34.8638749,28.2678019 L34.8638749,28.2678019 L32.7895048,25.156073 C32.32,24.4519896 32.32,23.542172 32.7895048,22.8380886 L32.7895048,22.8380886 Z M13.0842398,19.7267072 C13.4567854,19.1675413 14.2119548,19.0167159 14.7711208,19.3892615 C15.3299392,19.7618071 15.4811121,20.5169765 15.1085665,21.0761425 L15.1085665,21.0761425 L13.1610426,23.9974283 L15.1085665,26.9187142 C15.4811121,27.4775326 15.3299392,28.232702 14.7711208,28.6052476 C14.563649,28.7435621 14.3294179,28.8095917 14.0976195,28.8095917 C13.7045699,28.8095917 13.3188184,28.6194961 13.0842398,28.2678019 L13.0842398,28.2678019 L11.0098697,25.156073 C10.5407124,24.4516421 10.5407124,23.542172 11.0095222,22.8387837 L11.0095222,22.8387837 Z M142.975465,19.8528584 C142.508393,19.8528584 142.074335,19.9373067 141.67364,20.1051607 C141.271903,20.2730148 140.926464,20.5068983 140.636977,20.8050738 C140.347837,21.1039444 140.119166,21.4448653 139.951312,21.8271416 C139.78311,22.2101129 139.699357,22.625404 139.699357,23.0730148 C139.699357,23.5400869 139.78311,23.9741442 139.951312,24.3751868 C140.119166,24.7769244 140.347837,25.1272285 140.636977,25.425404 C140.926464,25.7242745 141.271903,25.9574631 141.67364,26.1253171 C142.074335,26.2935187 142.508393,26.3772719 142.975465,26.3772719 C143.423423,26.3772719 143.847402,26.2935187 144.249487,26.1253171 C144.65053,25.9574631 144.995969,25.7242745 145.285456,25.425404 C145.574596,25.1272285 145.808132,24.7814422 145.985717,24.3894353 C146.162954,23.9974283 146.251573,23.5772719 146.251573,23.1289661 C146.251573,22.6813553 146.162954,22.2570287 145.985717,21.8549435 C145.808132,21.4542485 145.574596,21.1039444 145.285456,20.8050738 C144.995969,20.5068983 144.65053,20.2730148 144.249487,20.1051607 C143.847402,19.9373067 143.423423,19.8528584 142.975465,19.8528584 Z M91.6778106,7.56069505 C92.06947,7.56069505 92.4378454,7.63541268 92.7832841,7.78450043 C93.1290704,7.93393571 93.4321112,8.13932233 93.6937967,8.4006603 C93.9547871,8.66234579 94.1601738,8.96538662 94.309609,9.31047785 C94.4586968,9.65626412 94.5337619,10.0246394 94.5337619,10.4166464 C94.5337619,10.8086533 94.4586968,11.1777237 94.309609,11.5228149 C94.1601738,11.8682537 93.9547871,12.1716421 93.6937967,12.43298 C93.4321112,12.6946655 93.1290704,12.8997046 92.7832841,13.0487924 C92.4378454,13.1985752 92.06947,13.2729453 91.6778106,13.2729453 C91.2851086,13.2729453 90.9167333,13.1985752 90.5712945,13.0487924 C90.2258558,12.8997046 89.9224674,12.6946655 89.661477,12.43298 C89.3997915,12.1716421 89.1947524,11.8682537 89.0456646,11.5228149 C88.8958818,11.1777237 88.8215117,10.8086533 88.8215117,10.4166464 C88.8215117,10.0246394 88.8958818,9.65626412 89.0456646,9.31047785 C89.1947524,8.96538662 89.3997915,8.66234579 89.661477,8.4006603 C89.9224674,8.13932233 90.2258558,7.93393571 90.5712945,7.78450043 C90.9167333,7.63541268 91.2851086,7.56069505 91.6778106,7.56069505 Z M157.143771,7.56069505 C157.535778,7.56069505 157.904153,7.63541268 158.249592,7.78450043 C158.59503,7.93393571 158.898419,8.13932233 159.160104,8.4006603 C159.421095,8.66234579 159.626481,8.96573414 159.775917,9.31047785 C159.925004,9.65626412 160.00007,10.0246394 160.00007,10.4166464 C160.00007,10.8086533 159.925004,11.1777237 159.775917,11.5228149 C159.626481,11.8682537 159.421095,12.1716421 159.160104,12.43298 C158.898419,12.6946655 158.59503,12.8997046 158.249592,13.0487924 C157.904153,13.1985752 157.535778,13.2729453 157.143771,13.2729453 C156.751416,13.2729453 156.383041,13.1985752 156.037602,13.0487924 C155.692163,12.8997046 155.388775,12.6946655 155.127785,12.43298 C154.866099,12.1716421 154.660712,11.8682537 154.511972,11.5228149 C154.362189,11.1777237 154.287819,10.8086533 154.287819,10.4166464 C154.287819,10.0246394 154.362189,9.65626412 154.511972,9.31047785 C154.660712,8.96573414 154.866099,8.66234579 155.127785,8.4006603 C155.388775,8.13932233 155.692163,7.93393571 156.037602,7.78450043 C156.383041,7.63541268 156.751416,7.56069505 157.143771,7.56069505 Z" id="Combined-Shape" fill="#000000"></path>
    </g>
</svg>