<?xml version="1.0" encoding="UTF-8"?>
<svg width="58px" height="38px" viewBox="0 0 58 38" version="1.1" xmlns="http://www.w3.org/2000/svg" xmlns:xlink="http://www.w3.org/1999/xlink">
    <title>Logo/Slim Outline</title>
    <g id="Logo/Slim-Outline" stroke="none" stroke-width="1" fill="none" fill-rule="evenodd">
        <path d="M40.2577932,34.9923545 L40.1066203,35.0121633 L40.1066203,35.0653345 L11.279861,35.0653345 C6.71617724,35.0653345 2.95179844,31.4448306 2.88854909,26.9944396 C2.82947003,22.8272806 5.89706342,19.2846221 10.0242572,18.7543006 C10.3040139,18.7185056 10.5045352,18.4717637 10.480556,18.1930495 C10.4454561,17.7801911 10.4277324,17.3649001 10.4277324,16.9596872 C10.4277324,8.93188532 16.9587489,2.40086881 24.9865508,2.40086881 C33.0143527,2.40086881 39.5457168,8.93188532 39.5457168,16.9596872 C39.5457168,17.3551694 39.5286881,17.7593397 39.4956733,18.1607298 C39.4716942,18.4488271 39.679861,18.6955691 39.9696959,18.7237185 C44.1872459,19.1285838 47.367437,22.6330148 47.367437,26.8752389 C47.367437,30.9683753 44.3109644,34.4578627 40.2577932,34.9923545 M49.7973241,16.2097307 C49.4661338,7.20191138 42.0635274,-0.000173761946 32.974735,-0.000173761946 C32.7759513,-0.000173761946 32.5789053,0.00816681147 32.3815117,0.0147697654 L25.5797741,0.0147697654 C25.3823805,0.00816681147 25.185682,-0.000173761946 24.9865508,-0.000173761946 C15.9422415,-0.000173761946 8.56569939,7.13101651 8.16743701,16.0769765 C3.46022589,17.3662902 -6.95047785e-05,21.6717637 -6.95047785e-05,26.7880104 C-6.95047785e-05,32.9221546 4.97264987,37.894874 11.1071416,37.894874 L46.4072285,37.894874 C52.5413727,37.894874 57.5140921,32.9221546 57.5140921,26.7880104 C57.5140921,21.8361425 54.2730843,17.6432667 49.7973241,16.2097307" id="Fill-12" fill="#000000"></path>
    </g>
</svg>