<svg xmlns="http://www.w3.org/2000/svg" width="495.464" height="676.338" viewBox="0 0 495.464 676.338">
  <g id="Group_3279" data-name="Group 3279" transform="translate(-826 -168)">
    <g id="Group_3159" data-name="Group 3159" transform="translate(2560.797 1448.802)">
      <g id="Group_3163" data-name="Group 3163" transform="translate(-1673.304 -1254.45)">
        <g id="Group_3159-2" data-name="Group 3159">
          <path id="Path_7427" data-name="Path 7427" d="M-1594.071-1208.127H-1646.3a22.138,22.138,0,0,1-22.113-22.113,22.138,22.138,0,0,1,22.113-22.114h32.894a22.138,22.138,0,0,1,22.113,22.114v19.334A2.779,2.779,0,0,1-1594.071-1208.127ZM-1646.3-1246.8a16.574,16.574,0,0,0-16.555,16.556,16.574,16.574,0,0,0,16.555,16.555h49.449v-16.555A16.575,16.575,0,0,0-1613.4-1246.8Z" transform="translate(1668.412 1252.354)" fill="#ffda7e"/>
        </g>
        <g id="Group_3160" data-name="Group 3160" transform="translate(34.36 17.914)">
          <circle id="Ellipse_413" data-name="Ellipse 413" cx="4.199" cy="4.199" r="4.199" fill="#ffda7e"/>
        </g>
        <g id="Group_3161" data-name="Group 3161" transform="translate(19.553 17.914)">
          <circle id="Ellipse_414" data-name="Ellipse 414" cx="4.199" cy="4.199" r="4.199" fill="#ffda7e"/>
        </g>
        <g id="Group_3162" data-name="Group 3162" transform="translate(49.168 17.914)">
          <circle id="Ellipse_415" data-name="Ellipse 415" cx="4.199" cy="4.199" r="4.199" fill="#ffda7e"/>
        </g>
      </g>
      <g id="github" transform="translate(-1734.797 -1121.685)">
        <path id="Path_7428" data-name="Path 7428" d="M-1691-1109.028a43.81,43.81,0,0,0-43.8,43.825,43.812,43.812,0,0,0,29.942,41.545c2.19.413,2.994-.942,2.994-2.107,0-1.04-.036-3.8-.055-7.447-12.187,2.643-14.756-5.877-14.756-5.877-1.989-5.057-4.873-6.407-4.873-6.407-3.968-2.716.307-2.661.307-2.661,4.4.307,6.712,4.513,6.712,4.513,3.906,6.7,10.254,4.764,12.759,3.644a9.342,9.342,0,0,1,2.773-5.86c-9.729-1.1-19.955-4.865-19.955-21.657a16.9,16.9,0,0,1,4.508-11.756c-.5-1.106-1.971-5.561.384-11.595,0,0,3.669-1.176,12.048,4.491a41.291,41.291,0,0,1,21.905,0c8.328-5.666,11.993-4.491,11.993-4.491a16.011,16.011,0,0,1,.437,11.595,16.972,16.972,0,0,1,4.492,11.756c0,16.831-10.241,20.536-19.988,21.614,1.534,1.313,2.957,4,2.957,8.1,0,5.865-.055,10.573-.055,12,0,1.15.767,2.519,3.011,2.081a43.756,43.756,0,0,0,27.832-55.269A43.755,43.755,0,0,0-1691-1109.028" transform="translate(1734.797 1109.028)" fill="#8ac9ed"/>
      </g>
      <g id="Group_3181" data-name="Group 3181" transform="translate(-1409 -1205.411)">
        <g id="Group_3164" data-name="Group 3164" transform="translate(59.759 9.094)">
          <circle id="Ellipse_416" data-name="Ellipse 416" cx="44.031" cy="44.031" r="44.031" transform="translate(1.854 1.854)" fill="#ffda7e"/>
          <path id="Path_7429" data-name="Path 7429" d="M-1272.675-1097.8a45.851,45.851,0,0,1-16.752-3.187,45.937,45.937,0,0,1-25.98-59.461,45.938,45.938,0,0,1,59.46-25.981,45.584,45.584,0,0,1,25.305,24.35,45.581,45.581,0,0,1,.676,35.111,45.584,45.584,0,0,1-24.349,25.305A45.786,45.786,0,0,1-1272.675-1097.8Zm.037-88.088a42.248,42.248,0,0,0-39.32,26.791,42.226,42.226,0,0,0,23.882,54.659,41.9,41.9,0,0,0,32.276-.621,41.9,41.9,0,0,0,22.383-23.261,41.9,41.9,0,0,0-.621-32.276,41.9,41.9,0,0,0-23.262-22.384A41.96,41.96,0,0,0-1272.638-1185.892Z" transform="translate(1318.572 1189.597)" fill="#ffda7e"/>
        </g>
        <g id="Group_3165" data-name="Group 3165" transform="translate(99.335 48.674)">
          <path id="Path_7430" data-name="Path 7430" d="M-1269.537-1134.256a6.3,6.3,0,0,1-2.3-.438,6.263,6.263,0,0,1-3.477-3.345,6.267,6.267,0,0,1-.093-4.825,6.313,6.313,0,0,1,8.17-3.569h0a6.259,6.259,0,0,1,3.476,3.345,6.262,6.262,0,0,1,.094,4.825,6.263,6.263,0,0,1-3.346,3.476A6.285,6.285,0,0,1-1269.537-1134.256Zm0-8.907a2.607,2.607,0,0,0-2.424,1.652,2.588,2.588,0,0,0,.038,1.989,2.584,2.584,0,0,0,1.434,1.379,2.579,2.579,0,0,0,1.99-.038,2.584,2.584,0,0,0,1.378-1.434,2.584,2.584,0,0,0-.038-1.989,2.584,2.584,0,0,0-1.433-1.379h0A2.594,2.594,0,0,0-1269.535-1143.164Z" transform="translate(1275.847 1146.868)" fill="#fff"/>
        </g>
        <g id="Group_3166" data-name="Group 3166" transform="translate(103.791 15.624)">
          <path id="Path_7431" data-name="Path 7431" d="M-1269.184-1171.887a1.852,1.852,0,0,1-1.853-1.853v-6.955a1.853,1.853,0,0,1,1.853-1.853,1.853,1.853,0,0,1,1.853,1.853v6.955A1.853,1.853,0,0,1-1269.184-1171.887Z" transform="translate(1271.037 1182.547)" fill="#fff"/>
        </g>
        <g id="Group_3167" data-name="Group 3167" transform="translate(103.791 83.672)">
          <path id="Path_7432" data-name="Path 7432" d="M-1269.184-1098.426a1.853,1.853,0,0,1-1.853-1.853v-6.955a1.852,1.852,0,0,1,1.853-1.853,1.853,1.853,0,0,1,1.853,1.853v6.955A1.853,1.853,0,0,1-1269.184-1098.426Z" transform="translate(1271.037 1109.086)" fill="#fff"/>
        </g>
        <g id="Group_3168" data-name="Group 3168" transform="translate(134.337 53.125)">
          <path id="Path_7433" data-name="Path 7433" d="M-1229.254-1138.358h-6.955a1.853,1.853,0,0,1-1.853-1.853,1.853,1.853,0,0,1,1.853-1.853h6.955a1.853,1.853,0,0,1,1.853,1.853A1.852,1.852,0,0,1-1229.254-1138.358Z" transform="translate(1238.061 1142.063)" fill="#fff"/>
        </g>
        <g id="Group_3169" data-name="Group 3169" transform="translate(66.289 53.125)">
          <path id="Path_7434" data-name="Path 7434" d="M-1302.715-1138.358h-6.955a1.853,1.853,0,0,1-1.853-1.853,1.853,1.853,0,0,1,1.853-1.853h6.955a1.853,1.853,0,0,1,1.853,1.853A1.852,1.852,0,0,1-1302.715-1138.358Z" transform="translate(1311.522 1142.063)" fill="#fff"/>
        </g>
        <g id="Group_3170" data-name="Group 3170" transform="translate(125.39 74.725)">
          <path id="Path_7435" data-name="Path 7435" d="M-1240.949-1110.122a1.846,1.846,0,0,1-1.31-.542l-4.919-4.919a1.852,1.852,0,0,1,0-2.62,1.852,1.852,0,0,1,2.62,0l4.919,4.918a1.854,1.854,0,0,1,0,2.621A1.85,1.85,0,0,1-1240.949-1110.122Z" transform="translate(1247.72 1118.745)" fill="#fff"/>
        </g>
        <g id="Group_3171" data-name="Group 3171" transform="translate(77.273 26.608)">
          <path id="Path_7436" data-name="Path 7436" d="M-1292.894-1162.066a1.851,1.851,0,0,1-1.31-.543l-4.918-4.918a1.852,1.852,0,0,1,0-2.62,1.852,1.852,0,0,1,2.62,0l4.918,4.919a1.851,1.851,0,0,1,0,2.62A1.848,1.848,0,0,1-1292.894-1162.066Z" transform="translate(1299.665 1170.69)" fill="#fff"/>
        </g>
        <g id="Group_3172" data-name="Group 3172" transform="translate(77.273 74.725)">
          <path id="Path_7437" data-name="Path 7437" d="M-1297.811-1110.122a1.847,1.847,0,0,1-1.31-.542,1.852,1.852,0,0,1,0-2.621l4.918-4.918a1.852,1.852,0,0,1,2.62,0,1.851,1.851,0,0,1,0,2.62l-4.918,4.919A1.85,1.85,0,0,1-1297.811-1110.122Z" transform="translate(1299.665 1118.745)" fill="#fff"/>
        </g>
        <g id="Group_3173" data-name="Group 3173" transform="translate(125.39 26.608)">
          <path id="Path_7438" data-name="Path 7438" d="M-1245.867-1162.066a1.85,1.85,0,0,1-1.31-.543,1.852,1.852,0,0,1,0-2.62l4.919-4.919a1.852,1.852,0,0,1,2.62,0,1.853,1.853,0,0,1,0,2.62l-4.919,4.918A1.848,1.848,0,0,1-1245.867-1162.066Z" transform="translate(1247.72 1170.69)" fill="#fff"/>
        </g>
        <g id="Group_3174" data-name="Group 3174" transform="translate(102.166 48.98)">
          <path id="Path_7439" data-name="Path 7439" d="M-1246.912-1129.91a1.886,1.886,0,0,1-.352-.033l-24.024-4.632a1.853,1.853,0,0,1-1.468-2.17,1.856,1.856,0,0,1,2.17-1.468l14.193,2.737-12.275-7.635a1.852,1.852,0,0,1-.595-2.551,1.851,1.851,0,0,1,2.552-.595l20.776,12.922a1.854,1.854,0,0,1,.747,2.249A1.854,1.854,0,0,1-1246.912-1129.91Z" transform="translate(1272.791 1146.538)" fill="#fff"/>
        </g>
        <g id="Group_3175" data-name="Group 3175" transform="translate(88.818)">
          <path id="Path_7440" data-name="Path 7440" d="M-1255.661-1184.073a1.853,1.853,0,0,1-1.853-1.853v-9.783H-1283.5v9.783a1.853,1.853,0,0,1-1.853,1.853,1.853,1.853,0,0,1-1.853-1.853v-11.635a1.853,1.853,0,0,1,1.853-1.853h29.688a1.853,1.853,0,0,1,1.853,1.853v11.635A1.853,1.853,0,0,1-1255.661-1184.073Z" transform="translate(1287.201 1199.414)" fill="#ffda7e"/>
        </g>
        <g id="Group_3176" data-name="Group 3176" transform="translate(7.541 32.16)">
          <path id="Path_7441" data-name="Path 7441" d="M-1315.563-1160.991h-57.528a1.853,1.853,0,0,1-1.853-1.853,1.853,1.853,0,0,1,1.853-1.853h57.528a1.853,1.853,0,0,1,1.853,1.853A1.853,1.853,0,0,1-1315.563-1160.991Z" transform="translate(1374.943 1164.696)" fill="#ffda7e"/>
        </g>
        <g id="Group_3177" data-name="Group 3177" transform="translate(36.69 47.428)">
          <path id="Path_7442" data-name="Path 7442" d="M-1318.565-1144.508h-23.058a1.853,1.853,0,0,1-1.853-1.853,1.853,1.853,0,0,1,1.853-1.853h23.058a1.853,1.853,0,0,1,1.853,1.853A1.853,1.853,0,0,1-1318.565-1144.508Z" transform="translate(1343.475 1148.213)" fill="#ffda7e"/>
        </g>
        <g id="Group_3178" data-name="Group 3178" transform="translate(0 47.428)">
          <path id="Path_7443" data-name="Path 7443" d="M-1357.19-1144.508h-24.042a1.853,1.853,0,0,1-1.853-1.853,1.852,1.852,0,0,1,1.853-1.853h24.042a1.853,1.853,0,0,1,1.853,1.853A1.853,1.853,0,0,1-1357.19-1144.508Z" transform="translate(1383.084 1148.213)" fill="#ffda7e"/>
        </g>
        <g id="Group_3179" data-name="Group 3179" transform="translate(22.923 63.329)">
          <path id="Path_7444" data-name="Path 7444" d="M-1318.443-1127.342h-38.042a1.852,1.852,0,0,1-1.853-1.853,1.853,1.853,0,0,1,1.853-1.853h38.042a1.853,1.853,0,0,1,1.853,1.853A1.852,1.852,0,0,1-1318.443-1127.342Z" transform="translate(1358.337 1131.047)" fill="#ffda7e"/>
        </g>
        <g id="Group_3180" data-name="Group 3180" transform="translate(7.078 77.184)">
          <path id="Path_7445" data-name="Path 7445" d="M-1313.756-1112.385h-59.834a1.853,1.853,0,0,1-1.853-1.853,1.853,1.853,0,0,1,1.853-1.853h59.834a1.852,1.852,0,0,1,1.853,1.853A1.853,1.853,0,0,1-1313.756-1112.385Z" transform="translate(1375.443 1116.09)" fill="#ffda7e"/>
        </g>
      </g>
      <g id="Group_3182" data-name="Group 3182" transform="translate(-1285.317 -932.225)">
        <path id="Path_7446" data-name="Path 7446" d="M-1243.26-840.025a1.84,1.84,0,0,1-.835-.2,1.853,1.853,0,0,1-.966-2.081l7.5-31.611h-10.151a1.856,1.856,0,0,1-1.5-.763,1.857,1.857,0,0,1-.263-1.662l8.73-26.874a1.854,1.854,0,0,1,1.762-1.28h28.756a1.856,1.856,0,0,1,1.562.856,1.852,1.852,0,0,1,.119,1.776l-6.314,13.635h9.425a1.852,1.852,0,0,1,1.681,1.075,1.851,1.851,0,0,1-.271,1.977l-37.829,44.5A1.85,1.85,0,0,1-1243.26-840.025Zm-1.9-37.6h9.946a1.854,1.854,0,0,1,1.453.7,1.854,1.854,0,0,1,.349,1.577l-6.264,26.388,30.239-35.57h-8.318a1.854,1.854,0,0,1-1.561-.855,1.85,1.85,0,0,1-.119-1.776l6.313-13.636h-24.511Z" transform="translate(1249.563 904.497)" fill="#ffda7e"/>
      </g>
      <g id="Group_3183" data-name="Group 3183" transform="translate(-1272.822 -911.763)">
        <path id="Path_7447" data-name="Path 7447" d="M-1234.22-872.29a1.853,1.853,0,0,1-1.45-.7,1.852,1.852,0,0,1-.357-1.569c1.829-7.962,5.881-7.988,7.093-7.806a4.466,4.466,0,0,1,3.721,4.766C-1225.307-876.353-1226.233-872.29-1234.22-872.29Zm4.655-6.416c-.5,0-1.339.694-2.083,2.5,1.907-.363,2.7-1.113,2.742-1.666a.788.788,0,0,0-.584-.824A.488.488,0,0,0-1229.566-878.705Z" transform="translate(1236.074 882.407)" fill="#ffda7e"/>
      </g>
      <g id="Group_3184" data-name="Group 3184" transform="translate(-1480.549 -1063.199)">
        <path id="Path_7448" data-name="Path 7448" d="M-1456.324-1041.889v212.017l143.612-29.1V-1028Z" transform="translate(1460.029 1045.595)" fill="#fff"/>
        <path id="Path_7449" data-name="Path 7449" d="M-1456.619-826.462a3.71,3.71,0,0,1-2.346-.836,3.709,3.709,0,0,1-1.359-2.869v-212.018a3.7,3.7,0,0,1,1.214-2.743,3.7,3.7,0,0,1,2.847-.945l143.613,13.889a3.7,3.7,0,0,1,3.349,3.688v169.028a3.706,3.706,0,0,1-2.97,3.631l-143.612,29.1A3.738,3.738,0,0,1-1456.619-826.462Zm3.705-211.642V-834.7l136.2-27.6v-162.634Z" transform="translate(1460.324 1045.889)" fill="#8ac9ed"/>
      </g>
      <g id="Group_3185" data-name="Group 3185" transform="translate(-1624.162 -1063.199)">
        <path id="Path_7450" data-name="Path 7450" d="M-1467.748-1041.889v212.017l-143.612-29.1V-1028Z" transform="translate(1615.066 1045.595)" fill="#8ac9ed"/>
        <path id="Path_7451" data-name="Path 7451" d="M-1468.043-826.462a3.724,3.724,0,0,1-.735-.073l-143.612-29.1a3.706,3.706,0,0,1-2.971-3.631V-1028.3a3.7,3.7,0,0,1,3.349-3.688l143.612-13.889a3.712,3.712,0,0,1,2.847.945,3.7,3.7,0,0,1,1.215,2.743v212.018a3.707,3.707,0,0,1-1.36,2.869A3.707,3.707,0,0,1-1468.043-826.462ZM-1607.95-862.3l136.2,27.6V-1038.1l-136.2,13.172Z" transform="translate(1615.361 1045.889)" fill="#8ac9ed"/>
      </g>
      <g id="Group_3186" data-name="Group 3186" transform="translate(-1441.304 -1014.447)">
        <path id="Path_7452" data-name="Path 7452" d="M-1349.043-989.258l-62.28,49.852a6.711,6.711,0,0,0,.429,10.965l61.851,42.734" transform="translate(1417.663 992.964)" fill="#fff"/>
        <path id="Path_7453" data-name="Path 7453" d="M-1349.341-882.3a3.684,3.684,0,0,1-2.1-.658l-61.851-42.734a10.54,10.54,0,0,1-4.657-8.331,10.456,10.456,0,0,1,4.018-8.574l62.28-49.853a3.7,3.7,0,0,1,5.209.577,3.7,3.7,0,0,1-.577,5.208l-62.28,49.853a3.076,3.076,0,0,0-1.244,2.528,3.157,3.157,0,0,0,1.463,2.5l61.851,42.734a3.705,3.705,0,0,1,.943,5.155A3.7,3.7,0,0,1-1349.341-882.3Z" transform="translate(1417.958 993.259)" fill="#8ac9ed"/>
      </g>
      <g id="Group_3187" data-name="Group 3187" transform="translate(-1595.032 -785.045)">
        <line id="Line_1460" data-name="Line 1460" y2="39.304" transform="translate(3.705 3.705)" fill="#fff"/>
        <path id="Path_7454" data-name="Path 7454" d="M-1580.209-698.894a3.705,3.705,0,0,1-3.705-3.705v-39.3a3.705,3.705,0,0,1,3.705-3.705,3.705,3.705,0,0,1,3.705,3.705v39.3A3.705,3.705,0,0,1-1580.209-698.894Z" transform="translate(1583.914 745.609)" fill="#8ac9ed"/>
      </g>
      <g id="Group_3188" data-name="Group 3188" transform="translate(-1595.032 -874.38)">
        <line id="Line_1461" data-name="Line 1461" y2="65.967" transform="translate(3.705 3.705)" fill="#fff"/>
        <path id="Path_7455" data-name="Path 7455" d="M-1580.209-768.673a3.705,3.705,0,0,1-3.705-3.705v-65.967a3.705,3.705,0,0,1,3.705-3.705,3.705,3.705,0,0,1,3.705,3.705v65.967A3.705,3.705,0,0,1-1580.209-768.673Z" transform="translate(1583.914 842.05)" fill="#8ac9ed"/>
      </g>
      <g id="Group_3189" data-name="Group 3189" transform="translate(-1499.068 -826.743)">
        <line id="Line_1462" data-name="Line 1462" y2="120.29" transform="translate(3.706 3.706)" fill="#fff"/>
        <path id="Path_7456" data-name="Path 7456" d="M-1476.611-662.923a3.705,3.705,0,0,1-3.705-3.705v-120.29a3.705,3.705,0,0,1,3.705-3.705,3.705,3.705,0,0,1,3.705,3.705v120.29A3.705,3.705,0,0,1-1476.611-662.923Z" transform="translate(1480.316 790.624)" fill="#8ac9ed"/>
      </g>
      <g id="Group_3190" data-name="Group 3190" transform="translate(-1499.068 -685.918)">
        <line id="Line_1463" data-name="Line 1463" y2="31.746" transform="translate(3.706 3.705)" fill="#fff"/>
        <path id="Path_7457" data-name="Path 7457" d="M-1476.611-599.441a3.705,3.705,0,0,1-3.705-3.705v-31.746a3.705,3.705,0,0,1,3.705-3.705,3.705,3.705,0,0,1,3.705,3.705v31.746A3.705,3.705,0,0,1-1476.611-599.441Z" transform="translate(1480.316 638.597)" fill="#8ac9ed"/>
      </g>
      <g id="Group_3191" data-name="Group 3191" transform="translate(-1369.69 -871.086)">
        <line id="Line_1464" data-name="Line 1464" y2="125.346" transform="translate(3.705 3.706)" fill="#fff"/>
        <path id="Path_7458" data-name="Path 7458" d="M-1336.942-705.738a3.705,3.705,0,0,1-3.705-3.705V-834.79a3.705,3.705,0,0,1,3.705-3.705,3.705,3.705,0,0,1,3.705,3.705v125.346A3.705,3.705,0,0,1-1336.942-705.738Z" transform="translate(1340.647 838.495)" fill="#8ac9ed"/>
      </g>
      <g id="Group_3192" data-name="Group 3192" transform="translate(-1448.837 -716.749)">
        <path id="Path_7459" data-name="Path 7459" d="M-1424.09-634.206l32.964,9.732v-35.674l-32.964-9.732Z" transform="translate(1425.943 671.733)" fill="#ff8d7e"/>
        <path id="Path_7460" data-name="Path 7460" d="M-1391.273-622.769a1.845,1.845,0,0,1-.524-.076l-32.965-9.732a1.853,1.853,0,0,1-1.328-1.777v-35.674a1.854,1.854,0,0,1,.744-1.484,1.848,1.848,0,0,1,1.633-.293l32.965,9.732a1.853,1.853,0,0,1,1.328,1.777v35.674a1.852,1.852,0,0,1-.744,1.484A1.852,1.852,0,0,1-1391.273-622.769Zm-31.112-12.969,29.259,8.638v-31.811l-29.259-8.638Z" transform="translate(1426.09 671.88)" fill="#ff8d7e"/>
      </g>
      <g id="Group_3193" data-name="Group 3193" transform="translate(-1448.837 -726.489)">
        <path id="Path_7461" data-name="Path 7461" d="M-1358.162-670.664l-32.964-9.732-32.964,9.732,32.964,9.741Z" transform="translate(1425.943 682.248)" fill="#ff8d7e"/>
        <path id="Path_7462" data-name="Path 7462" d="M-1391.273-659.218a1.833,1.833,0,0,1-.524-.076l-32.965-9.741a1.853,1.853,0,0,1-1.328-1.778,1.852,1.852,0,0,1,1.328-1.776l32.965-9.732a1.853,1.853,0,0,1,1.049,0l32.964,9.732a1.852,1.852,0,0,1,1.328,1.776,1.853,1.853,0,0,1-1.328,1.778l-32.964,9.741A1.837,1.837,0,0,1-1391.273-659.218Zm-26.424-11.593,26.424,7.809,26.423-7.809-26.423-7.8Z" transform="translate(1426.09 682.396)" fill="#ff8d7e"/>
      </g>
      <g id="Group_3194" data-name="Group 3194" transform="translate(-1415.872 -716.749)">
        <path id="Path_7463" data-name="Path 7463" d="M-1388.65-622.769a1.851,1.851,0,0,1-1.109-.369,1.852,1.852,0,0,1-.744-1.484V-660.3a1.853,1.853,0,0,1,1.328-1.777l32.963-9.732a1.849,1.849,0,0,1,1.634.293,1.854,1.854,0,0,1,.744,1.484v35.674a1.853,1.853,0,0,1-1.328,1.777l-32.964,9.732A1.85,1.85,0,0,1-1388.65-622.769Zm1.853-36.142V-627.1l29.259-8.638v-31.811Zm31.111,24.558h0Z" transform="translate(1390.503 671.88)" fill="#ff8d7e"/>
      </g>
      <g id="Group_3195" data-name="Group 3195" transform="translate(-1401.422 -697.484)">
        <path id="Path_7464" data-name="Path 7464" d="M-1370.819-641.9a3.721,3.721,0,0,1-.5-.033,4.028,4.028,0,0,1-2.842-1.844,4.843,4.843,0,0,1-.7-3.258,4.4,4.4,0,0,1,4.744-4.012,4.027,4.027,0,0,1,2.842,1.845,4.843,4.843,0,0,1,.7,3.258h0a4.842,4.842,0,0,1-1.521,2.964A4.072,4.072,0,0,1-1370.819-641.9Zm.2-5.474c-.167,0-.5.3-.57.823a1.164,1.164,0,0,0,.144.767c.025.039.114.166.211.179s.214-.087.249-.118a1.163,1.163,0,0,0,.337-.7h0a1.165,1.165,0,0,0-.143-.768c-.026-.038-.115-.165-.212-.178Zm2.208,1.188h0Z" transform="translate(1374.904 651.083)" fill="#ff8d7e"/>
      </g>
      <g id="Group_3200" data-name="Group 3200" transform="translate(-1635.885 -1219.387)">
        <g id="Group_3196" data-name="Group 3196">
          <path id="Rectangle_607" data-name="Rectangle 607" d="M19.334,0H52.228A19.334,19.334,0,0,1,71.562,19.334v0A19.334,19.334,0,0,1,52.228,38.668H0a0,0,0,0,1,0,0V19.334A19.334,19.334,0,0,1,19.334,0Z" transform="translate(2.779 2.779)" fill="#ff8d7e"/>
          <path id="Path_7465" data-name="Path 7465" d="M-1573.01-1170.276h-52.228a2.779,2.779,0,0,1-2.779-2.779v-19.334A22.138,22.138,0,0,1-1605.9-1214.5h32.894a22.138,22.138,0,0,1,22.113,22.113A22.138,22.138,0,0,1-1573.01-1170.276Zm-49.449-5.558h49.449a16.574,16.574,0,0,0,16.555-16.555,16.573,16.573,0,0,0-16.555-16.555H-1605.9a16.574,16.574,0,0,0-16.555,16.555Z" transform="translate(1628.017 1214.502)" fill="#ff8d7e"/>
        </g>
        <g id="Group_3197" data-name="Group 3197" transform="translate(34.361 17.913)">
          <circle id="Ellipse_417" data-name="Ellipse 417" cx="4.199" cy="4.199" r="4.199" fill="#fff"/>
        </g>
        <g id="Group_3198" data-name="Group 3198" transform="translate(49.168 17.913)">
          <circle id="Ellipse_418" data-name="Ellipse 418" cx="4.199" cy="4.199" r="4.199" fill="#fff"/>
        </g>
        <g id="Group_3199" data-name="Group 3199" transform="translate(19.554 17.913)">
          <circle id="Ellipse_419" data-name="Ellipse 419" cx="4.199" cy="4.199" r="4.199" fill="#fff"/>
        </g>
      </g>
      <g id="Group_3201" data-name="Group 3201" transform="translate(-1653.355 -778.185)">
        <path id="Path_7466" data-name="Path 7466" d="M-1645.024-687.012a1.852,1.852,0,0,1-1.853-1.853v-47.487a1.852,1.852,0,0,1,1.853-1.853,1.853,1.853,0,0,1,1.853,1.853v47.487A1.853,1.853,0,0,1-1645.024-687.012Z" transform="translate(1646.877 738.204)" fill="#ffda7e"/>
      </g>
      <g id="Group_3202" data-name="Group 3202" transform="translate(-1716.847 -773.701)">
        <path id="Path_7467" data-name="Path 7467" d="M-1713.566-699.844a1.852,1.852,0,0,1-1.853-1.853V-731.51a1.852,1.852,0,0,1,1.853-1.853,1.853,1.853,0,0,1,1.853,1.853V-701.7A1.853,1.853,0,0,1-1713.566-699.844Z" transform="translate(1715.419 733.363)" fill="#ffda7e"/>
      </g>
      <g id="Group_3203" data-name="Group 3203" transform="translate(-1691.076 -754.442)">
        <path id="Path_7468" data-name="Path 7468" d="M-1685.745-645.024a1.853,1.853,0,0,1-1.853-1.853v-63.843a1.853,1.853,0,0,1,1.853-1.853,1.853,1.853,0,0,1,1.853,1.853v63.843A1.853,1.853,0,0,1-1685.745-645.024Z" transform="translate(1687.598 712.572)" fill="#ffda7e"/>
      </g>
      <g id="Group_3204" data-name="Group 3204" transform="translate(-1439.818 -1265.107)">
        <path id="Path_7469" data-name="Path 7469" d="M-1394.213-1226.043h-12.949a1.853,1.853,0,0,1-1.853-1.853v-7.03a15.638,15.638,0,0,1-7.338-13.268,15.682,15.682,0,0,1,15.665-15.665,15.683,15.683,0,0,1,15.666,15.665,15.638,15.638,0,0,1-7.338,13.268v7.03A1.853,1.853,0,0,1-1394.213-1226.043Zm-11.1-3.705h9.244v-6.243a1.853,1.853,0,0,1,.982-1.636,11.948,11.948,0,0,0,6.356-10.566,11.974,11.974,0,0,0-11.961-11.96,11.973,11.973,0,0,0-11.96,11.96,11.948,11.948,0,0,0,6.356,10.566,1.853,1.853,0,0,1,.982,1.636Z" transform="translate(1416.353 1263.859)" fill="#ff8d7e"/>
      </g>
      <g id="Group_3205" data-name="Group 3205" transform="translate(-1426.005 -1280.802)">
        <path id="Path_7470" data-name="Path 7470" d="M-1399.589-1268.769a1.853,1.853,0,0,1-1.853-1.853v-8.328a1.853,1.853,0,0,1,1.853-1.853,1.852,1.852,0,0,1,1.853,1.853v8.328A1.853,1.853,0,0,1-1399.589-1268.769Z" transform="translate(1401.442 1280.802)" fill="#ff8d7e"/>
      </g>
      <g id="Group_3206" data-name="Group 3206" transform="translate(-1447.658 -1271.833)">
        <path id="Path_7471" data-name="Path 7471" d="M-1417.075-1261.526a1.844,1.844,0,0,1-1.31-.543l-5.889-5.889a1.852,1.852,0,0,1,0-2.62,1.852,1.852,0,0,1,2.62,0l5.889,5.889a1.852,1.852,0,0,1,0,2.62A1.845,1.845,0,0,1-1417.075-1261.526Z" transform="translate(1424.817 1271.12)" fill="#ff8d7e"/>
      </g>
      <g id="Group_3207" data-name="Group 3207" transform="translate(-1410.241 -1271.833)">
        <path id="Path_7472" data-name="Path 7472" d="M-1382.571-1261.526a1.845,1.845,0,0,1-1.31-.543,1.852,1.852,0,0,1,0-2.62l5.888-5.889a1.852,1.852,0,0,1,2.62,0,1.851,1.851,0,0,1,0,2.62l-5.888,5.889A1.846,1.846,0,0,1-1382.571-1261.526Z" transform="translate(1384.424 1271.12)" fill="#ff8d7e"/>
      </g>
      <g id="Group_3208" data-name="Group 3208" transform="translate(-1643.493 -1122.412)">
        <path id="Path_7473" data-name="Path 7473" d="M-1627.481-1092.315a8.759,8.759,0,0,1-8.749-8.749,8.759,8.759,0,0,1,8.749-8.749,8.758,8.758,0,0,1,8.748,8.749A8.758,8.758,0,0,1-1627.481-1092.315Zm0-13.793a5.05,5.05,0,0,0-5.044,5.044,5.05,5.05,0,0,0,5.044,5.044,5.049,5.049,0,0,0,5.043-5.044A5.049,5.049,0,0,0-1627.481-1106.108Z" transform="translate(1636.23 1109.813)" fill="#8ac9ed"/>
      </g>
      <g id="Group_3209" data-name="Group 3209" transform="translate(-1442.846 -679.305)">
        <path id="Path_7474" data-name="Path 7474" d="M-1417.769-592.185a1.853,1.853,0,0,1-1.853-1.853v-35.568a1.852,1.852,0,0,1,1.853-1.853,1.853,1.853,0,0,1,1.853,1.853v35.568A1.853,1.853,0,0,1-1417.769-592.185Z" transform="translate(1419.622 631.458)" fill="#ff8d7e"/>
      </g>
      <g id="Group_3210" data-name="Group 3210" transform="translate(-1391.084 -664.972)">
        <path id="Path_7475" data-name="Path 7475" d="M-1361.891-576.712a1.852,1.852,0,0,1-1.853-1.853v-35.568a1.853,1.853,0,0,1,1.853-1.853,1.853,1.853,0,0,1,1.853,1.853v35.568A1.853,1.853,0,0,1-1361.891-576.712Z" transform="translate(1363.743 615.985)" fill="#ff8d7e"/>
      </g>
      <g id="Group_3211" data-name="Group 3211" transform="translate(-1415.872 -643.737)">
        <path id="Path_7476" data-name="Path 7476" d="M-1388.65-553.788a1.853,1.853,0,0,1-1.853-1.853v-35.568a1.852,1.852,0,0,1,1.853-1.853,1.853,1.853,0,0,1,1.853,1.853v35.568A1.853,1.853,0,0,1-1388.65-553.788Z" transform="translate(1390.503 593.061)" fill="#ff8d7e"/>
      </g>
      <g id="Group_3248" data-name="Group 3248" transform="translate(-1613.049 -1226.79)">
        <g id="Group_3212" data-name="Group 3212" transform="translate(52.363 247.048)">
          <path id="Path_7477" data-name="Path 7477" d="M-1516.879-955.659l-.257-.134-14.876,1.8-.056.759c-.285,3.809-2.043,4.657-6.737,6.925l-.739.358c-6.879,3.334-7.495,9.547-7.249,12.953l.087,1.209,35.862-12.554V-945C-1510.847-947.249-1511.439-952.79-1516.879-955.659Z" transform="translate(1546.836 955.793)" fill="#fff"/>
        </g>
        <g id="Group_3213" data-name="Group 3213" transform="translate(22.65 147.247)">
          <path id="Path_7478" data-name="Path 7478" d="M-1537.518-996.782l-.1-2.66c-.41-11.124-.832-22.742-1.14-31.693l-.011-.316-9.5-11.441a.923.923,0,0,1-.21-.678.92.92,0,0,1,.332-.626.914.914,0,0,1,.591-.214.926.926,0,0,1,.713.334l7.972,9.6-.09-2.7c-.172-5.191-.262-8.416-.262-9.326a23.051,23.051,0,0,1,6.761-15.431l1.666-1.6h-37.924a9.293,9.293,0,0,0-8.669,5.1c-2.393,4.472-1.93,10.8,1.125,15.38,2.585,3.879,31.29,37.539,37.017,44.247Z" transform="translate(1578.913 1063.533)" fill="#ffda7e"/>
        </g>
        <g id="Group_3214" data-name="Group 3214" transform="translate(98.864 29.466)">
          <path id="Path_7479" data-name="Path 7479" d="M-1494.058-1160.9a14.734,14.734,0,0,0,4.96.813,11.464,11.464,0,0,0,6.94-1.968.915.915,0,0,1,.564-.192.921.921,0,0,1,.735.361.928.928,0,0,1-.169,1.3,13.343,13.343,0,0,1-8.115,2.346l-1-.019.04.982c.1,2.344-.131,6.748-2.706,9.915l-.407.5.33.556a14.176,14.176,0,0,0,11.221,6.417c.212.01.421.015.632.015,5.532,0,10.409-3.475,13.692-9.718l.069-.107a1.1,1.1,0,0,1,.11-.15.9.9,0,0,1,.122-.113c.03-.022.058-.044.089-.062l.725-.437-.37-.761c-2.325-4.783-2.691-14.1-2.764-20.688-.062-5.807.415-7.337.815-7.591l.369-.145c1.628-.631,4.656-1.807,4.51-5.085-.127-2.862-1.379-4.314-3.725-4.314a10.307,10.307,0,0,0-3.229.643,43.39,43.39,0,0,1-11.749,1.685c-4.887,0-8.618-.982-11.091-2.917l-1.342-1.052-.151,1.7c-.216,2.419-2.087,23.7-1.613,26.155C-1496.413-1162.144-1495.479-1161.423-1494.058-1160.9Z" transform="translate(1496.636 1190.683)" fill="#fff"/>
        </g>
        <g id="Group_3215" data-name="Group 3215" transform="translate(72.46 71.974)">
          <path id="Path_7480" data-name="Path 7480" d="M-1445.628-1136.515c-3.677-3.887-18.81-7.455-21.807-8.131l-.66-.148-.343.583c-4.645,7.915-10.561,9.576-14.707,9.576-.245,0-.481-.006-.7-.017-5.223-.249-10.506-3.349-12.849-7.535l-.3-.531-.6.062c-1.551.157-15.241,1.6-18.22,3.512-2.107,1.355-7.123,12.206-9.183,16.809l-.136.3,8.9,32.2.9-.256a9.182,9.182,0,0,1,2.55-.368h0a32.662,32.662,0,0,1,4.408.359l.52.077.333-.407c.817-1,4.65-6.347-.18-13.514-5.851-8.682-4.69-20.454.064-26a.928.928,0,0,1,.706-.324.93.93,0,0,1,.6.222.925.925,0,0,1,.321.632.921.921,0,0,1-.221.674c-3.649,4.257-5.724,15.168.065,23.76,4.54,6.737,2.267,12.237,1.079,14.288l-.615,1.061,1.189.3c1.07.271,1.878.521,2.367.685l.182.06.19-.016c15.885-1.351,42.2-4.6,45.189-7.576l.138-.137.071-.18c1.315-3.338-2.233-19.843-4.78-29.461a.927.927,0,0,1,.66-1.133.917.917,0,0,1,.24-.032.924.924,0,0,1,.891.691c6.557,24.77,4.986,30.058,4.6,30.866-.429.909-1.567,3.321-24.77,6.4-8.931,1.185-17.762,2.021-21.143,2.326l-.663.06-2.843,11.916,1.2-.024c10-.206,43.659-.947,56.77-1.841,9.591-.653,9.841-19.154,9.948-27.056l.021-1.452C-1436.07-1114.433-1441.332-1131.974-1445.628-1136.515Z" transform="translate(1525.14 1144.794)" fill="#ff8d7e"/>
        </g>
        <g id="Group_3216" data-name="Group 3216" transform="translate(81.857 128.161)">
          <path id="Path_7481" data-name="Path 7481" d="M-1502.434-1082.57l-.856-.241a34.738,34.738,0,0,0-8.828-1.326,7.256,7.256,0,0,0-1.993.3l-.885.25,3.655,13.219h6Z" transform="translate(1514.996 1084.137)" fill="#fff"/>
        </g>
        <g id="Group_3217" data-name="Group 3217" transform="translate(64.192 141.957)">
          <path id="Path_7482" data-name="Path 7482" d="M-1506.018-1067.418h-3.269c-24.5.474-24.779,19.673-24.779,20.49,0,4.714,2.42,68.895,2.9,81.713l.038,1.005,14.323-1.735,15.667-81.159a.929.929,0,0,1,.912-.75.907.907,0,0,1,.173.017.928.928,0,0,1,.735,1.085l-.91,3.793,39.534-3.307.964,2.364.164-.067c.245-.1.478-.2.72-.314,2.369-1.121,5.691-3.551,8.062-8.769a40.171,40.171,0,0,0,2.99-14.625l.067-1.567-1.026.061C-1465.48-1068.2-1505.6-1067.426-1506.018-1067.418Z" transform="translate(1534.066 1069.244)" fill="#ffda7e"/>
        </g>
        <g id="Group_3247" data-name="Group 3247">
          <g id="Group_3218" data-name="Group 3218" transform="translate(96.105 25.988)">
            <path id="Path_7483" data-name="Path 7483" d="M-1489.321-1157.585a17.508,17.508,0,0,1-5.919-.983c-2.426-.895-3.9-2.267-4.257-3.966-.626-2.968,1.437-25.7,1.857-30.222a1.851,1.851,0,0,1,2.016-1.673,1.852,1.852,0,0,1,1.674,2.016c-1.017,10.958-2.285,27.235-1.921,29.116.026.123.429.706,1.914,1.254,3.15,1.162,8.258,1.1,11.017-1.02a1.853,1.853,0,0,1,2.6.339,1.853,1.853,0,0,1-.338,2.6A14.326,14.326,0,0,1-1489.321-1157.585Z" transform="translate(1499.615 1194.438)" fill="#373a36"/>
          </g>
          <g id="Group_3219" data-name="Group 3219" transform="translate(99.331 59.215)">
            <path id="Path_7484" data-name="Path 7484" d="M-1494.278-1142.864a1.85,1.85,0,0,1-1.356-.59,1.853,1.853,0,0,1,.094-2.619c2.883-2.684,2.936-7.948,2.56-10.356a1.852,1.852,0,0,1,1.546-2.115,1.847,1.847,0,0,1,2.116,1.545c.142.911,1.242,9.039-3.7,13.638A1.845,1.845,0,0,1-1494.278-1142.864Z" transform="translate(1496.131 1158.568)" fill="#373a36"/>
          </g>
          <g id="Group_3220" data-name="Group 3220" transform="translate(66.577 71.215)">
            <path id="Path_7485" data-name="Path 7485" d="M-1529.638-1113.187a1.855,1.855,0,0,1-.7-.14,1.852,1.852,0,0,1-1.009-2.418c2.239-5.447,9.833-23.4,13.562-25.8s17.924-3.805,20.735-4.065a1.855,1.855,0,0,1,2.015,1.674,1.852,1.852,0,0,1-1.674,2.016c-6.158.569-16.782,2.02-19.073,3.492-1.877,1.206-7.762,13.444-12.138,24.089A1.852,1.852,0,0,1-1529.638-1113.187Z" transform="translate(1531.491 1145.614)" fill="#373a36"/>
          </g>
          <g id="Group_3221" data-name="Group 3221" transform="translate(90.387 69.072)">
            <path id="Path_7486" data-name="Path 7486" d="M-1503.934-1072.29a1.853,1.853,0,0,1-1.443-.691,1.85,1.85,0,0,1-.359-1.591l3.276-13.731a1.851,1.851,0,0,1,1.646-1.416c19.848-1.672,42.589-4.945,45-7.344,1.049-2.657-1.659-16.972-4.812-28.885a1.852,1.852,0,0,1,1.317-2.265,1.851,1.851,0,0,1,2.265,1.317c6.472,24.452,5.114,30.292,4.545,31.5-.623,1.32-1.784,3.777-25.486,6.921-8.981,1.192-17.884,2.034-21.182,2.331l-2.409,10.1c9.351-.193,43.529-.938,56.725-1.838,8.744-.6,8.983-18.5,9.085-26.152l.021-1.45c.168-8.842-5.037-26.3-9.13-30.627-3.287-3.476-17.469-7.064-22.656-8.152a1.851,1.851,0,0,1-1.432-2.194,1.849,1.849,0,0,1,2.193-1.433c2.024.424,19.914,4.293,24.586,9.233,4.736,5.008,10.329,23.338,10.143,33.243l-.021,1.43c-.126,9.4-.387,28.969-12.54,29.8-15.367,1.048-58.862,1.885-59.3,1.893Zm48.164-24.818Z" transform="translate(1505.787 1147.927)" fill="#373a36"/>
          </g>
          <g id="Group_3222" data-name="Group 3222" transform="translate(85.029 85.575)">
            <path id="Path_7487" data-name="Path 7487" d="M-1506.076-1086.6a1.848,1.848,0,0,1-1.285-.517,1.853,1.853,0,0,1-.05-2.62c.193-.206,4.848-5.323-.06-12.608-6.087-9.032-4.847-21.315.13-27.121a1.853,1.853,0,0,1,2.612-.2,1.852,1.852,0,0,1,.2,2.612c-3.462,4.039-5.407,14.424.13,22.639,5.295,7.858,2.092,14.718-.342,17.248A1.849,1.849,0,0,1-1506.076-1086.6Z" transform="translate(1511.571 1130.111)" fill="#373a36"/>
          </g>
          <g id="Group_3223" data-name="Group 3223" transform="translate(69.409 125.382)">
            <path id="Path_7488" data-name="Path 7488" d="M-1505.6-1067.81h-18.959a3.622,3.622,0,0,1-3.34-1.779c-1.4-2.453.292-6.071,1.427-8.01,2.789-4.759,8-9.538,13.369-9.538h.089a37.675,37.675,0,0,1,11.326,2,1.852,1.852,0,0,1,1.1,2.374,1.853,1.853,0,0,1-2.375,1.106,34.439,34.439,0,0,0-10.09-1.778h-.055c-3.611,0-7.5,3.536-9.769,7.055-1.686,2.619-1.932,4.347-1.836,4.853a1.252,1.252,0,0,0,.151.008h18.959a1.853,1.853,0,0,1,1.853,1.853A1.853,1.853,0,0,1-1505.6-1067.81Z" transform="translate(1528.434 1087.137)" fill="#373a36"/>
          </g>
          <g id="Group_3224" data-name="Group 3224" transform="translate(99.331 69.071)">
            <path id="Path_7489" data-name="Path 7489" d="M-1481.006-1133.94c-.261,0-.511-.006-.748-.017-6.167-.3-12.155-4.194-14.239-9.272a1.853,1.853,0,0,1,1.012-2.417,1.854,1.854,0,0,1,2.418,1.01c1.308,3.19,5.6,6.72,10.986,6.978,5.415.255,10.212-3.036,13.5-9.28a1.852,1.852,0,0,1,2.5-.775,1.851,1.851,0,0,1,.776,2.5C-1469.873-1135.577-1476.853-1133.94-1481.006-1133.94Z" transform="translate(1496.132 1147.927)" fill="#373a36"/>
          </g>
          <g id="Group_3225" data-name="Group 3225" transform="translate(0 87.024)">
            <path id="Path_7490" data-name="Path 7490" d="M-1518.409-1072.567l-14.928-53.981h-68.027l14.928,53.981Z" transform="translate(1603.217 1128.4)" fill="#373a36"/>
            <path id="Path_7491" data-name="Path 7491" d="M-1518.557-1070.862h-68.027a1.852,1.852,0,0,1-1.786-1.359l-14.928-53.98a1.854,1.854,0,0,1,.311-1.616,1.854,1.854,0,0,1,1.475-.731h68.027a1.853,1.853,0,0,1,1.786,1.358l14.927,53.981a1.854,1.854,0,0,1-.311,1.616A1.854,1.854,0,0,1-1518.557-1070.862Zm-66.617-3.705h64.183l-13.9-50.275h-64.182Z" transform="translate(1603.364 1128.547)" fill="#373a36"/>
          </g>
          <g id="Group_3226" data-name="Group 3226" transform="translate(136.809 139.114)">
            <path id="Path_7492" data-name="Path 7492" d="M-1453.819-1041.333a1.853,1.853,0,0,1-1.737-1.209,1.853,1.853,0,0,1,1.093-2.382c4.324-1.6,11.578-7.055,11.578-25.537a1.853,1.853,0,0,1,1.853-1.853,1.853,1.853,0,0,1,1.853,1.853c0,8.9-1.818,24.494-14,29.01A1.848,1.848,0,0,1-1453.819-1041.333Z" transform="translate(1455.673 1072.313)" fill="#373a36"/>
          </g>
          <g id="Group_3227" data-name="Group 3227" transform="translate(61.412 141.005)">
            <path id="Path_7493" data-name="Path 7493" d="M-1532.232-961.392a1.858,1.858,0,0,1-1.2-.443,1.858,1.858,0,0,1-.649-1.339c-.121-3.206-2.984-78.564-2.984-83.83,0-.929.313-22.749,27.517-23.268a1.883,1.883,0,0,1,1.889,1.816,1.854,1.854,0,0,1-1.818,1.888c-23.612.451-23.883,18.783-23.883,19.564,0,4.723,2.439,69.369,2.9,81.677l12.653-1.533,15.54-80.495a1.853,1.853,0,0,1,2.169-1.468,1.852,1.852,0,0,1,1.468,2.17l-15.795,81.82a1.855,1.855,0,0,1-1.6,1.489l-15.992,1.938A1.8,1.8,0,0,1-1532.232-961.392Z" transform="translate(1537.067 1070.272)" fill="#373a36"/>
          </g>
          <g id="Group_3228" data-name="Group 3228" transform="translate(19.852 144.468)">
            <path id="Path_7494" data-name="Path 7494" d="M-1537.2-993.1a1.848,1.848,0,0,1-1.408-.648c-1.517-1.773-37.18-43.476-40.186-47.985-3.656-5.485-4.164-12.812-1.263-18.233a12.078,12.078,0,0,1,11.118-6.568h41.359a1.853,1.853,0,0,1,1.853,1.853,1.852,1.852,0,0,1-1.853,1.853h-41.359a8.412,8.412,0,0,0-7.852,4.61c-2.239,4.184-1.8,10.117,1.079,14.429,2.307,3.463,27.121,32.671,39.919,47.631a1.853,1.853,0,0,1-.2,2.613A1.847,1.847,0,0,1-1537.2-993.1Z" transform="translate(1581.933 1066.533)" fill="#373a36"/>
          </g>
          <g id="Group_3229" data-name="Group 3229" transform="translate(52.153 165.443)">
            <path id="Path_7495" data-name="Path 7495" d="M-1535.627-1028.646a1.851,1.851,0,0,1-1.427-.669l-9.582-11.538a1.852,1.852,0,0,1,.243-2.608,1.852,1.852,0,0,1,2.609.242l9.582,11.537a1.852,1.852,0,0,1-.243,2.609A1.838,1.838,0,0,1-1535.627-1028.646Z" transform="translate(1547.062 1043.89)" fill="#373a36"/>
          </g>
          <g id="Group_3230" data-name="Group 3230" transform="translate(49.568 244.241)">
            <path id="Path_7496" data-name="Path 7496" d="M-1547.59-928.946a1.848,1.848,0,0,1-.872-.218,1.854,1.854,0,0,1-.922-1.168c-1.14-4.382-.852-13.855,8.405-18.342l.739-.357c5.174-2.5,5.274-2.546,5.212-5.97a1.854,1.854,0,0,1,1.82-1.885h.033a1.852,1.852,0,0,1,1.852,1.819c.1,5.794-1.915,6.769-7.306,9.372l-.735.356c-6.42,3.112-6.952,8.959-6.73,12.053l34.1-11.937c0-2.292-.624-7.545-5.979-10.073a1.854,1.854,0,0,1-.884-2.467,1.855,1.855,0,0,1,2.467-.884c7.429,3.508,8.492,11.346,8.018,15a1.855,1.855,0,0,1-1.226,1.509l-37.38,13.087A1.861,1.861,0,0,1-1547.59-928.946Zm37.38-14.939h0Z" transform="translate(1549.854 958.824)" fill="#373a36"/>
          </g>
          <g id="Group_3231" data-name="Group 3231" transform="translate(75.277)">
            <path id="Path_7497" data-name="Path 7497" d="M-1447.691-1174.37c1.581-28.619-5.543-48.123-31.494-48.123s-27.211,25.7-25.952,32c-25.7,16.629-15.872,38.8-10.96,44.847a60.5,60.5,0,0,1,19.9-3.779s4.284-5.9,3.089-12.27l-7.373-1.966,2.7-29.507c5.8,7.965,22.431,4.368,25.576,3.3,4.472-1.512,5.607.019,5.732,2.834.126,2.834-2.771,3.716-4.3,4.33-1.391.56-1.433,4.992-1.4,8.46.084,7.711.552,18.441,3.8,22.672.768,1,18.9,5.733,22.423,7.684s5.243,8.147,8.817,19.09C-1421.242-1153.073-1442.4-1170.087-1447.691-1174.37Z" transform="translate(1522.1 1222.493)" fill="#373a36"/>
          </g>
          <g id="Group_3232" data-name="Group 3232" transform="translate(37.296 110.607)">
            <ellipse id="Ellipse_420" data-name="Ellipse 420" cx="3.779" cy="5.669" rx="3.779" ry="5.669" transform="translate(0 1.86) rotate(-14.243)" fill="#fff"/>
          </g>
          <g id="Group_3233" data-name="Group 3233" transform="translate(96.105 25.988)">
            <path id="Path_7498" data-name="Path 7498" d="M-1489.321-1157.585a17.508,17.508,0,0,1-5.919-.983c-2.426-.895-3.9-2.267-4.257-3.966-.626-2.968,1.437-25.7,1.857-30.222a1.851,1.851,0,0,1,2.016-1.673,1.852,1.852,0,0,1,1.674,2.016c-1.017,10.958-2.285,27.235-1.921,29.116.026.123.429.706,1.914,1.254,3.15,1.162,8.258,1.1,11.017-1.02a1.853,1.853,0,0,1,2.6.339,1.853,1.853,0,0,1-.338,2.6A14.326,14.326,0,0,1-1489.321-1157.585Z" transform="translate(1499.615 1194.438)" fill="#373a36"/>
          </g>
          <g id="Group_3234" data-name="Group 3234" transform="translate(99.331 59.215)">
            <path id="Path_7499" data-name="Path 7499" d="M-1494.278-1142.864a1.85,1.85,0,0,1-1.356-.59,1.853,1.853,0,0,1,.094-2.619c2.883-2.684,2.936-7.948,2.56-10.356a1.852,1.852,0,0,1,1.546-2.115,1.847,1.847,0,0,1,2.116,1.545c.142.911,1.242,9.039-3.7,13.638A1.845,1.845,0,0,1-1494.278-1142.864Z" transform="translate(1496.131 1158.568)" fill="#373a36"/>
          </g>
          <g id="Group_3235" data-name="Group 3235" transform="translate(66.577 71.215)">
            <path id="Path_7500" data-name="Path 7500" d="M-1529.638-1113.187a1.855,1.855,0,0,1-.7-.14,1.852,1.852,0,0,1-1.009-2.418c2.239-5.447,9.833-23.4,13.562-25.8s17.924-3.805,20.735-4.065a1.855,1.855,0,0,1,2.015,1.674,1.852,1.852,0,0,1-1.674,2.016c-6.158.569-16.782,2.02-19.073,3.492-1.877,1.206-7.762,13.444-12.138,24.089A1.852,1.852,0,0,1-1529.638-1113.187Z" transform="translate(1531.491 1145.614)" fill="#373a36"/>
          </g>
          <g id="Group_3236" data-name="Group 3236" transform="translate(90.387 69.072)">
            <path id="Path_7501" data-name="Path 7501" d="M-1503.934-1072.29a1.853,1.853,0,0,1-1.443-.691,1.85,1.85,0,0,1-.359-1.591l3.276-13.731a1.851,1.851,0,0,1,1.646-1.416c19.848-1.672,42.589-4.945,45-7.344,1.049-2.657-1.659-16.972-4.812-28.885a1.852,1.852,0,0,1,1.317-2.265,1.851,1.851,0,0,1,2.265,1.317c6.472,24.452,5.114,30.292,4.545,31.5-.623,1.32-1.784,3.777-25.486,6.921-8.981,1.192-17.884,2.034-21.182,2.331l-2.409,10.1c9.351-.193,43.529-.938,56.725-1.838,8.744-.6,8.983-18.5,9.085-26.152l.021-1.45c.168-8.842-5.037-26.3-9.13-30.627-3.287-3.476-17.469-7.064-22.656-8.152a1.851,1.851,0,0,1-1.432-2.194,1.849,1.849,0,0,1,2.193-1.433c2.024.424,19.914,4.293,24.586,9.233,4.736,5.008,10.329,23.338,10.143,33.243l-.021,1.43c-.126,9.4-.387,28.969-12.54,29.8-15.367,1.048-58.862,1.885-59.3,1.893Zm48.164-24.818Z" transform="translate(1505.787 1147.927)" fill="#373a36"/>
          </g>
          <g id="Group_3237" data-name="Group 3237" transform="translate(85.029 85.575)">
            <path id="Path_7502" data-name="Path 7502" d="M-1506.076-1086.6a1.848,1.848,0,0,1-1.285-.517,1.853,1.853,0,0,1-.05-2.62c.193-.206,4.848-5.323-.06-12.608-6.087-9.032-4.847-21.315.13-27.121a1.853,1.853,0,0,1,2.612-.2,1.852,1.852,0,0,1,.2,2.612c-3.462,4.039-5.407,14.424.13,22.639,5.295,7.858,2.092,14.718-.342,17.248A1.849,1.849,0,0,1-1506.076-1086.6Z" transform="translate(1511.571 1130.111)" fill="#373a36"/>
          </g>
          <g id="Group_3238" data-name="Group 3238" transform="translate(69.409 125.382)">
            <path id="Path_7503" data-name="Path 7503" d="M-1505.6-1067.81h-18.959a3.622,3.622,0,0,1-3.34-1.779c-1.4-2.453.292-6.071,1.427-8.01,2.789-4.759,8-9.538,13.369-9.538h.089a37.675,37.675,0,0,1,11.326,2,1.852,1.852,0,0,1,1.1,2.374,1.853,1.853,0,0,1-2.375,1.106,34.439,34.439,0,0,0-10.09-1.778h-.055c-3.611,0-7.5,3.536-9.769,7.055-1.686,2.619-1.932,4.347-1.836,4.853a1.252,1.252,0,0,0,.151.008h18.959a1.853,1.853,0,0,1,1.853,1.853A1.853,1.853,0,0,1-1505.6-1067.81Z" transform="translate(1528.434 1087.137)" fill="#373a36"/>
          </g>
          <g id="Group_3239" data-name="Group 3239" transform="translate(99.331 69.071)">
            <path id="Path_7504" data-name="Path 7504" d="M-1481.006-1133.94c-.261,0-.511-.006-.748-.017-6.167-.3-12.155-4.194-14.239-9.272a1.853,1.853,0,0,1,1.012-2.417,1.854,1.854,0,0,1,2.418,1.01c1.308,3.19,5.6,6.72,10.986,6.978,5.415.255,10.212-3.036,13.5-9.28a1.852,1.852,0,0,1,2.5-.775,1.851,1.851,0,0,1,.776,2.5C-1469.873-1135.577-1476.853-1133.94-1481.006-1133.94Z" transform="translate(1496.132 1147.927)" fill="#373a36"/>
          </g>
          <g id="Group_3240" data-name="Group 3240" transform="translate(136.809 139.114)">
            <path id="Path_7505" data-name="Path 7505" d="M-1453.819-1041.333a1.853,1.853,0,0,1-1.737-1.209,1.853,1.853,0,0,1,1.093-2.382c4.324-1.6,11.578-7.055,11.578-25.537a1.853,1.853,0,0,1,1.853-1.853,1.853,1.853,0,0,1,1.853,1.853c0,8.9-1.818,24.494-14,29.01A1.848,1.848,0,0,1-1453.819-1041.333Z" transform="translate(1455.673 1072.313)" fill="#373a36"/>
          </g>
          <g id="Group_3241" data-name="Group 3241" transform="translate(61.412 141.005)">
            <path id="Path_7506" data-name="Path 7506" d="M-1532.232-961.392a1.858,1.858,0,0,1-1.2-.443,1.858,1.858,0,0,1-.649-1.339c-.121-3.206-2.984-78.564-2.984-83.83,0-.929.313-22.749,27.517-23.268a1.883,1.883,0,0,1,1.889,1.816,1.854,1.854,0,0,1-1.818,1.888c-23.612.451-23.883,18.783-23.883,19.564,0,4.723,2.439,69.369,2.9,81.677l12.653-1.533,15.54-80.495a1.853,1.853,0,0,1,2.169-1.468,1.852,1.852,0,0,1,1.468,2.17l-15.795,81.82a1.855,1.855,0,0,1-1.6,1.489l-15.992,1.938A1.8,1.8,0,0,1-1532.232-961.392Z" transform="translate(1537.067 1070.272)" fill="#373a36"/>
          </g>
          <g id="Group_3242" data-name="Group 3242" transform="translate(19.852 144.468)">
            <path id="Path_7507" data-name="Path 7507" d="M-1537.2-993.1a1.848,1.848,0,0,1-1.408-.648c-1.517-1.773-37.18-43.476-40.186-47.985-3.656-5.485-4.164-12.812-1.263-18.233a12.078,12.078,0,0,1,11.118-6.568h41.359a1.853,1.853,0,0,1,1.853,1.853,1.852,1.852,0,0,1-1.853,1.853h-41.359a8.412,8.412,0,0,0-7.852,4.61c-2.239,4.184-1.8,10.117,1.079,14.429,2.307,3.463,27.121,32.671,39.919,47.631a1.853,1.853,0,0,1-.2,2.613A1.847,1.847,0,0,1-1537.2-993.1Z" transform="translate(1581.933 1066.533)" fill="#373a36"/>
          </g>
          <g id="Group_3243" data-name="Group 3243" transform="translate(52.153 165.443)">
            <path id="Path_7508" data-name="Path 7508" d="M-1535.627-1028.646a1.851,1.851,0,0,1-1.427-.669l-9.582-11.538a1.852,1.852,0,0,1,.243-2.608,1.852,1.852,0,0,1,2.609.242l9.582,11.537a1.852,1.852,0,0,1-.243,2.609A1.838,1.838,0,0,1-1535.627-1028.646Z" transform="translate(1547.062 1043.89)" fill="#373a36"/>
          </g>
          <g id="Group_3244" data-name="Group 3244" transform="translate(49.568 244.241)">
            <path id="Path_7509" data-name="Path 7509" d="M-1547.59-928.946a1.848,1.848,0,0,1-.872-.218,1.854,1.854,0,0,1-.922-1.168c-1.14-4.382-.852-13.855,8.405-18.342l.739-.357c5.174-2.5,5.274-2.546,5.212-5.97a1.854,1.854,0,0,1,1.82-1.885h.033a1.852,1.852,0,0,1,1.852,1.819c.1,5.794-1.915,6.769-7.306,9.372l-.735.356c-6.42,3.112-6.952,8.959-6.73,12.053l34.1-11.937c0-2.292-.624-7.545-5.979-10.073a1.854,1.854,0,0,1-.884-2.467,1.855,1.855,0,0,1,2.467-.884c7.429,3.508,8.492,11.346,8.018,15a1.855,1.855,0,0,1-1.226,1.509l-37.38,13.087A1.861,1.861,0,0,1-1547.59-928.946Zm37.38-14.939h0Z" transform="translate(1549.854 958.824)" fill="#373a36"/>
          </g>
          <g id="Group_3245" data-name="Group 3245" transform="translate(75.277)">
            <path id="Path_7510" data-name="Path 7510" d="M-1447.691-1174.37c1.581-28.619-5.543-48.123-31.494-48.123s-27.211,25.7-25.952,32c-25.7,16.629-15.872,38.8-10.96,44.847a60.5,60.5,0,0,1,19.9-3.779s4.284-5.9,3.089-12.27l-7.373-1.966,2.7-29.507c5.8,7.965,22.431,4.368,25.576,3.3,4.472-1.512,5.607.019,5.732,2.834.126,2.834-2.771,3.716-4.3,4.33-1.391.56-1.433,4.992-1.4,8.46.084,7.711.552,18.441,3.8,22.672.768,1,18.9,5.733,22.423,7.684s5.243,8.147,8.817,19.09C-1421.242-1153.073-1442.4-1170.087-1447.691-1174.37Z" transform="translate(1522.1 1222.493)" fill="#373a36"/>
          </g>
          <g id="Group_3246" data-name="Group 3246" transform="translate(37.296 110.607)">
            <ellipse id="Ellipse_421" data-name="Ellipse 421" cx="3.779" cy="5.669" rx="3.779" ry="5.669" transform="translate(0 1.86) rotate(-14.243)" fill="#fff"/>
          </g>
        </g>
      </g>
      <g id="Group_3249" data-name="Group 3249" transform="translate(-1479.622 -1062.273)">
        <path id="Path_7511" data-name="Path 7511" d="M-1384.518-1034.945l-71.806-6.944V-998.3" transform="translate(1459.103 1044.669)" fill="#fff"/>
        <path id="Path_7512" data-name="Path 7512" d="M-1456.545-995.743a2.779,2.779,0,0,1-2.779-2.779v-43.589a2.781,2.781,0,0,1,.911-2.057,2.764,2.764,0,0,1,2.136-.708l71.806,6.945a2.779,2.779,0,0,1,2.5,3.033,2.774,2.774,0,0,1-3.035,2.5l-68.76-6.649v40.527A2.779,2.779,0,0,1-1456.545-995.743Z" transform="translate(1459.324 1044.89)" fill="#8ac9ed"/>
      </g>
      <g id="Group_3250" data-name="Group 3250" transform="translate(-1517.794 -1062.273)">
        <path id="Path_7513" data-name="Path 7513" d="M-1459.582-999.272a2.778,2.778,0,0,1-2.779-2.779v-37l-35.124,3.4a2.779,2.779,0,0,1-3.035-2.5,2.779,2.779,0,0,1,2.5-3.033l38.171-3.691a2.761,2.761,0,0,1,2.135.708,2.782,2.782,0,0,1,.911,2.057v40.06A2.779,2.779,0,0,1-1459.582-999.272Z" transform="translate(1500.532 1044.89)" fill="#8ac9ed"/>
      </g>
      <g id="Group_3251" data-name="Group 3251" transform="translate(-1548.654 -1064.37)">
        <path id="Path_7514" data-name="Path 7514" d="M-1532-959.689a1.853,1.853,0,0,1-1.836-1.63,1.853,1.853,0,0,1,1.616-2.062l14.651-1.776,15.54-80.495a1.853,1.853,0,0,1,2.169-1.468,1.852,1.852,0,0,1,1.468,2.17l-15.795,81.82a1.855,1.855,0,0,1-1.6,1.489l-15.992,1.938A1.843,1.843,0,0,1-1532-959.689Z" transform="translate(1533.847 1047.153)" fill="#373a36"/>
      </g>
      <g id="Axo_Extrusion" data-name="Axo Extrusion" transform="translate(-1727.957 -845.703)">
        <g id="Axo_Surface_" data-name="Axo Surface*" transform="translate(0)">
          <g id="Axo_panel" data-name="Axo panel" transform="translate(47.498 8.292)">
            <path id="Path_7515" data-name="Path 7515" d="M-1674.137-730.148v-59.8l38.631-10.195v59.8Z" transform="translate(1675.99 801.993)" fill="#ffda7e"/>
            <path id="Path_7516" data-name="Path 7516" d="M-1674.284-728.443a1.858,1.858,0,0,1-1.131-.384,1.855,1.855,0,0,1-.722-1.468v-59.8a1.851,1.851,0,0,1,1.379-1.791l38.631-10.2a1.853,1.853,0,0,1,1.6.323,1.854,1.854,0,0,1,.722,1.467v59.8a1.85,1.85,0,0,1-1.379,1.791l-38.631,10.2A1.878,1.878,0,0,1-1674.284-728.443Zm1.853-60.223V-732.7l34.926-9.217v-55.965Z" transform="translate(1676.137 802.14)" fill="#ffda7e"/>
          </g>
          <g id="Axo_panel-2" data-name="Axo panel">
            <path id="Path_7517" data-name="Path 7517" d="M-1677.915-790.605l-47.5-8.292,38.631-10.195,47.5,8.292Z" transform="translate(1727.266 810.945)" fill="#ffda7e"/>
            <path id="Path_7518" data-name="Path 7518" d="M-1678.063-788.9a1.847,1.847,0,0,1-.319-.028l-47.5-8.292a1.852,1.852,0,0,1-1.532-1.746,1.853,1.853,0,0,1,1.378-1.87l38.631-10.194a1.83,1.83,0,0,1,.792-.034l47.5,8.291a1.852,1.852,0,0,1,1.532,1.746,1.853,1.853,0,0,1-1.377,1.87l-38.631,10.2A1.861,1.861,0,0,1-1678.063-788.9Zm-38.839-10.513,38.759,6.766,30.053-7.931-38.759-6.766Z" transform="translate(1727.413 811.092)" fill="#ffda7e"/>
          </g>
        </g>
        <g id="Axo_cap" data-name="Axo cap" transform="translate(0 10.195)">
          <g id="Axo_base" data-name="Axo base">
            <path id="Path_7519" data-name="Path 7519" d="M-1678.063-728.292a1.867,1.867,0,0,1-.319-.027l-47.5-8.292a1.852,1.852,0,0,1-1.534-1.825v-59.8a1.849,1.849,0,0,1,.661-1.418,1.847,1.847,0,0,1,1.511-.407l47.5,8.292a1.852,1.852,0,0,1,1.534,1.825v59.8a1.852,1.852,0,0,1-.66,1.418A1.85,1.85,0,0,1-1678.063-728.292Zm-45.645-11.7,43.792,7.645v-56.036l-43.792-7.645Z" transform="translate(1727.413 800.086)" fill="#ffda7e"/>
          </g>
        </g>
      </g>
      <g id="Group_3252" data-name="Group 3252" transform="translate(-1711.43 -817.824)">
        <path id="Path_7520" data-name="Path 7520" d="M-1695.354-742.264a1.9,1.9,0,0,1-.3-.024l-12.363-1.99a1.852,1.852,0,0,1-1.558-1.829v-33.036a1.849,1.849,0,0,1,.651-1.41,1.85,1.85,0,0,1,1.5-.419l12.363,1.99a1.853,1.853,0,0,1,1.535,2.123,1.857,1.857,0,0,1-2.123,1.535l-10.215-1.644v29.284l10.8,1.739a1.853,1.853,0,0,1,1.535,2.123A1.854,1.854,0,0,1-1695.354-742.264Z" transform="translate(1709.571 780.995)" fill="#ffda7e"/>
      </g>
    </g>
  </g>
</svg>
